<svg width="27" height="26" viewBox="0 0 27 26" fill="none" xmlns="http://www.w3.org/2000/svg">
<g clip-path="url(#clip0)">
<path d="M15.8878 13.0007L26.5053 2.77653C27.1649 2.14185 27.1649 1.11206 26.5053 0.477389C25.8456 -0.157828 24.7773 -0.157828 24.1177 0.477389L13.5003 10.7016L2.8823 0.477389C2.22266 -0.157828 1.15438 -0.157828 0.494736 0.477389C-0.164912 1.11206 -0.164912 2.14185 0.494736 2.77653L11.1127 13.0007L0.494736 23.2249C-0.164912 23.8596 -0.164912 24.8893 0.494736 25.524C0.824561 25.8411 1.25682 25.9999 1.68852 25.9999C2.12022 25.9999 2.55248 25.8411 2.8823 25.5235L13.5003 15.2993L24.1177 25.5235C24.4475 25.8411 24.8798 25.9999 25.3115 25.9999C25.7432 25.9999 26.1754 25.8411 26.5053 25.5235C27.1649 24.8888 27.1649 23.859 26.5053 23.2243L15.8878 13.0007Z" fill="#78BBD4"/>
</g>
<defs>
<clipPath id="clip0">
<rect width="27" height="26" fill="white"/>
</clipPath>
</defs>
</svg>
