<svg width="815" height="164" viewBox="0 0 815 164" fill="none" xmlns="http://www.w3.org/2000/svg">
<path opacity="0.3" d="M6.95425 51.969L6.01789 51.6179L6.01489 51.6261L6.95425 51.969ZM22.2291 26.7322L21.4858 26.0633L21.4858 26.0633L22.2291 26.7322ZM46.5804 8.80087L46.1499 7.89827L46.5804 8.80087ZM116.756 11.4574L116.238 12.3127L116.244 12.3159L116.756 11.4574ZM140.443 36.2514L141.011 37.075L141.731 36.5789L141.335 35.799L140.443 36.2514ZM116.978 52.4117L116.071 52.8346L116.571 53.9058L117.545 53.2353L116.978 52.4117ZM109.451 41.343L108.727 42.0327L108.735 42.0415L108.744 42.0501L109.451 41.343ZM99.9318 34.0376L99.4692 34.9242L99.4692 34.9242L99.9318 34.0376ZM89.3058 30.2742L89.0724 31.2466L89.0909 31.2511L89.1096 31.2548L89.3058 30.2742ZM58.3133 33.5949L57.8391 32.7143L57.8296 32.7196L58.3133 33.5949ZM44.1453 45.7705L43.3509 45.163L43.3482 45.1666L44.1453 45.7705ZM35.733 62.595L36.6883 62.8907L36.6902 62.8844L35.733 62.595ZM36.1758 101.336L35.2292 101.658L35.2316 101.665L36.1758 101.336ZM45.4735 118.16L44.6995 118.793L44.7052 118.8L44.711 118.807L45.4735 118.16ZM60.0842 129.893L59.6185 130.778L59.6279 130.783L60.0842 129.893ZM89.9699 132.992L89.745 132.018L89.745 132.018L89.9699 132.992ZM100.817 128.786L100.341 127.907L100.333 127.911L100.325 127.916L100.817 128.786ZM110.558 121.481L111.265 122.188L111.273 122.179L111.282 122.17L110.558 121.481ZM117.642 110.412L118.14 109.545L117.153 108.977L116.718 110.03L117.642 110.412ZM142.657 124.801L143.577 125.193L143.924 124.377L143.156 123.935L142.657 124.801ZM131.81 140.519L132.505 141.238L132.506 141.237L131.81 140.519ZM116.092 151.809L115.627 150.924L115.618 150.929L116.092 151.809ZM97.4966 158.893L97.7341 159.865L97.7341 159.865L97.4966 158.893ZM47.2445 154.244L46.7916 155.136L47.2445 154.244ZM23.1146 135.87L22.3585 136.525L22.3652 136.532L22.3721 136.54L23.1146 135.87ZM7.397 109.969L6.46184 110.323L6.4651 110.332L6.46852 110.341L7.397 109.969ZM2.86263 80.305C2.86263 70.8328 4.53801 61.5033 7.89361 52.3119L6.01489 51.6261C2.58165 61.0301 0.862625 70.5914 0.862625 80.305H2.86263ZM7.89058 52.3201C11.3894 42.9899 16.4162 34.6859 22.9724 27.4012L21.4858 26.0633C14.7596 33.5369 9.6031 42.0574 6.01792 51.6179L7.89058 52.3201ZM22.9724 27.4012C29.5197 20.1265 37.5281 14.226 47.0109 9.70347L46.1499 7.89827C36.4468 12.5259 28.2211 18.5797 21.4858 26.0633L22.9724 27.4012ZM47.0109 9.70347C56.4502 5.20161 67.2207 2.93824 79.3439 2.93824V0.93824C66.9682 0.93824 55.8963 3.24996 46.1499 7.89827L47.0109 9.70347ZM79.3439 2.93824C93.6577 2.93824 105.942 6.07716 116.238 12.3127L117.274 10.602C106.613 4.14541 93.9564 0.93824 79.3439 0.93824V2.93824ZM116.244 12.3159C126.721 18.5736 134.479 26.7031 139.552 36.7037L141.335 35.799C136.077 25.4331 128.043 17.0333 117.269 10.5988L116.244 12.3159ZM139.876 35.4278L116.41 51.5882L117.545 53.2353L141.011 37.075L139.876 35.4278ZM117.884 51.9889C115.777 47.4734 113.205 43.6827 110.158 40.6359L108.744 42.0501C111.6 44.9066 114.046 48.4951 116.071 52.8346L117.884 51.9889ZM110.175 40.6533C107.156 37.4838 103.897 34.9785 100.394 33.151L99.4692 34.9242C102.755 36.6388 105.842 39.0037 108.727 42.0327L110.175 40.6533ZM100.394 33.151C96.9175 31.337 93.2859 30.0505 89.5019 29.2937L89.1096 31.2548C92.7048 31.9739 96.1572 33.1962 99.4692 34.9242L100.394 33.151ZM89.5391 29.3019C85.7785 28.3993 82.0844 27.946 78.4584 27.946V29.946C81.9164 29.946 85.4538 30.3782 89.0724 31.2466L89.5391 29.3019ZM78.4584 27.946C70.6474 27.946 63.7641 29.5241 57.8392 32.7144L58.7874 34.4753C64.374 31.4672 70.9207 29.946 78.4584 29.946V27.946ZM57.8296 32.7196C52.1022 35.8847 47.2732 40.0338 43.3509 45.163L44.9396 46.3779C48.6916 41.4715 53.3079 37.5035 58.7969 34.4701L57.8296 32.7196ZM43.3482 45.1666C39.5811 50.1391 36.7258 55.8557 34.7758 62.3056L36.6902 62.8844C38.5774 56.6421 41.3302 51.1424 44.9423 46.3744L43.3482 45.1666ZM34.7777 62.2993C32.8309 68.5891 31.8551 74.8871 31.8551 81.1905H33.8551C33.8551 75.0969 34.798 68.9979 36.6883 62.8907L34.7777 62.2993ZM31.8551 81.1905C31.8551 88.2354 32.9797 95.0596 35.2292 101.658L37.1223 101.013C34.9443 94.6243 33.8551 88.0184 33.8551 81.1905H31.8551ZM35.2316 101.665C37.4812 108.114 40.6358 113.827 44.6995 118.793L46.2475 117.527C42.3417 112.753 39.2978 107.249 37.12 101.006L35.2316 101.665ZM44.711 118.807C48.9254 123.774 53.8962 127.766 59.6185 130.778L60.55 129.008C55.056 126.116 50.2862 122.287 46.236 117.513L44.711 118.807ZM59.6279 130.783C65.5319 133.811 71.9617 135.32 78.9011 135.32L78.9011 133.32C72.2629 133.32 66.1481 131.879 60.5406 129.003L59.6279 130.783ZM78.9011 135.32C82.5267 135.32 86.2919 134.867 90.1947 133.967L89.745 132.018C85.9735 132.888 82.3596 133.32 78.9011 133.32L78.9011 135.32ZM90.1947 133.967C94.1245 133.06 97.8304 131.623 101.309 129.657L100.325 127.916C97.0152 129.786 93.4895 131.154 89.745 132.018L90.1947 133.967ZM101.294 129.665C104.923 127.699 108.247 125.205 111.265 122.188L109.851 120.774C106.965 123.66 103.795 126.036 100.341 127.907L101.294 129.665ZM111.282 122.17C114.325 118.975 116.752 115.179 118.566 110.794L116.718 110.03C114.99 114.205 112.694 117.788 109.834 120.791L111.282 122.17ZM117.143 111.279L142.159 125.668L143.156 123.935L118.14 109.545L117.143 111.279ZM141.737 124.41C139.281 130.188 135.743 135.316 131.114 139.801L132.506 141.237C137.322 136.572 141.015 131.222 143.577 125.193L141.737 124.41ZM131.114 139.8C126.611 144.159 121.45 147.867 115.627 150.924L116.557 152.695C122.541 149.553 127.858 145.734 132.505 141.238L131.114 139.8ZM115.618 150.929C109.94 153.986 103.822 156.318 97.2592 157.922L97.7341 159.865C104.454 158.222 110.732 155.831 116.566 152.69L115.618 150.929ZM97.2592 157.922C90.6897 159.528 84.2758 160.328 78.0156 160.328V162.328C84.4476 162.328 91.0211 161.505 97.7341 159.865L97.2592 157.922ZM78.0156 160.328C66.9445 160.328 56.8443 157.999 47.6974 153.353L46.7916 155.136C56.2402 159.935 66.6541 162.328 78.0156 162.328V160.328ZM47.6974 153.353C38.5058 148.684 30.5615 142.633 23.8572 135.2L22.3721 136.54C29.2454 144.16 37.3877 150.359 46.7916 155.136L47.6974 153.353ZM23.8708 135.216C17.3036 127.627 12.1221 119.089 8.32548 109.598L6.46852 110.341C10.3462 120.035 15.6431 128.765 22.3585 136.525L23.8708 135.216ZM8.33216 109.615C4.6838 99.9833 2.86263 90.2151 2.86263 80.305H0.862625C0.862625 90.4663 2.73104 100.474 6.46184 110.323L8.33216 109.615ZM188.381 157.343L187.985 158.262L188.381 157.343ZM169.122 144.282L168.386 144.96L168.396 144.97L168.405 144.98L169.122 144.282ZM157.168 125.023L158.1 124.661L157.168 125.023ZM157.168 79.1981L158.1 79.5597L158.1 79.5597L157.168 79.1981ZM169.122 60.1599L168.396 59.4721L168.395 59.4727L169.122 60.1599ZM239.076 46.8774L238.674 47.7927L238.68 47.7956L239.076 46.8774ZM258.115 60.1599L257.379 60.8373L257.388 60.8474L257.398 60.8572L258.115 60.1599ZM270.29 79.1981L269.358 79.5597L269.358 79.5597L270.29 79.1981ZM270.29 125.023L271.223 125.384L271.223 125.384L270.29 125.023ZM258.336 144.282L259.062 144.97L259.071 144.96L258.336 144.282ZM239.298 157.343L239.694 158.262L239.298 157.343ZM185.725 116.389L184.78 116.715L184.786 116.735L184.794 116.755L185.725 116.389ZM192.145 127.236L191.386 127.887L191.394 127.897L191.403 127.907L192.145 127.236ZM201.885 134.542L201.453 135.443L201.467 135.451L201.483 135.457L201.885 134.542ZM225.794 134.542L226.197 135.457L226.212 135.451L226.227 135.443L225.794 134.542ZM235.313 127.236L234.571 126.566L234.562 126.576L234.554 126.586L235.313 127.236ZM241.733 116.168L240.798 115.813L240.792 115.827L240.787 115.842L241.733 116.168ZM241.733 88.0531L240.787 88.3791L240.792 88.3935L240.798 88.4078L241.733 88.0531ZM235.313 76.9844L234.554 77.6352L234.562 77.6453L234.571 77.6553L235.313 76.9844ZM225.794 69.9004L225.361 70.8019L225.376 70.809L225.391 70.8157L225.794 69.9004ZM201.885 69.9004L202.318 70.8019L202.318 70.8019L201.885 69.9004ZM192.145 77.2057L191.403 76.5348L191.394 76.5448L191.386 76.555L192.145 77.2057ZM185.725 88.2745L184.79 87.9198L184.785 87.9341L184.78 87.9485L185.725 88.2745ZM213.84 161.214C204.51 161.214 196.162 159.611 188.778 156.425L187.985 158.262C195.655 161.57 204.279 163.214 213.84 163.214V161.214ZM188.778 156.425C181.362 153.226 175.053 148.945 169.839 143.585L168.405 144.98C173.816 150.541 180.348 154.967 187.985 158.262L188.778 156.425ZM169.857 143.605C164.778 138.09 160.86 131.778 158.1 124.661L156.235 125.384C159.084 132.731 163.135 139.258 168.386 144.96L169.857 143.605ZM158.1 124.661C155.342 117.548 153.961 110.07 153.961 102.221H151.961C151.961 110.311 153.385 118.034 156.235 125.384L158.1 124.661ZM153.961 102.221C153.961 94.2219 155.343 86.6706 158.1 79.5597L156.235 78.8366C153.384 86.1888 151.961 93.9862 151.961 102.221H153.961ZM158.1 79.5597C160.859 72.445 164.775 66.2104 169.848 60.8471L168.395 59.4727C163.138 65.0305 159.085 71.4881 156.235 78.8366L158.1 79.5597ZM169.848 60.8476C175.062 55.3438 181.367 50.9921 188.778 47.7956L187.985 45.9592C180.342 49.2563 173.808 53.7597 168.396 59.4721L169.848 60.8476ZM188.778 47.7956C196.162 44.6103 204.51 43.0071 213.84 43.0071V41.0071C204.279 41.0071 195.655 42.6508 187.985 45.9592L188.778 47.7956ZM213.84 43.0071C223.17 43.0071 231.441 44.6104 238.674 47.7927L239.479 45.9621C231.953 42.6506 223.4 41.0071 213.84 41.0071V43.0071ZM238.68 47.7956C246.088 50.9911 252.316 55.3399 257.379 60.8373L258.85 59.4824C253.583 53.7635 247.118 49.2573 239.472 45.9592L238.68 47.7956ZM257.398 60.8572C262.615 66.2197 266.601 72.451 269.358 79.5597L271.223 78.8366C268.371 71.482 264.24 65.0212 258.831 59.4625L257.398 60.8572ZM269.358 79.5597C272.115 86.6706 273.496 94.2219 273.496 102.221H275.496C275.496 93.9862 274.073 86.1888 271.223 78.8366L269.358 79.5597ZM273.496 102.221C273.496 110.07 272.116 117.548 269.358 124.661L271.223 125.384C274.073 118.034 275.496 110.311 275.496 102.221H273.496ZM269.358 124.661C266.598 131.778 262.68 138.09 257.6 143.605L259.071 144.96C264.323 139.258 268.374 132.731 271.223 125.384L269.358 124.661ZM257.609 143.595C252.546 148.949 246.315 153.227 238.902 156.425L239.694 158.262C247.334 154.966 253.796 150.537 259.062 144.97L257.609 143.595ZM238.902 156.425C231.518 159.611 223.169 161.214 213.84 161.214V163.214C223.401 163.214 232.024 161.57 239.694 158.262L238.902 156.425ZM182.511 102.221C182.511 107.482 183.263 112.317 184.78 116.715L186.67 116.063C185.235 111.902 184.511 107.291 184.511 102.221H182.511ZM184.794 116.755C186.455 120.982 188.65 124.696 191.386 127.887L192.904 126.586C190.326 123.578 188.242 120.061 186.656 116.023L184.794 116.755ZM191.403 127.907C194.292 131.101 197.644 133.615 201.453 135.443L202.318 133.64C198.748 131.927 195.605 129.571 192.886 126.566L191.403 127.907ZM201.483 135.457C205.307 137.14 209.43 137.977 213.84 137.977V135.977C209.69 135.977 205.843 135.191 202.288 133.627L201.483 135.457ZM213.84 137.977C218.249 137.977 222.372 137.14 226.197 135.457L225.391 133.627C221.836 135.191 217.99 135.977 213.84 135.977V137.977ZM226.227 135.443C230.041 133.613 233.325 131.092 236.072 127.887L234.554 126.586C231.988 129.579 228.926 131.929 225.361 133.64L226.227 135.443ZM236.054 127.907C238.956 124.7 241.162 120.89 242.678 116.494L240.787 115.842C239.352 120.005 237.278 123.574 234.571 126.566L236.054 127.907ZM242.668 116.522C244.339 112.116 245.168 107.271 245.168 102H243.168C243.168 107.059 242.373 111.66 240.798 115.813L242.668 116.522ZM245.168 102C245.168 96.8724 244.338 92.1021 242.668 87.6985L240.798 88.4078C242.374 92.564 243.168 97.0914 243.168 102H245.168ZM242.678 87.7271C241.162 83.3304 238.956 79.5208 236.054 76.3135L234.571 77.6553C237.278 80.6464 239.352 84.216 240.787 88.3791L242.678 87.7271ZM236.072 76.3336C233.319 73.122 230.025 70.6696 226.197 68.9851L225.391 70.8157C228.942 72.378 231.993 74.6482 234.554 77.6352L236.072 76.3336ZM226.227 68.9989C222.396 67.16 218.262 66.2439 213.84 66.2439V68.2439C217.977 68.2439 221.813 69.0987 225.361 70.8019L226.227 68.9989ZM213.84 66.2439C209.417 66.2439 205.283 67.16 201.453 68.9989L202.318 70.8019C205.866 69.0987 209.702 68.2439 213.84 68.2439V66.2439ZM201.453 68.9989C197.644 70.8272 194.292 73.3415 191.403 76.5348L192.886 77.8767C195.605 74.8715 198.748 72.5156 202.318 70.8019L201.453 68.9989ZM191.386 76.555C188.645 79.752 186.449 83.5448 184.79 87.9198L186.66 88.6292C188.247 84.4443 190.331 80.858 192.904 77.8565L191.386 76.555ZM184.78 87.9485C183.264 92.344 182.511 97.1043 182.511 102.221H184.511C184.511 97.3023 185.234 92.7648 186.67 88.6005L184.78 87.9485ZM402.328 160V161H403.328V160H402.328ZM372.664 160H371.664V161H372.664V160ZM367.794 74.5492L366.997 75.1536L366.997 75.1536L367.794 74.5492ZM345.214 69.9004L345.57 70.8349L345.57 70.8349L345.214 69.9004ZM336.359 74.992L336.972 75.7814L336.978 75.7769L336.359 74.992ZM329.053 82.5187L328.253 81.9187L328.253 81.9187L329.053 82.5187ZM324.183 92.2592L323.223 91.9792L323.183 92.1164V92.2592H324.183ZM324.183 160V161H325.183V160H324.183ZM294.519 160H293.519V161H294.519V160ZM294.519 43.9995V42.9995H293.519V43.9995H294.519ZM321.305 43.9995H322.305V42.9995H321.305V43.9995ZM321.305 65.4729H320.305V69.1902L322.17 65.9746L321.305 65.4729ZM339.901 48.2056L340.354 49.0968L340.354 49.0968L339.901 48.2056ZM385.061 45.9919L385.563 45.1271L385.563 45.1271L385.061 45.9919ZM395.687 56.3965L394.824 56.9022L394.824 56.9022L395.687 56.3965ZM400.779 71.0072L399.792 71.1673L399.794 71.1803L399.796 71.1931L400.779 71.0072ZM402.328 159H372.664V161H402.328V159ZM373.664 160V94.9158H371.664V160H373.664ZM373.664 94.9158C373.664 85.5427 372.035 78.4857 368.59 73.9449L366.997 75.1536C370.046 79.1726 371.664 85.6933 371.664 94.9158H373.664ZM368.59 73.9449C365.139 69.3958 360.333 67.1294 354.29 67.1294V69.1294C359.759 69.1294 363.954 71.1429 366.997 75.1536L368.59 73.9449ZM354.29 67.1294C351.202 67.1294 348.057 67.7472 344.858 68.9659L345.57 70.8349C348.569 69.6922 351.474 69.1294 354.29 69.1294V67.1294ZM344.858 68.9659C341.656 70.1854 338.617 71.9352 335.739 74.2071L336.978 75.7769C339.709 73.6213 342.572 71.9767 345.57 70.8349L344.858 68.9659ZM335.745 74.2026C333.012 76.3283 330.515 78.9027 328.253 81.9187L329.853 83.1187C332.019 80.2314 334.393 77.788 336.972 75.7814L335.745 74.2026ZM328.253 81.9187C325.967 84.9666 324.29 88.3218 323.223 91.9792L325.143 92.5392C326.142 89.1127 327.712 85.9742 329.853 83.1187L328.253 81.9187ZM323.183 92.2592V160H325.183V92.2592H323.183ZM324.183 159H294.519V161H324.183V159ZM295.519 160V43.9995H293.519V160H295.519ZM294.519 44.9995H321.305V42.9995H294.519V44.9995ZM320.305 43.9995V65.4729H322.305V43.9995H320.305ZM322.17 65.9746C326.347 58.7736 332.397 53.1479 340.354 49.0968L339.447 47.3145C331.17 51.528 324.823 57.4138 320.44 64.9712L322.17 65.9746ZM340.354 49.0968C348.315 45.0441 357.307 43.0071 367.351 43.0071V41.0071C357.029 41.0071 347.72 43.1025 339.447 47.3145L340.354 49.0968ZM367.351 43.0071C374.468 43.0071 380.182 44.3154 384.559 46.8567L385.563 45.1271C380.79 42.3553 374.697 41.0071 367.351 41.0071V43.0071ZM384.559 46.8567C388.995 49.4325 392.408 52.781 394.824 56.9022L396.55 55.8908C393.948 51.4522 390.277 47.8642 385.563 45.1271L384.559 46.8567ZM394.824 56.9022C397.264 61.064 398.924 65.8147 399.792 71.1673L401.766 70.8472C400.863 65.2787 399.128 60.2888 396.55 55.8908L394.824 56.9022ZM399.796 71.1931C400.817 76.5919 401.328 82.064 401.328 87.6104H403.328C403.328 81.9404 402.806 76.3438 401.761 70.8214L399.796 71.1931ZM401.328 87.6104V160H403.328V87.6104H401.328ZM496.553 154.023L496.959 154.937L497.73 154.594L497.522 153.776L496.553 154.023ZM481.942 159.336L481.648 158.38L481.942 159.336ZM452.056 160.443L451.776 161.403L451.787 161.406L452.056 160.443ZM442.537 155.572L441.873 156.32L441.895 156.339L441.918 156.357L442.537 155.572ZM436.117 146.717L435.202 147.12L435.205 147.127L435.208 147.134L436.117 146.717ZM433.682 66.8011H434.682V65.8011H433.682V66.8011ZM418.407 66.8011H417.407V67.8011H418.407V66.8011ZM418.407 43.9995V42.9995H417.407V43.9995H418.407ZM433.682 43.9995V44.9995H434.682V43.9995H433.682ZM433.682 6.36575V5.36575H432.682V6.36575H433.682ZM463.346 6.36575H464.346V5.36575H463.346V6.36575ZM463.346 43.9995H462.346V44.9995H463.346V43.9995ZM487.698 43.9995H488.698V42.9995H487.698V43.9995ZM487.698 66.8011V67.8011H488.698V66.8011H487.698ZM463.346 66.8011V65.8011H462.346V66.8011H463.346ZM466.446 132.328L465.795 133.087L465.824 133.112L465.854 133.135L466.446 132.328ZM483.492 133.214L483.161 132.27L483.492 133.214ZM490.576 130.557L491.545 130.31L491.259 129.189L490.191 129.634L490.576 130.557ZM496.147 153.109C492.209 154.859 487.379 156.617 481.648 158.38L482.236 160.292C488.017 158.513 492.927 156.729 496.959 154.937L496.147 153.109ZM481.648 158.38C475.992 160.12 470.041 160.992 463.789 160.992V162.992C470.23 162.992 476.38 162.094 482.236 160.292L481.648 158.38ZM463.789 160.992C459.741 160.992 455.921 160.486 452.326 159.48L451.787 161.406C455.571 162.465 459.573 162.992 463.789 162.992V160.992ZM452.336 159.483C448.914 158.484 445.857 156.919 443.157 154.788L441.918 156.357C444.826 158.653 448.115 160.335 451.776 161.403L452.336 159.483ZM443.202 154.825C440.658 152.564 438.598 149.729 437.026 146.301L435.208 147.134C436.884 150.79 439.103 153.858 441.873 156.32L443.202 154.825ZM437.033 146.315C435.478 142.782 434.682 138.499 434.682 133.435H432.682C432.682 138.702 433.509 143.273 435.202 147.12L437.033 146.315ZM434.682 133.435V66.8011H432.682V133.435H434.682ZM433.682 65.8011H418.407V67.8011H433.682V65.8011ZM419.407 66.8011V43.9995H417.407V66.8011H419.407ZM418.407 44.9995H433.682V42.9995H418.407V44.9995ZM434.682 43.9995V6.36575L432.682 6.36575V43.9995H434.682ZM433.682 7.36575L463.346 7.36575V5.36575L433.682 5.36575V7.36575ZM462.346 6.36575V43.9995H464.346V6.36575H462.346ZM463.346 44.9995H487.698V42.9995H463.346V44.9995ZM486.698 43.9995V66.8011H488.698V43.9995H486.698ZM487.698 65.8011L463.346 65.8011V67.8011L487.698 67.8011V65.8011ZM462.346 66.8011V123.473H464.346V66.8011H462.346ZM462.346 123.473C462.346 127.745 463.413 131.046 465.795 133.087L467.097 131.569C465.346 130.069 464.346 127.466 464.346 123.473H462.346ZM465.854 133.135C468.261 134.9 471.132 135.763 474.415 135.763V133.763C471.5 133.763 469.058 133.003 467.037 131.522L465.854 133.135ZM474.415 135.763C477.628 135.763 480.765 135.227 483.822 134.157L483.161 132.27C480.315 133.266 477.401 133.763 474.415 133.763V135.763ZM483.822 134.157C486.782 133.121 489.164 132.229 490.96 131.48L490.191 129.634C488.445 130.361 486.104 131.24 483.161 132.27L483.822 134.157ZM489.607 130.804L495.584 154.27L497.522 153.776L491.545 130.31L489.607 130.804ZM527.941 159.557L527.575 160.488L527.587 160.493L527.6 160.497L527.941 159.557ZM515.323 151.809L514.631 152.531L514.639 152.539L514.647 152.546L515.323 151.809ZM506.911 140.076L505.993 140.474L505.999 140.487L506.004 140.499L506.911 140.076ZM507.575 110.412L506.692 109.943L506.686 109.953L507.575 110.412ZM517.758 98.4577L517.167 97.6513L517.16 97.6561L517.154 97.6611L517.758 98.4577ZM533.476 90.931L533.757 91.8907L533.767 91.8876L533.778 91.8842L533.476 90.931ZM568.453 89.3814L568.274 90.3653L568.279 90.3662L568.453 89.3814ZM581.735 93.1447L581.346 94.0657L582.735 94.6536V93.1447H581.735ZM575.094 68.7935L574.4 69.5129L574.406 69.5188L574.412 69.5245L575.094 68.7935ZM537.682 65.9156L538.033 66.852L538.033 66.852L537.682 65.9156ZM519.529 75.6561L518.628 76.0906L519.136 77.1428L520.097 76.479L519.529 75.6561ZM510.453 56.8392L509.9 56.0059L509.173 56.4881L509.552 57.2737L510.453 56.8392ZM597.453 54.4041L596.783 55.1462L596.789 55.1519L596.795 55.1574L597.453 54.4041ZM612.949 132.549L612.16 133.163L612.18 133.189L612.202 133.214L612.949 132.549ZM618.484 134.763H619.484V133.82L618.542 133.765L618.484 134.763ZM618.484 160L618.685 160.979L619.484 160.815V160H618.484ZM592.361 157.786L591.714 158.548L591.723 158.556L591.732 158.563L592.361 157.786ZM586.827 147.824L585.832 147.927L585.836 147.964L585.843 148L586.827 147.824ZM586.163 141.404L587.158 141.302L586.898 138.788L585.367 140.799L586.163 141.404ZM567.346 156.901L567.779 157.802L567.346 156.901ZM566.239 137.862L565.878 136.93L565.868 136.934L566.239 137.862ZM576.865 130.779L576.254 129.987L576.171 130.051L576.103 130.131L576.865 130.779ZM581.735 109.084H582.735V108.391L582.087 108.147L581.735 109.084ZM570.224 105.984L570.014 106.962L570.031 106.966L570.048 106.969L570.224 105.984ZM539.453 109.969L540.025 110.79L540.033 110.784L540.041 110.778L539.453 109.969ZM537.903 135.649L537.241 136.398L537.249 136.405L537.257 136.412L537.903 135.649ZM543.659 161.214C538.158 161.214 533.035 160.345 528.283 158.617L527.6 160.497C532.588 162.311 537.944 163.214 543.659 163.214V161.214ZM528.308 158.627C523.541 156.749 519.443 154.229 515.999 151.072L514.647 152.546C518.287 155.883 522.601 158.528 527.575 160.488L528.308 158.627ZM516.015 151.087C512.562 147.778 509.83 143.968 507.817 139.653L506.004 140.499C508.123 145.039 511 149.051 514.631 152.531L516.015 151.087ZM507.828 139.679C505.969 135.389 505.033 130.656 505.033 125.465H503.033C503.033 130.901 504.015 135.909 505.993 140.474L507.828 139.679ZM505.033 125.465C505.033 120.155 506.18 115.295 508.463 110.871L506.686 109.953C504.247 114.679 503.033 119.855 503.033 125.465H505.033ZM508.458 110.881C510.898 106.287 514.198 102.414 518.362 99.2544L517.154 97.6611C512.759 100.995 509.269 105.091 506.692 109.943L508.458 110.881ZM518.349 99.2641C522.67 96.0955 527.801 93.6338 533.757 91.8907L533.195 89.9713C527.049 91.7702 521.701 94.3264 517.167 97.6513L518.349 99.2641ZM533.778 91.8842C539.719 90.0006 546.256 89.0531 553.399 89.0531V87.0531C546.079 87.0531 539.335 88.0242 533.173 89.9778L533.778 91.8842ZM553.399 89.0531C558.507 89.0531 563.465 89.4909 568.274 90.3652L568.632 88.3975C563.7 87.5008 558.622 87.0531 553.399 87.0531V89.0531ZM568.279 90.3662C573.239 91.2414 577.591 92.4773 581.346 94.0657L582.125 92.2238C578.205 90.5654 573.703 89.2924 568.627 88.3966L568.279 90.3662ZM582.735 93.1447V86.5035H580.735V93.1447H582.735ZM582.735 86.5035C582.735 78.6307 580.458 72.4316 575.776 68.0624L574.412 69.5245C578.586 73.42 580.735 79.0276 580.735 86.5035H582.735ZM575.789 68.0741C571.254 63.6959 564.54 61.595 555.835 61.595V63.595C564.249 63.595 570.374 65.6265 574.4 69.5129L575.789 68.0741ZM555.835 61.595C549.514 61.595 543.344 62.7242 537.331 64.9793L538.033 66.852C543.826 64.6796 549.758 63.595 555.835 63.595V61.595ZM537.331 64.9793C531.337 67.2267 525.214 70.5155 518.961 74.8332L520.097 76.479C526.241 72.2369 532.219 69.032 538.033 66.852L537.331 64.9793ZM520.43 75.2217L511.353 56.4048L509.552 57.2737L518.628 76.0906L520.43 75.2217ZM511.005 57.6726C525.754 47.889 541.649 43.0071 558.712 43.0071V41.0071C541.241 41.0071 524.963 46.0133 509.9 56.0059L511.005 57.6726ZM558.712 43.0071C575.23 43.0071 587.873 47.0985 596.783 55.1462L598.123 53.662C588.733 45.1804 575.549 41.0071 558.712 41.0071V43.0071ZM596.795 55.1574C605.822 63.0379 610.4 74.5371 610.4 89.8241H612.4C612.4 74.1187 607.679 62.0045 598.111 53.6508L596.795 55.1574ZM610.4 89.8241V125.908H612.4V89.8241H610.4ZM610.4 125.908C610.4 129.066 610.916 131.564 612.16 133.163L613.739 131.936C612.917 130.879 612.4 128.949 612.4 125.908H610.4ZM612.202 133.214C613.621 134.81 615.762 135.605 618.425 135.762L618.542 133.765C616.187 133.626 614.639 132.945 613.697 131.885L612.202 133.214ZM617.484 134.763V160H619.484V134.763H617.484ZM618.282 159.021C613.307 160.045 609.024 160.55 605.423 160.55V162.55C609.2 162.55 613.625 162.021 618.685 160.979L618.282 159.021ZM605.423 160.55C599.952 160.55 595.852 159.325 592.991 157.009L591.732 158.563C595.07 161.265 599.677 162.55 605.423 162.55V160.55ZM593.009 157.024C590.25 154.679 588.512 151.573 587.811 147.649L585.843 148C586.618 152.341 588.57 155.876 591.714 158.548L593.009 157.024ZM587.822 147.721L587.158 141.302L585.168 141.507L585.832 147.927L587.822 147.721ZM585.367 140.799C580.293 147.467 574.144 152.529 566.913 155.999L567.779 157.802C575.307 154.189 581.702 148.919 586.959 142.01L585.367 140.799ZM566.913 155.999C559.673 159.475 551.926 161.214 543.659 161.214V163.214C552.217 163.214 560.261 161.411 567.779 157.802L566.913 155.999ZM552.071 141.519C557.209 141.519 562.059 140.612 566.611 138.791L565.868 136.934C561.565 138.655 556.969 139.519 552.071 139.519V141.519ZM566.6 138.795C571.29 136.98 574.985 134.534 577.627 131.426L576.103 130.131C573.727 132.926 570.338 135.203 565.878 136.93L566.6 138.795ZM577.477 131.57C580.883 128.938 582.735 125.87 582.735 122.366H580.735C580.735 125.061 579.341 127.601 576.254 129.987L577.477 131.57ZM582.735 122.366V109.084H580.735V122.366H582.735ZM582.087 108.147C578.482 106.796 574.585 105.748 570.4 105L570.048 106.969C574.127 107.697 577.905 108.715 581.384 110.02L582.087 108.147ZM570.433 105.007C566.239 104.108 562.184 103.656 558.27 103.656V105.656C562.03 105.656 565.944 106.09 570.014 106.962L570.433 105.007ZM558.27 103.656C550.442 103.656 543.948 105.464 538.865 109.161L540.041 110.778C544.699 107.391 550.748 105.656 558.27 105.656V103.656ZM538.881 109.149C533.779 112.705 531.147 117.348 531.147 123.03H533.147C533.147 118.087 535.386 114.023 540.025 110.79L538.881 109.149ZM531.147 123.03C531.147 128.341 533.194 132.818 537.241 136.398L538.566 134.9C534.938 131.691 533.147 127.755 533.147 123.03H531.147ZM537.257 136.412C541.296 139.83 546.256 141.519 552.071 141.519V139.519C546.67 139.519 542.185 137.962 538.549 134.885L537.257 136.412ZM636.021 78.9767L635.088 78.6152L635.088 78.6152L636.021 78.9767ZM725.235 50.198L724.71 51.0492L724.716 51.053L725.235 50.198ZM745.38 71.6714L745.672 72.6278L746.803 72.2823L746.274 71.2242L745.38 71.6714ZM716.38 80.5264L715.517 81.0321L715.917 81.7134L716.672 81.4828L716.38 80.5264ZM706.418 70.7859L705.922 71.6541L705.934 71.6609L705.946 71.6673L706.418 70.7859ZM680.738 69.9004L681.141 70.8157L681.156 70.809L681.171 70.8019L680.738 69.9004ZM670.998 76.9844L670.256 76.3135L670.255 76.3154L670.998 76.9844ZM664.578 87.8317L663.643 87.4771L663.638 87.4913L663.633 87.5058L664.578 87.8317ZM664.799 116.168L663.864 116.522L663.864 116.522L664.799 116.168ZM671.219 127.236L670.46 127.887L670.469 127.897L670.478 127.907L671.219 127.236ZM680.96 134.542L680.527 135.443L680.542 135.451L680.557 135.457L680.96 134.542ZM707.303 132.992L706.801 132.127L706.795 132.131L706.789 132.135L707.303 132.992ZM716.823 123.252L717.115 122.295L716.28 122.041L715.915 122.833L716.823 123.252ZM745.823 132.107L746.735 132.517L747.201 131.482L746.115 131.15L745.823 132.107ZM726.12 153.801L725.598 152.949L725.598 152.949L726.12 153.801ZM667.677 157.343L667.281 158.262L667.677 157.343ZM648.418 144.282L647.692 144.97L647.701 144.98L648.418 144.282ZM636.021 125.023L635.086 125.378L635.09 125.389L635.095 125.401L636.021 125.023ZM632.815 102C632.815 94.0005 634.196 86.4492 636.953 79.3383L635.088 78.6152C632.238 85.9674 630.815 93.7648 630.815 102H632.815ZM636.953 79.3383C639.709 72.2297 643.695 65.9984 648.913 60.6359L647.48 59.2411C642.071 64.7998 637.94 71.2607 635.088 78.6152L636.953 79.3383ZM648.913 60.6359C654.128 55.2761 660.436 50.9945 667.852 47.7956L667.06 45.9592C659.422 49.2539 652.891 53.6797 647.48 59.2411L648.913 60.6359ZM667.852 47.7956C675.236 44.6103 683.584 43.0071 692.914 43.0071V41.0071C683.353 41.0071 674.729 42.6508 667.06 45.9592L667.852 47.7956ZM692.914 43.0071C705.462 43.0071 716.044 45.7053 724.71 51.0492L725.76 49.3468C716.715 43.7695 705.751 41.0071 692.914 41.0071V43.0071ZM724.716 51.053C733.568 56.4223 740.148 63.4431 744.486 72.1186L746.274 71.2242C741.757 62.1897 734.907 54.8949 725.753 49.343L724.716 51.053ZM745.088 70.715L716.088 79.57L716.672 81.4828L745.672 72.6278L745.088 70.715ZM717.243 80.0206C714.646 75.5916 711.194 72.2102 706.89 69.9044L705.946 71.6673C709.906 73.789 713.096 76.9013 715.517 81.0321L717.243 80.0206ZM706.914 69.9176C702.622 67.4652 697.875 66.2439 692.693 66.2439V68.2439C697.546 68.2439 701.949 69.3839 705.922 71.6541L706.914 69.9176ZM692.693 66.2439C688.27 66.2439 684.137 67.16 680.306 68.9989L681.171 70.8019C684.72 69.0987 688.556 68.2439 692.693 68.2439V66.2439ZM680.336 68.9851C676.512 70.6673 673.151 73.1137 670.256 76.3135L671.74 77.6553C674.453 74.6565 677.585 72.3803 681.141 70.8157L680.336 68.9851ZM670.255 76.3154C667.504 79.372 665.304 83.0989 663.643 87.4771L665.513 88.1864C667.099 84.0048 669.179 80.5001 671.741 77.6533L670.255 76.3154ZM663.633 87.5058C662.116 91.9042 661.364 96.7388 661.364 102H663.364C663.364 96.9299 664.088 92.3191 665.523 88.1577L663.633 87.5058ZM661.364 102C661.364 107.271 662.193 112.116 663.864 116.522L665.734 115.813C664.159 111.66 663.364 107.059 663.364 102H661.364ZM663.864 116.522C665.524 120.897 667.72 124.69 670.46 127.887L671.979 126.586C669.406 123.584 667.322 119.998 665.734 115.813L663.864 116.522ZM670.478 127.907C673.367 131.101 676.718 133.615 680.527 135.443L681.393 133.64C677.822 131.927 674.68 129.571 671.961 126.566L670.478 127.907ZM680.557 135.457C684.377 137.138 688.425 137.977 692.693 137.977V135.977C688.695 135.977 684.922 135.193 681.363 133.627L680.557 135.457ZM692.693 137.977C698.181 137.977 703.23 136.602 707.818 133.85L706.789 132.135C702.522 134.695 697.83 135.977 692.693 135.977V137.977ZM707.806 133.857C712.513 131.123 715.854 127.737 717.731 123.671L715.915 122.833C714.249 126.441 711.244 129.548 706.801 132.127L707.806 133.857ZM716.531 124.208L745.531 133.063L746.115 131.15L717.115 122.295L716.531 124.208ZM744.911 131.696C741.017 140.349 734.595 147.434 725.598 152.949L726.643 154.654C735.946 148.952 742.659 141.574 746.735 132.517L744.911 131.696ZM725.598 152.949C716.633 158.443 705.827 161.214 693.135 161.214V163.214C706.123 163.214 717.307 160.376 726.643 154.654L725.598 152.949ZM693.135 161.214C683.806 161.214 675.457 159.611 668.073 156.425L667.281 158.262C674.951 161.57 683.574 163.214 693.135 163.214V161.214ZM668.073 156.425C660.658 153.226 654.349 148.945 649.134 143.585L647.701 144.98C653.112 150.541 659.643 154.967 667.281 158.262L668.073 156.425ZM649.144 143.595C643.917 138.077 639.852 131.763 636.947 124.645L635.095 125.401C638.093 132.746 642.293 139.271 647.692 144.97L649.144 143.595ZM636.955 124.668C634.195 117.403 632.815 109.849 632.815 102H630.815C630.815 110.089 632.238 117.884 635.086 125.378L636.955 124.668ZM833.588 154.023L833.994 154.937L834.765 154.594L834.557 153.776L833.588 154.023ZM818.977 159.336L818.683 158.38L818.977 159.336ZM789.091 160.443L788.811 161.403L788.822 161.406L789.091 160.443ZM779.572 155.572L778.908 156.32L778.929 156.339L778.952 156.357L779.572 155.572ZM773.152 146.717L772.237 147.12L772.24 147.127L772.243 147.134L773.152 146.717ZM770.717 66.8011H771.717V65.8011H770.717V66.8011ZM755.442 66.8011H754.442V67.8011H755.442V66.8011ZM755.442 43.9995V42.9995H754.442V43.9995H755.442ZM770.717 43.9995V44.9995H771.717V43.9995H770.717ZM770.717 6.36575V5.36575H769.717V6.36575H770.717ZM800.381 6.36575H801.381V5.36575H800.381V6.36575ZM800.381 43.9995H799.381V44.9995H800.381V43.9995ZM824.733 43.9995H825.733V42.9995H824.733V43.9995ZM824.733 66.8011V67.8011H825.733V66.8011H824.733ZM800.381 66.8011V65.8011H799.381V66.8011H800.381ZM803.481 132.328L802.83 133.087L802.859 133.112L802.889 133.135L803.481 132.328ZM820.526 133.214L820.196 132.27L820.526 133.214ZM827.61 130.557L828.579 130.31L828.294 129.189L827.226 129.634L827.61 130.557ZM833.181 153.109C829.244 154.859 824.414 156.617 818.683 158.38L819.271 160.292C825.052 158.513 829.962 156.729 833.994 154.937L833.181 153.109ZM818.683 158.38C813.027 160.12 807.076 160.992 800.824 160.992V162.992C807.264 162.992 813.415 162.094 819.271 160.292L818.683 158.38ZM800.824 160.992C796.776 160.992 792.956 160.486 789.361 159.48L788.822 161.406C792.605 162.465 796.608 162.992 800.824 162.992V160.992ZM789.371 159.483C785.948 158.484 782.892 156.919 780.192 154.788L778.952 156.357C781.861 158.653 785.15 160.335 788.811 161.403L789.371 159.483ZM780.236 154.825C777.693 152.564 775.632 149.729 774.061 146.301L772.243 147.134C773.919 150.79 776.138 153.858 778.908 156.32L780.236 154.825ZM774.067 146.315C772.513 142.782 771.717 138.499 771.717 133.435H769.717C769.717 138.702 770.544 143.273 772.237 147.12L774.067 146.315ZM771.717 133.435V66.8011H769.717V133.435H771.717ZM770.717 65.8011H755.442V67.8011H770.717V65.8011ZM756.442 66.8011V43.9995H754.442V66.8011H756.442ZM755.442 44.9995L770.717 44.9995V42.9995L755.442 42.9995V44.9995ZM771.717 43.9995V6.36575L769.717 6.36575V43.9995H771.717ZM770.717 7.36575L800.381 7.36575V5.36575L770.717 5.36575V7.36575ZM799.381 6.36575V43.9995H801.381V6.36575H799.381ZM800.381 44.9995L824.733 44.9995V42.9995L800.381 42.9995V44.9995ZM823.733 43.9995V66.8011H825.733V43.9995H823.733ZM824.733 65.8011H800.381V67.8011H824.733V65.8011ZM799.381 66.8011V123.473H801.381V66.8011H799.381ZM799.381 123.473C799.381 127.745 800.448 131.046 802.83 133.087L804.131 131.569C802.381 130.069 801.381 127.466 801.381 123.473H799.381ZM802.889 133.135C805.296 134.9 808.167 135.763 811.45 135.763V133.763C808.535 133.763 806.092 133.003 804.072 131.522L802.889 133.135ZM811.45 135.763C814.663 135.763 817.8 135.227 820.857 134.157L820.196 132.27C817.35 133.266 814.436 133.763 811.45 133.763V135.763ZM820.857 134.157C823.817 133.121 826.199 132.229 827.995 131.48L827.226 129.634C825.48 130.361 823.139 131.24 820.196 132.27L820.857 134.157ZM826.641 130.804L832.618 154.27L834.557 153.776L828.579 130.31L826.641 130.804Z" fill="white"/>
</svg>
