<svg width="24" height="87" viewBox="0 0 24 87" fill="none" xmlns="http://www.w3.org/2000/svg">
<path d="M10.5964 24.353L10.6004 24.371L10.6004 3.1789L6.45641 7.27047C6.33781 7.38903 6.17716 7.45406 6.00854 7.45406C5.83992 7.45406 5.68038 7.38903 5.56151 7.27047L5.18417 6.89374C5.06557 6.77528 5 6.61742 5 6.44908C5 6.28064 5.06511 6.12269 5.1837 6.00423L11.053 0.183501C11.1721 0.0645684 11.3307 -0.000465641 11.4994 2.22288e-06C11.669 -0.000465655 11.8277 0.0645684 11.9466 0.183501L17.8163 6.00423C17.9348 6.12269 18 6.28055 18 6.44908C18 6.61742 17.9347 6.77528 17.8163 6.89374L17.439 7.27047C17.3206 7.38903 17.1624 7.45406 16.9938 7.45406C16.8253 7.45406 16.6755 7.38903 16.557 7.27047L12.3994 3.15158L12.3995 24.3616C12.3995 24.7085 12.1001 25 11.7531 25L11.2194 25C10.8723 25 10.5964 24.6999 10.5964 24.353Z" fill="white"/>
<path d="M16 79.2949L16 81.0527L12.3437 81.0527L12.3437 84.4805L16 84.4805L16 86.2383L7.46875 86.2383L7.46875 84.4805L10.9258 84.4805L10.9258 81.0527L7.46875 81.0527L7.46875 79.2949L16 79.2949ZM14.2422 71.632L14.2422 74.7141L16 75.3L16 77.1691L7.46875 73.9934L7.46875 72.3645L16 69.1711L16 71.0402L14.2422 71.632ZM12.8184 74.2395L12.8184 72.1066L9.625 73.1789L12.8184 74.2395ZM16 67.1742L7.46875 67.1742L7.46875 64.1859C7.46875 63.1508 7.66797 62.3656 8.06641 61.8305C8.46094 61.2953 9.04101 61.0277 9.80664 61.0277C10.2246 61.0277 10.5937 61.1352 10.9141 61.35C11.2305 61.5648 11.4629 61.8637 11.6113 62.2465C11.7207 61.809 11.9414 61.4652 12.2734 61.2152C12.6055 60.9613 13.0117 60.8344 13.4922 60.8344C14.3125 60.8344 14.9336 61.0961 15.3555 61.6195C15.7773 62.143 15.9922 62.8891 16 63.8578L16 67.1742ZM12.2852 65.4164L14.5879 65.4164L14.5879 63.9105C14.5879 63.4965 14.4902 63.1742 14.2949 62.9437C14.0957 62.7094 13.8223 62.5922 13.4746 62.5922C12.6934 62.5922 12.2969 62.9965 12.2852 63.8051L12.2852 65.4164ZM11.043 65.4164L11.043 64.1156C11.0273 63.2289 10.6738 62.7855 9.98242 62.7855C9.5957 62.7855 9.31836 62.8988 9.15039 63.1254C8.97851 63.348 8.89258 63.7016 8.89258 64.1859L8.89258 65.4164L11.043 65.4164ZM12.3027 53.1773L12.3027 56.5523L14.5879 56.5523L14.5879 52.5914L16 52.5914L16 58.3102L7.46875 58.3102L7.46875 52.6031L8.89258 52.6031L8.89258 56.5523L10.9258 56.5523L10.9258 53.1773L12.3027 53.1773ZM12.9941 48.6023L16 48.6023L16 50.3602L7.46875 50.3602L7.46875 47.032C7.46875 46.3914 7.58594 45.8289 7.82031 45.3445C8.05469 44.8563 8.38867 44.4813 8.82226 44.2195C9.25195 43.9578 9.74219 43.827 10.293 43.827C11.1289 43.827 11.7891 44.1141 12.2734 44.6883C12.7539 45.2586 12.9941 46.0496 12.9941 47.0613L12.9941 48.6023ZM11.5703 48.6023L11.5703 47.032C11.5703 46.5672 11.4609 46.2137 11.2422 45.9715C11.0234 45.7254 10.7109 45.6023 10.3047 45.6023C9.88672 45.6023 9.54883 45.7254 9.29101 45.9715C9.0332 46.2176 8.90039 46.5574 8.89258 46.991L8.89258 48.6023L11.5703 48.6023ZM10.4102 38.666L7.46875 37.0664L7.46875 35.0449L11.6992 37.5293L16 34.9805L16 37.0254L13.0117 38.666L16 40.3066L16 42.3516L11.6992 39.8027L7.46875 42.2871L7.46875 40.2656L10.4102 38.666Z" fill="white"/>
</svg>
