<svg width="70" height="70" viewBox="0 0 70 70" fill="none" xmlns="http://www.w3.org/2000/svg">
<path d="M34.9999 66.1057C34.0034 66.1057 33.0426 65.7446 32.2939 65.0888C29.466 62.6161 26.7397 60.2924 24.3343 58.2427L24.322 58.232C17.2698 52.2223 11.1799 47.0323 6.94274 41.9198C2.20619 36.2043 0 30.7852 0 24.8652C0 19.1134 1.97227 13.807 5.55312 9.92279C9.17669 5.99266 14.1488 3.82812 19.555 3.82812C23.5957 3.82812 27.2962 5.10559 30.5534 7.62474C32.1972 8.89633 33.6872 10.4526 34.9999 12.2678C36.3132 10.4526 37.8027 8.89633 39.447 7.62474C42.7042 5.10559 46.4047 3.82812 50.4454 3.82812C55.8511 3.82812 60.8237 5.99266 64.4473 9.92279C68.0281 13.807 69.9999 19.1134 69.9999 24.8652C69.9999 30.7852 67.7942 36.2043 63.0577 41.9193C58.8205 47.0323 52.7311 52.2218 45.68 58.231C43.2703 60.2839 40.5397 62.6113 37.7055 65.0899C36.9572 65.7446 35.9959 66.1057 34.9999 66.1057ZM19.555 7.92862C15.3077 7.92862 11.4058 9.62372 8.56734 12.702C5.68663 15.8268 4.09995 20.1463 4.09995 24.8652C4.09995 29.8442 5.95046 34.2972 10.0995 39.3034C14.1098 44.1425 20.0747 49.2257 26.9811 55.1115L26.9939 55.1222C29.4084 57.1799 32.1454 59.5127 34.9941 62.0036C37.8598 59.5079 40.6011 57.1714 43.0204 55.1105C49.9263 49.2246 55.8906 44.1425 59.9009 39.3034C64.0494 34.2972 65.8999 29.8442 65.8999 24.8652C65.8999 20.1463 64.3132 15.8268 61.4325 12.702C58.5946 9.62372 54.6922 7.92862 50.4454 7.92862C47.334 7.92862 44.4773 8.91769 41.9549 10.8681C39.7071 12.607 38.1413 14.8051 37.2232 16.3432C36.7511 17.1342 35.9201 17.6063 34.9999 17.6063C34.0798 17.6063 33.2488 17.1342 32.7767 16.3432C31.8591 14.8051 30.2933 12.607 28.0449 10.8681C25.5226 8.91769 22.6659 7.92862 19.555 7.92862Z" fill="white"/>
</svg>
