<svg width="77" height="52" viewBox="0 0 77 52" fill="none" xmlns="http://www.w3.org/2000/svg">
<path d="M77 13.3949C76.9982 12.2259 76.6544 11.0404 75.8942 10.0632L69.7931 2.25669C68.7712 0.959121 67.2163 0.298455 65.6625 0.295898C64.7378 0.295898 63.7962 0.532914 62.9642 1.05176L57.0153 4.75288C56.3897 5.15186 55.3171 5.42572 54.2811 5.41865C53.4762 5.42211 52.6984 5.26105 52.1848 5.00734L46.3593 2.18556C45.4196 1.73318 44.3722 1.54775 43.3188 1.54595C41.806 1.55301 40.274 1.92478 39.0429 2.77795L38.3631 3.25483C37.8198 2.98368 36.9895 2.57056 36.0489 2.10254C34.921 1.54955 33.5947 1.32653 32.255 1.32216C31.0448 1.32562 29.8349 1.51211 28.7726 1.96087L24.8047 3.65397C24.1589 3.934 23.1317 4.11687 22.1115 4.11236C21.0912 4.11672 20.0659 3.93385 19.4201 3.65397L15.4486 1.95997C14.7241 1.65107 13.9498 1.51903 13.1823 1.51812C12.2986 1.51903 11.4202 1.69318 10.6037 2.02389C9.78833 2.3564 9.03141 2.84728 8.42865 3.52087L1.19787 11.6188C0.396435 12.5138 -0.00164916 13.6408 5.13464e-06 14.7502C-0.00164916 16.0732 0.564421 17.4004 1.65626 18.3306L8.40128 24.0851L5.20157 27.4231C4.31952 28.3436 3.88038 29.5371 3.88038 30.7172C3.87873 31.9728 4.37743 33.2406 5.36519 34.1741L6.01428 34.7908C6.62592 35.3711 7.36087 35.7401 8.12997 35.937C7.74422 36.6465 7.53337 37.4245 7.53503 38.204C7.53337 39.4605 8.03207 40.7274 9.01803 41.6619L9.01637 41.661L9.66741 42.2805C10.5941 43.1589 11.7954 43.5964 12.979 43.5956C13.6152 43.5965 14.2521 43.4687 14.8506 43.2184C15.0607 44.0707 15.4946 44.8809 16.1771 45.5283L16.8281 46.1477C17.7548 47.0262 18.9542 47.4637 20.1397 47.4629C21.0664 47.4638 21.9973 47.1907 22.7988 46.6606C23.0332 47.4148 23.4349 48.1296 24.0464 48.7106L24.6975 49.33C25.6222 50.2084 26.8235 50.6459 28.0074 50.6452C29.2681 50.6461 30.5413 50.1508 31.4817 49.1691L34.3097 46.216L38.1517 49.7719C39.0713 50.6249 40.2518 51.0493 41.417 51.0467C42.6971 51.0494 43.9885 50.5366 44.9309 49.5278L45.5442 48.8707C46.0735 48.3021 46.4191 47.6291 46.6196 46.9266L48.1079 48.3003C49.0292 49.1498 50.2079 49.5724 51.3715 49.5715C52.6533 49.5724 53.9483 49.0596 54.8915 48.05L55.5014 47.3937C56.2056 46.6413 56.6021 45.7094 56.7245 44.7575C57.1173 44.8581 57.5154 44.9264 57.9169 44.9264C59.1987 44.9264 60.4901 44.4145 61.4343 43.4058L62.0459 42.7495C62.9007 41.8333 63.326 40.6583 63.3242 39.4999C63.3242 39.1403 63.2726 38.7825 63.1929 38.4289C64.2561 38.288 65.2868 37.8139 66.0707 36.9721L66.684 36.3151C67.5388 35.3989 67.9623 34.2239 67.9623 33.0645C67.9639 31.7889 67.4496 30.5017 66.4346 29.5639L65.2876 28.5044L75.6402 17.0581C76.5696 16.0277 76.9984 14.7012 77 13.3949ZM9.32633 33.5014C8.77785 33.4997 8.24141 33.3036 7.82227 32.9065L7.17213 32.2897C6.72232 31.8644 6.50019 31.2985 6.49838 30.7174C6.50019 30.1724 6.69525 29.6403 7.09694 29.2211L13.6504 22.3824C14.0773 21.937 14.647 21.7139 15.2314 21.7132C15.7782 21.7141 16.3129 21.9109 16.7355 22.309L17.3829 22.9267C17.3829 22.9267 18.0532 23.9179 18.0548 24.4998C18.0532 24.9354 17.9219 25.3598 17.6673 25.7274C17.6455 25.7492 10.5941 33.098 10.5941 33.098C10.2196 33.363 9.7769 33.4994 9.32633 33.5014ZM14.5602 40.3227C14.1342 40.7663 13.5654 40.9884 12.981 40.9902C12.4325 40.9893 11.8977 40.7925 11.4769 40.3953L10.8259 39.7766L10.8242 39.7757C10.378 39.3522 10.1539 38.7845 10.1539 38.2034C10.1539 37.6583 10.3508 37.1263 10.7505 36.7071C10.7505 36.7071 19.4861 27.6138 19.5597 27.5261C19.9771 27.1245 20.5151 26.9171 21.0706 26.9162C21.6191 26.9171 22.1539 27.1131 22.5747 27.5112L23.2257 28.1306C23.6736 28.5541 23.896 29.1211 23.8977 29.703C23.8959 30.248 23.6992 30.7808 23.2991 31.2L14.5602 40.3227ZM21.7199 44.1889C21.2947 44.6336 20.7261 44.856 20.1415 44.8577C19.593 44.8568 19.0583 44.6599 18.6375 44.2618L17.9846 43.6431C17.5368 43.2187 17.3127 42.6519 17.3127 42.0708C17.3127 41.5844 17.4781 41.1127 17.7947 40.7198L23.8783 34.3702C24.2887 34.0001 24.803 33.805 25.336 33.805C25.8845 33.8059 26.4193 34.0019 26.8401 34.4L27.4929 35.0194C27.9391 35.4429 28.1632 36.0099 28.1649 36.5909C28.1631 37.1369 27.9645 37.6698 27.5663 38.0879L21.7199 44.1889ZM33.2792 43.5188L29.5877 47.3715C29.1624 47.8159 28.5929 48.0383 28.0085 48.04C27.46 48.0391 26.9252 47.8422 26.5044 47.4441L25.8534 46.8254C25.4071 46.4019 25.1831 45.8342 25.1814 45.2531C25.1831 44.707 25.3799 44.1742 25.78 43.7568L29.4698 39.9043C29.8968 39.4599 30.4664 39.2367 31.0509 39.2358C31.5977 39.2367 32.1341 39.4327 32.5549 39.8316L33.2078 40.4503C33.654 40.8738 33.8762 41.4408 33.878 42.0218C33.8759 42.5677 33.6791 43.1005 33.2792 43.5188ZM65.3482 33.068C65.3474 33.6031 65.1557 34.1272 64.7672 34.5436L64.1556 35.1999C63.7286 35.6566 63.1493 35.8876 62.5562 35.8885C62.0181 35.8876 61.4913 35.6986 61.0732 35.3121L50.7662 25.7802L48.9839 27.6885L60.0162 37.9089C60.4757 38.3342 60.7065 38.9117 60.71 39.5014C60.7065 40.0386 60.5166 40.5618 60.129 40.9784L59.5192 41.6347C59.0922 42.0914 58.5129 42.3215 57.9198 42.3233C57.3817 42.3217 56.8532 42.1317 56.4384 41.7476L46.1287 32.2159L44.3482 34.1242L53.4977 42.5851C53.9387 43.0077 54.1645 43.5704 54.1645 44.1477C54.1645 44.6832 53.9746 45.2072 53.587 45.6229L52.9754 46.2792C52.5501 46.7359 51.9691 46.9669 51.3743 46.9686C50.8344 46.9669 50.3078 46.777 49.8913 46.3929L40.7602 37.9626H40.7586L40.7569 37.9609L38.9799 39.8727L38.9817 39.8744L39.0158 39.9067L43.5892 44.1275C43.9944 44.544 44.2043 45.0777 44.206 45.6298C44.2043 46.1626 44.016 46.684 43.6285 47.0999L43.0168 47.7569C42.5899 48.2137 42.0124 48.4429 41.4209 48.4447C40.8828 48.443 40.356 48.254 39.9395 47.8682L35.9577 44.1811C36.3041 43.5013 36.4976 42.7637 36.4976 42.0234C36.4992 40.7678 36.0005 39.5018 35.0146 38.5666L34.3617 37.9471C33.437 37.0694 32.2373 36.6312 31.0536 36.6328C30.9617 36.6328 30.869 36.6539 30.7789 36.6592C30.7789 36.6373 30.7841 36.6145 30.7841 36.5927C30.7857 35.3371 29.3011 33.134 29.3011 33.134L28.65 32.5163C27.9579 31.86 27.1135 31.4507 26.2352 31.2861C26.4163 30.7735 26.5187 30.2397 26.5187 29.7051C26.5187 28.4495 26.0216 27.1824 25.0357 26.2482L24.3846 25.6287C23.4579 24.7503 22.2586 24.3119 21.0747 24.3128C20.9365 24.3128 20.8001 24.3408 20.6626 24.3531C20.625 23.1475 20.1394 21.9427 19.1945 21.045V21.0441L18.5453 20.4273C17.6186 19.548 16.4192 19.1096 15.2353 19.1105C13.9726 19.1096 12.7014 19.6049 11.761 20.5866L10.2141 22.2009L3.36139 16.3561C2.86886 15.9344 2.62297 15.3517 2.62116 14.7532C2.62282 14.2518 2.79351 13.761 3.15746 13.3534L10.3881 5.25563C10.675 4.93365 11.0994 4.64234 11.5965 4.44006C12.0935 4.23794 12.6578 4.12695 13.1854 4.1277C13.6448 4.1277 14.076 4.21087 14.4208 4.3596L18.3905 6.05345C19.5096 6.52508 20.8088 6.71848 22.1145 6.72269C23.4217 6.71833 24.7193 6.52493 25.8385 6.05345L29.8064 4.36036C30.418 4.09356 31.341 3.92813 32.2588 3.93159C33.2738 3.92543 34.2904 4.13552 34.8801 4.43645C35.2546 4.62279 35.6098 4.79965 35.9396 4.96493L31.8929 7.80957C30.5926 8.72394 29.8918 10.1781 29.8936 11.6454C29.8919 12.6167 30.1998 13.6053 30.8263 14.4443L30.8247 14.4425L31.3592 15.1608C32.3741 16.5101 33.9569 17.2039 35.5388 17.2073C36.4321 17.2073 37.3421 16.9816 38.1532 16.4951L40.5733 15.0417C41.0669 14.7399 41.8122 14.5492 42.583 14.5526C43.4886 14.5474 44.4012 14.8152 44.9498 15.2184L51.6451 20.0184C53.1351 21.0859 55.5621 23.0659 56.9071 24.3119L64.6565 31.477C65.1154 31.9024 65.3464 32.4774 65.3482 33.068ZM73.6971 15.3163L63.3734 26.7319L58.6862 22.3991C57.2181 21.0438 54.7971 19.0674 53.1732 17.9009L46.4797 13.1009C45.3449 12.2969 43.9554 11.9494 42.5818 11.9443C41.4128 11.9477 40.2351 12.2025 39.2184 12.8078L36.8001 14.2612C36.4291 14.4842 35.9918 14.598 35.5375 14.599C34.7253 14.6017 33.9126 14.2227 33.4595 13.6058L32.9267 12.8884L32.9249 12.8866C32.6414 12.5043 32.5093 12.0755 32.5074 11.6415C32.5108 10.9852 32.8136 10.3483 33.4 9.93443L40.5554 4.90688C41.1741 4.45901 42.2748 4.14485 43.3203 4.15267C44.0466 4.14921 44.7403 4.29524 45.2154 4.52985L51.0408 7.35163C52.034 7.82852 53.1548 8.02357 54.2824 8.02628C55.7313 8.01921 57.196 7.70429 58.4027 6.96317L64.3534 3.2613C64.7331 3.02429 65.1889 2.90172 65.6642 2.90172C66.4674 2.90006 67.2723 3.26401 67.7281 3.85805L73.8292 11.6645C74.1809 12.1116 74.3847 12.7424 74.3847 13.3961C74.3858 14.1272 74.1275 14.8465 73.6971 15.3163Z" fill="#78BBD4"/>
</svg>
