<svg width="66" height="52" viewBox="0 0 66 52" fill="none" xmlns="http://www.w3.org/2000/svg">
<g clip-path="url(#clip0)">
<path fill-rule="evenodd" clip-rule="evenodd" d="M64.7109 42.6748C63.9989 42.6748 63.4219 43.2558 63.4219 43.9726V48.9545H55.7278V40.2158C55.7278 39.499 55.1507 38.9181 54.4387 38.9181C53.7272 38.9181 53.1497 39.499 53.1497 40.2158V48.9545H45.4641V40.2158C45.4641 39.499 44.8871 38.9181 44.1751 38.9181C43.4631 38.9181 42.886 39.499 42.886 40.2158V48.9545H35.2005V40.2158C35.2005 39.499 34.6229 38.9181 33.9114 38.9181C33.1994 38.9181 32.6223 39.499 32.6223 40.2158V48.9545H24.9363V40.2158C24.9363 39.499 24.3593 38.9181 23.6472 38.9181C22.9352 38.9181 22.3582 39.499 22.3582 40.2158V48.8765C20.2791 48.7416 18.2639 48.4334 16.3585 47.9625V40.2158C16.3585 39.499 15.7809 38.9181 15.0694 38.9181C14.3574 38.9181 13.7804 39.499 13.7804 40.2158V47.2037C11.9883 46.5852 10.3261 45.8106 8.83965 44.8911C8.76663 44.8455 8.69513 44.7993 8.62312 44.7537V36.9112C8.62312 36.1949 8.04607 35.6135 7.33406 35.6135C6.62206 35.6135 6.045 36.1949 6.045 36.9112V42.7778C3.78964 40.6715 2.57812 38.2393 2.57812 35.7215V19.8793C2.6033 19.9117 2.62999 19.9436 2.65567 19.9761C2.6889 20.0181 2.72214 20.0597 2.75587 20.1018C2.81277 20.1723 2.87119 20.2422 2.9301 20.3122C2.96182 20.3497 2.99304 20.3877 3.02527 20.4252C3.09929 20.5114 3.17482 20.597 3.25136 20.6822C3.26949 20.7025 3.28661 20.7228 3.30473 20.743C3.3999 20.848 3.49759 20.9524 3.59679 21.0563C3.62448 21.0852 3.65318 21.1141 3.68138 21.143C3.75389 21.218 3.82741 21.2925 3.90193 21.3671C3.93919 21.4041 3.97746 21.4406 4.01523 21.4776C4.08321 21.5435 4.15169 21.6094 4.22118 21.6753C4.26146 21.7133 4.30275 21.7518 4.34404 21.7898C4.41403 21.8547 4.48553 21.9196 4.55704 21.984C4.59732 22.02 4.6376 22.056 4.67889 22.0919C4.76047 22.1644 4.84406 22.2359 4.92815 22.3074C4.95987 22.3337 4.99059 22.3611 5.02231 22.3875C5.13863 22.4848 5.25645 22.5816 5.3768 22.6774C5.40047 22.6967 5.42514 22.7155 5.44931 22.7342C5.54599 22.8108 5.64418 22.8873 5.74338 22.9628C5.78668 22.9958 5.83099 23.0287 5.8748 23.0617C5.95688 23.123 6.03946 23.1839 6.12305 23.2447C6.17239 23.2802 6.22174 23.3156 6.27109 23.3506C6.35316 23.4094 6.43625 23.4677 6.51984 23.5255C6.56969 23.56 6.61903 23.5939 6.66888 23.6279C6.75952 23.6892 6.85117 23.7501 6.94331 23.8114C6.98712 23.8398 7.03043 23.8687 7.07423 23.8976C7.2112 23.9863 7.34917 24.074 7.48915 24.1607C12.1232 27.0293 18.2579 28.6089 24.7631 28.6089H63.4219V33.5909C63.4219 34.3077 63.9989 34.8886 64.7109 34.8886C65.4229 34.8886 66 34.3077 66 33.5909V27.3112C66 26.5944 65.4229 26.0135 64.7109 26.0135H37.7897V12.7809C37.7897 9.40227 35.7403 6.27307 32.0191 3.96963C28.4933 1.78735 23.8326 0.585449 18.8948 0.585449C13.9571 0.585449 9.29585 1.78735 5.77057 3.96963C2.04941 6.27256 0 9.40227 0 12.7809V35.7215C0 40.0708 2.6597 44.112 7.48915 47.1018C11.799 49.7692 17.4069 51.3213 23.4035 51.5256C23.4826 51.5413 23.5637 51.55 23.6472 51.55C23.7047 51.55 23.7605 51.5449 23.8159 51.5373C24.1306 51.5449 24.4464 51.55 24.7631 51.55H64.7109C65.4229 51.55 66 50.9685 66 50.2523V43.9726C66 43.2558 65.4229 42.6748 64.7109 42.6748ZM7.12056 6.1803C10.246 4.2459 14.4269 3.18087 18.8948 3.18087C23.3622 3.18087 27.5436 4.2459 30.6686 6.1803C33.5982 7.99355 35.2115 10.3375 35.2115 12.7809C35.2115 16.0155 30.4269 18.7483 24.7636 18.7483C24.3965 18.7483 24.0335 18.7362 23.6749 18.7138C23.6749 18.7138 23.6749 9.86154 23.6749 9.86053C23.6749 9.69781 23.6442 9.53509 23.5848 9.38402C23.5098 9.19494 23.3909 9.02411 23.2394 8.88877C23.1291 8.79042 23.0032 8.71844 22.8693 8.65812C21.6975 8.13042 20.3254 7.85009 18.8948 7.85009C14.8811 7.85009 11.7375 10.0162 11.7375 12.7809C11.7375 15.1892 13.1761 17.406 15.789 19.0231C18.206 20.5195 21.3934 21.3437 24.7636 21.3437C28.1338 21.3437 31.3207 20.5195 33.7382 19.0231C34.281 18.687 34.7725 18.325 35.2115 17.9408V26.0135H24.7636C18.7282 26.0135 13.0734 24.5703 8.83965 21.95C5.05453 19.6065 2.86363 16.5985 2.60431 13.4186C2.58719 13.2067 2.57863 12.9938 2.57863 12.7809C2.57812 10.338 4.19147 7.99355 7.12056 6.1803ZM21.0968 18.3524C17.1788 17.4836 14.3151 15.283 14.3151 12.7809C14.3151 11.6788 16.2739 10.446 18.8948 10.446C19.6753 10.446 20.4221 10.554 21.0968 10.7588V18.3524Z" fill="#78BBD5"/>
<path fill-rule="evenodd" clip-rule="evenodd" d="M64.7109 37.4839C64.0009 37.4839 63.4219 38.0668 63.4219 38.7816C63.4219 39.4964 64.0009 40.0793 64.7109 40.0793C65.4209 40.0793 66 39.4964 66 38.7816C66 38.0668 65.4209 37.4839 64.7109 37.4839Z" fill="#78BBD5"/>
</g>
<defs>
<clipPath id="clip0">
<rect width="66" height="51" fill="white" transform="translate(0 0.585449)"/>
</clipPath>
</defs>
</svg>
