<svg width="64" height="56" viewBox="0 0 64 56" fill="none" xmlns="http://www.w3.org/2000/svg">
<path d="M56.5333 0C56.2504 0 55.9791 0.113461 55.7791 0.315424C55.579 0.517386 55.4667 0.791305 55.4667 1.07692V6.46154H8.53333V1.07692C8.53333 0.791305 8.42095 0.517386 8.22091 0.315424C8.02087 0.113461 7.74956 0 7.46667 0C5.48708 0.00228024 3.58921 0.797241 2.18943 2.21048C0.789648 3.62372 0.00225852 5.53984 0 7.53846V48.6877C0.00282147 50.6262 0.766792 52.4844 2.12444 53.8551C3.4821 55.2258 5.32266 55.9972 7.24267 56H56.7573C58.6781 55.9972 60.5193 55.2252 61.8771 53.8536C63.2348 52.482 63.9983 50.6226 64 48.6834V7.53846C63.9977 5.53984 63.2104 3.62372 61.8106 2.21048C60.4108 0.797241 58.5129 0.00228024 56.5333 0ZM2.13333 7.53846C2.13469 6.29757 2.55982 5.09511 3.33706 4.13384C4.1143 3.17257 5.19608 2.5113 6.4 2.26154V40.9985C4.77801 41.2354 3.2785 42.0052 2.13333 43.1889V7.53846ZM61.8667 48.6877C61.8638 50.0549 61.3246 51.3654 60.3671 52.3321C59.4095 53.2989 58.1115 53.8433 56.7573 53.8462H7.24267C5.88772 53.8433 4.58913 53.2983 3.63143 52.3306C2.67373 51.3629 2.13502 50.0514 2.13333 48.6834V48.4615C2.13503 47.034 2.69747 45.6654 3.6973 44.6559C4.69713 43.6465 6.0527 43.0786 7.46667 43.0769C7.74956 43.0769 8.02087 42.9635 8.22091 42.7615C8.42095 42.5595 8.53333 42.2856 8.53333 42V8.61539H55.4667V42C55.4667 42.2856 55.579 42.5595 55.7791 42.7615C55.9791 42.9635 56.2504 43.0769 56.5333 43.0769C57.9473 43.0786 59.3029 43.6465 60.3027 44.6559C61.3025 45.6654 61.865 47.034 61.8667 48.4615V48.6877ZM61.8667 43.19C60.7215 42.0063 59.222 41.2365 57.6 40.9995V2.26154C58.8039 2.5113 59.8857 3.17257 60.6629 4.13384C61.4402 5.09511 61.8653 6.29757 61.8667 7.53846V43.19Z" fill="#78BBD4"/>
<path d="M52.2667 15.0771H21.3334C21.0505 15.0771 20.7792 15.1906 20.5792 15.3926C20.3791 15.5945 20.2667 15.8685 20.2667 16.1541V23.6925H11.7334C11.4505 23.6925 11.1792 23.806 10.9792 24.008C10.7791 24.2099 10.6667 24.4838 10.6667 24.7695V46.3079C10.6667 46.5935 10.7791 46.8675 10.9792 47.0694C11.1792 47.2714 11.4505 47.3848 11.7334 47.3848H37.3334C37.6163 47.3848 37.8876 47.2714 38.0877 47.0694C38.2877 46.8675 38.4001 46.5935 38.4001 46.3079V32.3079H45.8667C46.1496 32.3079 46.421 32.1945 46.621 31.9925C46.821 31.7905 46.9334 31.5166 46.9334 31.231C46.9334 30.9454 46.821 30.6715 46.621 30.4695C46.421 30.2675 46.1496 30.1541 45.8667 30.1541H26.6667C26.3838 30.1541 26.1125 30.2675 25.9125 30.4695C25.7125 30.6715 25.6001 30.9454 25.6001 31.231V36.6156C25.6001 36.9012 25.7125 37.1751 25.9125 37.3771C26.1125 37.5791 26.3838 37.6925 26.6667 37.6925C26.9496 37.6925 27.221 37.5791 27.421 37.3771C27.621 37.1751 27.7334 36.9012 27.7334 36.6156V32.3079H36.2667V45.231H27.7334V40.9233C27.7334 40.6377 27.621 40.3638 27.421 40.1618C27.221 39.9598 26.9496 39.8464 26.6667 39.8464C26.3838 39.8464 26.1125 39.9598 25.9125 40.1618C25.7125 40.3638 25.6001 40.6377 25.6001 40.9233V45.231H12.8001V36.6156H21.3334C21.6163 36.6156 21.8876 36.5022 22.0877 36.3002C22.2877 36.0982 22.4001 35.8243 22.4001 35.5387C22.4001 35.2531 22.2877 34.9791 22.0877 34.7772C21.8876 34.5752 21.6163 34.4618 21.3334 34.4618H12.8001V25.8464H21.3334C21.6163 25.8464 21.8876 25.7329 22.0877 25.531C22.2877 25.329 22.4001 25.0551 22.4001 24.7695V17.231H36.2667V25.8464C36.2667 26.132 36.3791 26.4059 36.5792 26.6079C36.7792 26.8098 37.0505 26.9233 37.3334 26.9233C37.6163 26.9233 37.8876 26.8098 38.0877 26.6079C38.2877 26.4059 38.4001 26.132 38.4001 25.8464V17.231H43.807C44.0463 19.1262 44.9022 20.8875 46.2403 22.2385C47.5784 23.5894 49.3229 24.4535 51.2001 24.6951V45.231H42.6667C42.3838 45.231 42.1125 45.3445 41.9125 45.5464C41.7125 45.7484 41.6001 46.0223 41.6001 46.3079C41.6001 46.5935 41.7125 46.8675 41.9125 47.0694C42.1125 47.2714 42.3838 47.3848 42.6667 47.3848H52.2667C52.5496 47.3848 52.821 47.2714 53.021 47.0694C53.221 46.8675 53.3334 46.5935 53.3334 46.3079V16.1541C53.3334 15.8685 53.221 15.5945 53.021 15.3926C52.821 15.1906 52.5496 15.0771 52.2667 15.0771ZM45.9627 17.231H51.2001V22.5187C49.8924 22.293 48.6863 21.6632 47.7482 20.7161C46.8101 19.769 46.1862 18.5513 45.9627 17.231Z" fill="#78BBD4"/>
</svg>
