<svg width="44" height="66" viewBox="0 0 44 66" fill="none" xmlns="http://www.w3.org/2000/svg">
<path fill-rule="evenodd" clip-rule="evenodd" d="M43.6612 12.9102C43.6607 12.8961 43.6602 12.882 43.6592 12.8679C43.6552 12.812 43.6496 12.7572 43.6385 12.7028C43.6385 12.7028 43.6385 12.7028 43.6385 12.7023C43.6275 12.6479 43.6119 12.594 43.5942 12.5416C43.5897 12.5286 43.5852 12.5155 43.5801 12.5024C43.5615 12.4525 43.5404 12.4037 43.5162 12.3563C43.5147 12.3538 43.5137 12.3513 43.5122 12.3488C43.486 12.2994 43.4558 12.2526 43.423 12.2068C43.415 12.1952 43.4064 12.1841 43.3979 12.1726C43.3631 12.1272 43.3269 12.0834 43.2861 12.0426L31.6211 0.377654C31.5803 0.336868 31.5365 0.300613 31.4912 0.265869C31.4796 0.257308 31.468 0.248245 31.4564 0.240188C31.4106 0.207458 31.3643 0.177246 31.3154 0.151565C31.3119 0.149551 31.3084 0.148544 31.3054 0.14653C31.259 0.12236 31.2107 0.101715 31.1618 0.0830839C31.1483 0.0780486 31.1352 0.0735166 31.1211 0.0689848C31.0687 0.051361 31.0158 0.0357513 30.9609 0.0246734C30.9604 0.0246734 30.9599 0.0246734 30.9599 0.0246734C30.9061 0.0140991 30.8512 0.00805662 30.7958 0.00402831C30.7817 0.00352478 30.7676 0.00251769 30.7535 0.00201416C30.7389 0.00151062 30.7243 0 30.7097 0H1.5039C0.791899 0 0.214844 0.577056 0.214844 1.28906V56.4638C0.214844 57.1759 0.791899 57.7529 1.5039 57.7529H20.9113V64.7108C20.9113 65.1796 21.1661 65.6116 21.5765 65.8387C21.9874 66.0658 22.4884 66.0522 22.8857 65.803L27.7952 62.7228L32.7047 65.803C32.9137 65.9339 33.1518 65.9999 33.39 65.9999C33.6045 65.9999 33.8195 65.9465 34.0139 65.8392C34.4243 65.6121 34.6791 65.1801 34.6791 64.7108V57.7529H42.3742C43.0862 57.7529 43.6632 57.1759 43.6632 56.4638V12.954C43.6632 12.9394 43.6617 12.9248 43.6612 12.9102ZM31.9987 4.40143L39.2623 11.665H31.9987V4.40143ZM20.2753 39.8153C20.1847 39.5691 20.0372 39.1668 20.0336 39.0021C20.1343 38.8772 20.4838 38.6562 20.6978 38.5212C21.157 38.2312 21.6777 37.9019 22.0553 37.3873C22.4365 36.8671 22.5916 36.2664 22.7286 35.7367C22.7885 35.505 22.8852 35.1309 22.9678 34.9894C23.0131 34.9799 23.1082 34.9663 23.287 34.9663C23.4305 34.9663 23.5911 34.9743 23.7613 34.9829C23.9567 34.9924 24.1581 35.0025 24.3686 35.0025C24.8329 35.0025 25.2075 34.9501 25.5474 34.8368C26.1411 34.6395 26.6159 34.2573 27.0348 33.9199C27.2665 33.7336 27.6542 33.4214 27.7891 33.4023C27.9367 33.4214 28.3239 33.7336 28.5555 33.9199C28.9745 34.2573 29.4498 34.6395 30.0435 34.8368C30.3834 34.9501 30.7575 35.0025 31.2223 35.0025C31.4323 35.0025 31.6342 34.9924 31.829 34.9829C31.9992 34.9743 32.1599 34.9663 32.3039 34.9663C32.4826 34.9663 32.5773 34.9793 32.6231 34.9894C32.7057 35.1309 32.8024 35.505 32.8618 35.7367C32.9988 36.2664 33.1544 36.8671 33.5355 37.3873C33.9127 37.9019 34.4333 38.2307 34.8931 38.5212C35.1066 38.6567 35.456 38.8772 35.5567 39.0021C35.5532 39.1668 35.4057 39.5691 35.3155 39.8153C35.1237 40.3375 34.9067 40.9297 34.9067 41.5858C34.9067 42.2419 35.1237 42.8341 35.315 43.3567C35.4057 43.603 35.5532 44.0053 35.5567 44.1699C35.456 44.2948 35.1066 44.5154 34.8931 44.6508C34.4333 44.9409 33.9127 45.2702 33.5355 45.7848C33.1544 46.3049 32.9988 46.9057 32.8618 47.4354C32.8024 47.6665 32.7052 48.0411 32.6231 48.1826C32.5773 48.1922 32.4826 48.2058 32.3039 48.2058C32.1599 48.2058 31.9992 48.1978 31.829 48.1892C31.6342 48.1796 31.4323 48.1696 31.2223 48.1696C30.7575 48.1696 30.3834 48.2219 30.0435 48.3352C29.4498 48.5326 28.9745 48.9153 28.5555 49.2522C28.3274 49.4365 27.9468 49.7421 27.7952 49.7693C27.6436 49.7421 27.2635 49.4365 27.0353 49.2522C26.6159 48.9153 26.1411 48.5326 25.5474 48.3352C25.2075 48.2219 24.8329 48.1696 24.3686 48.1696C24.1586 48.1696 23.9567 48.1796 23.7613 48.1892C23.5916 48.1978 23.431 48.2058 23.287 48.2058C23.1082 48.2058 23.0136 48.1922 22.9678 48.1826C22.8852 48.0411 22.7885 47.667 22.7286 47.4354C22.5921 46.9057 22.4365 46.3049 22.0553 45.7848C21.6782 45.2702 21.1575 44.9409 20.6978 44.6508C20.4843 44.5159 20.1348 44.2948 20.0341 44.1699C20.0377 44.0058 20.1852 43.603 20.2753 43.3567C20.4672 42.8346 20.6842 42.2424 20.6842 41.5863C20.6842 40.9297 20.4667 40.3375 20.2753 39.8153ZM32.101 62.3804L28.4805 60.109C28.0616 59.8466 27.5288 59.8466 27.1099 60.109L23.4894 62.3804V50.7799C23.6264 50.7759 23.7608 50.7708 23.8913 50.7643C24.0619 50.7552 24.2231 50.7472 24.3686 50.7472C24.5972 50.7472 24.6949 50.7683 24.7327 50.7809C24.8862 50.8323 25.1813 51.0699 25.4185 51.2608C26.0202 51.7452 26.769 52.3479 27.7952 52.3479C28.8214 52.3479 29.5702 51.7452 30.1719 51.2608C30.4091 51.0699 30.7041 50.8323 30.8572 50.7814C30.8955 50.7688 30.9932 50.7477 31.2218 50.7477C31.3673 50.7477 31.5284 50.7557 31.6991 50.7643C31.8295 50.7708 31.964 50.7764 32.1004 50.7799V62.3804H32.101ZM34.6791 55.1748V49.7411C35.0623 49.2204 35.2224 48.6041 35.3578 48.0804C35.4288 47.8055 35.526 47.4294 35.6146 47.309C35.7028 47.1882 36.0306 46.9812 36.2697 46.8301C36.9042 46.4293 37.6938 45.9303 38.0075 44.9867C38.3176 44.0556 37.9949 43.176 37.7356 42.469C37.6177 42.1482 37.4843 41.7842 37.4843 41.5858C37.4843 41.3874 37.6177 41.0238 37.7356 40.7031C37.9949 39.9961 38.3176 39.1159 38.0075 38.1849C37.6938 37.2417 36.9042 36.7427 36.2697 36.3419C36.0306 36.1909 35.7028 35.9834 35.6146 35.8636C35.526 35.7427 35.4288 35.3666 35.3578 35.0916C35.1725 34.3741 34.9419 33.4808 34.1524 32.9017C33.524 32.4415 32.7963 32.3881 32.3034 32.3881C32.0949 32.3881 31.8935 32.3982 31.6991 32.4083C31.5284 32.4168 31.3673 32.4249 31.2223 32.4249C30.9932 32.4249 30.8955 32.4037 30.8577 32.3912C30.7046 32.3403 30.4096 32.1026 30.1724 31.9113C29.5702 31.4274 28.8214 30.8246 27.7952 30.8246C26.7695 30.8246 26.0202 31.4274 25.4185 31.9113C25.1813 32.1021 24.8862 32.3403 24.7332 32.3912C24.6954 32.4037 24.5972 32.4249 24.3686 32.4249C24.2236 32.4249 24.0619 32.4168 23.8913 32.4078C23.6969 32.3982 23.496 32.3881 23.287 32.3881C22.7945 32.3881 22.0669 32.4415 21.439 32.9017C20.649 33.4808 20.4178 34.3741 20.2325 35.0916C20.1615 35.3666 20.0644 35.7427 19.9762 35.8631C19.8876 35.9834 19.5598 36.1909 19.3206 36.3419C18.6862 36.7427 17.8971 37.2417 17.5829 38.1849C17.2727 39.1164 17.5955 39.9961 17.8548 40.7031C17.9727 41.0238 18.1061 41.3874 18.1061 41.5858C18.1061 41.7842 17.9727 42.1482 17.8548 42.469C17.5955 43.176 17.2727 44.0556 17.5829 44.9872C17.8971 45.9303 18.6867 46.4293 19.3206 46.8301C19.5603 46.9812 19.8876 47.1887 19.9762 47.309C20.0644 47.4294 20.1615 47.8055 20.2325 48.0804C20.368 48.6041 20.5286 49.2209 20.9118 49.7411V55.1748H2.79296V2.57812H29.4206V12.954C29.4206 13.666 29.9977 14.2431 30.7097 14.2431H41.0851V55.1748H34.6791Z" fill="#78BBD4"/>
<path fill-rule="evenodd" clip-rule="evenodd" d="M7.80273 14.2432H24.4105C25.122 14.2432 25.6996 13.6661 25.6996 12.9541C25.6996 12.2421 25.122 11.665 24.4105 11.665H7.80273C7.09073 11.665 6.51367 12.2421 6.51367 12.9541C6.51367 13.6661 7.09123 14.2432 7.80273 14.2432Z" fill="#78BBD4"/>
<path fill-rule="evenodd" clip-rule="evenodd" d="M36.2195 18.1719H7.80273C7.09073 18.1719 6.51367 18.7489 6.51367 19.4609C6.51367 20.1729 7.09073 20.75 7.80273 20.75H36.2195C36.9315 20.75 37.5086 20.1729 37.5086 19.4609C37.5086 18.7489 36.9315 18.1719 36.2195 18.1719Z" fill="#78BBD4"/>
<path fill-rule="evenodd" clip-rule="evenodd" d="M31.0633 24.6787H7.80273C7.09073 24.6787 6.51367 25.2563 6.51367 25.9678C6.51367 26.6798 7.09073 27.2568 7.80273 27.2568H31.0633C31.7753 27.2568 32.3523 26.6798 32.3523 25.9678C32.3523 25.2563 31.7753 24.6787 31.0633 24.6787Z" fill="#78BBD4"/>
<path fill-rule="evenodd" clip-rule="evenodd" d="M36.2195 24.6787C35.5095 24.6787 34.9304 25.2578 34.9304 25.9678C34.9304 26.6778 35.5095 27.2568 36.2195 27.2568C36.93 27.2568 37.5085 26.6778 37.5085 25.9678C37.5085 25.2578 36.93 24.6787 36.2195 24.6787Z" fill="#78BBD4"/>
</svg>
