<svg width="60" height="68" viewBox="0 0 60 68" fill="none" xmlns="http://www.w3.org/2000/svg">
<path d="M0.285207 50.6674C0.294769 50.7184 0.307519 50.7652 0.323457 50.813C0.339394 50.8576 0.354269 50.8991 0.376582 50.9405C0.386144 50.9596 0.385082 50.9798 0.395707 50.9979C0.407394 51.0181 0.426519 51.0276 0.438207 51.0467C0.463707 51.0861 0.492394 51.1222 0.523207 51.1583C0.557207 51.1966 0.590144 51.2306 0.630519 51.2646C0.663457 51.2933 0.697457 51.3198 0.735707 51.3442C0.755894 51.3581 0.766519 51.3783 0.788832 51.391L29.4721 67.8597C29.6346 67.9532 29.8174 68 30.0001 68C30.1829 68 30.3657 67.9532 30.5293 67.8587L59.2125 51.3899C59.2178 51.3867 59.22 51.3814 59.2253 51.3793C59.2986 51.3347 59.3698 51.2837 59.4314 51.2231C59.4378 51.2167 59.441 51.2082 59.4473 51.2019C59.4643 51.1849 59.475 51.1636 59.4898 51.1456C59.5121 51.119 59.5334 51.0924 59.5536 51.0648C59.5695 51.0414 59.5908 51.0223 59.6056 50.9968C59.6163 50.9788 59.6152 50.9586 59.6248 50.9394C59.6471 50.898 59.662 50.8566 59.6779 50.8119C59.6949 50.7641 59.7066 50.7174 59.7161 50.6664C59.7257 50.6207 59.7332 50.5761 59.7353 50.5293C59.7363 50.507 59.748 50.49 59.748 50.4677V17.5302C59.748 17.4845 59.7268 17.4452 59.7225 17.4006C59.713 17.3273 59.7034 17.2571 59.679 17.187C59.6566 17.1211 59.6248 17.0648 59.5908 17.0064C59.5568 16.9479 59.5238 16.8927 59.4792 16.8406C59.4303 16.7843 59.374 16.7407 59.3156 16.6961C59.2795 16.6696 59.255 16.6313 59.2157 16.609L30.5325 0.14025C30.5091 0.126438 30.4804 0.120063 30.456 0.109438C30.4273 0.095625 30.3986 0.0839375 30.3678 0.0733125C30.2509 0.02975 30.1298 0.0010625 30.0065 0C30.0023 0 30.0012 0 30.0001 0C29.9991 0 29.998 0 29.997 0C29.8737 0 29.7536 0.02975 29.6357 0.0733125C29.6049 0.085 29.5762 0.095625 29.5475 0.109438C29.5231 0.121125 29.4955 0.1275 29.471 0.141312L0.787769 16.6101C0.748457 16.6324 0.72402 16.6706 0.687895 16.6972C0.628395 16.7418 0.573144 16.7854 0.524269 16.8417C0.479644 16.8937 0.446707 16.949 0.412707 17.0074C0.378707 17.0659 0.346832 17.1222 0.32452 17.1881C0.300082 17.2582 0.290519 17.3283 0.280957 17.4016C0.274582 17.4463 0.254395 17.4856 0.254395 17.5312V50.4688C0.254395 50.4911 0.266082 50.5081 0.267144 50.5304C0.269269 50.5771 0.275644 50.6207 0.285207 50.6674ZM34.3776 14.3491L31.0626 20.1939V2.8985L57.6209 18.1475V48.6317L54.7309 46.9731L36.2285 14.3491C36.0107 13.9899 35.6155 13.7828 35.2106 13.8178C34.6773 13.8624 34.4042 14.3044 34.3776 14.3491ZM22.5403 26.5933L24.9862 30.9071L20.9944 37.9461L13.7407 42.1101L22.5403 26.5933ZM28.9376 28.2487V33.3848L24.6186 35.8647L28.9376 28.2487ZM31.0626 24.5023L35.3031 17.0255L51.1078 44.8938L31.0626 33.3848V24.5023ZM21.616 23.9179L10.1197 44.1904L2.38046 48.6338V18.1464L28.9376 2.8985V23.9413L26.2091 28.7523L23.4668 23.9169C23.2618 23.5322 22.8538 23.307 22.4383 23.3474C21.8943 23.4005 21.634 23.8829 21.616 23.9179ZM30.0001 65.7124L3.45039 50.4688L30.0001 35.2251L53.4123 48.6657C53.4219 48.671 53.4304 48.6763 53.4378 48.6816L56.5499 50.4688L30.0001 65.7124Z" fill="#89B9CB"/>
<path d="M9.28125 27.625C11.3319 27.625 13 25.9569 13 23.9062C13 21.8556 11.3319 20.1875 9.28125 20.1875C7.23063 20.1875 5.5625 21.8556 5.5625 23.9062C5.5625 25.9569 7.23063 27.625 9.28125 27.625ZM9.28125 22.3125C10.1599 22.3125 10.875 23.0276 10.875 23.9062C10.875 24.7849 10.1599 25.5 9.28125 25.5C8.40256 25.5 7.6875 24.7849 7.6875 23.9062C7.6875 23.0276 8.40256 22.3125 9.28125 22.3125Z" fill="#89B9CB"/>
<path d="M30 44.625C24.6376 44.625 20.4375 47.192 20.4375 50.4698C20.4375 53.7455 24.6376 56.3114 30 56.3114C35.3624 56.3114 39.5625 53.7455 39.5625 50.4698C39.5625 47.192 35.3624 44.625 30 44.625ZM30 54.1864C25.6172 54.1864 22.5625 52.2272 22.5625 50.4698C22.5625 48.7103 25.6172 46.75 30 46.75C34.3828 46.75 37.4375 48.7103 37.4375 50.4698C37.4375 52.2272 34.3828 54.1864 30 54.1864Z" fill="#89B9CB"/>
</svg>
