<svg width="74" height="74" viewBox="0 0 74 74" fill="none" xmlns="http://www.w3.org/2000/svg">
<path d="M1.2255 74.0002H60.0364C60.7134 74.0002 61.2619 73.4517 61.2619 72.7753V61.7478H69.8382C70.5151 61.7478 71.0637 61.1993 71.0637 60.5229V48.2699C71.0637 47.5935 70.5151 47.045 69.8382 47.045H61.2619V36.0175C61.2619 35.3405 60.7134 34.792 60.0364 34.792H57.7879C57.9607 33.9911 57.7778 33.1542 57.2871 32.498L51.7507 25.118L54.3072 23.2003C55.4429 22.35 56.0773 20.9871 55.9971 19.5703L55.8742 17.3638C55.8406 16.7654 56.1087 16.1899 56.5882 15.8304L59.1441 13.9133L60.2198 15.3469C60.4145 15.6066 60.7044 15.7788 61.0264 15.8248C61.0836 15.8326 61.1414 15.8371 61.1997 15.8365C61.465 15.8371 61.723 15.7507 61.935 15.5914L72.0441 8.0078C73.6672 6.79014 73.9965 4.48661 72.7788 2.86287L72.0979 1.95424C70.8786 0.332743 68.5762 0.00462857 66.952 1.22061L56.844 8.80369C56.3027 9.20977 56.1928 9.97817 56.5989 10.5194L57.6741 11.953L55.1182 13.8707C53.9824 14.721 53.3475 16.0833 53.4283 17.5001L53.5506 19.7066C53.5848 20.3051 53.3167 20.8811 52.8371 21.24L50.2813 23.1577L44.7444 15.7777C44.165 14.993 43.2239 14.5605 42.2508 14.6318C41.3225 14.6991 40.493 15.2375 40.0527 16.0581L29.9851 34.792H1.2255C0.548529 34.792 0 35.3405 0 36.0175V48.2699C0 48.9469 0.548529 49.4954 1.2255 49.4954H9.80173V59.2973H1.2255C0.548529 59.2973 0 59.8459 0 60.5229V72.7753C0 73.4517 0.548529 74.0002 1.2255 74.0002ZM68.4225 3.18032C68.9632 2.77425 69.731 2.88362 70.1377 3.42487L70.8186 4.33349C71.2241 4.87474 71.1142 5.64202 70.5735 6.0481L61.4442 12.897L59.2933 10.0287L68.4225 3.18032ZM22.0545 61.7478H39.2075V71.5497H22.0545V61.7478ZM31.8562 49.4954H49.0092V59.2973H31.8562V49.4954ZM58.8115 71.5497H41.6579V61.7478H58.8115V71.5497ZM68.6132 59.2973H51.4597V49.4954H68.6132V59.2973ZM58.8115 47.045H41.6579V39.91L54.1989 37.2425H58.8115V47.045ZM42.2121 17.2191C42.2536 17.1333 42.3399 17.0783 42.4353 17.0755L42.4594 17.0744C42.5895 17.0767 42.7101 17.1412 42.7841 17.2477L48.3199 24.6278L43.2654 28.4199C42.7241 28.8259 42.6142 29.5938 43.0203 30.1356C43.4263 30.6768 44.1942 30.7862 44.736 30.3807L49.7905 26.5886L55.3268 33.9686C55.4149 34.0763 55.4407 34.2216 55.3941 34.3523C55.365 34.4431 55.2881 34.5099 55.1939 34.5267L30.8864 39.6958C30.7356 39.7193 30.5841 39.6548 30.4972 39.5292C30.3996 39.4114 30.38 39.2476 30.4467 39.1096L42.2121 17.2191ZM28.5375 40.9998C29.1904 41.8978 30.311 42.3257 31.3963 42.0924L39.2075 40.4311V47.045H22.0545V37.2425H28.6677L28.2879 37.9492C27.763 38.9268 27.8611 40.1209 28.5375 40.9998ZM2.45043 42.144H4.90087C5.57783 42.144 6.12636 41.5955 6.12636 40.9185C6.12636 40.2421 5.57783 39.6935 4.90087 39.6935H2.45043V37.2425H19.604V47.045H2.45043V42.144ZM12.2522 49.4954H29.4058V59.2973H12.2522V49.4954ZM2.45043 61.7478H19.604V71.5497H2.45043V61.7478Z" fill="#89B9CB"/>
</svg>
