<svg width="44" height="60" viewBox="0 0 44 60" fill="none" xmlns="http://www.w3.org/2000/svg">
<path d="M2.0625 0C0.943642 0 0 0.935843 0 2.04545V57.9545C0 59.0641 0.943642 60 2.0625 60H41.9375C43.0564 60 44 59.0641 44 57.9545V12.294C43.7912 11.4149 43.4973 11.2675 43.1191 10.8665C39.5378 7.36828 35.5782 3.44133 32.5058 0.40483C32.2535 0.151732 31.8979 0.00285682 31.539 0H2.0625ZM2.75 2.72727H28.1875V14.3182C28.1876 15.0322 28.8426 15.6817 29.5625 15.6818H41.25V57.2727H2.75V2.72727ZM30.9375 2.72727C34.5114 6.15526 38.1251 9.81143 41.25 12.9671L30.9375 12.9545L30.9375 2.72727ZM9.49609 23.1819C8.77605 23.2153 8.15152 23.8953 8.18527 24.6095C8.21903 25.3235 8.90497 25.9427 9.625 25.9091H34.375C35.102 25.92 35.7714 25.2666 35.7714 24.5455C35.7714 23.8244 35.102 23.1707 34.375 23.1819C26.0851 23.1819 17.7768 23.1819 9.49609 23.1819ZM9.49609 28.6364C8.77605 28.6699 8.15152 29.3499 8.18527 30.064C8.21903 30.7781 8.90497 31.3973 9.625 31.3637H34.375C35.102 31.3746 35.7714 30.7212 35.7714 30.0001C35.7714 29.279 35.102 28.6253 34.375 28.6364C26.0851 28.6364 17.7768 28.6364 9.49609 28.6364ZM9.49609 34.0909C8.77605 34.1243 8.15152 34.8044 8.18527 35.5185C8.21903 36.2326 8.90497 36.8518 9.625 36.8182H34.375C35.102 36.8291 35.7714 36.1756 35.7714 35.4545C35.7714 34.7335 35.102 34.0798 34.375 34.0909C26.0851 34.0909 17.7768 34.0909 9.49609 34.0909ZM9.49609 39.5455C8.77605 39.5789 8.15152 40.2589 8.18527 40.9731C8.21903 41.6871 8.90497 42.3063 9.625 42.2727H23.375C24.102 42.2836 24.7714 41.6302 24.7714 40.9091C24.7714 40.188 24.102 39.5343 23.375 39.5455C18.7525 39.5455 14.1092 39.5455 9.49609 39.5455Z" fill="#89B9CB"/>
</svg>
