<svg width="25" height="13" viewBox="0 0 25 13" fill="none" xmlns="http://www.w3.org/2000/svg">
<path d="M0.646975 5.59643L0.629007 5.60037L21.8211 5.60037L17.7295 1.45641C17.611 1.33781 17.5459 1.17716 17.5459 1.00854C17.5459 0.839916 17.611 0.680382 17.7295 0.561505L18.1063 0.184171C18.2247 0.0655744 18.3826 0 18.5509 0C18.7194 0 18.8773 0.0651061 18.9958 0.183702L24.8165 6.05302C24.9354 6.17208 25.0005 6.33068 25 6.49939C25.0005 6.66904 24.9354 6.82773 24.8165 6.94661L18.9958 12.8163C18.8773 12.9348 18.7194 13 18.5509 13C18.3826 13 18.2247 12.9347 18.1063 12.8163L17.7295 12.439C17.611 12.3206 17.5459 12.1624 17.5459 11.9938C17.5459 11.8253 17.611 11.6755 17.7295 11.557L21.8484 7.39945L0.638365 7.39945C0.291487 7.39945 0 7.10015 0 6.75307V6.21939C0 5.87231 0.300095 5.59643 0.646975 5.59643Z" fill="#78BBD5"/>
</svg>
