<svg width="25" height="13" viewBox="0 0 25 13" fill="none" xmlns="http://www.w3.org/2000/svg">
<path d="M24.353 5.59643L24.371 5.60037L3.1789 5.60037L7.27047 1.45641C7.38903 1.33781 7.45406 1.17716 7.45406 1.00854C7.45406 0.839916 7.38903 0.680382 7.27047 0.561505L6.89374 0.184171C6.77528 0.0655744 6.61742 0 6.44908 0C6.28064 0 6.12269 0.0651061 6.00423 0.183702L0.183501 6.05302C0.0645687 6.17208 -0.000465364 6.33068 2.50698e-06 6.49939C-0.000465364 6.66904 0.0645687 6.82773 0.183501 6.94661L6.00423 12.8163C6.12269 12.9348 6.28055 13 6.44908 13C6.61742 13 6.77528 12.9347 6.89374 12.8163L7.27047 12.439C7.38903 12.3206 7.45406 12.1624 7.45406 11.9938C7.45406 11.8253 7.38903 11.6755 7.27047 11.557L3.15158 7.39945L24.3616 7.39945C24.7085 7.39945 25 7.10015 25 6.75307V6.21939C25 5.87231 24.6999 5.59643 24.353 5.59643Z" fill="#78BBD5"/>
</svg>
