<svg width="68" height="68" viewBox="0 0 68 68" fill="none" xmlns="http://www.w3.org/2000/svg">
<g clip-path="url(#clip0)">
<path d="M64.2724 54.3834L61.3211 55.1216L56.9785 45.5683L55.6212 33.3519L57.6304 33.639C57.7636 33.6587 57.8969 33.6674 58.0278 33.6674C59.2126 33.6674 60.2881 32.9118 60.6724 31.7587C60.9345 30.9715 60.8352 30.1143 60.3983 29.4088C59.9627 28.7034 59.2408 28.2306 58.4197 28.1136L55.9127 27.7555V5.45974C55.9127 2.4492 53.4635 0 50.453 0H4.59208C1.58177 0 -0.867432 2.4492 -0.867432 5.45974C-0.867432 8.09559 1.01172 10.3013 3.50036 10.8092V67.6996H47.1338L47.22 68L49.3197 67.3994L47.4461 60.8413L48.0576 60.6884L62.2406 57.1429L62.84 56.9934L64.704 62.5861L66.7753 61.895L64.2724 54.3834ZM55.8483 29.9527L58.1117 30.276C58.3552 30.3097 58.4853 30.4658 58.541 30.5564C58.5967 30.647 58.6786 30.8339 58.6011 31.0675C58.5082 31.3459 58.2243 31.5099 57.9404 31.4771L55.6451 31.1494L55.8483 29.9527ZM50.453 2.18367C52.259 2.18367 53.7288 3.65351 53.7288 5.45974V24.9419L51.5449 23.6677V8.73535H50.453C48.6469 8.73535 47.1771 7.26551 47.1771 5.45951C47.1771 3.65351 48.6469 2.18367 50.453 2.18367ZM39.2978 28.8137L34.0391 28.0625L33.5564 27.0983C33.4943 26.9738 33.4255 26.8536 33.3512 26.739L38.5346 27.4794V27.4805L52.8551 29.5236L53.685 29.6426L53.4818 30.8394L50.098 30.3567L39.2978 28.8137ZM41.4479 32.5754L39.4312 34.5922L36.0276 32.0393L35.2274 30.4374L40.6706 31.2148L41.4479 32.5754ZM29.379 24.0726L25.863 25.2453C25.6927 25.2693 25.5202 25.2879 25.3519 25.3173C25.3487 25.2496 25.3389 25.1829 25.3389 25.1141C25.3389 22.7828 26.1588 20.6404 27.5205 18.9534C28.4484 20.1013 29.1233 21.4661 29.4597 22.9763C29.4565 22.9873 29.4498 22.9969 29.4478 23.0079C29.3592 23.3618 29.3505 23.7188 29.379 24.0726ZM26.7897 29.1455L26.9589 30.5039C26.3473 29.58 25.8997 28.5615 25.6333 27.4826C25.7853 27.4532 25.9415 27.4379 26.0953 27.4149L26.8236 28.1432C26.7711 28.473 26.7472 28.8082 26.7897 29.1455ZM25.9699 32.8169C24.249 34.1808 22.1153 34.9419 19.8791 34.9419C19.2327 34.9419 18.6017 34.8754 17.9901 34.7552C18.7184 31.7859 20.7798 29.351 23.5523 28.1379C23.9979 29.8566 24.8179 31.4509 25.9699 32.8169ZM23.2006 25.9158C19.5874 27.2939 16.8706 30.3381 15.9044 34.0932C12.4616 32.5635 10.0516 29.1173 10.0516 25.1143C10.0516 19.6961 14.4609 15.287 19.8789 15.287C22.1545 15.287 24.2749 16.0777 25.963 17.4109C24.213 19.4975 23.1547 22.1836 23.1547 25.1143C23.1547 25.384 23.1832 25.6493 23.2006 25.9158ZM17.7051 36.918C18.4116 37.048 19.1355 37.1255 19.8791 37.1255C22.6691 37.1255 25.3246 36.1514 27.4494 34.4209L27.5782 35.4495L35.2686 43.1367C33.409 45.5334 30.581 46.9531 27.5225 46.9531C22.1043 46.9531 17.6952 42.5438 17.6952 37.1258C17.6952 37.0556 17.7039 36.9879 17.7051 36.918ZM29.0816 17.412C30.7578 16.0852 32.8683 15.287 35.1657 15.287C37.7821 15.287 40.231 16.3517 42.0329 18.1194L40.7337 17.3616L31.52 20.7117C31.3792 20.7631 31.2558 20.8449 31.1247 20.9137C30.642 19.6209 29.9453 18.4416 29.0816 17.412ZM31.5672 23.5395C31.6578 23.1758 31.9144 22.8942 32.2693 22.7653L40.5211 19.7647L52.7045 26.8722L52.7526 27.3035L47.3248 26.5282L39.902 25.4679L39.0143 23.9119L34.3987 24.6816L31.6328 24.2863C31.5269 24.057 31.5019 23.7972 31.5672 23.5395ZM1.31623 5.45974C1.31623 3.65374 2.78608 2.1839 4.59208 2.1839H46.1136C45.4202 3.09882 44.9932 4.22585 44.9932 5.45974C44.9932 6.69362 45.4202 7.82043 46.1136 8.73558H4.59208C2.78608 8.73535 1.31623 7.26574 1.31623 5.45974ZM44.7247 59.2708L46.5101 65.5155H5.68402V10.9192H49.361V22.3943L46.273 20.5927C44.4408 16.0995 40.0336 13.1031 35.1659 13.1031C32.2648 13.1031 29.6014 14.1373 27.5225 15.8559C25.4292 14.1274 22.753 13.1031 19.8791 13.1031C13.2566 13.1031 7.86792 18.4918 7.86792 25.1143C7.86792 30.2093 11.0628 34.5628 15.5496 36.3055C15.5322 36.5775 15.5113 36.8492 15.5113 37.1255C15.5113 43.7481 20.9 49.1367 27.5225 49.1367C31.1696 49.1367 34.5555 47.4933 36.8268 44.6937L37.7309 45.5979L45.145 51.9528L47.3649 58.6102L44.7247 59.2708ZM54.4986 56.8269L49.4887 58.0794L47.0253 50.6882L39.2136 43.9969L29.6516 34.4349L28.9561 28.8747C28.9332 28.689 28.9495 28.5067 28.9965 28.3342L29.0478 28.201C29.1538 27.9281 29.3329 27.7041 29.5578 27.547C30.1267 27.1778 30.9511 27.2861 31.4065 27.7873C31.4808 27.8736 31.5496 27.9664 31.6018 28.0724L32.5966 30.0607L34.3033 33.475L39.6351 37.4736L44.1698 32.9389L43.4076 31.6057L53.3867 33.0318L54.8258 45.9808L59.1665 55.6597L54.4986 56.8269Z" fill="black"/>
</g>
<defs>
<clipPath id="clip0">
<rect width="68" height="68" fill="white"/>
</clipPath>
</defs>
</svg>
