<svg width="62" height="62" viewBox="0 0 62 62" fill="none" xmlns="http://www.w3.org/2000/svg">
<g clip-path="url(#clip0)">
<path d="M9.04128 10.3147C6.90118 10.3147 5.16626 12.0496 5.16626 14.1897V24.523H7.74956V14.1897C7.74956 13.4763 8.32791 12.898 9.04128 12.898H40.0414V10.3147H9.04128Z" fill="black"/>
<path d="M9.04127 49.0649C8.32791 49.0649 7.74956 48.4865 7.74956 47.7731V34.8564H5.16626V47.7731C5.16626 49.9132 6.90118 51.6482 9.04127 51.6482H21.958V49.0649H9.04127Z" fill="black"/>
<path d="M40.9548 52.396L9.58521 21.0264C9.08086 20.5222 8.26323 20.5222 7.75875 21.0264L0.378177 28.4071C-0.126059 28.9115 -0.126059 29.7291 0.378177 30.2336L31.7478 61.603C31.9899 61.8453 32.3185 61.9815 32.6609 61.9815C33.0035 61.9813 33.3319 61.8452 33.5741 61.603L40.9547 54.2225C41.459 53.718 41.459 52.9004 40.9548 52.396ZM32.6609 58.8634L3.11781 29.3203L8.67204 23.7661L38.2152 53.3093L32.6609 58.8634Z" fill="black"/>
<path d="M56.8333 49.0649H37.4583V51.6482H51.6666V58.1065C51.6666 58.8199 52.2449 59.3982 52.9583 59.3982H56.8333C59.6868 59.3982 62 57.0851 62 54.2315C62 51.378 59.6868 49.0649 56.8333 49.0649ZM56.8333 56.8149H54.25V51.6482H56.8333C58.2601 51.6482 59.4166 52.8048 59.4166 54.2315C59.4166 55.6583 58.2601 56.8149 56.8333 56.8149Z" fill="black"/>
<path d="M56.8333 10.3147H50.375V12.898H56.8333C58.2601 12.898 59.4166 14.0546 59.4166 15.4813V54.2315H61.9999V15.4813C62.0001 12.6278 59.6868 10.3147 56.8333 10.3147Z" fill="black"/>
<path d="M23.6287 36.5262L19.7534 40.4016L21.5801 42.2282L25.4554 38.3529L23.6287 36.5262Z" fill="black"/>
<path d="M18.4622 31.3596L14.5869 35.2349L16.4136 37.0616L20.2889 33.1862L18.4622 31.3596Z" fill="black"/>
<path d="M28.7926 41.693L24.9172 45.5683L26.7439 47.3949L30.6192 43.5196L28.7926 41.693Z" fill="black"/>
<path d="M33.9615 46.8622L30.0862 50.7375L31.9128 52.5642L35.7882 48.6889L33.9615 46.8622Z" fill="black"/>
<path d="M13.2921 26.1929L9.41675 30.0682L11.2434 31.8949L15.1187 28.0196L13.2921 26.1929Z" fill="black"/>
<path d="M55.7146 2.88495L53.9294 1.0999C52.419 -0.341974 50.0419 -0.341974 48.5315 1.0999L28.8904 20.741C28.3861 21.2454 28.3861 22.063 28.8904 22.5675L34.247 27.9241C34.4886 28.1672 34.8175 28.3035 35.1602 28.3025C35.5027 28.3024 35.8311 28.1663 36.0733 27.9241L55.7146 8.28284C55.7152 8.28224 55.7158 8.28163 55.7164 8.28103C57.206 6.79048 57.2051 4.37453 55.7146 2.88495ZM53.8894 6.45517L35.1602 25.1843L31.63 21.6542L50.3593 2.92624C50.8471 2.46015 51.6153 2.46015 52.103 2.92624L53.8894 4.71008C53.8895 4.71032 53.8898 4.71044 53.89 4.71068C54.3715 5.19252 54.3713 5.97357 53.8894 6.45517Z" fill="black"/>
<path d="M34.7457 25.7863L29.1708 27.6476L31.0322 22.0637L28.578 21.2461L25.899 29.2815C25.8552 29.4133 25.8328 29.5512 25.8328 29.69C25.8329 30.4034 26.4114 30.9816 27.1247 30.9813C27.2614 30.9818 27.3974 30.9609 27.5277 30.9193L35.5632 28.2404L34.7457 25.7863Z" fill="black"/>
<path d="M46.7864 4.66999L44.9597 6.49664L50.3165 11.8534L52.1431 10.0267L46.7864 4.66999Z" fill="black"/>
<path d="M46.4998 28.3981H27.1248V30.9814H46.4998V28.3981Z" fill="black"/>
<path d="M51.6666 28.3981H49.0833V30.9814H51.6666V28.3981Z" fill="black"/>
<path d="M56.8333 28.3981H54.25V30.9814H56.8333V28.3981Z" fill="black"/>
</g>
<defs>
<clipPath id="clip0">
<rect width="62" height="62" fill="white"/>
</clipPath>
</defs>
</svg>
