<svg width="75" height="75" viewBox="0 0 75 75" fill="none" xmlns="http://www.w3.org/2000/svg">
<g clip-path="url(#clip0)">
<path d="M32.3736 59.7605C29.3546 58.885 26.4432 57.443 23.941 55.6C22.2513 54.3548 20.7012 52.9077 19.3239 51.2775C18.0227 49.7366 16.8365 47.9559 15.9187 46.1546C15.4209 45.1778 14.9837 44.1696 14.6106 43.1385C13.845 41.0253 13.3501 38.8166 13.132 36.5799C12.7035 32.1871 13.3689 27.7364 15.0512 23.6892C15.228 23.6555 15.2864 23.644 15.3562 23.6234C16.1699 23.3808 16.9458 22.974 17.5998 22.4481C19.3222 21.0623 20.2817 19.0721 20.3012 16.844C20.3189 14.8533 19.5659 12.7613 18.2355 11.1047C17.9431 10.7408 17.4528 10.6012 17.0127 10.7563C15.0083 11.4618 13.2654 12.8414 12.2302 14.5425C11.0721 16.4457 10.8375 18.643 11.5699 20.7287C11.848 21.5206 12.2926 22.2753 12.8562 22.911C12.8843 22.9425 12.9106 22.9694 12.9529 23.0089C12.601 23.8706 12.292 24.7478 12.026 25.6387C11.2232 24.4079 10.0593 23.4569 8.62536 22.8853C6.77599 22.1489 4.55355 22.0939 2.52795 22.7348C2.08277 22.8756 1.77493 23.2824 1.76005 23.7488C1.69253 25.8722 2.34885 27.9968 3.55963 29.5767C4.91461 31.3453 6.87842 32.3593 9.0877 32.4314C9.15579 32.4331 9.22389 32.4342 9.29198 32.4342C9.8144 32.4342 10.3431 32.3684 10.857 32.2431C10.7849 33.4488 10.7883 34.6601 10.8673 35.8698C9.47165 34.774 7.75103 34.2441 5.91597 34.366C3.92928 34.4982 1.90024 35.4068 0.348419 36.858C0.00738531 37.1772 -0.0950394 37.6768 0.0926437 38.1036C0.947518 40.0491 2.4547 41.6834 4.22854 42.5874C5.28941 43.1282 6.41436 43.3994 7.54046 43.3994C8.52179 43.3994 9.50427 43.1934 10.4467 42.7803C10.9628 42.5543 11.4549 42.2533 11.9024 41.8968C12.2995 43.3056 12.8019 44.6777 13.4056 46.0047C12.1084 45.6888 10.7414 45.7454 9.40585 46.1889C7.51585 46.8155 5.77979 48.2036 4.64224 49.9981C4.39219 50.3923 4.41851 50.9016 4.7069 51.2678C6.0224 52.9363 7.89179 54.1403 9.83557 54.57C10.382 54.6907 10.9273 54.7508 11.4652 54.7508C13.0674 54.7508 14.6026 54.2198 15.9032 53.1961C16.3387 52.8539 16.7335 52.4471 17.0734 51.9991C17.2599 52.2342 17.4493 52.4671 17.6433 52.6972C18.3608 53.5463 19.1213 54.3491 19.9207 55.1039C18.7276 55.3036 17.593 55.8082 16.5927 56.6053C15.0352 57.8453 13.8851 59.7479 13.4365 61.8244C13.338 62.281 13.5383 62.7497 13.936 62.994C15.4197 63.9055 17.1443 64.3953 18.8043 64.3953C19.1699 64.3953 19.5327 64.3713 19.8892 64.3232C22.0968 64.024 23.9513 62.8223 25.1094 60.9398C25.4024 60.4643 25.6341 59.9413 25.7984 59.3988C27.6758 60.4368 29.6728 61.2682 31.7607 61.8742C31.8632 61.9034 31.9662 61.9177 32.068 61.9177C32.5447 61.9177 32.9841 61.6052 33.1237 61.124C33.2931 60.5404 32.9572 59.9298 32.3736 59.7605ZM13.3844 17.9895C13.4307 17.3544 13.5944 16.7289 13.8599 16.1504C14.4847 14.7886 15.6497 13.7598 16.9956 13.1349C18.9434 16.1064 18.1211 19.2049 16.2208 20.7338C15.7516 21.1115 14.9814 21.7066 14.3966 21.3346C13.4267 20.7178 13.3111 19.0035 13.3844 17.9895ZM10.7545 39.3059C10.7454 39.4191 10.7236 39.5273 10.6904 39.6303C10.5211 40.1567 10.0604 40.5475 9.5632 40.7655C7.32874 41.744 4.20165 41.0419 2.46615 37.9417C2.36945 37.7683 4.33669 36.9449 4.53581 36.8831C5.34262 36.6314 6.2015 36.5192 7.04493 36.5953C7.87005 36.6697 8.68144 36.9278 9.36293 37.4067C9.94944 37.8187 10.8163 38.5242 10.7545 39.3059ZM10.1331 30.1523C9.82356 30.2324 9.4768 30.2427 9.15865 30.2318C6.72106 30.1529 4.20107 28.1713 3.97105 24.6254C7.44719 23.8838 10.0376 25.7726 10.7751 28.0969C11.063 29.0027 11.2117 29.8731 10.1331 30.1523ZM15.5565 50.2098C15.4775 50.7116 14.915 51.1745 14.5431 51.4669C12.6262 52.9753 9.42244 53.0811 6.96368 50.5153C7.8895 49.3263 9.17811 48.4136 10.6727 48.1241C11.9602 47.8752 15.1691 48.2992 15.5473 49.934C15.5691 50.0267 15.5708 50.1188 15.5565 50.2098ZM23.236 59.7862C21.9577 61.8633 18.9874 63.0684 15.7945 61.5085C16.3072 59.9035 17.395 58.5142 18.9399 57.7978C19.9905 57.3108 22.3583 56.7449 23.3751 57.5786C23.6211 57.7806 23.7379 58.0095 23.7699 58.2504C23.8368 58.7608 23.521 59.3239 23.236 59.7862Z" fill="black"/>
<path d="M48.3971 52.2217C48.9247 51.8389 49.1839 51.2015 49.074 50.5583L47.3345 40.4183L54.7022 33.2365C55.1691 32.7816 55.3339 32.1139 55.1325 31.4936C54.9311 30.8733 54.4052 30.4293 53.7598 30.336L43.578 28.8563L39.0249 19.6306C38.736 19.0458 38.1518 18.6825 37.4994 18.6825C36.8477 18.6825 36.2629 19.0458 35.9745 19.6306L34.1028 23.4226C33.8339 23.9674 34.0576 24.6271 34.6024 24.8961C35.1477 25.165 35.8069 24.9413 36.0758 24.3965L37.4994 21.5109L41.7212 30.0654C41.9689 30.5672 42.4479 30.9151 43.0018 30.9958L52.442 32.3673L45.6104 39.0261C45.2099 39.4169 45.0274 39.9794 45.1218 40.531L46.7343 49.9335L38.2908 45.4943C37.7953 45.2334 37.2036 45.2334 36.7081 45.4943L28.2646 49.9335L29.8771 40.5316C29.9721 39.98 29.789 39.4169 29.3879 39.0261L22.5569 32.3673L31.9971 30.9958C32.551 30.9151 33.03 30.5672 33.2777 30.0654L33.811 28.985C34.0799 28.4397 33.8562 27.7806 33.3115 27.5116C32.7667 27.2427 32.107 27.4664 31.8381 28.0111L31.4209 28.8563L21.2397 30.3354C20.5942 30.4293 20.0684 30.8727 19.867 31.493C19.665 32.1133 19.8303 32.781 20.2967 33.2365L27.6644 40.4177L25.9255 50.5583C25.815 51.2009 26.0742 51.8383 26.6018 52.2217C26.8999 52.438 27.2484 52.5484 27.5997 52.5484C27.8704 52.5484 28.1416 52.4832 28.3928 52.351L37.4994 47.5634L46.6061 52.351C47.1834 52.6549 47.8695 52.6051 48.3971 52.2217Z" fill="black"/>
<path d="M33.4087 15.0152C33.4888 15.5622 33.9592 15.9553 34.4953 15.9553C34.5486 15.9553 34.6029 15.9513 34.6567 15.9433C35.2581 15.8552 35.6735 15.2962 35.5854 14.6953L35.1528 11.7582C35.0647 11.1568 34.5051 10.7414 33.9043 10.8301C33.3034 10.9182 32.888 11.4773 32.9761 12.0781L33.4087 15.0152Z" fill="black"/>
<path d="M28.3688 18.2447C28.577 18.5812 28.937 18.766 29.3055 18.766C29.5029 18.766 29.7031 18.7128 29.8834 18.6012C30.3995 18.2813 30.5592 17.6033 30.2399 17.0866L28.7539 14.6862C28.434 14.1695 27.7559 14.0098 27.2392 14.3297C26.7225 14.6495 26.5634 15.327 26.8833 15.8437L28.3688 18.2447Z" fill="black"/>
<path d="M40.5133 15.9433C40.5676 15.9513 40.6214 15.9553 40.6752 15.9553C41.2114 15.9553 41.6812 15.5622 41.7618 15.0152L42.1939 12.0781C42.2825 11.4773 41.8671 10.9182 41.2657 10.8301C40.6661 10.7414 40.1059 11.1568 40.0172 11.7582L39.5852 14.6953C39.4965 15.2962 39.9119 15.8552 40.5133 15.9433Z" fill="black"/>
<path d="M45.287 18.6012C45.4672 18.7128 45.6669 18.766 45.8649 18.766C46.2328 18.766 46.5928 18.5812 46.801 18.2447L48.2871 15.8438C48.6069 15.3271 48.4473 14.6496 47.9311 14.3297C47.415 14.0098 46.7364 14.1695 46.4165 14.6856L44.9305 17.0866C44.6107 17.6033 44.7703 18.2814 45.287 18.6012Z" fill="black"/>
<path d="M74.6515 36.858C73.0997 35.4063 71.0706 34.4982 69.0839 34.366C67.2472 34.2436 65.5271 34.774 64.1321 35.8692C64.2116 34.6596 64.2145 33.4482 64.1429 32.2431C64.6562 32.3685 65.1849 32.4343 65.7074 32.4343C65.776 32.4343 65.8441 32.4331 65.9122 32.4308C68.1215 32.3587 70.0847 31.3454 71.4403 29.5767C72.6511 27.9962 73.3074 25.8722 73.2399 23.7482C73.225 23.2818 72.9171 22.8756 72.472 22.7348C70.4464 22.0934 68.2239 22.1483 66.3745 22.8853C64.9406 23.4564 63.7767 24.4074 62.9739 25.6382C62.7079 24.7478 62.3983 23.8701 62.047 23.0089C62.0893 22.9688 62.1162 22.942 62.1437 22.9105C62.7073 22.2748 63.1519 21.52 63.43 20.7281C64.1624 18.6424 63.9278 16.4457 62.7697 14.542C61.7345 12.8414 59.991 11.4612 57.9872 10.7557C57.5471 10.6006 57.0568 10.7403 56.7644 11.1048C55.4334 12.7607 54.681 14.8527 54.6987 16.8434C54.7182 19.0716 55.6777 21.0623 57.4001 22.4476C58.0541 22.974 58.83 23.3808 59.6431 23.6235C59.7135 23.644 59.7719 23.6555 59.9487 23.6887C61.631 27.7365 62.2964 32.1871 61.8679 36.5793C61.4542 40.8176 60.0671 44.8334 57.8155 48.369C57.1826 49.3624 56.4514 50.3591 55.676 51.277C54.7141 52.4157 53.659 53.4754 52.5232 54.4401C51.6271 55.2017 50.7333 55.9301 49.7251 56.5309C48.7295 57.1238 47.7126 57.7303 46.6661 58.227C45.3637 58.8455 44.0111 59.3588 42.6263 59.7605C42.0427 59.9298 41.7068 60.5398 41.8762 61.1235C42.0158 61.6047 42.4552 61.9171 42.9319 61.9171C43.0337 61.9171 43.1367 61.9028 43.2391 61.8736C45.3271 61.2677 47.3241 60.4362 49.2015 59.3983C49.3657 59.9413 49.5975 60.4637 49.8905 60.9392C50.5617 62.0304 51.4503 62.8859 52.5312 63.4809C53.0633 63.7739 53.7322 63.5805 54.0258 63.0484C54.3188 62.5162 54.1248 61.8473 53.5926 61.5543C52.8493 61.1446 52.2336 60.5495 51.7639 59.7862C51.23 58.9188 51.0572 57.9546 52.1524 57.5249C55.2188 56.3232 58.2796 58.6138 59.2037 61.5034C58.7184 61.734 58.212 61.9091 57.6902 62.0275C57.098 62.1614 56.7266 62.7508 56.8605 63.343C56.9766 63.854 57.4298 64.2002 57.9322 64.2002C58.0129 64.2002 58.0947 64.1916 58.1766 64.1727C59.1934 63.9427 60.165 63.5456 61.0639 62.9934C61.4616 62.7491 61.6619 62.2805 61.5634 61.8244C61.1154 59.7473 59.9647 57.8447 58.4072 56.6048C57.4069 55.8083 56.2728 55.303 55.0792 55.1033C55.8786 54.3486 56.6396 53.5458 57.3566 52.6972C57.5511 52.4672 57.7405 52.2337 57.9271 51.9985C58.2664 52.4471 58.6618 52.8534 59.0967 53.1961C60.3973 54.2198 61.9325 54.7502 63.5353 54.7502C64.0726 54.7502 64.6179 54.6907 65.1643 54.5694C67.1081 54.1397 68.9775 52.9358 70.293 51.2678C70.582 50.901 70.6077 50.3918 70.3582 49.9975C69.2201 48.2031 67.484 46.8149 65.5941 46.1883C64.2585 45.7449 62.8915 45.6888 61.5943 46.0041C62.198 44.6772 62.7004 43.305 63.0975 41.8962C63.545 42.2533 64.0377 42.5543 64.5532 42.7803C65.4962 43.1934 66.4781 43.3988 67.4594 43.3988C68.5855 43.3988 69.7105 43.1276 70.7714 42.5869C72.5452 41.6828 74.053 40.0486 74.9073 38.1031C75.0944 37.6762 74.992 37.1767 74.6515 36.858ZM61.532 19.3502C61.3918 20.0483 61.2316 21.2236 60.3446 21.3564C59.7272 21.4491 59.2374 21.1029 58.7785 20.7338C56.8788 19.2043 56.056 16.1064 58.0043 13.1349C58.1668 12.8866 60.1455 14.6581 60.3178 14.8619C60.8562 15.4999 61.2556 16.2535 61.4633 17.0631C61.6544 17.8081 61.683 18.5955 61.532 19.3502ZM68.0357 50.5154C65.5775 53.0811 62.3737 52.9753 60.4568 51.4669C60.0294 51.1305 59.6574 50.7008 59.3788 50.2195C59.3645 50.1881 59.3439 50.1411 59.321 50.0885C59.4148 49.9477 59.5075 49.8058 59.5991 49.6639C59.8869 49.324 60.2251 49.0265 60.5941 48.793C62.6552 47.489 65.8533 47.7116 68.0357 50.5154ZM64.2242 28.0969C64.9623 25.7721 67.5521 23.8844 71.0283 24.6254C70.7988 28.1713 68.2783 30.1529 65.8407 30.2318C65.2524 30.2519 64.306 30.2582 64.0508 29.6081C63.8689 29.1447 64.0829 28.5438 64.2242 28.0969ZM65.4361 40.7656C64.9475 40.551 64.3558 40.2929 64.1206 39.7785C63.6079 38.6587 65.3183 37.6539 66.0484 37.2373C66.6435 36.8975 67.3061 36.68 67.9847 36.5925C69.6207 36.3813 71.2423 36.949 72.5338 37.9417C70.7977 41.0425 67.67 41.744 65.4361 40.7656Z" fill="black"/>
</g>
<defs>
<clipPath id="clip0">
<rect width="75" height="75" fill="white"/>
</clipPath>
</defs>
</svg>
