<svg width="13" height="24" viewBox="0 0 13 24" fill="none" xmlns="http://www.w3.org/2000/svg">
<path d="M12.3458 0.236497L9.19724 0.231445C5.65994 0.231445 4.45037 2.89983 4.45037 5.13037V7.99736H1.28463C1.01107 7.99736 0.789551 8.21914 0.789551 8.49269V11.408C0.789551 11.6816 1.01133 11.9031 1.28463 11.9031H4.45037V23.1638C4.45037 23.4374 4.67189 23.6589 4.94545 23.6589H7.99945C8.273 23.6589 8.49453 23.4371 8.49453 23.1638V11.9031H12.196C12.4696 11.9031 12.6911 11.6816 12.6911 11.408L12.6926 8.49269C12.6926 8.36135 12.6403 8.23556 12.5476 8.1426C12.4549 8.04965 12.3286 7.99736 12.1973 7.99736H8.49453V5.54993C8.49453 4.91806 8.76202 3.85756 10.2243 3.85756L12.3453 3.8568C12.6186 3.8568 12.8401 3.63503 12.8401 3.36172V0.731578C12.8401 0.458526 12.6189 0.237002 12.3458 0.236497Z" fill="black"/>
</svg>
