<svg width="26" height="16" viewBox="0 0 26 16" fill="none" xmlns="http://www.w3.org/2000/svg">
<path d="M25.7759 13.6629C25.7447 13.5956 25.7157 13.5399 25.6887 13.4952C25.2417 12.6902 24.3875 11.7021 23.1267 10.5307L23.1001 10.5038L23.0868 10.4907L23.0733 10.4772H23.0597C22.4875 9.93171 22.1252 9.56493 21.9734 9.37716C21.6958 9.01945 21.6336 8.65737 21.7853 8.29051C21.8925 8.01333 22.2952 7.42795 22.9925 6.53359C23.3593 6.05961 23.6498 5.67973 23.8643 5.39353C25.4114 3.33675 26.0821 2.02243 25.8763 1.45007L25.7964 1.31632C25.7427 1.2358 25.6041 1.16213 25.3808 1.09495C25.157 1.02791 24.871 1.01682 24.5221 1.0615L20.6592 1.08819C20.5967 1.06601 20.5073 1.06808 20.3909 1.09495C20.2746 1.12182 20.2165 1.13531 20.2165 1.13531L20.1492 1.1689L20.0959 1.20925C20.0511 1.23594 20.002 1.28287 19.9483 1.34996C19.8948 1.41681 19.8502 1.49527 19.8145 1.58467C19.3939 2.66667 18.9157 3.67265 18.3791 4.60258C18.0482 5.15708 17.7443 5.63764 17.4668 6.04453C17.1897 6.45129 16.9572 6.75097 16.7695 6.94307C16.5816 7.13536 16.412 7.28941 16.2597 7.40578C16.1076 7.5222 15.9915 7.57138 15.9112 7.55339C15.8306 7.5354 15.7547 7.51754 15.6829 7.49969C15.5578 7.41917 15.4572 7.30966 15.3813 7.17107C15.3051 7.03248 15.2538 6.85804 15.2269 6.6479C15.2003 6.43761 15.1845 6.25674 15.18 6.10467C15.1758 5.95278 15.1777 5.73794 15.1868 5.46076C15.1961 5.18344 15.2003 4.9958 15.2003 4.89742C15.2003 4.55757 15.2069 4.18873 15.2202 3.79081C15.2337 3.39289 15.2447 3.0776 15.2538 2.84533C15.2629 2.61283 15.2672 2.36684 15.2672 2.10751C15.2672 1.84818 15.2514 1.64481 15.2202 1.49719C15.1894 1.34977 15.1421 1.20667 15.0797 1.06794C15.017 0.929347 14.9252 0.822139 14.8047 0.746031C14.684 0.670018 14.534 0.609695 14.3554 0.564876C13.8814 0.457621 13.2779 0.399601 12.5445 0.39058C10.8813 0.372728 9.81269 0.480124 9.33875 0.712628C9.15097 0.810864 8.98105 0.945085 8.82911 1.11487C8.66811 1.31167 8.64566 1.41907 8.76189 1.43673C9.29849 1.51711 9.67837 1.7094 9.90195 2.01341L9.98252 2.17451C10.0452 2.29073 10.1078 2.49651 10.1704 2.79154C10.2329 3.08658 10.2733 3.41295 10.291 3.77046C10.3357 4.42335 10.3357 4.98222 10.291 5.44714C10.2463 5.91224 10.204 6.27431 10.1636 6.53364C10.1233 6.79297 10.063 7.00311 9.98252 7.16402C9.90195 7.32497 9.84835 7.42335 9.82147 7.45905C9.79465 7.49476 9.77229 7.51726 9.75453 7.5261C9.6383 7.57063 9.51742 7.59332 9.39231 7.59332C9.26701 7.59332 9.11508 7.53065 8.93628 7.4054C8.75752 7.28015 8.57199 7.10811 8.3797 6.889C8.18741 6.66984 7.97055 6.36357 7.72903 5.97016C7.48769 5.57675 7.23729 5.11179 6.97796 4.57528L6.7634 4.18619C6.62927 3.93588 6.44605 3.57141 6.21355 3.09311C5.9809 2.61461 5.77527 2.15177 5.59651 1.70466C5.52506 1.51688 5.41771 1.37392 5.27465 1.27554L5.20752 1.23519C5.16289 1.19948 5.09124 1.16157 4.99296 1.12117C4.89454 1.08081 4.79184 1.05187 4.68444 1.03407L1.00924 1.06075C0.633683 1.06075 0.378864 1.14583 0.244689 1.31576L0.190991 1.39614C0.164165 1.44091 0.150635 1.51242 0.150635 1.61084C0.150635 1.70922 0.17746 1.82995 0.231159 1.97291C0.76767 3.23386 1.35112 4.44994 1.98149 5.62134C2.61187 6.79274 3.15966 7.73633 3.62453 8.45127C4.08949 9.16673 4.56342 9.84198 5.04633 10.4767C5.52924 11.1116 5.84889 11.5185 6.00529 11.6973C6.16187 11.8764 6.28486 12.0102 6.37427 12.0996L6.70966 12.4215C6.92426 12.6362 7.2394 12.8932 7.65522 13.1927C8.07114 13.4924 8.53159 13.7875 9.03681 14.0783C9.54213 14.3687 10.13 14.6057 10.8007 14.7889C11.4714 14.9724 12.1241 15.046 12.759 15.0105H14.3016C14.6144 14.9835 14.8514 14.8851 15.0125 14.7153L15.0659 14.6481C15.1018 14.5947 15.1354 14.5118 15.1664 14.4002C15.1978 14.2884 15.2134 14.1653 15.2134 14.0314C15.2042 13.6469 15.2335 13.3005 15.3004 12.992C15.3672 12.6836 15.4434 12.4511 15.5287 12.2945C15.6138 12.1381 15.71 12.0061 15.8169 11.899C15.9241 11.7918 16.0005 11.7268 16.0453 11.7045C16.0899 11.6819 16.1254 11.6667 16.1523 11.6575C16.3669 11.586 16.6194 11.6553 16.9103 11.8656C17.201 12.0757 17.4736 12.3352 17.7286 12.6436C17.9835 12.9522 18.2897 13.2985 18.6473 13.683C19.0052 14.0675 19.3181 14.3534 19.5862 14.5415L19.8544 14.7024C20.0335 14.8098 20.266 14.9082 20.5522 14.9976C20.8379 15.087 21.0882 15.1093 21.3031 15.0647L24.7367 15.0111C25.0764 15.0111 25.3406 14.9549 25.5281 14.8433C25.7159 14.7315 25.8275 14.6084 25.8635 14.4744C25.8994 14.3404 25.9013 14.1882 25.8703 14.0182C25.8385 13.8485 25.8071 13.7299 25.7759 13.6629Z" fill="black"/>
</svg>
