<svg width="23" height="23" viewBox="0 0 23 23" fill="none" xmlns="http://www.w3.org/2000/svg">
<path d="M16.2782 0.834961H6.72163C3.47626 0.834961 0.835938 3.47541 0.835938 6.72078V16.2774C0.835938 19.5229 3.47626 22.1632 6.72163 22.1632H16.2782C19.5239 22.1632 22.1642 19.5227 22.1642 16.2774V6.72078C22.1643 3.47541 19.5239 0.834961 16.2782 0.834961ZM20.272 16.2774C20.272 18.4794 18.4804 20.2709 16.2784 20.2709H6.72163C4.5197 20.271 2.72828 18.4794 2.72828 16.2774V6.72078C2.72828 4.51885 4.5197 2.72731 6.72163 2.72731H16.2782C18.4803 2.72731 20.2718 4.51885 20.2718 6.72078V16.2774H20.272Z" fill="black"/>
<path d="M11.5001 6.00359C8.46966 6.00359 6.00431 8.46893 6.00431 11.4993C6.00431 14.5296 8.46966 16.9948 11.5001 16.9948C14.5305 16.9948 16.9958 14.5296 16.9958 11.4993C16.9958 8.46893 14.5305 6.00359 11.5001 6.00359ZM11.5001 15.1024C9.51322 15.1024 7.89666 13.486 7.89666 11.4992C7.89666 9.51224 9.5131 7.8958 11.5001 7.8958C13.487 7.8958 15.1035 9.51224 15.1035 11.4992C15.1035 13.486 13.4869 15.1024 11.5001 15.1024Z" fill="black"/>
<path d="M17.2263 4.399C16.8617 4.399 16.5035 4.54661 16.2461 4.80523C15.9873 5.06259 15.8386 5.42087 15.8386 5.78672C15.8386 6.15144 15.9874 6.5096 16.2461 6.76822C16.5034 7.02558 16.8617 7.17444 17.2263 7.17444C17.5921 7.17444 17.9492 7.02558 18.2078 6.76822C18.4664 6.5096 18.614 6.15132 18.614 5.78672C18.614 5.42087 18.4664 5.06259 18.2078 4.80523C17.9504 4.54661 17.5921 4.399 17.2263 4.399Z" fill="black"/>
</svg>
