<svg width="551" height="137" viewBox="0 0 551 137" fill="none" xmlns="http://www.w3.org/2000/svg">
<path opacity="0.7" d="M59.9862 5.3033V4.3033H58.5521L59.0479 5.64901L59.9862 5.3033ZM83.0716 5.3033L84.0183 4.98104L83.7876 4.3033H83.0716V5.3033ZM97.6136 48.0204L96.667 48.3427L97.6136 51.1235L98.5603 48.3427L97.6136 48.0204ZM112.156 5.3033V4.3033H111.44L111.209 4.98104L112.156 5.3033ZM135.423 5.3033L136.359 5.65411L136.865 4.3033H135.423V5.3033ZM113.428 64.0166L112.492 63.6658L112.356 64.0268L112.498 64.3852L113.428 64.0166ZM129.788 105.28L128.858 105.648L129.828 108.093L130.727 105.622L129.788 105.28ZM166.325 4.93975V3.93975L165.624 3.93975L165.385 4.59759L166.325 4.93975ZM193.591 4.93975L194.517 5.31675L195.078 3.93975H193.591V4.93975ZM141.058 134V135H141.73L141.984 134.377L141.058 134ZM119.972 134L119.048 134.382L119.303 135H119.972V134ZM97.6136 79.831L98.538 79.4495L97.6136 77.21L96.6893 79.4495L97.6136 79.831ZM75.2553 134V135H75.9244L76.1797 134.382L75.2553 134ZM54.1694 134L53.2423 134.375L53.495 135H54.1694V134ZM2 4.93975V3.93975H0.517165L1.07288 5.31451L2 4.93975ZM28.9027 4.93975L29.8418 4.59609L29.6016 3.93975H28.9027V4.93975ZM65.6213 105.28L64.6822 105.623L65.5943 108.116L66.5536 105.641L65.6213 105.28ZM81.6175 64.0166L82.5498 64.3781L82.6865 64.0256L82.5558 63.6709L81.6175 64.0166ZM59.9862 6.3033L83.0716 6.3033V4.3033L59.9862 4.3033V6.3033ZM82.125 5.62557L96.667 48.3427L98.5603 47.6982L84.0183 4.98104L82.125 5.62557ZM98.5603 48.3427L113.102 5.62557L111.209 4.98104L96.667 47.6982L98.5603 48.3427ZM112.156 6.3033L135.423 6.3033V4.3033L112.156 4.3033V6.3033ZM134.486 4.9525L112.492 63.6658L114.365 64.3674L136.359 5.65411L134.486 4.9525ZM112.498 64.3852L128.858 105.648L130.717 104.911L114.358 63.6481L112.498 64.3852ZM130.727 105.622L167.264 5.2819L165.385 4.59759L128.848 104.937L130.727 105.622ZM166.325 5.93975L193.591 5.93975V3.93975L166.325 3.93975V5.93975ZM192.665 4.56274L140.132 133.623L141.984 134.377L194.517 5.31675L192.665 4.56274ZM141.058 133H119.972V135H141.058V133ZM120.896 133.618L98.538 79.4495L96.6893 80.2126L119.048 134.382L120.896 133.618ZM96.6893 79.4495L74.331 133.618L76.1797 134.382L98.538 80.2126L96.6893 79.4495ZM75.2553 133H54.1694V135H75.2553V133ZM55.0965 133.625L2.92712 4.56498L1.07288 5.31451L53.2423 134.375L55.0965 133.625ZM2 5.93975L28.9027 5.93975V3.93975L2 3.93975L2 5.93975ZM27.9636 5.2834L64.6822 105.623L66.5603 104.936L29.8418 4.59609L27.9636 5.2834ZM66.5536 105.641L82.5498 64.3781L80.6851 63.6552L64.6889 104.918L66.5536 105.641ZM82.5558 63.6709L60.9246 4.9576L59.0479 5.64901L80.6791 64.3623L82.5558 63.6709ZM215.819 131.819L215.422 132.737L215.819 131.819ZM200.004 121.094L199.269 121.771L199.278 121.782L199.287 121.791L200.004 121.094ZM190.188 105.28L191.121 104.918L190.188 105.28ZM190.188 67.6521L191.121 68.0137L190.188 67.6521ZM200.004 52.0195L199.278 51.3317L199.278 51.3323L200.004 52.0195ZM257.445 41.113L257.042 42.0283L257.049 42.0312L257.445 41.113ZM273.078 52.0195L272.342 52.6969L272.351 52.707L272.361 52.7168L273.078 52.0195ZM283.075 67.6521L282.143 68.0137L283.075 67.6521ZM283.075 105.28L284.008 105.641L283.075 105.28ZM273.259 121.094L273.986 121.781L273.995 121.771L273.259 121.094ZM257.627 131.819L258.023 132.737L257.627 131.819ZM213.637 98.1903L212.692 98.5163L212.699 98.5363L212.706 98.556L213.637 98.1903ZM218.909 107.097L218.149 107.748L218.158 107.758L218.167 107.768L218.909 107.097ZM226.907 113.096L226.474 113.997L226.489 114.005L226.504 114.011L226.907 113.096ZM246.538 113.096L246.941 114.011L246.956 114.005L246.971 113.997L246.538 113.096ZM254.355 107.097L253.613 106.426L253.604 106.436L253.596 106.447L254.355 107.097ZM259.626 98.0085L258.691 97.6539L258.686 97.6681L258.681 97.6826L259.626 98.0085ZM259.626 74.9231L258.681 75.2491L258.686 75.2635L258.691 75.2778L259.626 74.9231ZM254.355 65.8344L253.596 66.4852L253.604 66.4953L253.613 66.5053L254.355 65.8344ZM246.538 60.0176L246.106 60.9191L246.121 60.9262L246.136 60.9329L246.538 60.0176ZM226.907 60.0176L227.34 60.9191L226.907 60.0176ZM218.909 66.0162L218.167 65.3452L218.158 65.3552L218.149 65.3654L218.909 66.0162ZM213.637 75.1049L212.702 74.7502L212.697 74.7645L212.692 74.7789L213.637 75.1049ZM236.723 134.818C229.083 134.818 222.252 133.505 216.215 130.9L215.422 132.737C221.745 135.464 228.851 136.818 236.723 136.818V134.818ZM216.215 130.9C210.145 128.282 204.985 124.78 200.721 120.397L199.287 121.791C203.748 126.376 209.131 130.023 215.422 132.737L216.215 130.9ZM200.74 120.416C196.585 115.905 193.379 110.741 191.121 104.918L189.256 105.641C191.603 111.694 194.941 117.073 199.269 121.771L200.74 120.416ZM191.121 104.918C188.864 99.0985 187.735 92.9804 187.735 86.5567H185.735C185.735 93.2208 186.907 99.5846 189.256 105.641L191.121 104.918ZM187.735 86.5567C187.735 80.0095 188.865 73.831 191.121 68.0137L189.256 67.2906C186.907 73.3492 185.735 79.7738 185.735 86.5567H187.735ZM191.121 68.0137C193.378 62.1926 196.581 57.0933 200.731 52.7067L199.278 51.3323C194.944 55.9133 191.604 61.2357 189.256 67.2906L191.121 68.0137ZM200.73 52.7072C204.994 48.2066 210.151 44.6469 216.215 42.0312L215.422 40.1948C209.125 42.9111 203.74 46.6225 199.278 51.3317L200.73 52.7072ZM216.215 42.0312C222.252 39.4267 229.083 38.1139 236.723 38.1139V36.1139C228.851 36.1139 221.745 37.4672 215.422 40.1948L216.215 42.0312ZM236.723 38.1139C244.363 38.1139 251.13 39.4269 257.042 42.0283L257.848 40.1977C251.642 37.467 244.594 36.1139 236.723 36.1139V38.1139ZM257.049 42.0312C263.11 44.6459 268.203 48.2027 272.342 52.6969L273.813 51.342C269.47 46.6263 264.14 42.9121 257.841 40.1948L257.049 42.0312ZM272.361 52.7168C276.628 57.1025 279.888 62.1986 282.143 68.0137L284.008 67.2906C281.657 61.2296 278.252 55.904 273.794 51.3221L272.361 52.7168ZM282.143 68.0137C284.399 73.831 285.529 80.0095 285.529 86.5567H287.529C287.529 79.7738 286.357 73.3492 284.008 67.2906L282.143 68.0137ZM285.529 86.5567C285.529 92.9804 284.399 99.0985 282.143 104.918L284.008 105.641C286.356 99.5846 287.529 93.2208 287.529 86.5567H285.529ZM282.143 104.918C279.885 110.741 276.679 115.905 272.524 120.416L273.995 121.771C278.323 117.073 281.661 111.694 284.008 105.641L282.143 104.918ZM272.533 120.407C268.393 124.783 263.298 128.283 257.231 130.9L258.023 132.737C264.316 130.022 269.643 126.372 273.986 121.781L272.533 120.407ZM257.231 130.9C251.193 133.505 244.363 134.818 236.723 134.818V136.818C244.594 136.818 251.7 135.464 258.023 132.737L257.231 130.9ZM210.819 86.5567C210.819 90.8937 211.439 94.8835 212.692 98.5163L214.583 97.8643C213.412 94.4685 212.819 90.7026 212.819 86.5567H210.819ZM212.706 98.556C214.077 102.044 215.889 105.111 218.149 107.748L219.668 106.447C217.565 103.994 215.864 101.123 214.568 97.8247L212.706 98.556ZM218.167 107.768C220.555 110.407 223.325 112.486 226.474 113.997L227.34 112.194C224.429 110.797 221.868 108.877 219.65 106.426L218.167 107.768ZM226.504 114.011C229.668 115.403 233.078 116.095 236.723 116.095V114.095C233.338 114.095 230.204 113.454 227.31 112.181L226.504 114.011ZM236.723 116.095C240.367 116.095 243.777 115.403 246.941 114.011L246.136 112.181C243.241 113.454 240.107 114.095 236.723 114.095V116.095ZM246.971 113.997C250.126 112.483 252.842 110.399 255.114 107.748L253.596 106.447C251.505 108.886 249.011 110.8 246.106 112.194L246.971 113.997ZM255.096 107.768C257.497 105.115 259.32 101.966 260.572 98.3345L258.681 97.6826C257.509 101.08 255.818 103.99 253.613 106.426L255.096 107.768ZM260.561 98.3632C261.942 94.722 262.626 90.7221 262.626 86.3749H260.626C260.626 90.5106 259.976 94.2665 258.691 97.6539L260.561 98.3632ZM262.626 86.3749C262.626 82.1452 261.941 78.2065 260.561 74.5685L258.691 75.2778C259.977 78.6684 260.626 82.3642 260.626 86.3749H262.626ZM260.572 74.5971C259.32 70.966 257.497 67.8164 255.096 65.1635L253.613 66.5053C255.818 68.942 257.509 71.8516 258.681 75.2491L260.572 74.5971ZM255.114 65.1836C252.837 62.5264 250.11 60.4964 246.941 59.1023L246.136 60.9329C249.026 62.2048 251.511 64.0526 253.596 66.4852L255.114 65.1836ZM246.971 59.1161C243.8 57.594 240.38 56.8363 236.723 56.8363V58.8363C240.094 58.8363 243.217 59.5327 246.106 60.9191L246.971 59.1161ZM236.723 56.8363C233.066 56.8363 229.645 57.594 226.474 59.1161L227.34 60.9191C230.228 59.5327 233.351 58.8363 236.723 58.8363V56.8363ZM226.474 59.1161C223.325 60.6276 220.555 62.7063 218.167 65.3452L219.65 66.6871C221.868 64.2363 224.429 62.316 227.34 60.9191L226.474 59.1161ZM218.149 65.3654C215.884 68.008 214.071 71.1408 212.702 74.7502L214.572 75.4596C215.869 72.0404 217.57 69.114 219.668 66.6669L218.149 65.3654ZM212.692 74.7789C211.44 78.4088 210.819 82.3375 210.819 86.5567H212.819C212.819 82.5355 213.411 78.8296 214.583 75.4309L212.692 74.7789ZM359.683 59.8358L359.7 60.8357L360.683 60.8195V59.8358H359.683ZM339.87 64.1984L340.287 65.1075L340.294 65.1039L340.302 65.1002L339.87 64.1984ZM327.328 76.3773L326.421 75.9544L326.328 76.1555V76.3773H327.328ZM327.328 134V135H328.328V134H327.328ZM302.97 134H301.97V135H302.97V134ZM302.97 38.7499V37.7499H301.97V38.7499H302.97ZM325.328 38.7499H326.328V37.7499H325.328V38.7499ZM325.328 59.1087H324.328L326.216 59.569L325.328 59.1087ZM331.327 50.3835L332.068 51.0544L332.076 51.0459L332.083 51.0371L331.327 50.3835ZM338.779 43.476L338.191 42.6673L338.779 43.476ZM346.777 39.1134L347.119 40.0532L347.131 40.0491L347.142 40.0447L346.777 39.1134ZM359.683 37.6592H360.683V36.8394L359.88 36.6787L359.683 37.6592ZM359.667 58.8359C352.152 58.9591 345.402 60.4386 339.438 63.2966L340.302 65.1002C345.971 62.3837 352.431 60.9548 359.7 60.8357L359.667 58.8359ZM339.453 63.2893C333.436 66.0475 329.073 70.2719 326.421 75.9544L328.234 76.8002C330.672 71.5762 334.671 67.6814 340.287 65.1075L339.453 63.2893ZM326.328 76.3773V134H328.328V76.3773H326.328ZM327.328 133H302.97V135H327.328V133ZM303.97 134V38.7499H301.97V134H303.97ZM302.97 39.7499H325.328V37.7499H302.97V39.7499ZM324.328 38.7499V59.1087H326.328V38.7499H324.328ZM326.216 59.569C327.876 56.3676 329.827 53.5311 332.068 51.0544L330.585 49.7126C328.221 52.3256 326.173 55.3059 324.44 58.6484L326.216 59.569ZM332.083 51.0371C334.339 48.4251 336.768 46.1757 339.368 44.2848L338.191 42.6673C335.459 44.6543 332.919 47.0098 330.57 49.7299L332.083 51.0371ZM339.368 44.2848C341.97 42.3922 344.554 40.9861 347.119 40.0532L346.436 38.1737C343.669 39.1798 340.921 40.6821 338.191 42.6673L339.368 44.2848ZM347.142 40.0447C349.833 38.9916 352.375 38.4775 354.776 38.4775V36.4775C352.086 36.4775 349.296 37.054 346.413 38.1822L347.142 40.0447ZM354.776 38.4775C354.778 38.4775 354.781 38.4775 354.783 38.4775C354.786 38.4775 354.789 38.4775 354.791 38.4775C354.794 38.4775 354.796 38.4775 354.799 38.4775C354.802 38.4775 354.804 38.4775 354.807 38.4775C354.809 38.4775 354.812 38.4775 354.815 38.4775C354.817 38.4775 354.82 38.4775 354.822 38.4775C354.825 38.4775 354.827 38.4775 354.83 38.4775C354.833 38.4775 354.835 38.4775 354.838 38.4775C354.84 38.4775 354.843 38.4775 354.846 38.4775C354.848 38.4775 354.851 38.4775 354.853 38.4775C354.856 38.4775 354.858 38.4775 354.861 38.4775C354.864 38.4775 354.866 38.4775 354.869 38.4775C354.871 38.4775 354.874 38.4775 354.876 38.4775C354.879 38.4775 354.882 38.4775 354.884 38.4775C354.887 38.4775 354.889 38.4775 354.892 38.4775C354.894 38.4775 354.897 38.4775 354.899 38.4775C354.902 38.4775 354.905 38.4775 354.907 38.4775C354.91 38.4775 354.912 38.4775 354.915 38.4775C354.917 38.4775 354.92 38.4775 354.922 38.4775C354.925 38.4775 354.928 38.4775 354.93 38.4775C354.933 38.4775 354.935 38.4775 354.938 38.4775C354.94 38.4775 354.943 38.4775 354.945 38.4775C354.948 38.4775 354.95 38.4775 354.953 38.4775C354.956 38.4775 354.958 38.4775 354.961 38.4775C354.963 38.4775 354.966 38.4775 354.968 38.4775C354.971 38.4775 354.973 38.4775 354.976 38.4775C354.978 38.4775 354.981 38.4775 354.983 38.4775C354.986 38.4775 354.988 38.4775 354.991 38.4775C354.994 38.4775 354.996 38.4775 354.999 38.4775C355.001 38.4775 355.004 38.4775 355.006 38.4775C355.009 38.4775 355.011 38.4775 355.014 38.4775C355.016 38.4775 355.019 38.4775 355.021 38.4775C355.024 38.4775 355.026 38.4775 355.029 38.4775C355.031 38.4775 355.034 38.4775 355.036 38.4775C355.039 38.4775 355.041 38.4775 355.044 38.4775C355.046 38.4775 355.049 38.4775 355.051 38.4775C355.054 38.4775 355.056 38.4775 355.059 38.4775C355.061 38.4775 355.064 38.4775 355.066 38.4775C355.069 38.4775 355.071 38.4775 355.074 38.4775C355.076 38.4775 355.079 38.4775 355.081 38.4775C355.084 38.4775 355.086 38.4775 355.089 38.4775C355.091 38.4775 355.094 38.4775 355.096 38.4775C355.099 38.4775 355.101 38.4775 355.104 38.4775C355.106 38.4775 355.109 38.4775 355.111 38.4775C355.114 38.4775 355.116 38.4775 355.119 38.4775C355.121 38.4775 355.124 38.4775 355.126 38.4775C355.129 38.4775 355.131 38.4775 355.133 38.4775C355.136 38.4775 355.138 38.4775 355.141 38.4775C355.143 38.4775 355.146 38.4775 355.148 38.4775C355.151 38.4775 355.153 38.4775 355.156 38.4775C355.158 38.4775 355.161 38.4775 355.163 38.4775C355.166 38.4775 355.168 38.4775 355.17 38.4775C355.173 38.4775 355.175 38.4775 355.178 38.4775C355.18 38.4775 355.183 38.4775 355.185 38.4775C355.188 38.4775 355.19 38.4775 355.193 38.4775C355.195 38.4775 355.197 38.4775 355.2 38.4775C355.202 38.4775 355.205 38.4775 355.207 38.4775C355.21 38.4775 355.212 38.4775 355.215 38.4775C355.217 38.4775 355.219 38.4775 355.222 38.4775C355.224 38.4775 355.227 38.4775 355.229 38.4775C355.232 38.4775 355.234 38.4775 355.237 38.4775C355.239 38.4775 355.241 38.4775 355.244 38.4775C355.246 38.4775 355.249 38.4775 355.251 38.4775C355.254 38.4775 355.256 38.4775 355.258 38.4775C355.261 38.4775 355.263 38.4775 355.266 38.4775C355.268 38.4775 355.271 38.4775 355.273 38.4775C355.275 38.4775 355.278 38.4775 355.28 38.4775C355.283 38.4775 355.285 38.4775 355.287 38.4775C355.29 38.4775 355.292 38.4775 355.295 38.4775C355.297 38.4775 355.299 38.4775 355.302 38.4775C355.304 38.4775 355.307 38.4775 355.309 38.4775C355.312 38.4775 355.314 38.4775 355.316 38.4775C355.319 38.4775 355.321 38.4775 355.324 38.4775C355.326 38.4775 355.328 38.4775 355.331 38.4775C355.333 38.4775 355.336 38.4775 355.338 38.4775C355.34 38.4775 355.343 38.4775 355.345 38.4775C355.348 38.4775 355.35 38.4775 355.352 38.4775C355.355 38.4775 355.357 38.4775 355.359 38.4775C355.362 38.4775 355.364 38.4775 355.367 38.4775C355.369 38.4775 355.371 38.4775 355.374 38.4775C355.376 38.4775 355.379 38.4775 355.381 38.4775C355.383 38.4775 355.386 38.4775 355.388 38.4775C355.39 38.4775 355.393 38.4775 355.395 38.4775C355.398 38.4775 355.4 38.4775 355.402 38.4775C355.405 38.4775 355.407 38.4775 355.409 38.4775C355.412 38.4775 355.414 38.4775 355.417 38.4775C355.419 38.4775 355.421 38.4775 355.424 38.4775C355.426 38.4775 355.428 38.4775 355.431 38.4775C355.433 38.4775 355.435 38.4775 355.438 38.4775C355.44 38.4775 355.442 38.4775 355.445 38.4775C355.447 38.4775 355.45 38.4775 355.452 38.4775C355.454 38.4775 355.457 38.4775 355.459 38.4775C355.461 38.4775 355.464 38.4775 355.466 38.4775C355.468 38.4775 355.471 38.4775 355.473 38.4775C355.475 38.4775 355.478 38.4775 355.48 38.4775C355.482 38.4775 355.485 38.4775 355.487 38.4775C355.489 38.4775 355.492 38.4775 355.494 38.4775C355.496 38.4775 355.499 38.4775 355.501 38.4775C355.503 38.4775 355.506 38.4775 355.508 38.4775C355.51 38.4775 355.513 38.4775 355.515 38.4775C355.517 38.4775 355.52 38.4775 355.522 38.4775C355.524 38.4775 355.527 38.4775 355.529 38.4775C355.531 38.4775 355.534 38.4775 355.536 38.4775C355.538 38.4775 355.541 38.4775 355.543 38.4775C355.545 38.4775 355.547 38.4775 355.55 38.4775C355.552 38.4775 355.554 38.4775 355.557 38.4775C355.559 38.4775 355.561 38.4775 355.564 38.4775C355.566 38.4775 355.568 38.4775 355.571 38.4775C355.573 38.4775 355.575 38.4775 355.577 38.4775C355.58 38.4775 355.582 38.4775 355.584 38.4775C355.587 38.4775 355.589 38.4775 355.591 38.4775C355.594 38.4775 355.596 38.4775 355.598 38.4775C355.6 38.4775 355.603 38.4775 355.605 38.4775C355.607 38.4775 355.61 38.4775 355.612 38.4775C355.614 38.4775 355.616 38.4775 355.619 38.4775C355.621 38.4775 355.623 38.4775 355.626 38.4775C355.628 38.4775 355.63 38.4775 355.632 38.4775C355.635 38.4775 355.637 38.4775 355.639 38.4775C355.642 38.4775 355.644 38.4775 355.646 38.4775C355.648 38.4775 355.651 38.4775 355.653 38.4775C355.655 38.4775 355.657 38.4775 355.66 38.4775C355.662 38.4775 355.664 38.4775 355.667 38.4775C355.669 38.4775 355.671 38.4775 355.673 38.4775C355.676 38.4775 355.678 38.4775 355.68 38.4775C355.682 38.4775 355.685 38.4775 355.687 38.4775C355.689 38.4775 355.691 38.4775 355.694 38.4775C355.696 38.4775 355.698 38.4775 355.7 38.4775C355.703 38.4775 355.705 38.4775 355.707 38.4775C355.709 38.4775 355.712 38.4775 355.714 38.4775C355.716 38.4775 355.718 38.4775 355.721 38.4775C355.723 38.4775 355.725 38.4775 355.727 38.4775C355.73 38.4775 355.732 38.4775 355.734 38.4775C355.736 38.4775 355.739 38.4775 355.741 38.4775C355.743 38.4775 355.745 38.4775 355.747 38.4775C355.75 38.4775 355.752 38.4775 355.754 38.4775C355.756 38.4775 355.759 38.4775 355.761 38.4775C355.763 38.4775 355.765 38.4775 355.768 38.4775C355.77 38.4775 355.772 38.4775 355.774 38.4775C355.776 38.4775 355.779 38.4775 355.781 38.4775C355.783 38.4775 355.785 38.4775 355.788 38.4775C355.79 38.4775 355.792 38.4775 355.794 38.4775C355.796 38.4775 355.799 38.4775 355.801 38.4775C355.803 38.4775 355.805 38.4775 355.807 38.4775C355.81 38.4775 355.812 38.4775 355.814 38.4775C355.816 38.4775 355.818 38.4775 355.821 38.4775C355.823 38.4775 355.825 38.4775 355.827 38.4775C355.829 38.4775 355.832 38.4775 355.834 38.4775C355.836 38.4775 355.838 38.4775 355.84 38.4775C355.843 38.4775 355.845 38.4775 355.847 38.4775C355.849 38.4775 355.851 38.4775 355.854 38.4775C355.856 38.4775 355.858 38.4775 355.86 38.4775C355.862 38.4775 355.864 38.4775 355.867 38.4775C355.869 38.4775 355.871 38.4775 355.873 38.4775C355.875 38.4775 355.878 38.4775 355.88 38.4775C355.882 38.4775 355.884 38.4775 355.886 38.4775C355.888 38.4775 355.891 38.4775 355.893 38.4775C355.895 38.4775 355.897 38.4775 355.899 38.4775C355.901 38.4775 355.904 38.4775 355.906 38.4775C355.908 38.4775 355.91 38.4775 355.912 38.4775C355.914 38.4775 355.917 38.4775 355.919 38.4775C355.921 38.4775 355.923 38.4775 355.925 38.4775C355.927 38.4775 355.93 38.4775 355.932 38.4775C355.934 38.4775 355.936 38.4775 355.938 38.4775C355.94 38.4775 355.942 38.4775 355.945 38.4775C355.947 38.4775 355.949 38.4775 355.951 38.4775C355.953 38.4775 355.955 38.4775 355.957 38.4775C355.96 38.4775 355.962 38.4775 355.964 38.4775C355.966 38.4775 355.968 38.4775 355.97 38.4775C355.972 38.4775 355.975 38.4775 355.977 38.4775C355.979 38.4775 355.981 38.4775 355.983 38.4775C355.985 38.4775 355.987 38.4775 355.99 38.4775C355.992 38.4775 355.994 38.4775 355.996 38.4775C355.998 38.4775 356 38.4775 356.002 38.4775C356.004 38.4775 356.007 38.4775 356.009 38.4775C356.011 38.4775 356.013 38.4775 356.015 38.4775C356.017 38.4775 356.019 38.4775 356.021 38.4775C356.023 38.4775 356.026 38.4775 356.028 38.4775C356.03 38.4775 356.032 38.4775 356.034 38.4775C356.036 38.4775 356.038 38.4775 356.04 38.4775C356.042 38.4775 356.045 38.4775 356.047 38.4775C356.049 38.4775 356.051 38.4775 356.053 38.4775C356.055 38.4775 356.057 38.4775 356.059 38.4775C356.061 38.4775 356.063 38.4775 356.066 38.4775C356.068 38.4775 356.07 38.4775 356.072 38.4775C356.074 38.4775 356.076 38.4775 356.078 38.4775C356.08 38.4775 356.082 38.4775 356.084 38.4775C356.086 38.4775 356.089 38.4775 356.091 38.4775C356.093 38.4775 356.095 38.4775 356.097 38.4775C356.099 38.4775 356.101 38.4775 356.103 38.4775C356.105 38.4775 356.107 38.4775 356.109 38.4775C356.111 38.4775 356.114 38.4775 356.116 38.4775C356.118 38.4775 356.12 38.4775 356.122 38.4775C356.124 38.4775 356.126 38.4775 356.128 38.4775C356.13 38.4775 356.132 38.4775 356.134 38.4775C356.136 38.4775 356.138 38.4775 356.14 38.4775C356.142 38.4775 356.145 38.4775 356.147 38.4775C356.149 38.4775 356.151 38.4775 356.153 38.4775C356.155 38.4775 356.157 38.4775 356.159 38.4775C356.161 38.4775 356.163 38.4775 356.165 38.4775C356.167 38.4775 356.169 38.4775 356.171 38.4775C356.173 38.4775 356.175 38.4775 356.177 38.4775C356.179 38.4775 356.181 38.4775 356.184 38.4775C356.186 38.4775 356.188 38.4775 356.19 38.4775C356.192 38.4775 356.194 38.4775 356.196 38.4775C356.198 38.4775 356.2 38.4775 356.202 38.4775C356.204 38.4775 356.206 38.4775 356.208 38.4775C356.21 38.4775 356.212 38.4775 356.214 38.4775C356.216 38.4775 356.218 38.4775 356.22 38.4775C356.222 38.4775 356.224 38.4775 356.226 38.4775C356.228 38.4775 356.23 38.4775 356.232 38.4775C356.234 38.4775 356.236 38.4775 356.238 38.4775C356.24 38.4775 356.242 38.4775 356.244 38.4775C356.246 38.4775 356.248 38.4775 356.25 38.4775C356.252 38.4775 356.254 38.4775 356.257 38.4775C356.259 38.4775 356.261 38.4775 356.263 38.4775C356.265 38.4775 356.267 38.4775 356.269 38.4775C356.271 38.4775 356.273 38.4775 356.275 38.4775C356.277 38.4775 356.279 38.4775 356.281 38.4775C356.283 38.4775 356.285 38.4775 356.287 38.4775C356.289 38.4775 356.291 38.4775 356.293 38.4775C356.295 38.4775 356.297 38.4775 356.299 38.4775C356.301 38.4775 356.302 38.4775 356.304 38.4775C356.306 38.4775 356.308 38.4775 356.31 38.4775C356.312 38.4775 356.314 38.4775 356.316 38.4775C356.318 38.4775 356.32 38.4775 356.322 38.4775C356.324 38.4775 356.326 38.4775 356.328 38.4775C356.33 38.4775 356.332 38.4775 356.334 38.4775C356.336 38.4775 356.338 38.4775 356.34 38.4775C356.342 38.4775 356.344 38.4775 356.346 38.4775C356.348 38.4775 356.35 38.4775 356.352 38.4775C356.354 38.4775 356.356 38.4775 356.358 38.4775C356.36 38.4775 356.362 38.4775 356.364 38.4775C356.366 38.4775 356.368 38.4775 356.37 38.4775C356.372 38.4775 356.373 38.4775 356.375 38.4775C356.377 38.4775 356.379 38.4775 356.381 38.4775C356.383 38.4775 356.385 38.4775 356.387 38.4775C356.389 38.4775 356.391 38.4775 356.393 38.4775C356.395 38.4775 356.397 38.4775 356.399 38.4775C356.401 38.4775 356.403 38.4775 356.405 38.4775C356.407 38.4775 356.409 38.4775 356.41 38.4775C356.412 38.4775 356.414 38.4775 356.416 38.4775C356.418 38.4775 356.42 38.4775 356.422 38.4775C356.424 38.4775 356.426 38.4775 356.428 38.4775C356.43 38.4775 356.432 38.4775 356.434 38.4775C356.436 38.4775 356.438 38.4775 356.439 38.4775C356.441 38.4775 356.443 38.4775 356.445 38.4775C356.447 38.4775 356.449 38.4775 356.451 38.4775C356.453 38.4775 356.455 38.4775 356.457 38.4775C356.459 38.4775 356.461 38.4775 356.462 38.4775C356.464 38.4775 356.466 38.4775 356.468 38.4775C356.47 38.4775 356.472 38.4775 356.474 38.4775C356.476 38.4775 356.478 38.4775 356.48 38.4775C356.482 38.4775 356.483 38.4775 356.485 38.4775C356.487 38.4775 356.489 38.4775 356.491 38.4775C356.493 38.4775 356.495 38.4775 356.497 38.4775C356.499 38.4775 356.501 38.4775 356.502 38.4775C356.504 38.4775 356.506 38.4775 356.508 38.4775C356.51 38.4775 356.512 38.4775 356.514 38.4775C356.516 38.4775 356.518 38.4775 356.519 38.4775C356.521 38.4775 356.523 38.4775 356.525 38.4775C356.527 38.4775 356.529 38.4775 356.531 38.4775C356.533 38.4775 356.534 38.4775 356.536 38.4775C356.538 38.4775 356.54 38.4775 356.542 38.4775C356.544 38.4775 356.546 38.4775 356.548 38.4775C356.549 38.4775 356.551 38.4775 356.553 38.4775C356.555 38.4775 356.557 38.4775 356.559 38.4775C356.561 38.4775 356.563 38.4775 356.564 38.4775C356.566 38.4775 356.568 38.4775 356.57 38.4775C356.572 38.4775 356.574 38.4775 356.576 38.4775C356.577 38.4775 356.579 38.4775 356.581 38.4775C356.583 38.4775 356.585 38.4775 356.587 38.4775C356.589 38.4775 356.59 38.4775 356.592 38.4775C356.594 38.4775 356.596 38.4775 356.598 38.4775C356.6 38.4775 356.601 38.4775 356.603 38.4775C356.605 38.4775 356.607 38.4775 356.609 38.4775C356.611 38.4775 356.613 38.4775 356.614 38.4775C356.616 38.4775 356.618 38.4775 356.62 38.4775C356.622 38.4775 356.624 38.4775 356.625 38.4775C356.627 38.4775 356.629 38.4775 356.631 38.4775C356.633 38.4775 356.635 38.4775 356.636 38.4775C356.638 38.4775 356.64 38.4775 356.642 38.4775C356.644 38.4775 356.645 38.4775 356.647 38.4775C356.649 38.4775 356.651 38.4775 356.653 38.4775C356.655 38.4775 356.656 38.4775 356.658 38.4775C356.66 38.4775 356.662 38.4775 356.664 38.4775C356.665 38.4775 356.667 38.4775 356.669 38.4775C356.671 38.4775 356.673 38.4775 356.675 38.4775C356.676 38.4775 356.678 38.4775 356.68 38.4775C356.682 38.4775 356.684 38.4775 356.685 38.4775C356.687 38.4775 356.689 38.4775 356.691 38.4775C356.693 38.4775 356.694 38.4775 356.696 38.4775C356.698 38.4775 356.7 38.4775 356.702 38.4775C356.703 38.4775 356.705 38.4775 356.707 38.4775C356.709 38.4775 356.71 38.4775 356.712 38.4775C356.714 38.4775 356.716 38.4775 356.718 38.4775C356.719 38.4775 356.721 38.4775 356.723 38.4775C356.725 38.4775 356.727 38.4775 356.728 38.4775C356.73 38.4775 356.732 38.4775 356.734 38.4775C356.735 38.4775 356.737 38.4775 356.739 38.4775C356.741 38.4775 356.743 38.4775 356.744 38.4775C356.746 38.4775 356.748 38.4775 356.75 38.4775C356.751 38.4775 356.753 38.4775 356.755 38.4775C356.757 38.4775 356.758 38.4775 356.76 38.4775C356.762 38.4775 356.764 38.4775 356.766 38.4775C356.767 38.4775 356.769 38.4775 356.771 38.4775C356.773 38.4775 356.774 38.4775 356.776 38.4775C356.778 38.4775 356.78 38.4775 356.781 38.4775C356.783 38.4775 356.785 38.4775 356.787 38.4775C356.788 38.4775 356.79 38.4775 356.792 38.4775C356.794 38.4775 356.795 38.4775 356.797 38.4775C356.799 38.4775 356.801 38.4775 356.802 38.4775C356.804 38.4775 356.806 38.4775 356.807 38.4775C356.809 38.4775 356.811 38.4775 356.813 38.4775C356.814 38.4775 356.816 38.4775 356.818 38.4775C356.82 38.4775 356.821 38.4775 356.823 38.4775C356.825 38.4775 356.827 38.4775 356.828 38.4775C356.83 38.4775 356.832 38.4775 356.833 38.4775C356.835 38.4775 356.837 38.4775 356.839 38.4775C356.84 38.4775 356.842 38.4775 356.844 38.4775C356.845 38.4775 356.847 38.4775 356.849 38.4775C356.851 38.4775 356.852 38.4775 356.854 38.4775C356.856 38.4775 356.858 38.4775 356.859 38.4775C356.861 38.4775 356.863 38.4775 356.864 38.4775C356.866 38.4775 356.868 38.4775 356.869 38.4775C356.871 38.4775 356.873 38.4775 356.875 38.4775C356.876 38.4775 356.878 38.4775 356.88 38.4775C356.881 38.4775 356.883 38.4775 356.885 38.4775C356.886 38.4775 356.888 38.4775 356.89 38.4775C356.892 38.4775 356.893 38.4775 356.895 38.4775C356.897 38.4775 356.898 38.4775 356.9 38.4775C356.902 38.4775 356.903 38.4775 356.905 38.4775C356.907 38.4775 356.908 38.4775 356.91 38.4775C356.912 38.4775 356.913 38.4775 356.915 38.4775C356.917 38.4775 356.919 38.4775 356.92 38.4775C356.922 38.4775 356.924 38.4775 356.925 38.4775C356.927 38.4775 356.929 38.4775 356.93 38.4775C356.932 38.4775 356.934 38.4775 356.935 38.4775C356.937 38.4775 356.939 38.4775 356.94 38.4775C356.942 38.4775 356.944 38.4775 356.945 38.4775C356.947 38.4775 356.949 38.4775 356.95 38.4775C356.952 38.4775 356.954 38.4775 356.955 38.4775C356.957 38.4775 356.959 38.4775 356.96 38.4775C356.962 38.4775 356.963 38.4775 356.965 38.4775C356.967 38.4775 356.968 38.4775 356.97 38.4775C356.972 38.4775 356.973 38.4775 356.975 38.4775C356.977 38.4775 356.978 38.4775 356.98 38.4775C356.982 38.4775 356.983 38.4775 356.985 38.4775C356.987 38.4775 356.988 38.4775 356.99 38.4775C356.991 38.4775 356.993 38.4775 356.995 38.4775C356.996 38.4775 356.998 38.4775 357 38.4775C357.001 38.4775 357.003 38.4775 357.005 38.4775C357.006 38.4775 357.008 38.4775 357.009 38.4775C357.011 38.4775 357.013 38.4775 357.014 38.4775C357.016 38.4775 357.018 38.4775 357.019 38.4775C357.021 38.4775 357.022 38.4775 357.024 38.4775C357.026 38.4775 357.027 38.4775 357.029 38.4775C357.03 38.4775 357.032 38.4775 357.034 38.4775C357.035 38.4775 357.037 38.4775 357.039 38.4775C357.04 38.4775 357.042 38.4775 357.043 38.4775C357.045 38.4775 357.047 38.4775 357.048 38.4775C357.05 38.4775 357.051 38.4775 357.053 38.4775C357.055 38.4775 357.056 38.4775 357.058 38.4775C357.059 38.4775 357.061 38.4775 357.063 38.4775C357.064 38.4775 357.066 38.4775 357.067 38.4775C357.069 38.4775 357.071 38.4775 357.072 38.4775C357.074 38.4775 357.075 38.4775 357.077 38.4775C357.079 38.4775 357.08 38.4775 357.082 38.4775C357.083 38.4775 357.085 38.4775 357.086 38.4775C357.088 38.4775 357.09 38.4775 357.091 38.4775C357.093 38.4775 357.094 38.4775 357.096 38.4775C357.098 38.4775 357.099 38.4775 357.101 38.4775C357.102 38.4775 357.104 38.4775 357.105 38.4775C357.107 38.4775 357.109 38.4775 357.11 38.4775C357.112 38.4775 357.113 38.4775 357.115 38.4775C357.116 38.4775 357.118 38.4775 357.119 38.4775C357.121 38.4775 357.123 38.4775 357.124 38.4775C357.126 38.4775 357.127 38.4775 357.129 38.4775C357.13 38.4775 357.132 38.4775 357.134 38.4775C357.135 38.4775 357.137 38.4775 357.138 38.4775C357.14 38.4775 357.141 38.4775 357.143 38.4775C357.144 38.4775 357.146 38.4775 357.147 38.4775C357.149 38.4775 357.151 38.4775 357.152 38.4775C357.154 38.4775 357.155 38.4775 357.157 38.4775C357.158 38.4775 357.16 38.4775 357.161 38.4775C357.163 38.4775 357.164 38.4775 357.166 38.4775C357.168 38.4775 357.169 38.4775 357.171 38.4775C357.172 38.4775 357.174 38.4775 357.175 38.4775C357.177 38.4775 357.178 38.4775 357.18 38.4775C357.181 38.4775 357.183 38.4775 357.184 38.4775C357.186 38.4775 357.187 38.4775 357.189 38.4775C357.19 38.4775 357.192 38.4775 357.193 38.4775C357.195 38.4775 357.197 38.4775 357.198 38.4775C357.2 38.4775 357.201 38.4775 357.203 38.4775C357.204 38.4775 357.206 38.4775 357.207 38.4775C357.209 38.4775 357.21 38.4775 357.212 38.4775C357.213 38.4775 357.215 38.4775 357.216 38.4775C357.218 38.4775 357.219 38.4775 357.221 38.4775C357.222 38.4775 357.224 38.4775 357.225 38.4775C357.227 38.4775 357.228 38.4775 357.23 38.4775C357.231 38.4775 357.233 38.4775 357.234 38.4775C357.236 38.4775 357.237 38.4775 357.239 38.4775C357.24 38.4775 357.242 38.4775 357.243 38.4775C357.245 38.4775 357.246 38.4775 357.248 38.4775C357.249 38.4775 357.251 38.4775 357.252 38.4775C357.253 38.4775 357.255 38.4775 357.256 38.4775C357.258 38.4775 357.259 38.4775 357.261 38.4775C357.262 38.4775 357.264 38.4775 357.265 38.4775C357.267 38.4775 357.268 38.4775 357.27 38.4775C357.271 38.4775 357.273 38.4775 357.274 38.4775C357.276 38.4775 357.277 38.4775 357.279 38.4775C357.28 38.4775 357.281 38.4775 357.283 38.4775C357.284 38.4775 357.286 38.4775 357.287 38.4775C357.289 38.4775 357.29 38.4775 357.292 38.4775C357.293 38.4775 357.295 38.4775 357.296 38.4775C357.298 38.4775 357.299 38.4775 357.3 38.4775C357.302 38.4775 357.303 38.4775 357.305 38.4775C357.306 38.4775 357.308 38.4775 357.309 38.4775C357.311 38.4775 357.312 38.4775 357.313 38.4775C357.315 38.4775 357.316 38.4775 357.318 38.4775C357.319 38.4775 357.321 38.4775 357.322 38.4775C357.324 38.4775 357.325 38.4775 357.326 38.4775C357.328 38.4775 357.329 38.4775 357.331 38.4775C357.332 38.4775 357.334 38.4775 357.335 38.4775C357.336 38.4775 357.338 38.4775 357.339 38.4775C357.341 38.4775 357.342 38.4775 357.344 38.4775C357.345 38.4775 357.346 38.4775 357.348 38.4775C357.349 38.4775 357.351 38.4775 357.352 38.4775C357.354 38.4775 357.355 38.4775 357.356 38.4775C357.358 38.4775 357.359 38.4775 357.361 38.4775C357.362 38.4775 357.363 38.4775 357.365 38.4775C357.366 38.4775 357.368 38.4775 357.369 38.4775C357.37 38.4775 357.372 38.4775 357.373 38.4775C357.375 38.4775 357.376 38.4775 357.378 38.4775C357.379 38.4775 357.38 38.4775 357.382 38.4775C357.383 38.4775 357.385 38.4775 357.386 38.4775C357.387 38.4775 357.389 38.4775 357.39 38.4775C357.392 38.4775 357.393 38.4775 357.394 38.4775C357.396 38.4775 357.397 38.4775 357.398 38.4775C357.4 38.4775 357.401 38.4775 357.403 38.4775C357.404 38.4775 357.405 38.4775 357.407 38.4775C357.408 38.4775 357.41 38.4775 357.411 38.4775C357.412 38.4775 357.414 38.4775 357.415 38.4775C357.416 38.4775 357.418 38.4775 357.419 38.4775C357.421 38.4775 357.422 38.4775 357.423 38.4775C357.425 38.4775 357.426 38.4775 357.427 38.4775C357.429 38.4775 357.43 38.4775 357.432 38.4775C357.433 38.4775 357.434 38.4775 357.436 38.4775C357.437 38.4775 357.438 38.4775 357.44 38.4775C357.441 38.4775 357.442 38.4775 357.444 38.4775C357.445 38.4775 357.447 38.4775 357.448 38.4775C357.449 38.4775 357.451 38.4775 357.452 38.4775C357.453 38.4775 357.455 38.4775 357.456 38.4775C357.457 38.4775 357.459 38.4775 357.46 38.4775C357.461 38.4775 357.463 38.4775 357.464 38.4775C357.465 38.4775 357.467 38.4775 357.468 38.4775C357.469 38.4775 357.471 38.4775 357.472 38.4775C357.473 38.4775 357.475 38.4775 357.476 38.4775C357.477 38.4775 357.479 38.4775 357.48 38.4775C357.481 38.4775 357.483 38.4775 357.484 38.4775C357.485 38.4775 357.487 38.4775 357.488 38.4775C357.489 38.4775 357.491 38.4775 357.492 38.4775C357.493 38.4775 357.495 38.4775 357.496 38.4775C357.497 38.4775 357.499 38.4775 357.5 38.4775C357.501 38.4775 357.503 38.4775 357.504 38.4775C357.505 38.4775 357.507 38.4775 357.508 38.4775C357.509 38.4775 357.511 38.4775 357.512 38.4775C357.513 38.4775 357.514 38.4775 357.516 38.4775C357.517 38.4775 357.518 38.4775 357.52 38.4775C357.521 38.4775 357.522 38.4775 357.524 38.4775C357.525 38.4775 357.526 38.4775 357.527 38.4775C357.529 38.4775 357.53 38.4775 357.531 38.4775C357.533 38.4775 357.534 38.4775 357.535 38.4775C357.537 38.4775 357.538 38.4775 357.539 38.4775C357.54 38.4775 357.542 38.4775 357.543 38.4775C357.544 38.4775 357.546 38.4775 357.547 38.4775C357.548 38.4775 357.549 38.4775 357.551 38.4775C357.552 38.4775 357.553 38.4775 357.555 38.4775C357.556 38.4775 357.557 38.4775 357.558 38.4775C357.56 38.4775 357.561 38.4775 357.562 38.4775C357.564 38.4775 357.565 38.4775 357.566 38.4775C357.567 38.4775 357.569 38.4775 357.57 38.4775C357.571 38.4775 357.572 38.4775 357.574 38.4775C357.575 38.4775 357.576 38.4775 357.578 38.4775C357.579 38.4775 357.58 38.4775 357.581 38.4775C357.583 38.4775 357.584 38.4775 357.585 38.4775C357.586 38.4775 357.588 38.4775 357.589 38.4775C357.59 38.4775 357.591 38.4775 357.593 38.4775C357.594 38.4775 357.595 38.4775 357.596 38.4775C357.598 38.4775 357.599 38.4775 357.6 38.4775C357.601 38.4775 357.603 38.4775 357.604 38.4775C357.605 38.4775 357.606 38.4775 357.608 38.4775C357.609 38.4775 357.61 38.4775 357.611 38.4775C357.613 38.4775 357.614 38.4775 357.615 38.4775C357.616 38.4775 357.617 38.4775 357.619 38.4775C357.62 38.4775 357.621 38.4775 357.622 38.4775C357.624 38.4775 357.625 38.4775 357.626 38.4775C357.627 38.4775 357.629 38.4775 357.63 38.4775C357.631 38.4775 357.632 38.4775 357.633 38.4775C357.635 38.4775 357.636 38.4775 357.637 38.4775C357.638 38.4775 357.64 38.4775 357.641 38.4775C357.642 38.4775 357.643 38.4775 357.644 38.4775C357.646 38.4775 357.647 38.4775 357.648 38.4775C357.649 38.4775 357.65 38.4775 357.652 38.4775C357.653 38.4775 357.654 38.4775 357.655 38.4775C357.656 38.4775 357.658 38.4775 357.659 38.4775C357.66 38.4775 357.661 38.4775 357.663 38.4775C357.664 38.4775 357.665 38.4775 357.666 38.4775C357.667 38.4775 357.668 38.4775 357.67 38.4775C357.671 38.4775 357.672 38.4775 357.673 38.4775C357.674 38.4775 357.676 38.4775 357.677 38.4775C357.678 38.4775 357.679 38.4775 357.68 38.4775C357.682 38.4775 357.683 38.4775 357.684 38.4775V36.4775C357.683 36.4775 357.682 36.4775 357.68 36.4775C357.679 36.4775 357.678 36.4775 357.677 36.4775C357.676 36.4775 357.674 36.4775 357.673 36.4775C357.672 36.4775 357.671 36.4775 357.67 36.4775C357.668 36.4775 357.667 36.4775 357.666 36.4775C357.665 36.4775 357.664 36.4775 357.663 36.4775C357.661 36.4775 357.66 36.4775 357.659 36.4775C357.658 36.4775 357.656 36.4775 357.655 36.4775C357.654 36.4775 357.653 36.4775 357.652 36.4775C357.65 36.4775 357.649 36.4775 357.648 36.4775C357.647 36.4775 357.646 36.4775 357.644 36.4775C357.643 36.4775 357.642 36.4775 357.641 36.4775C357.64 36.4775 357.638 36.4775 357.637 36.4775C357.636 36.4775 357.635 36.4775 357.633 36.4775C357.632 36.4775 357.631 36.4775 357.63 36.4775C357.629 36.4775 357.627 36.4775 357.626 36.4775C357.625 36.4775 357.624 36.4775 357.622 36.4775C357.621 36.4775 357.62 36.4775 357.619 36.4775C357.617 36.4775 357.616 36.4775 357.615 36.4775C357.614 36.4775 357.613 36.4775 357.611 36.4775C357.61 36.4775 357.609 36.4775 357.608 36.4775C357.606 36.4775 357.605 36.4775 357.604 36.4775C357.603 36.4775 357.601 36.4775 357.6 36.4775C357.599 36.4775 357.598 36.4775 357.596 36.4775C357.595 36.4775 357.594 36.4775 357.593 36.4775C357.591 36.4775 357.59 36.4775 357.589 36.4775C357.588 36.4775 357.586 36.4775 357.585 36.4775C357.584 36.4775 357.583 36.4775 357.581 36.4775C357.58 36.4775 357.579 36.4775 357.578 36.4775C357.576 36.4775 357.575 36.4775 357.574 36.4775C357.572 36.4775 357.571 36.4775 357.57 36.4775C357.569 36.4775 357.567 36.4775 357.566 36.4775C357.565 36.4775 357.564 36.4775 357.562 36.4775C357.561 36.4775 357.56 36.4775 357.558 36.4775C357.557 36.4775 357.556 36.4775 357.555 36.4775C357.553 36.4775 357.552 36.4775 357.551 36.4775C357.549 36.4775 357.548 36.4775 357.547 36.4775C357.546 36.4775 357.544 36.4775 357.543 36.4775C357.542 36.4775 357.54 36.4775 357.539 36.4775C357.538 36.4775 357.537 36.4775 357.535 36.4775C357.534 36.4775 357.533 36.4775 357.531 36.4775C357.53 36.4775 357.529 36.4775 357.527 36.4775C357.526 36.4775 357.525 36.4775 357.524 36.4775C357.522 36.4775 357.521 36.4775 357.52 36.4775C357.518 36.4775 357.517 36.4775 357.516 36.4775C357.514 36.4775 357.513 36.4775 357.512 36.4775C357.511 36.4775 357.509 36.4775 357.508 36.4775C357.507 36.4775 357.505 36.4775 357.504 36.4775C357.503 36.4775 357.501 36.4775 357.5 36.4775C357.499 36.4775 357.497 36.4775 357.496 36.4775C357.495 36.4775 357.493 36.4775 357.492 36.4775C357.491 36.4775 357.489 36.4775 357.488 36.4775C357.487 36.4775 357.485 36.4775 357.484 36.4775C357.483 36.4775 357.481 36.4775 357.48 36.4775C357.479 36.4775 357.477 36.4775 357.476 36.4775C357.475 36.4775 357.473 36.4775 357.472 36.4775C357.471 36.4775 357.469 36.4775 357.468 36.4775C357.467 36.4775 357.465 36.4775 357.464 36.4775C357.463 36.4775 357.461 36.4775 357.46 36.4775C357.459 36.4775 357.457 36.4775 357.456 36.4775C357.455 36.4775 357.453 36.4775 357.452 36.4775C357.451 36.4775 357.449 36.4775 357.448 36.4775C357.447 36.4775 357.445 36.4775 357.444 36.4775C357.442 36.4775 357.441 36.4775 357.44 36.4775C357.438 36.4775 357.437 36.4775 357.436 36.4775C357.434 36.4775 357.433 36.4775 357.432 36.4775C357.43 36.4775 357.429 36.4775 357.427 36.4775C357.426 36.4775 357.425 36.4775 357.423 36.4775C357.422 36.4775 357.421 36.4775 357.419 36.4775C357.418 36.4775 357.416 36.4775 357.415 36.4775C357.414 36.4775 357.412 36.4775 357.411 36.4775C357.41 36.4775 357.408 36.4775 357.407 36.4775C357.405 36.4775 357.404 36.4775 357.403 36.4775C357.401 36.4775 357.4 36.4775 357.398 36.4775C357.397 36.4775 357.396 36.4775 357.394 36.4775C357.393 36.4775 357.392 36.4775 357.39 36.4775C357.389 36.4775 357.387 36.4775 357.386 36.4775C357.385 36.4775 357.383 36.4775 357.382 36.4775C357.38 36.4775 357.379 36.4775 357.378 36.4775C357.376 36.4775 357.375 36.4775 357.373 36.4775C357.372 36.4775 357.37 36.4775 357.369 36.4775C357.368 36.4775 357.366 36.4775 357.365 36.4775C357.363 36.4775 357.362 36.4775 357.361 36.4775C357.359 36.4775 357.358 36.4775 357.356 36.4775C357.355 36.4775 357.354 36.4775 357.352 36.4775C357.351 36.4775 357.349 36.4775 357.348 36.4775C357.346 36.4775 357.345 36.4775 357.344 36.4775C357.342 36.4775 357.341 36.4775 357.339 36.4775C357.338 36.4775 357.336 36.4775 357.335 36.4775C357.334 36.4775 357.332 36.4775 357.331 36.4775C357.329 36.4775 357.328 36.4775 357.326 36.4775C357.325 36.4775 357.324 36.4775 357.322 36.4775C357.321 36.4775 357.319 36.4775 357.318 36.4775C357.316 36.4775 357.315 36.4775 357.313 36.4775C357.312 36.4775 357.311 36.4775 357.309 36.4775C357.308 36.4775 357.306 36.4775 357.305 36.4775C357.303 36.4775 357.302 36.4775 357.3 36.4775C357.299 36.4775 357.298 36.4775 357.296 36.4775C357.295 36.4775 357.293 36.4775 357.292 36.4775C357.29 36.4775 357.289 36.4775 357.287 36.4775C357.286 36.4775 357.284 36.4775 357.283 36.4775C357.281 36.4775 357.28 36.4775 357.279 36.4775C357.277 36.4775 357.276 36.4775 357.274 36.4775C357.273 36.4775 357.271 36.4775 357.27 36.4775C357.268 36.4775 357.267 36.4775 357.265 36.4775C357.264 36.4775 357.262 36.4775 357.261 36.4775C357.259 36.4775 357.258 36.4775 357.256 36.4775C357.255 36.4775 357.253 36.4775 357.252 36.4775C357.251 36.4775 357.249 36.4775 357.248 36.4775C357.246 36.4775 357.245 36.4775 357.243 36.4775C357.242 36.4775 357.24 36.4775 357.239 36.4775C357.237 36.4775 357.236 36.4775 357.234 36.4775C357.233 36.4775 357.231 36.4775 357.23 36.4775C357.228 36.4775 357.227 36.4775 357.225 36.4775C357.224 36.4775 357.222 36.4775 357.221 36.4775C357.219 36.4775 357.218 36.4775 357.216 36.4775C357.215 36.4775 357.213 36.4775 357.212 36.4775C357.21 36.4775 357.209 36.4775 357.207 36.4775C357.206 36.4775 357.204 36.4775 357.203 36.4775C357.201 36.4775 357.2 36.4775 357.198 36.4775C357.197 36.4775 357.195 36.4775 357.193 36.4775C357.192 36.4775 357.19 36.4775 357.189 36.4775C357.187 36.4775 357.186 36.4775 357.184 36.4775C357.183 36.4775 357.181 36.4775 357.18 36.4775C357.178 36.4775 357.177 36.4775 357.175 36.4775C357.174 36.4775 357.172 36.4775 357.171 36.4775C357.169 36.4775 357.168 36.4775 357.166 36.4775C357.164 36.4775 357.163 36.4775 357.161 36.4775C357.16 36.4775 357.158 36.4775 357.157 36.4775C357.155 36.4775 357.154 36.4775 357.152 36.4775C357.151 36.4775 357.149 36.4775 357.147 36.4775C357.146 36.4775 357.144 36.4775 357.143 36.4775C357.141 36.4775 357.14 36.4775 357.138 36.4775C357.137 36.4775 357.135 36.4775 357.134 36.4775C357.132 36.4775 357.13 36.4775 357.129 36.4775C357.127 36.4775 357.126 36.4775 357.124 36.4775C357.123 36.4775 357.121 36.4775 357.119 36.4775C357.118 36.4775 357.116 36.4775 357.115 36.4775C357.113 36.4775 357.112 36.4775 357.11 36.4775C357.109 36.4775 357.107 36.4775 357.105 36.4775C357.104 36.4775 357.102 36.4775 357.101 36.4775C357.099 36.4775 357.098 36.4775 357.096 36.4775C357.094 36.4775 357.093 36.4775 357.091 36.4775C357.09 36.4775 357.088 36.4775 357.086 36.4775C357.085 36.4775 357.083 36.4775 357.082 36.4775C357.08 36.4775 357.079 36.4775 357.077 36.4775C357.075 36.4775 357.074 36.4775 357.072 36.4775C357.071 36.4775 357.069 36.4775 357.067 36.4775C357.066 36.4775 357.064 36.4775 357.063 36.4775C357.061 36.4775 357.059 36.4775 357.058 36.4775C357.056 36.4775 357.055 36.4775 357.053 36.4775C357.051 36.4775 357.05 36.4775 357.048 36.4775C357.047 36.4775 357.045 36.4775 357.043 36.4775C357.042 36.4775 357.04 36.4775 357.039 36.4775C357.037 36.4775 357.035 36.4775 357.034 36.4775C357.032 36.4775 357.03 36.4775 357.029 36.4775C357.027 36.4775 357.026 36.4775 357.024 36.4775C357.022 36.4775 357.021 36.4775 357.019 36.4775C357.018 36.4775 357.016 36.4775 357.014 36.4775C357.013 36.4775 357.011 36.4775 357.009 36.4775C357.008 36.4775 357.006 36.4775 357.005 36.4775C357.003 36.4775 357.001 36.4775 357 36.4775C356.998 36.4775 356.996 36.4775 356.995 36.4775C356.993 36.4775 356.991 36.4775 356.99 36.4775C356.988 36.4775 356.987 36.4775 356.985 36.4775C356.983 36.4775 356.982 36.4775 356.98 36.4775C356.978 36.4775 356.977 36.4775 356.975 36.4775C356.973 36.4775 356.972 36.4775 356.97 36.4775C356.968 36.4775 356.967 36.4775 356.965 36.4775C356.963 36.4775 356.962 36.4775 356.96 36.4775C356.959 36.4775 356.957 36.4775 356.955 36.4775C356.954 36.4775 356.952 36.4775 356.95 36.4775C356.949 36.4775 356.947 36.4775 356.945 36.4775C356.944 36.4775 356.942 36.4775 356.94 36.4775C356.939 36.4775 356.937 36.4775 356.935 36.4775C356.934 36.4775 356.932 36.4775 356.93 36.4775C356.929 36.4775 356.927 36.4775 356.925 36.4775C356.924 36.4775 356.922 36.4775 356.92 36.4775C356.919 36.4775 356.917 36.4775 356.915 36.4775C356.913 36.4775 356.912 36.4775 356.91 36.4775C356.908 36.4775 356.907 36.4775 356.905 36.4775C356.903 36.4775 356.902 36.4775 356.9 36.4775C356.898 36.4775 356.897 36.4775 356.895 36.4775C356.893 36.4775 356.892 36.4775 356.89 36.4775C356.888 36.4775 356.886 36.4775 356.885 36.4775C356.883 36.4775 356.881 36.4775 356.88 36.4775C356.878 36.4775 356.876 36.4775 356.875 36.4775C356.873 36.4775 356.871 36.4775 356.869 36.4775C356.868 36.4775 356.866 36.4775 356.864 36.4775C356.863 36.4775 356.861 36.4775 356.859 36.4775C356.858 36.4775 356.856 36.4775 356.854 36.4775C356.852 36.4775 356.851 36.4775 356.849 36.4775C356.847 36.4775 356.845 36.4775 356.844 36.4775C356.842 36.4775 356.84 36.4775 356.839 36.4775C356.837 36.4775 356.835 36.4775 356.833 36.4775C356.832 36.4775 356.83 36.4775 356.828 36.4775C356.827 36.4775 356.825 36.4775 356.823 36.4775C356.821 36.4775 356.82 36.4775 356.818 36.4775C356.816 36.4775 356.814 36.4775 356.813 36.4775C356.811 36.4775 356.809 36.4775 356.807 36.4775C356.806 36.4775 356.804 36.4775 356.802 36.4775C356.801 36.4775 356.799 36.4775 356.797 36.4775C356.795 36.4775 356.794 36.4775 356.792 36.4775C356.79 36.4775 356.788 36.4775 356.787 36.4775C356.785 36.4775 356.783 36.4775 356.781 36.4775C356.78 36.4775 356.778 36.4775 356.776 36.4775C356.774 36.4775 356.773 36.4775 356.771 36.4775C356.769 36.4775 356.767 36.4775 356.766 36.4775C356.764 36.4775 356.762 36.4775 356.76 36.4775C356.758 36.4775 356.757 36.4775 356.755 36.4775C356.753 36.4775 356.751 36.4775 356.75 36.4775C356.748 36.4775 356.746 36.4775 356.744 36.4775C356.743 36.4775 356.741 36.4775 356.739 36.4775C356.737 36.4775 356.735 36.4775 356.734 36.4775C356.732 36.4775 356.73 36.4775 356.728 36.4775C356.727 36.4775 356.725 36.4775 356.723 36.4775C356.721 36.4775 356.719 36.4775 356.718 36.4775C356.716 36.4775 356.714 36.4775 356.712 36.4775C356.71 36.4775 356.709 36.4775 356.707 36.4775C356.705 36.4775 356.703 36.4775 356.702 36.4775C356.7 36.4775 356.698 36.4775 356.696 36.4775C356.694 36.4775 356.693 36.4775 356.691 36.4775C356.689 36.4775 356.687 36.4775 356.685 36.4775C356.684 36.4775 356.682 36.4775 356.68 36.4775C356.678 36.4775 356.676 36.4775 356.675 36.4775C356.673 36.4775 356.671 36.4775 356.669 36.4775C356.667 36.4775 356.665 36.4775 356.664 36.4775C356.662 36.4775 356.66 36.4775 356.658 36.4775C356.656 36.4775 356.655 36.4775 356.653 36.4775C356.651 36.4775 356.649 36.4775 356.647 36.4775C356.645 36.4775 356.644 36.4775 356.642 36.4775C356.64 36.4775 356.638 36.4775 356.636 36.4775C356.635 36.4775 356.633 36.4775 356.631 36.4775C356.629 36.4775 356.627 36.4775 356.625 36.4775C356.624 36.4775 356.622 36.4775 356.62 36.4775C356.618 36.4775 356.616 36.4775 356.614 36.4775C356.613 36.4775 356.611 36.4775 356.609 36.4775C356.607 36.4775 356.605 36.4775 356.603 36.4775C356.601 36.4775 356.6 36.4775 356.598 36.4775C356.596 36.4775 356.594 36.4775 356.592 36.4775C356.59 36.4775 356.589 36.4775 356.587 36.4775C356.585 36.4775 356.583 36.4775 356.581 36.4775C356.579 36.4775 356.577 36.4775 356.576 36.4775C356.574 36.4775 356.572 36.4775 356.57 36.4775C356.568 36.4775 356.566 36.4775 356.564 36.4775C356.563 36.4775 356.561 36.4775 356.559 36.4775C356.557 36.4775 356.555 36.4775 356.553 36.4775C356.551 36.4775 356.549 36.4775 356.548 36.4775C356.546 36.4775 356.544 36.4775 356.542 36.4775C356.54 36.4775 356.538 36.4775 356.536 36.4775C356.534 36.4775 356.533 36.4775 356.531 36.4775C356.529 36.4775 356.527 36.4775 356.525 36.4775C356.523 36.4775 356.521 36.4775 356.519 36.4775C356.518 36.4775 356.516 36.4775 356.514 36.4775C356.512 36.4775 356.51 36.4775 356.508 36.4775C356.506 36.4775 356.504 36.4775 356.502 36.4775C356.501 36.4775 356.499 36.4775 356.497 36.4775C356.495 36.4775 356.493 36.4775 356.491 36.4775C356.489 36.4775 356.487 36.4775 356.485 36.4775C356.483 36.4775 356.482 36.4775 356.48 36.4775C356.478 36.4775 356.476 36.4775 356.474 36.4775C356.472 36.4775 356.47 36.4775 356.468 36.4775C356.466 36.4775 356.464 36.4775 356.462 36.4775C356.461 36.4775 356.459 36.4775 356.457 36.4775C356.455 36.4775 356.453 36.4775 356.451 36.4775C356.449 36.4775 356.447 36.4775 356.445 36.4775C356.443 36.4775 356.441 36.4775 356.439 36.4775C356.438 36.4775 356.436 36.4775 356.434 36.4775C356.432 36.4775 356.43 36.4775 356.428 36.4775C356.426 36.4775 356.424 36.4775 356.422 36.4775C356.42 36.4775 356.418 36.4775 356.416 36.4775C356.414 36.4775 356.412 36.4775 356.41 36.4775C356.409 36.4775 356.407 36.4775 356.405 36.4775C356.403 36.4775 356.401 36.4775 356.399 36.4775C356.397 36.4775 356.395 36.4775 356.393 36.4775C356.391 36.4775 356.389 36.4775 356.387 36.4775C356.385 36.4775 356.383 36.4775 356.381 36.4775C356.379 36.4775 356.377 36.4775 356.375 36.4775C356.373 36.4775 356.372 36.4775 356.37 36.4775C356.368 36.4775 356.366 36.4775 356.364 36.4775C356.362 36.4775 356.36 36.4775 356.358 36.4775C356.356 36.4775 356.354 36.4775 356.352 36.4775C356.35 36.4775 356.348 36.4775 356.346 36.4775C356.344 36.4775 356.342 36.4775 356.34 36.4775C356.338 36.4775 356.336 36.4775 356.334 36.4775C356.332 36.4775 356.33 36.4775 356.328 36.4775C356.326 36.4775 356.324 36.4775 356.322 36.4775C356.32 36.4775 356.318 36.4775 356.316 36.4775C356.314 36.4775 356.312 36.4775 356.31 36.4775C356.308 36.4775 356.306 36.4775 356.304 36.4775C356.302 36.4775 356.301 36.4775 356.299 36.4775C356.297 36.4775 356.295 36.4775 356.293 36.4775C356.291 36.4775 356.289 36.4775 356.287 36.4775C356.285 36.4775 356.283 36.4775 356.281 36.4775C356.279 36.4775 356.277 36.4775 356.275 36.4775C356.273 36.4775 356.271 36.4775 356.269 36.4775C356.267 36.4775 356.265 36.4775 356.263 36.4775C356.261 36.4775 356.259 36.4775 356.257 36.4775C356.254 36.4775 356.252 36.4775 356.25 36.4775C356.248 36.4775 356.246 36.4775 356.244 36.4775C356.242 36.4775 356.24 36.4775 356.238 36.4775C356.236 36.4775 356.234 36.4775 356.232 36.4775C356.23 36.4775 356.228 36.4775 356.226 36.4775C356.224 36.4775 356.222 36.4775 356.22 36.4775C356.218 36.4775 356.216 36.4775 356.214 36.4775C356.212 36.4775 356.21 36.4775 356.208 36.4775C356.206 36.4775 356.204 36.4775 356.202 36.4775C356.2 36.4775 356.198 36.4775 356.196 36.4775C356.194 36.4775 356.192 36.4775 356.19 36.4775C356.188 36.4775 356.186 36.4775 356.184 36.4775C356.181 36.4775 356.179 36.4775 356.177 36.4775C356.175 36.4775 356.173 36.4775 356.171 36.4775C356.169 36.4775 356.167 36.4775 356.165 36.4775C356.163 36.4775 356.161 36.4775 356.159 36.4775C356.157 36.4775 356.155 36.4775 356.153 36.4775C356.151 36.4775 356.149 36.4775 356.147 36.4775C356.145 36.4775 356.142 36.4775 356.14 36.4775C356.138 36.4775 356.136 36.4775 356.134 36.4775C356.132 36.4775 356.13 36.4775 356.128 36.4775C356.126 36.4775 356.124 36.4775 356.122 36.4775C356.12 36.4775 356.118 36.4775 356.116 36.4775C356.114 36.4775 356.111 36.4775 356.109 36.4775C356.107 36.4775 356.105 36.4775 356.103 36.4775C356.101 36.4775 356.099 36.4775 356.097 36.4775C356.095 36.4775 356.093 36.4775 356.091 36.4775C356.089 36.4775 356.086 36.4775 356.084 36.4775C356.082 36.4775 356.08 36.4775 356.078 36.4775C356.076 36.4775 356.074 36.4775 356.072 36.4775C356.07 36.4775 356.068 36.4775 356.066 36.4775C356.063 36.4775 356.061 36.4775 356.059 36.4775C356.057 36.4775 356.055 36.4775 356.053 36.4775C356.051 36.4775 356.049 36.4775 356.047 36.4775C356.045 36.4775 356.042 36.4775 356.04 36.4775C356.038 36.4775 356.036 36.4775 356.034 36.4775C356.032 36.4775 356.03 36.4775 356.028 36.4775C356.026 36.4775 356.023 36.4775 356.021 36.4775C356.019 36.4775 356.017 36.4775 356.015 36.4775C356.013 36.4775 356.011 36.4775 356.009 36.4775C356.007 36.4775 356.004 36.4775 356.002 36.4775C356 36.4775 355.998 36.4775 355.996 36.4775C355.994 36.4775 355.992 36.4775 355.99 36.4775C355.987 36.4775 355.985 36.4775 355.983 36.4775C355.981 36.4775 355.979 36.4775 355.977 36.4775C355.975 36.4775 355.972 36.4775 355.97 36.4775C355.968 36.4775 355.966 36.4775 355.964 36.4775C355.962 36.4775 355.96 36.4775 355.957 36.4775C355.955 36.4775 355.953 36.4775 355.951 36.4775C355.949 36.4775 355.947 36.4775 355.945 36.4775C355.942 36.4775 355.94 36.4775 355.938 36.4775C355.936 36.4775 355.934 36.4775 355.932 36.4775C355.93 36.4775 355.927 36.4775 355.925 36.4775C355.923 36.4775 355.921 36.4775 355.919 36.4775C355.917 36.4775 355.914 36.4775 355.912 36.4775C355.91 36.4775 355.908 36.4775 355.906 36.4775C355.904 36.4775 355.901 36.4775 355.899 36.4775C355.897 36.4775 355.895 36.4775 355.893 36.4775C355.891 36.4775 355.888 36.4775 355.886 36.4775C355.884 36.4775 355.882 36.4775 355.88 36.4775C355.878 36.4775 355.875 36.4775 355.873 36.4775C355.871 36.4775 355.869 36.4775 355.867 36.4775C355.864 36.4775 355.862 36.4775 355.86 36.4775C355.858 36.4775 355.856 36.4775 355.854 36.4775C355.851 36.4775 355.849 36.4775 355.847 36.4775C355.845 36.4775 355.843 36.4775 355.84 36.4775C355.838 36.4775 355.836 36.4775 355.834 36.4775C355.832 36.4775 355.829 36.4775 355.827 36.4775C355.825 36.4775 355.823 36.4775 355.821 36.4775C355.818 36.4775 355.816 36.4775 355.814 36.4775C355.812 36.4775 355.81 36.4775 355.807 36.4775C355.805 36.4775 355.803 36.4775 355.801 36.4775C355.799 36.4775 355.796 36.4775 355.794 36.4775C355.792 36.4775 355.79 36.4775 355.788 36.4775C355.785 36.4775 355.783 36.4775 355.781 36.4775C355.779 36.4775 355.776 36.4775 355.774 36.4775C355.772 36.4775 355.77 36.4775 355.768 36.4775C355.765 36.4775 355.763 36.4775 355.761 36.4775C355.759 36.4775 355.756 36.4775 355.754 36.4775C355.752 36.4775 355.75 36.4775 355.747 36.4775C355.745 36.4775 355.743 36.4775 355.741 36.4775C355.739 36.4775 355.736 36.4775 355.734 36.4775C355.732 36.4775 355.73 36.4775 355.727 36.4775C355.725 36.4775 355.723 36.4775 355.721 36.4775C355.718 36.4775 355.716 36.4775 355.714 36.4775C355.712 36.4775 355.709 36.4775 355.707 36.4775C355.705 36.4775 355.703 36.4775 355.7 36.4775C355.698 36.4775 355.696 36.4775 355.694 36.4775C355.691 36.4775 355.689 36.4775 355.687 36.4775C355.685 36.4775 355.682 36.4775 355.68 36.4775C355.678 36.4775 355.676 36.4775 355.673 36.4775C355.671 36.4775 355.669 36.4775 355.667 36.4775C355.664 36.4775 355.662 36.4775 355.66 36.4775C355.657 36.4775 355.655 36.4775 355.653 36.4775C355.651 36.4775 355.648 36.4775 355.646 36.4775C355.644 36.4775 355.642 36.4775 355.639 36.4775C355.637 36.4775 355.635 36.4775 355.632 36.4775C355.63 36.4775 355.628 36.4775 355.626 36.4775C355.623 36.4775 355.621 36.4775 355.619 36.4775C355.616 36.4775 355.614 36.4775 355.612 36.4775C355.61 36.4775 355.607 36.4775 355.605 36.4775C355.603 36.4775 355.6 36.4775 355.598 36.4775C355.596 36.4775 355.594 36.4775 355.591 36.4775C355.589 36.4775 355.587 36.4775 355.584 36.4775C355.582 36.4775 355.58 36.4775 355.577 36.4775C355.575 36.4775 355.573 36.4775 355.571 36.4775C355.568 36.4775 355.566 36.4775 355.564 36.4775C355.561 36.4775 355.559 36.4775 355.557 36.4775C355.554 36.4775 355.552 36.4775 355.55 36.4775C355.547 36.4775 355.545 36.4775 355.543 36.4775C355.541 36.4775 355.538 36.4775 355.536 36.4775C355.534 36.4775 355.531 36.4775 355.529 36.4775C355.527 36.4775 355.524 36.4775 355.522 36.4775C355.52 36.4775 355.517 36.4775 355.515 36.4775C355.513 36.4775 355.51 36.4775 355.508 36.4775C355.506 36.4775 355.503 36.4775 355.501 36.4775C355.499 36.4775 355.496 36.4775 355.494 36.4775C355.492 36.4775 355.489 36.4775 355.487 36.4775C355.485 36.4775 355.482 36.4775 355.48 36.4775C355.478 36.4775 355.475 36.4775 355.473 36.4775C355.471 36.4775 355.468 36.4775 355.466 36.4775C355.464 36.4775 355.461 36.4775 355.459 36.4775C355.457 36.4775 355.454 36.4775 355.452 36.4775C355.45 36.4775 355.447 36.4775 355.445 36.4775C355.442 36.4775 355.44 36.4775 355.438 36.4775C355.435 36.4775 355.433 36.4775 355.431 36.4775C355.428 36.4775 355.426 36.4775 355.424 36.4775C355.421 36.4775 355.419 36.4775 355.417 36.4775C355.414 36.4775 355.412 36.4775 355.409 36.4775C355.407 36.4775 355.405 36.4775 355.402 36.4775C355.4 36.4775 355.398 36.4775 355.395 36.4775C355.393 36.4775 355.39 36.4775 355.388 36.4775C355.386 36.4775 355.383 36.4775 355.381 36.4775C355.379 36.4775 355.376 36.4775 355.374 36.4775C355.371 36.4775 355.369 36.4775 355.367 36.4775C355.364 36.4775 355.362 36.4775 355.359 36.4775C355.357 36.4775 355.355 36.4775 355.352 36.4775C355.35 36.4775 355.348 36.4775 355.345 36.4775C355.343 36.4775 355.34 36.4775 355.338 36.4775C355.336 36.4775 355.333 36.4775 355.331 36.4775C355.328 36.4775 355.326 36.4775 355.324 36.4775C355.321 36.4775 355.319 36.4775 355.316 36.4775C355.314 36.4775 355.312 36.4775 355.309 36.4775C355.307 36.4775 355.304 36.4775 355.302 36.4775C355.299 36.4775 355.297 36.4775 355.295 36.4775C355.292 36.4775 355.29 36.4775 355.287 36.4775C355.285 36.4775 355.283 36.4775 355.28 36.4775C355.278 36.4775 355.275 36.4775 355.273 36.4775C355.271 36.4775 355.268 36.4775 355.266 36.4775C355.263 36.4775 355.261 36.4775 355.258 36.4775C355.256 36.4775 355.254 36.4775 355.251 36.4775C355.249 36.4775 355.246 36.4775 355.244 36.4775C355.241 36.4775 355.239 36.4775 355.237 36.4775C355.234 36.4775 355.232 36.4775 355.229 36.4775C355.227 36.4775 355.224 36.4775 355.222 36.4775C355.219 36.4775 355.217 36.4775 355.215 36.4775C355.212 36.4775 355.21 36.4775 355.207 36.4775C355.205 36.4775 355.202 36.4775 355.2 36.4775C355.197 36.4775 355.195 36.4775 355.193 36.4775C355.19 36.4775 355.188 36.4775 355.185 36.4775C355.183 36.4775 355.18 36.4775 355.178 36.4775C355.175 36.4775 355.173 36.4775 355.17 36.4775C355.168 36.4775 355.166 36.4775 355.163 36.4775C355.161 36.4775 355.158 36.4775 355.156 36.4775C355.153 36.4775 355.151 36.4775 355.148 36.4775C355.146 36.4775 355.143 36.4775 355.141 36.4775C355.138 36.4775 355.136 36.4775 355.133 36.4775C355.131 36.4775 355.129 36.4775 355.126 36.4775C355.124 36.4775 355.121 36.4775 355.119 36.4775C355.116 36.4775 355.114 36.4775 355.111 36.4775C355.109 36.4775 355.106 36.4775 355.104 36.4775C355.101 36.4775 355.099 36.4775 355.096 36.4775C355.094 36.4775 355.091 36.4775 355.089 36.4775C355.086 36.4775 355.084 36.4775 355.081 36.4775C355.079 36.4775 355.076 36.4775 355.074 36.4775C355.071 36.4775 355.069 36.4775 355.066 36.4775C355.064 36.4775 355.061 36.4775 355.059 36.4775C355.056 36.4775 355.054 36.4775 355.051 36.4775C355.049 36.4775 355.046 36.4775 355.044 36.4775C355.041 36.4775 355.039 36.4775 355.036 36.4775C355.034 36.4775 355.031 36.4775 355.029 36.4775C355.026 36.4775 355.024 36.4775 355.021 36.4775C355.019 36.4775 355.016 36.4775 355.014 36.4775C355.011 36.4775 355.009 36.4775 355.006 36.4775C355.004 36.4775 355.001 36.4775 354.999 36.4775C354.996 36.4775 354.994 36.4775 354.991 36.4775C354.988 36.4775 354.986 36.4775 354.983 36.4775C354.981 36.4775 354.978 36.4775 354.976 36.4775C354.973 36.4775 354.971 36.4775 354.968 36.4775C354.966 36.4775 354.963 36.4775 354.961 36.4775C354.958 36.4775 354.956 36.4775 354.953 36.4775C354.95 36.4775 354.948 36.4775 354.945 36.4775C354.943 36.4775 354.94 36.4775 354.938 36.4775C354.935 36.4775 354.933 36.4775 354.93 36.4775C354.928 36.4775 354.925 36.4775 354.922 36.4775C354.92 36.4775 354.917 36.4775 354.915 36.4775C354.912 36.4775 354.91 36.4775 354.907 36.4775C354.905 36.4775 354.902 36.4775 354.899 36.4775C354.897 36.4775 354.894 36.4775 354.892 36.4775C354.889 36.4775 354.887 36.4775 354.884 36.4775C354.882 36.4775 354.879 36.4775 354.876 36.4775C354.874 36.4775 354.871 36.4775 354.869 36.4775C354.866 36.4775 354.864 36.4775 354.861 36.4775C354.858 36.4775 354.856 36.4775 354.853 36.4775C354.851 36.4775 354.848 36.4775 354.846 36.4775C354.843 36.4775 354.84 36.4775 354.838 36.4775C354.835 36.4775 354.833 36.4775 354.83 36.4775C354.827 36.4775 354.825 36.4775 354.822 36.4775C354.82 36.4775 354.817 36.4775 354.815 36.4775C354.812 36.4775 354.809 36.4775 354.807 36.4775C354.804 36.4775 354.802 36.4775 354.799 36.4775C354.796 36.4775 354.794 36.4775 354.791 36.4775C354.789 36.4775 354.786 36.4775 354.783 36.4775C354.781 36.4775 354.778 36.4775 354.776 36.4775V38.4775ZM357.684 38.4775C358.356 38.4775 358.956 38.5336 359.487 38.6398L359.88 36.6787C359.199 36.5425 358.466 36.4775 357.684 36.4775V38.4775ZM358.683 37.6592V59.8358H360.683V37.6592H358.683ZM438.341 134L437.51 134.556L437.807 135H438.341V134ZM410.711 92.7371L411.542 92.1807L410.87 91.1764L410.009 92.025L410.711 92.7371ZM397.623 105.643L396.921 104.931L396.623 105.225V105.643H397.623ZM397.623 134V135H398.623V134H397.623ZM373.266 134H372.266V135H373.266V134ZM373.266 1.30425V0.304251H372.266V1.30425L373.266 1.30425ZM397.623 1.30425H398.623V0.304251L397.623 0.304251V1.30425ZM397.623 81.8306H396.623V84.4587L398.37 82.4953L397.623 81.8306ZM435.796 38.9317V37.9317H435.347L435.049 38.2669L435.796 38.9317ZM461.79 38.9317L462.541 39.5916L463.999 37.9317H461.79V38.9317ZM426.344 79.2857L425.592 78.6258L425.076 79.2135L425.522 79.8561L426.344 79.2857ZM464.335 134V135H466.247L465.156 133.43L464.335 134ZM439.172 133.444L411.542 92.1807L409.88 93.2935L437.51 134.556L439.172 133.444ZM410.009 92.025L396.921 104.931L398.326 106.355L411.413 93.4491L410.009 92.025ZM396.623 105.643V134H398.623V105.643H396.623ZM397.623 133H373.266V135H397.623V133ZM374.266 134V1.30425L372.266 1.30425V134H374.266ZM373.266 2.30425L397.623 2.30425V0.304251L373.266 0.304251V2.30425ZM396.623 1.30425V81.8306H398.623V1.30425L396.623 1.30425ZM398.37 82.4953L436.543 39.5964L435.049 38.2669L396.876 81.1658L398.37 82.4953ZM435.796 39.9317H461.79V37.9317H435.796V39.9317ZM461.039 38.2717L425.592 78.6258L427.095 79.9457L462.541 39.5916L461.039 38.2717ZM425.522 79.8561L463.513 134.57L465.156 133.43L427.165 78.7154L425.522 79.8561ZM464.335 133L438.341 133V135L464.335 135V133ZM487.169 132L487.485 131.052L487.169 132ZM467.537 121.094L466.678 120.582L466.25 121.302L466.882 121.85L467.537 121.094ZM476.626 105.825L477.204 105.009L476.32 104.383L475.767 105.313L476.626 105.825ZM493.531 115.277L493.16 116.206L493.172 116.211L493.184 116.215L493.531 115.277ZM520.797 100.372L520.363 101.273L520.797 100.372ZM504.801 94.9184L505.069 93.9551L505.066 93.954L504.801 94.9184ZM488.987 90.0105L488.647 90.951L488.987 90.0105ZM478.444 84.739L477.832 85.5303L477.844 85.5392L477.855 85.5477L478.444 84.739ZM472.627 77.8315L471.716 78.2453L471.72 78.2534L471.724 78.2615L472.627 77.8315ZM473.536 55.2914L472.641 54.8442L472.636 54.8555L472.63 54.867L473.536 55.2914ZM481.534 45.4756L482.152 46.2619L482.16 46.2552L482.169 46.2483L481.534 45.4756ZM493.349 39.1134L493.048 38.1598L493.041 38.1622L493.349 39.1134ZM528.25 40.0223L527.934 40.971L527.939 40.9728L528.25 40.0223ZM545.519 50.02L546.351 50.5746L546.835 49.8485L546.181 49.2706L545.519 50.02ZM535.703 64.7437L535.103 65.5437L535.948 66.178L536.535 65.2984L535.703 64.7437ZM521.524 56.7456L521.17 57.6809L521.179 57.684L521.524 56.7456ZM494.44 69.1063L493.566 69.592L493.585 69.6273L493.608 69.661L494.44 69.1063ZM503.347 74.5596L503.001 75.4979L503.03 75.5086L503.059 75.5174L503.347 74.5596ZM512.254 76.9227L512.505 75.9547L512.497 75.9525L512.488 75.9506L512.254 76.9227ZM528.977 82.0124L528.631 82.9507L528.639 82.9535L528.977 82.0124ZM540.429 87.8291L539.829 88.6292L539.837 88.635L539.845 88.6407L540.429 87.8291ZM546.973 95.4637L546.064 95.8804L546.074 95.9036L546.086 95.9263L546.973 95.4637ZM538.793 127.82L539.404 128.611L539.413 128.605L538.793 127.82ZM510.618 134.818C502.728 134.818 495.018 133.563 487.485 131.052L486.853 132.949C494.588 135.528 502.512 136.818 510.618 136.818V134.818ZM487.485 131.052C479.961 128.544 473.535 124.969 468.192 120.338L466.882 121.85C472.445 126.671 479.108 130.368 486.853 132.949L487.485 131.052ZM468.396 121.605L477.485 106.336L475.767 105.313L466.678 120.582L468.396 121.605ZM476.048 106.641C481.916 110.797 487.62 113.99 493.16 116.206L493.902 114.349C488.536 112.202 482.97 109.093 477.204 105.009L476.048 106.641ZM493.184 116.215C498.86 118.313 504.491 119.367 510.072 119.367V117.367C504.748 117.367 499.351 116.362 493.878 114.339L493.184 116.215ZM510.072 119.367C515.03 119.367 519.063 118.44 522.071 116.478L520.978 114.803C518.412 116.477 514.81 117.367 510.072 117.367V119.367ZM522.071 116.478C525.148 114.472 526.705 111.547 526.705 107.824H524.705C524.705 110.888 523.476 113.174 520.978 114.803L522.071 116.478ZM526.705 107.824C526.705 105.961 526.253 104.294 525.313 102.866C524.376 101.443 522.994 100.32 521.231 99.4706L520.363 101.273C521.872 101.999 522.944 102.906 523.643 103.966C524.339 105.023 524.705 106.295 524.705 107.824H526.705ZM521.231 99.4706C517.875 97.8545 512.47 96.0176 505.069 93.9551L504.533 95.8817C511.916 97.9394 517.176 99.738 520.363 101.273L521.231 99.4706ZM505.066 93.954C498.902 92.262 493.657 90.6337 489.326 89.0699L488.647 90.951C493.041 92.5379 498.339 94.1816 504.536 95.8827L505.066 93.954ZM489.326 89.0699C485.019 87.5146 481.598 85.7963 479.032 83.9302L477.855 85.5477C480.622 87.5595 484.229 89.3555 488.647 90.951L489.326 89.0699ZM479.055 83.9477C476.489 81.9649 474.662 79.7797 473.53 77.4016L471.724 78.2615C473.015 80.9731 475.066 83.3928 477.832 85.5303L479.055 83.9477ZM473.537 77.4177C472.397 74.909 471.809 71.9055 471.809 68.3792H469.809C469.809 72.1239 470.433 75.4219 471.716 78.2453L473.537 77.4177ZM471.809 68.3792C471.809 63.6592 472.693 59.4444 474.441 55.7159L472.63 54.867C470.742 58.8942 469.809 63.4046 469.809 68.3792H471.809ZM474.43 55.7386C476.303 51.9922 478.875 48.8363 482.152 46.2619L480.916 44.6893C477.406 47.447 474.646 50.8349 472.641 54.8442L474.43 55.7386ZM482.169 46.2483C485.458 43.5461 489.284 41.4831 493.658 40.0647L493.041 38.1622C488.447 39.6521 484.396 41.8306 480.899 44.7029L482.169 46.2483ZM493.65 40.067C498.148 38.6466 503.014 37.9321 508.255 37.9321V35.9321C502.831 35.9321 497.76 36.6719 493.048 38.1599L493.65 40.067ZM508.255 37.9321C515.307 37.9321 521.865 38.948 527.934 40.971L528.566 39.0736C522.274 36.9764 515.502 35.9321 508.255 35.9321V37.9321ZM527.939 40.9728C534.105 42.9885 539.743 46.2501 544.856 50.7693L546.181 49.2706C540.873 44.5798 534.998 41.1764 528.561 39.0718L527.939 40.9728ZM544.687 49.4653L534.871 64.189L536.535 65.2984L546.351 50.5746L544.687 49.4653ZM536.303 63.9437C531.395 60.2631 526.584 57.5442 521.87 55.8073L521.179 57.684C525.674 59.3402 530.316 61.9534 535.103 65.5437L536.303 63.9437ZM521.878 55.8103C517.289 54.074 512.686 53.2008 508.073 53.2008V55.2008C512.428 55.2008 516.792 56.0242 521.17 57.6809L521.878 55.8103ZM508.073 53.2008C503.817 53.2008 500.172 54.0774 497.192 55.8914L498.232 57.5998C500.826 56.0207 504.088 55.2008 508.073 55.2008V53.2008ZM497.192 55.8914C494.057 57.7998 492.531 60.8824 492.531 64.9255H494.531C494.531 61.4553 495.792 59.0846 498.232 57.5998L497.192 55.8914ZM492.531 64.9255C492.531 66.7335 492.853 68.3088 493.566 69.592L495.314 68.6207C494.815 67.7225 494.531 66.5106 494.531 64.9255H492.531ZM493.608 69.661C494.44 70.9091 495.658 71.9746 497.208 72.8785L498.216 71.1509C496.857 70.3583 495.894 69.4849 495.272 68.5516L493.608 69.661ZM497.208 72.8785C498.73 73.7662 500.666 74.6377 503.001 75.4979L503.693 73.6212C501.422 72.7849 499.602 71.9598 498.216 71.1509L497.208 72.8785ZM503.059 75.5174C505.506 76.2514 508.494 77.0438 512.019 77.8947L512.488 75.9506C508.985 75.1049 506.035 74.3219 503.634 73.6017L503.059 75.5174ZM512.003 77.8906C518.526 79.5818 524.067 81.2689 528.631 82.9507L529.323 81.074C524.678 79.3626 519.07 77.6567 512.505 75.9547L512.003 77.8906ZM528.639 82.9535C533.304 84.6282 537.024 86.5257 539.829 88.6292L541.029 87.0292C538.017 84.77 534.102 82.7896 529.315 81.0712L528.639 82.9535ZM539.845 88.6407C542.757 90.7378 544.814 93.154 546.064 95.8804L547.882 95.047C546.465 91.9566 544.16 89.2831 541.013 87.0176L539.845 88.6407ZM546.086 95.9263C547.448 98.5371 548.154 101.762 548.154 105.643H550.154C550.154 101.526 549.406 97.9647 547.859 95.0011L546.086 95.9263ZM548.154 105.643C548.154 114.689 544.824 121.784 538.173 127.035L539.413 128.605C546.576 122.949 550.154 115.259 550.154 105.643H548.154ZM538.182 127.028C531.503 132.184 522.352 134.818 510.618 134.818V136.818C522.636 136.818 532.268 134.12 539.404 128.611L538.182 127.028Z" fill="#C2C2C2"/>
</svg>
