<svg width="809" height="163" viewBox="0 0 809 163" fill="none" xmlns="http://www.w3.org/2000/svg">
<path opacity="0.4" d="M1.38175 159H0.38175V160H1.38175V159ZM1.38175 1.82374V0.823742L0.38175 0.823742V1.82374L1.38175 1.82374ZM87.9394 6.47262L87.4835 7.36267L87.4964 7.36926L87.5095 7.37548L87.9394 6.47262ZM103.878 18.4269L103.129 19.0885L103.133 19.094L103.138 19.0995L103.878 18.4269ZM114.283 35.2514L113.353 35.619L113.356 35.6266L114.283 35.2514ZM114.504 73.5492L115.439 73.9053L115.442 73.898L114.504 73.5492ZM89.0463 101.885L88.6078 100.986L89.0463 101.885ZM31.9315 106.313V105.313H30.9315V106.313H31.9315ZM31.9315 159V160H32.9315V159H31.9315ZM31.9315 79.5264H30.9315V80.5264H31.9315V79.5264ZM81.2981 72.6637L80.5319 72.0211L80.5258 72.0285L80.5197 72.036L81.2981 72.6637ZM85.2829 43.4422L84.3431 43.784L84.3457 43.7911L84.3484 43.7982L85.2829 43.4422ZM80.634 35.2514L79.8783 35.9063L80.634 35.2514ZM73.7714 30.3811L73.3456 31.2859L73.3768 31.3006L73.4089 31.3131L73.7714 30.3811ZM31.9315 28.6101V27.6101H30.9315V28.6101H31.9315ZM2.38175 159L2.38175 1.82374L0.38175 1.82374L0.38175 159H2.38175ZM1.38175 2.82374L68.0156 2.82374V0.823742L1.38175 0.823742V2.82374ZM68.0156 2.82374C75.0991 2.82374 81.5826 4.34026 87.4835 7.36267L88.3953 5.58258C82.1943 2.40647 75.3954 0.823742 68.0156 0.823742V2.82374ZM87.5095 7.37548C93.5894 10.2707 98.7926 14.1745 103.129 19.0885L104.628 17.7652C100.109 12.6436 94.6864 8.57789 88.3693 5.56976L87.5095 7.37548ZM103.138 19.0995C107.482 23.8771 110.887 29.3811 113.353 35.619L115.213 34.8837C112.661 28.4295 109.13 22.7171 104.618 17.7542L103.138 19.0995ZM113.356 35.6266C115.819 41.7124 117.046 47.8576 117.046 54.0682H119.046C119.046 47.5867 117.764 41.1874 115.21 34.8762L113.356 35.6266ZM117.046 54.0682C117.046 60.5881 115.888 66.9638 113.567 73.2005L115.442 73.898C117.844 67.4425 119.046 60.8309 119.046 54.0682H117.046ZM113.57 73.1933C111.25 79.2829 107.991 84.7137 103.791 89.4923L105.294 90.8125C109.654 85.8505 113.036 80.2126 115.439 73.9052L113.57 73.1933ZM103.791 89.4923C99.6022 94.2592 94.5444 98.0906 88.6078 100.986L89.4847 102.784C95.65 99.7766 100.923 95.786 105.294 90.8125L103.791 89.4923ZM88.6078 100.986C82.7034 103.867 76.2136 105.313 69.1225 105.313V107.313C76.4945 107.313 83.2872 105.807 89.4847 102.784L88.6078 100.986ZM69.1225 105.313H31.9315V107.313H69.1225V105.313ZM30.9315 106.313L30.9315 159H32.9315L32.9315 106.313H30.9315ZM31.9315 158H1.38175V160H31.9315V158ZM31.9315 80.5264H67.3515V78.5264H31.9315V80.5264ZM67.3515 80.5264C73.2785 80.5264 78.2076 78.0889 82.0765 73.2915L80.5197 72.036C77.0095 76.3887 72.6409 78.5264 67.3515 78.5264V80.5264ZM82.0643 73.3064C86.094 68.5017 88.0539 62.0514 88.0539 54.0682H86.0539C86.0539 61.729 84.1766 67.6756 80.5319 72.0211L82.0643 73.3064ZM88.0539 54.0682C88.0539 49.9857 87.4491 46.3195 86.2174 43.0863L84.3484 43.7982C85.478 46.7634 86.0539 50.1813 86.0539 54.0682H88.0539ZM86.2227 43.1005C85.0076 39.7591 83.4012 36.9174 81.3897 34.5964L79.8783 35.9063C81.704 38.0128 83.1968 40.6317 84.3431 43.784L86.2227 43.1005ZM81.3897 34.5964C79.3676 32.2633 76.9463 30.5429 74.1338 29.4491L73.4089 31.3131C75.9094 32.2855 78.0632 33.812 79.8783 35.9063L81.3897 34.5964ZM74.1972 29.4763C71.561 28.2358 68.8334 27.6101 66.0233 27.6101V29.6101C68.5261 29.6101 70.9639 30.1651 73.3456 31.2859L74.1972 29.4763ZM66.0233 27.6101L31.9315 27.6101V29.6101L66.0233 29.6101V27.6101ZM30.9315 28.6101L30.9315 79.5264H32.9315L32.9315 28.6101H30.9315ZM205.5 68.679L205.516 69.6789L206.5 69.6627V68.679L205.5 68.679ZM181.37 73.992L181.787 74.9011L181.794 74.8975L181.802 74.8938L181.37 73.992ZM166.095 88.8241L165.189 88.4012L165.095 88.6023V88.8241H166.095ZM166.095 159V160H167.095V159H166.095ZM136.431 159H135.431V160H136.431V159ZM136.431 42.9995V41.9995H135.431V42.9995H136.431ZM163.66 42.9995H164.66V41.9995H163.66V42.9995ZM163.66 67.7935H162.66L164.548 68.2538L163.66 67.7935ZM170.965 57.1675L171.707 57.8384L171.715 57.8299L171.722 57.8211L170.965 57.1675ZM180.042 48.7552L179.454 47.9465L180.042 48.7552ZM189.782 43.4422L190.124 44.382L190.135 44.3779L190.147 44.3735L189.782 43.4422ZM205.5 41.6712H206.5V40.8514L205.696 40.6907L205.5 41.6712ZM205.483 67.6791C196.358 67.8287 188.169 69.625 180.938 73.0902L181.802 74.8938C188.739 71.5701 196.637 69.8244 205.516 69.6789L205.483 67.6791ZM180.953 73.0829C173.668 76.4218 168.395 81.5307 165.189 88.4012L167.001 89.247C169.994 82.835 174.904 78.0558 181.787 74.9011L180.953 73.0829ZM165.095 88.8241V159H167.095V88.8241H165.095ZM166.095 158H136.431V160H166.095V158ZM137.431 159L137.431 42.9995H135.431L135.431 159H137.431ZM136.431 43.9995L163.66 43.9995V41.9995L136.431 41.9995V43.9995ZM162.66 42.9995V67.7935H164.66V42.9995H162.66ZM164.548 68.2538C166.577 64.3396 168.964 60.8695 171.707 57.8384L170.224 56.4966C167.358 59.664 164.875 63.2778 162.772 67.3332L164.548 68.2538ZM171.722 57.8211C174.48 54.6283 177.449 51.8773 180.63 49.564L179.454 47.9465C176.141 50.3559 173.059 53.213 170.209 56.5139L171.722 57.8211ZM180.63 49.564C183.813 47.249 186.978 45.5261 190.124 44.382L189.441 42.5025C186.093 43.7198 182.764 45.5389 179.454 47.9465L180.63 49.564ZM190.147 44.3735C193.445 43.0828 196.568 42.4499 199.523 42.4499V40.4499C196.279 40.4499 192.908 41.1452 189.418 42.511L190.147 44.3735ZM199.523 42.4499C199.526 42.4499 199.529 42.4499 199.532 42.4499C199.535 42.4499 199.539 42.4499 199.542 42.4499C199.545 42.4499 199.548 42.4499 199.551 42.4499C199.554 42.4499 199.558 42.4499 199.561 42.4499C199.564 42.4499 199.567 42.4499 199.57 42.4499C199.573 42.4499 199.576 42.4499 199.58 42.4499C199.583 42.4499 199.586 42.4499 199.589 42.4499C199.592 42.4499 199.595 42.4499 199.599 42.4499C199.602 42.4499 199.605 42.4499 199.608 42.4499C199.611 42.4499 199.614 42.4499 199.617 42.4499C199.621 42.4499 199.624 42.4499 199.627 42.4499C199.63 42.4499 199.633 42.4499 199.636 42.4499C199.639 42.4499 199.642 42.4499 199.646 42.4499C199.649 42.4499 199.652 42.4499 199.655 42.4499C199.658 42.4499 199.661 42.4499 199.664 42.4499C199.667 42.4499 199.671 42.4499 199.674 42.4499C199.677 42.4499 199.68 42.4499 199.683 42.4499C199.686 42.4499 199.689 42.4499 199.692 42.4499C199.695 42.4499 199.699 42.4499 199.702 42.4499C199.705 42.4499 199.708 42.4499 199.711 42.4499C199.714 42.4499 199.717 42.4499 199.72 42.4499C199.723 42.4499 199.726 42.4499 199.73 42.4499C199.733 42.4499 199.736 42.4499 199.739 42.4499C199.742 42.4499 199.745 42.4499 199.748 42.4499C199.751 42.4499 199.754 42.4499 199.757 42.4499C199.76 42.4499 199.764 42.4499 199.767 42.4499C199.77 42.4499 199.773 42.4499 199.776 42.4499C199.779 42.4499 199.782 42.4499 199.785 42.4499C199.788 42.4499 199.791 42.4499 199.794 42.4499C199.797 42.4499 199.8 42.4499 199.804 42.4499C199.807 42.4499 199.81 42.4499 199.813 42.4499C199.816 42.4499 199.819 42.4499 199.822 42.4499C199.825 42.4499 199.828 42.4499 199.831 42.4499C199.834 42.4499 199.837 42.4499 199.84 42.4499C199.843 42.4499 199.846 42.4499 199.849 42.4499C199.853 42.4499 199.856 42.4499 199.859 42.4499C199.862 42.4499 199.865 42.4499 199.868 42.4499C199.871 42.4499 199.874 42.4499 199.877 42.4499C199.88 42.4499 199.883 42.4499 199.886 42.4499C199.889 42.4499 199.892 42.4499 199.895 42.4499C199.898 42.4499 199.901 42.4499 199.904 42.4499C199.907 42.4499 199.91 42.4499 199.913 42.4499C199.916 42.4499 199.919 42.4499 199.922 42.4499C199.925 42.4499 199.928 42.4499 199.931 42.4499C199.935 42.4499 199.938 42.4499 199.941 42.4499C199.944 42.4499 199.947 42.4499 199.95 42.4499C199.953 42.4499 199.956 42.4499 199.959 42.4499C199.962 42.4499 199.965 42.4499 199.968 42.4499C199.971 42.4499 199.974 42.4499 199.977 42.4499C199.98 42.4499 199.983 42.4499 199.986 42.4499C199.989 42.4499 199.992 42.4499 199.995 42.4499C199.998 42.4499 200.001 42.4499 200.004 42.4499C200.007 42.4499 200.01 42.4499 200.013 42.4499C200.016 42.4499 200.019 42.4499 200.022 42.4499C200.025 42.4499 200.028 42.4499 200.031 42.4499C200.034 42.4499 200.037 42.4499 200.04 42.4499C200.043 42.4499 200.046 42.4499 200.048 42.4499C200.051 42.4499 200.054 42.4499 200.057 42.4499C200.06 42.4499 200.063 42.4499 200.066 42.4499C200.069 42.4499 200.072 42.4499 200.075 42.4499C200.078 42.4499 200.081 42.4499 200.084 42.4499C200.087 42.4499 200.09 42.4499 200.093 42.4499C200.096 42.4499 200.099 42.4499 200.102 42.4499C200.105 42.4499 200.108 42.4499 200.111 42.4499C200.114 42.4499 200.117 42.4499 200.12 42.4499C200.123 42.4499 200.126 42.4499 200.128 42.4499C200.131 42.4499 200.134 42.4499 200.137 42.4499C200.14 42.4499 200.143 42.4499 200.146 42.4499C200.149 42.4499 200.152 42.4499 200.155 42.4499C200.158 42.4499 200.161 42.4499 200.164 42.4499C200.167 42.4499 200.17 42.4499 200.173 42.4499C200.176 42.4499 200.178 42.4499 200.181 42.4499C200.184 42.4499 200.187 42.4499 200.19 42.4499C200.193 42.4499 200.196 42.4499 200.199 42.4499C200.202 42.4499 200.205 42.4499 200.208 42.4499C200.211 42.4499 200.214 42.4499 200.216 42.4499C200.219 42.4499 200.222 42.4499 200.225 42.4499C200.228 42.4499 200.231 42.4499 200.234 42.4499C200.237 42.4499 200.24 42.4499 200.243 42.4499C200.245 42.4499 200.248 42.4499 200.251 42.4499C200.254 42.4499 200.257 42.4499 200.26 42.4499C200.263 42.4499 200.266 42.4499 200.269 42.4499C200.272 42.4499 200.274 42.4499 200.277 42.4499C200.28 42.4499 200.283 42.4499 200.286 42.4499C200.289 42.4499 200.292 42.4499 200.295 42.4499C200.298 42.4499 200.3 42.4499 200.303 42.4499C200.306 42.4499 200.309 42.4499 200.312 42.4499C200.315 42.4499 200.318 42.4499 200.321 42.4499C200.323 42.4499 200.326 42.4499 200.329 42.4499C200.332 42.4499 200.335 42.4499 200.338 42.4499C200.341 42.4499 200.344 42.4499 200.346 42.4499C200.349 42.4499 200.352 42.4499 200.355 42.4499C200.358 42.4499 200.361 42.4499 200.364 42.4499C200.366 42.4499 200.369 42.4499 200.372 42.4499C200.375 42.4499 200.378 42.4499 200.381 42.4499C200.384 42.4499 200.386 42.4499 200.389 42.4499C200.392 42.4499 200.395 42.4499 200.398 42.4499C200.401 42.4499 200.403 42.4499 200.406 42.4499C200.409 42.4499 200.412 42.4499 200.415 42.4499C200.418 42.4499 200.42 42.4499 200.423 42.4499C200.426 42.4499 200.429 42.4499 200.432 42.4499C200.435 42.4499 200.437 42.4499 200.44 42.4499C200.443 42.4499 200.446 42.4499 200.449 42.4499C200.452 42.4499 200.454 42.4499 200.457 42.4499C200.46 42.4499 200.463 42.4499 200.466 42.4499C200.468 42.4499 200.471 42.4499 200.474 42.4499C200.477 42.4499 200.48 42.4499 200.483 42.4499C200.485 42.4499 200.488 42.4499 200.491 42.4499C200.494 42.4499 200.497 42.4499 200.499 42.4499C200.502 42.4499 200.505 42.4499 200.508 42.4499C200.511 42.4499 200.513 42.4499 200.516 42.4499C200.519 42.4499 200.522 42.4499 200.525 42.4499C200.527 42.4499 200.53 42.4499 200.533 42.4499C200.536 42.4499 200.539 42.4499 200.541 42.4499C200.544 42.4499 200.547 42.4499 200.55 42.4499C200.552 42.4499 200.555 42.4499 200.558 42.4499C200.561 42.4499 200.564 42.4499 200.566 42.4499C200.569 42.4499 200.572 42.4499 200.575 42.4499C200.577 42.4499 200.58 42.4499 200.583 42.4499C200.586 42.4499 200.588 42.4499 200.591 42.4499C200.594 42.4499 200.597 42.4499 200.6 42.4499C200.602 42.4499 200.605 42.4499 200.608 42.4499C200.611 42.4499 200.613 42.4499 200.616 42.4499C200.619 42.4499 200.622 42.4499 200.624 42.4499C200.627 42.4499 200.63 42.4499 200.633 42.4499C200.635 42.4499 200.638 42.4499 200.641 42.4499C200.644 42.4499 200.646 42.4499 200.649 42.4499C200.652 42.4499 200.655 42.4499 200.657 42.4499C200.66 42.4499 200.663 42.4499 200.666 42.4499C200.668 42.4499 200.671 42.4499 200.674 42.4499C200.676 42.4499 200.679 42.4499 200.682 42.4499C200.685 42.4499 200.687 42.4499 200.69 42.4499C200.693 42.4499 200.696 42.4499 200.698 42.4499C200.701 42.4499 200.704 42.4499 200.706 42.4499C200.709 42.4499 200.712 42.4499 200.715 42.4499C200.717 42.4499 200.72 42.4499 200.723 42.4499C200.725 42.4499 200.728 42.4499 200.731 42.4499C200.734 42.4499 200.736 42.4499 200.739 42.4499C200.742 42.4499 200.744 42.4499 200.747 42.4499C200.75 42.4499 200.752 42.4499 200.755 42.4499C200.758 42.4499 200.761 42.4499 200.763 42.4499C200.766 42.4499 200.769 42.4499 200.771 42.4499C200.774 42.4499 200.777 42.4499 200.779 42.4499C200.782 42.4499 200.785 42.4499 200.787 42.4499C200.79 42.4499 200.793 42.4499 200.796 42.4499C200.798 42.4499 200.801 42.4499 200.804 42.4499C200.806 42.4499 200.809 42.4499 200.812 42.4499C200.814 42.4499 200.817 42.4499 200.82 42.4499C200.822 42.4499 200.825 42.4499 200.828 42.4499C200.83 42.4499 200.833 42.4499 200.836 42.4499C200.838 42.4499 200.841 42.4499 200.844 42.4499C200.846 42.4499 200.849 42.4499 200.852 42.4499C200.854 42.4499 200.857 42.4499 200.86 42.4499C200.862 42.4499 200.865 42.4499 200.867 42.4499C200.87 42.4499 200.873 42.4499 200.875 42.4499C200.878 42.4499 200.881 42.4499 200.883 42.4499C200.886 42.4499 200.889 42.4499 200.891 42.4499C200.894 42.4499 200.897 42.4499 200.899 42.4499C200.902 42.4499 200.904 42.4499 200.907 42.4499C200.91 42.4499 200.912 42.4499 200.915 42.4499C200.918 42.4499 200.92 42.4499 200.923 42.4499C200.926 42.4499 200.928 42.4499 200.931 42.4499C200.933 42.4499 200.936 42.4499 200.939 42.4499C200.941 42.4499 200.944 42.4499 200.946 42.4499C200.949 42.4499 200.952 42.4499 200.954 42.4499C200.957 42.4499 200.96 42.4499 200.962 42.4499C200.965 42.4499 200.967 42.4499 200.97 42.4499C200.973 42.4499 200.975 42.4499 200.978 42.4499C200.98 42.4499 200.983 42.4499 200.986 42.4499C200.988 42.4499 200.991 42.4499 200.993 42.4499C200.996 42.4499 200.999 42.4499 201.001 42.4499C201.004 42.4499 201.006 42.4499 201.009 42.4499C201.012 42.4499 201.014 42.4499 201.017 42.4499C201.019 42.4499 201.022 42.4499 201.024 42.4499C201.027 42.4499 201.03 42.4499 201.032 42.4499C201.035 42.4499 201.037 42.4499 201.04 42.4499C201.043 42.4499 201.045 42.4499 201.048 42.4499C201.05 42.4499 201.053 42.4499 201.055 42.4499C201.058 42.4499 201.061 42.4499 201.063 42.4499C201.066 42.4499 201.068 42.4499 201.071 42.4499C201.073 42.4499 201.076 42.4499 201.078 42.4499C201.081 42.4499 201.084 42.4499 201.086 42.4499C201.089 42.4499 201.091 42.4499 201.094 42.4499C201.096 42.4499 201.099 42.4499 201.101 42.4499C201.104 42.4499 201.107 42.4499 201.109 42.4499C201.112 42.4499 201.114 42.4499 201.117 42.4499C201.119 42.4499 201.122 42.4499 201.124 42.4499C201.127 42.4499 201.129 42.4499 201.132 42.4499C201.135 42.4499 201.137 42.4499 201.14 42.4499C201.142 42.4499 201.145 42.4499 201.147 42.4499C201.15 42.4499 201.152 42.4499 201.155 42.4499C201.157 42.4499 201.16 42.4499 201.162 42.4499C201.165 42.4499 201.167 42.4499 201.17 42.4499C201.172 42.4499 201.175 42.4499 201.177 42.4499C201.18 42.4499 201.182 42.4499 201.185 42.4499C201.187 42.4499 201.19 42.4499 201.193 42.4499C201.195 42.4499 201.198 42.4499 201.2 42.4499C201.203 42.4499 201.205 42.4499 201.208 42.4499C201.21 42.4499 201.213 42.4499 201.215 42.4499C201.218 42.4499 201.22 42.4499 201.223 42.4499C201.225 42.4499 201.228 42.4499 201.23 42.4499C201.232 42.4499 201.235 42.4499 201.237 42.4499C201.24 42.4499 201.242 42.4499 201.245 42.4499C201.247 42.4499 201.25 42.4499 201.252 42.4499C201.255 42.4499 201.257 42.4499 201.26 42.4499C201.262 42.4499 201.265 42.4499 201.267 42.4499C201.27 42.4499 201.272 42.4499 201.275 42.4499C201.277 42.4499 201.28 42.4499 201.282 42.4499C201.285 42.4499 201.287 42.4499 201.289 42.4499C201.292 42.4499 201.294 42.4499 201.297 42.4499C201.299 42.4499 201.302 42.4499 201.304 42.4499C201.307 42.4499 201.309 42.4499 201.312 42.4499C201.314 42.4499 201.317 42.4499 201.319 42.4499C201.321 42.4499 201.324 42.4499 201.326 42.4499C201.329 42.4499 201.331 42.4499 201.334 42.4499C201.336 42.4499 201.339 42.4499 201.341 42.4499C201.343 42.4499 201.346 42.4499 201.348 42.4499C201.351 42.4499 201.353 42.4499 201.356 42.4499C201.358 42.4499 201.36 42.4499 201.363 42.4499C201.365 42.4499 201.368 42.4499 201.37 42.4499C201.373 42.4499 201.375 42.4499 201.377 42.4499C201.38 42.4499 201.382 42.4499 201.385 42.4499C201.387 42.4499 201.39 42.4499 201.392 42.4499C201.394 42.4499 201.397 42.4499 201.399 42.4499C201.402 42.4499 201.404 42.4499 201.406 42.4499C201.409 42.4499 201.411 42.4499 201.414 42.4499C201.416 42.4499 201.419 42.4499 201.421 42.4499C201.423 42.4499 201.426 42.4499 201.428 42.4499C201.431 42.4499 201.433 42.4499 201.435 42.4499C201.438 42.4499 201.44 42.4499 201.443 42.4499C201.445 42.4499 201.447 42.4499 201.45 42.4499C201.452 42.4499 201.454 42.4499 201.457 42.4499C201.459 42.4499 201.462 42.4499 201.464 42.4499C201.466 42.4499 201.469 42.4499 201.471 42.4499C201.474 42.4499 201.476 42.4499 201.478 42.4499C201.481 42.4499 201.483 42.4499 201.485 42.4499C201.488 42.4499 201.49 42.4499 201.493 42.4499C201.495 42.4499 201.497 42.4499 201.5 42.4499C201.502 42.4499 201.504 42.4499 201.507 42.4499C201.509 42.4499 201.511 42.4499 201.514 42.4499C201.516 42.4499 201.519 42.4499 201.521 42.4499C201.523 42.4499 201.526 42.4499 201.528 42.4499C201.53 42.4499 201.533 42.4499 201.535 42.4499C201.537 42.4499 201.54 42.4499 201.542 42.4499C201.544 42.4499 201.547 42.4499 201.549 42.4499C201.551 42.4499 201.554 42.4499 201.556 42.4499C201.558 42.4499 201.561 42.4499 201.563 42.4499C201.565 42.4499 201.568 42.4499 201.57 42.4499C201.572 42.4499 201.575 42.4499 201.577 42.4499C201.579 42.4499 201.582 42.4499 201.584 42.4499C201.586 42.4499 201.589 42.4499 201.591 42.4499C201.593 42.4499 201.596 42.4499 201.598 42.4499C201.6 42.4499 201.603 42.4499 201.605 42.4499C201.607 42.4499 201.61 42.4499 201.612 42.4499C201.614 42.4499 201.617 42.4499 201.619 42.4499C201.621 42.4499 201.624 42.4499 201.626 42.4499C201.628 42.4499 201.63 42.4499 201.633 42.4499C201.635 42.4499 201.637 42.4499 201.64 42.4499C201.642 42.4499 201.644 42.4499 201.647 42.4499C201.649 42.4499 201.651 42.4499 201.653 42.4499C201.656 42.4499 201.658 42.4499 201.66 42.4499C201.663 42.4499 201.665 42.4499 201.667 42.4499C201.669 42.4499 201.672 42.4499 201.674 42.4499C201.676 42.4499 201.679 42.4499 201.681 42.4499C201.683 42.4499 201.685 42.4499 201.688 42.4499C201.69 42.4499 201.692 42.4499 201.694 42.4499C201.697 42.4499 201.699 42.4499 201.701 42.4499C201.704 42.4499 201.706 42.4499 201.708 42.4499C201.71 42.4499 201.713 42.4499 201.715 42.4499C201.717 42.4499 201.719 42.4499 201.722 42.4499C201.724 42.4499 201.726 42.4499 201.728 42.4499C201.731 42.4499 201.733 42.4499 201.735 42.4499C201.737 42.4499 201.74 42.4499 201.742 42.4499C201.744 42.4499 201.746 42.4499 201.749 42.4499C201.751 42.4499 201.753 42.4499 201.755 42.4499C201.758 42.4499 201.76 42.4499 201.762 42.4499C201.764 42.4499 201.767 42.4499 201.769 42.4499C201.771 42.4499 201.773 42.4499 201.776 42.4499C201.778 42.4499 201.78 42.4499 201.782 42.4499C201.784 42.4499 201.787 42.4499 201.789 42.4499C201.791 42.4499 201.793 42.4499 201.796 42.4499C201.798 42.4499 201.8 42.4499 201.802 42.4499C201.804 42.4499 201.807 42.4499 201.809 42.4499C201.811 42.4499 201.813 42.4499 201.816 42.4499C201.818 42.4499 201.82 42.4499 201.822 42.4499C201.824 42.4499 201.827 42.4499 201.829 42.4499C201.831 42.4499 201.833 42.4499 201.835 42.4499C201.838 42.4499 201.84 42.4499 201.842 42.4499C201.844 42.4499 201.846 42.4499 201.849 42.4499C201.851 42.4499 201.853 42.4499 201.855 42.4499C201.857 42.4499 201.86 42.4499 201.862 42.4499C201.864 42.4499 201.866 42.4499 201.868 42.4499C201.87 42.4499 201.873 42.4499 201.875 42.4499C201.877 42.4499 201.879 42.4499 201.881 42.4499C201.884 42.4499 201.886 42.4499 201.888 42.4499C201.89 42.4499 201.892 42.4499 201.894 42.4499C201.897 42.4499 201.899 42.4499 201.901 42.4499C201.903 42.4499 201.905 42.4499 201.907 42.4499C201.91 42.4499 201.912 42.4499 201.914 42.4499C201.916 42.4499 201.918 42.4499 201.92 42.4499C201.923 42.4499 201.925 42.4499 201.927 42.4499C201.929 42.4499 201.931 42.4499 201.933 42.4499C201.935 42.4499 201.938 42.4499 201.94 42.4499C201.942 42.4499 201.944 42.4499 201.946 42.4499C201.948 42.4499 201.951 42.4499 201.953 42.4499C201.955 42.4499 201.957 42.4499 201.959 42.4499C201.961 42.4499 201.963 42.4499 201.965 42.4499C201.968 42.4499 201.97 42.4499 201.972 42.4499C201.974 42.4499 201.976 42.4499 201.978 42.4499C201.98 42.4499 201.982 42.4499 201.985 42.4499C201.987 42.4499 201.989 42.4499 201.991 42.4499C201.993 42.4499 201.995 42.4499 201.997 42.4499C201.999 42.4499 202.002 42.4499 202.004 42.4499C202.006 42.4499 202.008 42.4499 202.01 42.4499C202.012 42.4499 202.014 42.4499 202.016 42.4499C202.018 42.4499 202.021 42.4499 202.023 42.4499C202.025 42.4499 202.027 42.4499 202.029 42.4499C202.031 42.4499 202.033 42.4499 202.035 42.4499C202.037 42.4499 202.039 42.4499 202.042 42.4499C202.044 42.4499 202.046 42.4499 202.048 42.4499C202.05 42.4499 202.052 42.4499 202.054 42.4499C202.056 42.4499 202.058 42.4499 202.06 42.4499C202.062 42.4499 202.064 42.4499 202.067 42.4499C202.069 42.4499 202.071 42.4499 202.073 42.4499C202.075 42.4499 202.077 42.4499 202.079 42.4499C202.081 42.4499 202.083 42.4499 202.085 42.4499C202.087 42.4499 202.089 42.4499 202.091 42.4499C202.094 42.4499 202.096 42.4499 202.098 42.4499C202.1 42.4499 202.102 42.4499 202.104 42.4499C202.106 42.4499 202.108 42.4499 202.11 42.4499C202.112 42.4499 202.114 42.4499 202.116 42.4499C202.118 42.4499 202.12 42.4499 202.122 42.4499C202.124 42.4499 202.126 42.4499 202.128 42.4499C202.131 42.4499 202.133 42.4499 202.135 42.4499C202.137 42.4499 202.139 42.4499 202.141 42.4499C202.143 42.4499 202.145 42.4499 202.147 42.4499C202.149 42.4499 202.151 42.4499 202.153 42.4499C202.155 42.4499 202.157 42.4499 202.159 42.4499C202.161 42.4499 202.163 42.4499 202.165 42.4499C202.167 42.4499 202.169 42.4499 202.171 42.4499C202.173 42.4499 202.175 42.4499 202.177 42.4499C202.179 42.4499 202.181 42.4499 202.183 42.4499C202.185 42.4499 202.187 42.4499 202.189 42.4499C202.191 42.4499 202.193 42.4499 202.195 42.4499C202.197 42.4499 202.199 42.4499 202.201 42.4499C202.203 42.4499 202.205 42.4499 202.207 42.4499C202.209 42.4499 202.211 42.4499 202.213 42.4499C202.215 42.4499 202.217 42.4499 202.219 42.4499C202.221 42.4499 202.223 42.4499 202.225 42.4499C202.227 42.4499 202.229 42.4499 202.231 42.4499C202.233 42.4499 202.235 42.4499 202.237 42.4499C202.239 42.4499 202.241 42.4499 202.243 42.4499C202.245 42.4499 202.247 42.4499 202.249 42.4499C202.251 42.4499 202.253 42.4499 202.255 42.4499C202.257 42.4499 202.259 42.4499 202.261 42.4499C202.263 42.4499 202.265 42.4499 202.267 42.4499C202.269 42.4499 202.271 42.4499 202.273 42.4499C202.275 42.4499 202.277 42.4499 202.279 42.4499C202.281 42.4499 202.283 42.4499 202.285 42.4499C202.287 42.4499 202.289 42.4499 202.29 42.4499C202.292 42.4499 202.294 42.4499 202.296 42.4499C202.298 42.4499 202.3 42.4499 202.302 42.4499C202.304 42.4499 202.306 42.4499 202.308 42.4499C202.31 42.4499 202.312 42.4499 202.314 42.4499C202.316 42.4499 202.318 42.4499 202.32 42.4499C202.322 42.4499 202.324 42.4499 202.325 42.4499C202.327 42.4499 202.329 42.4499 202.331 42.4499C202.333 42.4499 202.335 42.4499 202.337 42.4499C202.339 42.4499 202.341 42.4499 202.343 42.4499C202.345 42.4499 202.347 42.4499 202.349 42.4499C202.351 42.4499 202.352 42.4499 202.354 42.4499C202.356 42.4499 202.358 42.4499 202.36 42.4499C202.362 42.4499 202.364 42.4499 202.366 42.4499C202.368 42.4499 202.37 42.4499 202.372 42.4499C202.373 42.4499 202.375 42.4499 202.377 42.4499C202.379 42.4499 202.381 42.4499 202.383 42.4499C202.385 42.4499 202.387 42.4499 202.389 42.4499C202.391 42.4499 202.393 42.4499 202.394 42.4499C202.396 42.4499 202.398 42.4499 202.4 42.4499C202.402 42.4499 202.404 42.4499 202.406 42.4499C202.408 42.4499 202.41 42.4499 202.411 42.4499C202.413 42.4499 202.415 42.4499 202.417 42.4499C202.419 42.4499 202.421 42.4499 202.423 42.4499C202.425 42.4499 202.426 42.4499 202.428 42.4499C202.43 42.4499 202.432 42.4499 202.434 42.4499C202.436 42.4499 202.438 42.4499 202.44 42.4499C202.441 42.4499 202.443 42.4499 202.445 42.4499C202.447 42.4499 202.449 42.4499 202.451 42.4499C202.453 42.4499 202.454 42.4499 202.456 42.4499C202.458 42.4499 202.46 42.4499 202.462 42.4499C202.464 42.4499 202.466 42.4499 202.467 42.4499C202.469 42.4499 202.471 42.4499 202.473 42.4499C202.475 42.4499 202.477 42.4499 202.478 42.4499C202.48 42.4499 202.482 42.4499 202.484 42.4499C202.486 42.4499 202.488 42.4499 202.49 42.4499C202.491 42.4499 202.493 42.4499 202.495 42.4499C202.497 42.4499 202.499 42.4499 202.501 42.4499C202.502 42.4499 202.504 42.4499 202.506 42.4499C202.508 42.4499 202.51 42.4499 202.511 42.4499C202.513 42.4499 202.515 42.4499 202.517 42.4499C202.519 42.4499 202.521 42.4499 202.522 42.4499C202.524 42.4499 202.526 42.4499 202.528 42.4499C202.53 42.4499 202.531 42.4499 202.533 42.4499C202.535 42.4499 202.537 42.4499 202.539 42.4499C202.54 42.4499 202.542 42.4499 202.544 42.4499C202.546 42.4499 202.548 42.4499 202.55 42.4499C202.551 42.4499 202.553 42.4499 202.555 42.4499C202.557 42.4499 202.558 42.4499 202.56 42.4499C202.562 42.4499 202.564 42.4499 202.566 42.4499C202.567 42.4499 202.569 42.4499 202.571 42.4499C202.573 42.4499 202.575 42.4499 202.576 42.4499C202.578 42.4499 202.58 42.4499 202.582 42.4499C202.583 42.4499 202.585 42.4499 202.587 42.4499C202.589 42.4499 202.591 42.4499 202.592 42.4499C202.594 42.4499 202.596 42.4499 202.598 42.4499C202.599 42.4499 202.601 42.4499 202.603 42.4499C202.605 42.4499 202.607 42.4499 202.608 42.4499C202.61 42.4499 202.612 42.4499 202.614 42.4499C202.615 42.4499 202.617 42.4499 202.619 42.4499C202.621 42.4499 202.622 42.4499 202.624 42.4499C202.626 42.4499 202.628 42.4499 202.629 42.4499C202.631 42.4499 202.633 42.4499 202.635 42.4499C202.636 42.4499 202.638 42.4499 202.64 42.4499C202.642 42.4499 202.643 42.4499 202.645 42.4499C202.647 42.4499 202.648 42.4499 202.65 42.4499C202.652 42.4499 202.654 42.4499 202.655 42.4499C202.657 42.4499 202.659 42.4499 202.661 42.4499C202.662 42.4499 202.664 42.4499 202.666 42.4499C202.668 42.4499 202.669 42.4499 202.671 42.4499C202.673 42.4499 202.674 42.4499 202.676 42.4499C202.678 42.4499 202.68 42.4499 202.681 42.4499C202.683 42.4499 202.685 42.4499 202.686 42.4499C202.688 42.4499 202.69 42.4499 202.692 42.4499C202.693 42.4499 202.695 42.4499 202.697 42.4499C202.698 42.4499 202.7 42.4499 202.702 42.4499C202.703 42.4499 202.705 42.4499 202.707 42.4499C202.709 42.4499 202.71 42.4499 202.712 42.4499C202.714 42.4499 202.715 42.4499 202.717 42.4499C202.719 42.4499 202.72 42.4499 202.722 42.4499C202.724 42.4499 202.725 42.4499 202.727 42.4499C202.729 42.4499 202.731 42.4499 202.732 42.4499C202.734 42.4499 202.736 42.4499 202.737 42.4499C202.739 42.4499 202.741 42.4499 202.742 42.4499C202.744 42.4499 202.746 42.4499 202.747 42.4499C202.749 42.4499 202.751 42.4499 202.752 42.4499C202.754 42.4499 202.756 42.4499 202.757 42.4499C202.759 42.4499 202.761 42.4499 202.762 42.4499C202.764 42.4499 202.766 42.4499 202.767 42.4499C202.769 42.4499 202.771 42.4499 202.772 42.4499C202.774 42.4499 202.776 42.4499 202.777 42.4499C202.779 42.4499 202.781 42.4499 202.782 42.4499C202.784 42.4499 202.785 42.4499 202.787 42.4499C202.789 42.4499 202.79 42.4499 202.792 42.4499C202.794 42.4499 202.795 42.4499 202.797 42.4499C202.799 42.4499 202.8 42.4499 202.802 42.4499C202.803 42.4499 202.805 42.4499 202.807 42.4499C202.808 42.4499 202.81 42.4499 202.812 42.4499C202.813 42.4499 202.815 42.4499 202.816 42.4499C202.818 42.4499 202.82 42.4499 202.821 42.4499C202.823 42.4499 202.825 42.4499 202.826 42.4499C202.828 42.4499 202.829 42.4499 202.831 42.4499C202.833 42.4499 202.834 42.4499 202.836 42.4499C202.838 42.4499 202.839 42.4499 202.841 42.4499C202.842 42.4499 202.844 42.4499 202.846 42.4499C202.847 42.4499 202.849 42.4499 202.85 42.4499C202.852 42.4499 202.854 42.4499 202.855 42.4499C202.857 42.4499 202.858 42.4499 202.86 42.4499C202.862 42.4499 202.863 42.4499 202.865 42.4499C202.866 42.4499 202.868 42.4499 202.869 42.4499C202.871 42.4499 202.873 42.4499 202.874 42.4499C202.876 42.4499 202.877 42.4499 202.879 42.4499C202.881 42.4499 202.882 42.4499 202.884 42.4499C202.885 42.4499 202.887 42.4499 202.888 42.4499C202.89 42.4499 202.892 42.4499 202.893 42.4499C202.895 42.4499 202.896 42.4499 202.898 42.4499C202.899 42.4499 202.901 42.4499 202.903 42.4499C202.904 42.4499 202.906 42.4499 202.907 42.4499C202.909 42.4499 202.91 42.4499 202.912 42.4499C202.913 42.4499 202.915 42.4499 202.917 42.4499C202.918 42.4499 202.92 42.4499 202.921 42.4499C202.923 42.4499 202.924 42.4499 202.926 42.4499C202.927 42.4499 202.929 42.4499 202.93 42.4499C202.932 42.4499 202.934 42.4499 202.935 42.4499C202.937 42.4499 202.938 42.4499 202.94 42.4499C202.941 42.4499 202.943 42.4499 202.944 42.4499C202.946 42.4499 202.947 42.4499 202.949 42.4499C202.95 42.4499 202.952 42.4499 202.953 42.4499C202.955 42.4499 202.957 42.4499 202.958 42.4499C202.96 42.4499 202.961 42.4499 202.963 42.4499C202.964 42.4499 202.966 42.4499 202.967 42.4499C202.969 42.4499 202.97 42.4499 202.972 42.4499C202.973 42.4499 202.975 42.4499 202.976 42.4499C202.978 42.4499 202.979 42.4499 202.981 42.4499C202.982 42.4499 202.984 42.4499 202.985 42.4499C202.987 42.4499 202.988 42.4499 202.99 42.4499C202.991 42.4499 202.993 42.4499 202.994 42.4499C202.996 42.4499 202.997 42.4499 202.999 42.4499C203 42.4499 203.002 42.4499 203.003 42.4499C203.005 42.4499 203.006 42.4499 203.008 42.4499C203.009 42.4499 203.011 42.4499 203.012 42.4499C203.014 42.4499 203.015 42.4499 203.017 42.4499C203.018 42.4499 203.02 42.4499 203.021 42.4499C203.022 42.4499 203.024 42.4499 203.025 42.4499C203.027 42.4499 203.028 42.4499 203.03 42.4499C203.031 42.4499 203.033 42.4499 203.034 42.4499C203.036 42.4499 203.037 42.4499 203.039 42.4499C203.04 42.4499 203.042 42.4499 203.043 42.4499C203.044 42.4499 203.046 42.4499 203.047 42.4499C203.049 42.4499 203.05 42.4499 203.052 42.4499C203.053 42.4499 203.055 42.4499 203.056 42.4499C203.058 42.4499 203.059 42.4499 203.06 42.4499C203.062 42.4499 203.063 42.4499 203.065 42.4499V40.4499C203.063 40.4499 203.062 40.4499 203.06 40.4499C203.059 40.4499 203.058 40.4499 203.056 40.4499C203.055 40.4499 203.053 40.4499 203.052 40.4499C203.05 40.4499 203.049 40.4499 203.047 40.4499C203.046 40.4499 203.044 40.4499 203.043 40.4499C203.042 40.4499 203.04 40.4499 203.039 40.4499C203.037 40.4499 203.036 40.4499 203.034 40.4499C203.033 40.4499 203.031 40.4499 203.03 40.4499C203.028 40.4499 203.027 40.4499 203.025 40.4499C203.024 40.4499 203.022 40.4499 203.021 40.4499C203.02 40.4499 203.018 40.4499 203.017 40.4499C203.015 40.4499 203.014 40.4499 203.012 40.4499C203.011 40.4499 203.009 40.4499 203.008 40.4499C203.006 40.4499 203.005 40.4499 203.003 40.4499C203.002 40.4499 203 40.4499 202.999 40.4499C202.997 40.4499 202.996 40.4499 202.994 40.4499C202.993 40.4499 202.991 40.4499 202.99 40.4499C202.988 40.4499 202.987 40.4499 202.985 40.4499C202.984 40.4499 202.982 40.4499 202.981 40.4499C202.979 40.4499 202.978 40.4499 202.976 40.4499C202.975 40.4499 202.973 40.4499 202.972 40.4499C202.97 40.4499 202.969 40.4499 202.967 40.4499C202.966 40.4499 202.964 40.4499 202.963 40.4499C202.961 40.4499 202.96 40.4499 202.958 40.4499C202.957 40.4499 202.955 40.4499 202.953 40.4499C202.952 40.4499 202.95 40.4499 202.949 40.4499C202.947 40.4499 202.946 40.4499 202.944 40.4499C202.943 40.4499 202.941 40.4499 202.94 40.4499C202.938 40.4499 202.937 40.4499 202.935 40.4499C202.934 40.4499 202.932 40.4499 202.93 40.4499C202.929 40.4499 202.927 40.4499 202.926 40.4499C202.924 40.4499 202.923 40.4499 202.921 40.4499C202.92 40.4499 202.918 40.4499 202.917 40.4499C202.915 40.4499 202.913 40.4499 202.912 40.4499C202.91 40.4499 202.909 40.4499 202.907 40.4499C202.906 40.4499 202.904 40.4499 202.903 40.4499C202.901 40.4499 202.899 40.4499 202.898 40.4499C202.896 40.4499 202.895 40.4499 202.893 40.4499C202.892 40.4499 202.89 40.4499 202.888 40.4499C202.887 40.4499 202.885 40.4499 202.884 40.4499C202.882 40.4499 202.881 40.4499 202.879 40.4499C202.877 40.4499 202.876 40.4499 202.874 40.4499C202.873 40.4499 202.871 40.4499 202.869 40.4499C202.868 40.4499 202.866 40.4499 202.865 40.4499C202.863 40.4499 202.862 40.4499 202.86 40.4499C202.858 40.4499 202.857 40.4499 202.855 40.4499C202.854 40.4499 202.852 40.4499 202.85 40.4499C202.849 40.4499 202.847 40.4499 202.846 40.4499C202.844 40.4499 202.842 40.4499 202.841 40.4499C202.839 40.4499 202.838 40.4499 202.836 40.4499C202.834 40.4499 202.833 40.4499 202.831 40.4499C202.829 40.4499 202.828 40.4499 202.826 40.4499C202.825 40.4499 202.823 40.4499 202.821 40.4499C202.82 40.4499 202.818 40.4499 202.816 40.4499C202.815 40.4499 202.813 40.4499 202.812 40.4499C202.81 40.4499 202.808 40.4499 202.807 40.4499C202.805 40.4499 202.803 40.4499 202.802 40.4499C202.8 40.4499 202.799 40.4499 202.797 40.4499C202.795 40.4499 202.794 40.4499 202.792 40.4499C202.79 40.4499 202.789 40.4499 202.787 40.4499C202.785 40.4499 202.784 40.4499 202.782 40.4499C202.781 40.4499 202.779 40.4499 202.777 40.4499C202.776 40.4499 202.774 40.4499 202.772 40.4499C202.771 40.4499 202.769 40.4499 202.767 40.4499C202.766 40.4499 202.764 40.4499 202.762 40.4499C202.761 40.4499 202.759 40.4499 202.757 40.4499C202.756 40.4499 202.754 40.4499 202.752 40.4499C202.751 40.4499 202.749 40.4499 202.747 40.4499C202.746 40.4499 202.744 40.4499 202.742 40.4499C202.741 40.4499 202.739 40.4499 202.737 40.4499C202.736 40.4499 202.734 40.4499 202.732 40.4499C202.731 40.4499 202.729 40.4499 202.727 40.4499C202.725 40.4499 202.724 40.4499 202.722 40.4499C202.72 40.4499 202.719 40.4499 202.717 40.4499C202.715 40.4499 202.714 40.4499 202.712 40.4499C202.71 40.4499 202.709 40.4499 202.707 40.4499C202.705 40.4499 202.703 40.4499 202.702 40.4499C202.7 40.4499 202.698 40.4499 202.697 40.4499C202.695 40.4499 202.693 40.4499 202.692 40.4499C202.69 40.4499 202.688 40.4499 202.686 40.4499C202.685 40.4499 202.683 40.4499 202.681 40.4499C202.68 40.4499 202.678 40.4499 202.676 40.4499C202.674 40.4499 202.673 40.4499 202.671 40.4499C202.669 40.4499 202.668 40.4499 202.666 40.4499C202.664 40.4499 202.662 40.4499 202.661 40.4499C202.659 40.4499 202.657 40.4499 202.655 40.4499C202.654 40.4499 202.652 40.4499 202.65 40.4499C202.648 40.4499 202.647 40.4499 202.645 40.4499C202.643 40.4499 202.642 40.4499 202.64 40.4499C202.638 40.4499 202.636 40.4499 202.635 40.4499C202.633 40.4499 202.631 40.4499 202.629 40.4499C202.628 40.4499 202.626 40.4499 202.624 40.4499C202.622 40.4499 202.621 40.4499 202.619 40.4499C202.617 40.4499 202.615 40.4499 202.614 40.4499C202.612 40.4499 202.61 40.4499 202.608 40.4499C202.607 40.4499 202.605 40.4499 202.603 40.4499C202.601 40.4499 202.599 40.4499 202.598 40.4499C202.596 40.4499 202.594 40.4499 202.592 40.4499C202.591 40.4499 202.589 40.4499 202.587 40.4499C202.585 40.4499 202.583 40.4499 202.582 40.4499C202.58 40.4499 202.578 40.4499 202.576 40.4499C202.575 40.4499 202.573 40.4499 202.571 40.4499C202.569 40.4499 202.567 40.4499 202.566 40.4499C202.564 40.4499 202.562 40.4499 202.56 40.4499C202.558 40.4499 202.557 40.4499 202.555 40.4499C202.553 40.4499 202.551 40.4499 202.55 40.4499C202.548 40.4499 202.546 40.4499 202.544 40.4499C202.542 40.4499 202.54 40.4499 202.539 40.4499C202.537 40.4499 202.535 40.4499 202.533 40.4499C202.531 40.4499 202.53 40.4499 202.528 40.4499C202.526 40.4499 202.524 40.4499 202.522 40.4499C202.521 40.4499 202.519 40.4499 202.517 40.4499C202.515 40.4499 202.513 40.4499 202.511 40.4499C202.51 40.4499 202.508 40.4499 202.506 40.4499C202.504 40.4499 202.502 40.4499 202.501 40.4499C202.499 40.4499 202.497 40.4499 202.495 40.4499C202.493 40.4499 202.491 40.4499 202.49 40.4499C202.488 40.4499 202.486 40.4499 202.484 40.4499C202.482 40.4499 202.48 40.4499 202.478 40.4499C202.477 40.4499 202.475 40.4499 202.473 40.4499C202.471 40.4499 202.469 40.4499 202.467 40.4499C202.466 40.4499 202.464 40.4499 202.462 40.4499C202.46 40.4499 202.458 40.4499 202.456 40.4499C202.454 40.4499 202.453 40.4499 202.451 40.4499C202.449 40.4499 202.447 40.4499 202.445 40.4499C202.443 40.4499 202.441 40.4499 202.44 40.4499C202.438 40.4499 202.436 40.4499 202.434 40.4499C202.432 40.4499 202.43 40.4499 202.428 40.4499C202.426 40.4499 202.425 40.4499 202.423 40.4499C202.421 40.4499 202.419 40.4499 202.417 40.4499C202.415 40.4499 202.413 40.4499 202.411 40.4499C202.41 40.4499 202.408 40.4499 202.406 40.4499C202.404 40.4499 202.402 40.4499 202.4 40.4499C202.398 40.4499 202.396 40.4499 202.394 40.4499C202.393 40.4499 202.391 40.4499 202.389 40.4499C202.387 40.4499 202.385 40.4499 202.383 40.4499C202.381 40.4499 202.379 40.4499 202.377 40.4499C202.375 40.4499 202.373 40.4499 202.372 40.4499C202.37 40.4499 202.368 40.4499 202.366 40.4499C202.364 40.4499 202.362 40.4499 202.36 40.4499C202.358 40.4499 202.356 40.4499 202.354 40.4499C202.352 40.4499 202.351 40.4499 202.349 40.4499C202.347 40.4499 202.345 40.4499 202.343 40.4499C202.341 40.4499 202.339 40.4499 202.337 40.4499C202.335 40.4499 202.333 40.4499 202.331 40.4499C202.329 40.4499 202.327 40.4499 202.325 40.4499C202.324 40.4499 202.322 40.4499 202.32 40.4499C202.318 40.4499 202.316 40.4499 202.314 40.4499C202.312 40.4499 202.31 40.4499 202.308 40.4499C202.306 40.4499 202.304 40.4499 202.302 40.4499C202.3 40.4499 202.298 40.4499 202.296 40.4499C202.294 40.4499 202.292 40.4499 202.29 40.4499C202.289 40.4499 202.287 40.4499 202.285 40.4499C202.283 40.4499 202.281 40.4499 202.279 40.4499C202.277 40.4499 202.275 40.4499 202.273 40.4499C202.271 40.4499 202.269 40.4499 202.267 40.4499C202.265 40.4499 202.263 40.4499 202.261 40.4499C202.259 40.4499 202.257 40.4499 202.255 40.4499C202.253 40.4499 202.251 40.4499 202.249 40.4499C202.247 40.4499 202.245 40.4499 202.243 40.4499C202.241 40.4499 202.239 40.4499 202.237 40.4499C202.235 40.4499 202.233 40.4499 202.231 40.4499C202.229 40.4499 202.227 40.4499 202.225 40.4499C202.223 40.4499 202.221 40.4499 202.219 40.4499C202.217 40.4499 202.215 40.4499 202.213 40.4499C202.211 40.4499 202.209 40.4499 202.207 40.4499C202.205 40.4499 202.203 40.4499 202.201 40.4499C202.199 40.4499 202.197 40.4499 202.195 40.4499C202.193 40.4499 202.191 40.4499 202.189 40.4499C202.187 40.4499 202.185 40.4499 202.183 40.4499C202.181 40.4499 202.179 40.4499 202.177 40.4499C202.175 40.4499 202.173 40.4499 202.171 40.4499C202.169 40.4499 202.167 40.4499 202.165 40.4499C202.163 40.4499 202.161 40.4499 202.159 40.4499C202.157 40.4499 202.155 40.4499 202.153 40.4499C202.151 40.4499 202.149 40.4499 202.147 40.4499C202.145 40.4499 202.143 40.4499 202.141 40.4499C202.139 40.4499 202.137 40.4499 202.135 40.4499C202.133 40.4499 202.131 40.4499 202.128 40.4499C202.126 40.4499 202.124 40.4499 202.122 40.4499C202.12 40.4499 202.118 40.4499 202.116 40.4499C202.114 40.4499 202.112 40.4499 202.11 40.4499C202.108 40.4499 202.106 40.4499 202.104 40.4499C202.102 40.4499 202.1 40.4499 202.098 40.4499C202.096 40.4499 202.094 40.4499 202.091 40.4499C202.089 40.4499 202.087 40.4499 202.085 40.4499C202.083 40.4499 202.081 40.4499 202.079 40.4499C202.077 40.4499 202.075 40.4499 202.073 40.4499C202.071 40.4499 202.069 40.4499 202.067 40.4499C202.064 40.4499 202.062 40.4499 202.06 40.4499C202.058 40.4499 202.056 40.4499 202.054 40.4499C202.052 40.4499 202.05 40.4499 202.048 40.4499C202.046 40.4499 202.044 40.4499 202.042 40.4499C202.039 40.4499 202.037 40.4499 202.035 40.4499C202.033 40.4499 202.031 40.4499 202.029 40.4499C202.027 40.4499 202.025 40.4499 202.023 40.4499C202.021 40.4499 202.018 40.4499 202.016 40.4499C202.014 40.4499 202.012 40.4499 202.01 40.4499C202.008 40.4499 202.006 40.4499 202.004 40.4499C202.002 40.4499 201.999 40.4499 201.997 40.4499C201.995 40.4499 201.993 40.4499 201.991 40.4499C201.989 40.4499 201.987 40.4499 201.985 40.4499C201.982 40.4499 201.98 40.4499 201.978 40.4499C201.976 40.4499 201.974 40.4499 201.972 40.4499C201.97 40.4499 201.968 40.4499 201.965 40.4499C201.963 40.4499 201.961 40.4499 201.959 40.4499C201.957 40.4499 201.955 40.4499 201.953 40.4499C201.951 40.4499 201.948 40.4499 201.946 40.4499C201.944 40.4499 201.942 40.4499 201.94 40.4499C201.938 40.4499 201.935 40.4499 201.933 40.4499C201.931 40.4499 201.929 40.4499 201.927 40.4499C201.925 40.4499 201.923 40.4499 201.92 40.4499C201.918 40.4499 201.916 40.4499 201.914 40.4499C201.912 40.4499 201.91 40.4499 201.907 40.4499C201.905 40.4499 201.903 40.4499 201.901 40.4499C201.899 40.4499 201.897 40.4499 201.894 40.4499C201.892 40.4499 201.89 40.4499 201.888 40.4499C201.886 40.4499 201.884 40.4499 201.881 40.4499C201.879 40.4499 201.877 40.4499 201.875 40.4499C201.873 40.4499 201.87 40.4499 201.868 40.4499C201.866 40.4499 201.864 40.4499 201.862 40.4499C201.86 40.4499 201.857 40.4499 201.855 40.4499C201.853 40.4499 201.851 40.4499 201.849 40.4499C201.846 40.4499 201.844 40.4499 201.842 40.4499C201.84 40.4499 201.838 40.4499 201.835 40.4499C201.833 40.4499 201.831 40.4499 201.829 40.4499C201.827 40.4499 201.824 40.4499 201.822 40.4499C201.82 40.4499 201.818 40.4499 201.816 40.4499C201.813 40.4499 201.811 40.4499 201.809 40.4499C201.807 40.4499 201.804 40.4499 201.802 40.4499C201.8 40.4499 201.798 40.4499 201.796 40.4499C201.793 40.4499 201.791 40.4499 201.789 40.4499C201.787 40.4499 201.784 40.4499 201.782 40.4499C201.78 40.4499 201.778 40.4499 201.776 40.4499C201.773 40.4499 201.771 40.4499 201.769 40.4499C201.767 40.4499 201.764 40.4499 201.762 40.4499C201.76 40.4499 201.758 40.4499 201.755 40.4499C201.753 40.4499 201.751 40.4499 201.749 40.4499C201.746 40.4499 201.744 40.4499 201.742 40.4499C201.74 40.4499 201.737 40.4499 201.735 40.4499C201.733 40.4499 201.731 40.4499 201.728 40.4499C201.726 40.4499 201.724 40.4499 201.722 40.4499C201.719 40.4499 201.717 40.4499 201.715 40.4499C201.713 40.4499 201.71 40.4499 201.708 40.4499C201.706 40.4499 201.704 40.4499 201.701 40.4499C201.699 40.4499 201.697 40.4499 201.694 40.4499C201.692 40.4499 201.69 40.4499 201.688 40.4499C201.685 40.4499 201.683 40.4499 201.681 40.4499C201.679 40.4499 201.676 40.4499 201.674 40.4499C201.672 40.4499 201.669 40.4499 201.667 40.4499C201.665 40.4499 201.663 40.4499 201.66 40.4499C201.658 40.4499 201.656 40.4499 201.653 40.4499C201.651 40.4499 201.649 40.4499 201.647 40.4499C201.644 40.4499 201.642 40.4499 201.64 40.4499C201.637 40.4499 201.635 40.4499 201.633 40.4499C201.63 40.4499 201.628 40.4499 201.626 40.4499C201.624 40.4499 201.621 40.4499 201.619 40.4499C201.617 40.4499 201.614 40.4499 201.612 40.4499C201.61 40.4499 201.607 40.4499 201.605 40.4499C201.603 40.4499 201.6 40.4499 201.598 40.4499C201.596 40.4499 201.593 40.4499 201.591 40.4499C201.589 40.4499 201.586 40.4499 201.584 40.4499C201.582 40.4499 201.579 40.4499 201.577 40.4499C201.575 40.4499 201.572 40.4499 201.57 40.4499C201.568 40.4499 201.565 40.4499 201.563 40.4499C201.561 40.4499 201.558 40.4499 201.556 40.4499C201.554 40.4499 201.551 40.4499 201.549 40.4499C201.547 40.4499 201.544 40.4499 201.542 40.4499C201.54 40.4499 201.537 40.4499 201.535 40.4499C201.533 40.4499 201.53 40.4499 201.528 40.4499C201.526 40.4499 201.523 40.4499 201.521 40.4499C201.519 40.4499 201.516 40.4499 201.514 40.4499C201.511 40.4499 201.509 40.4499 201.507 40.4499C201.504 40.4499 201.502 40.4499 201.5 40.4499C201.497 40.4499 201.495 40.4499 201.493 40.4499C201.49 40.4499 201.488 40.4499 201.485 40.4499C201.483 40.4499 201.481 40.4499 201.478 40.4499C201.476 40.4499 201.474 40.4499 201.471 40.4499C201.469 40.4499 201.466 40.4499 201.464 40.4499C201.462 40.4499 201.459 40.4499 201.457 40.4499C201.454 40.4499 201.452 40.4499 201.45 40.4499C201.447 40.4499 201.445 40.4499 201.443 40.4499C201.44 40.4499 201.438 40.4499 201.435 40.4499C201.433 40.4499 201.431 40.4499 201.428 40.4499C201.426 40.4499 201.423 40.4499 201.421 40.4499C201.419 40.4499 201.416 40.4499 201.414 40.4499C201.411 40.4499 201.409 40.4499 201.406 40.4499C201.404 40.4499 201.402 40.4499 201.399 40.4499C201.397 40.4499 201.394 40.4499 201.392 40.4499C201.39 40.4499 201.387 40.4499 201.385 40.4499C201.382 40.4499 201.38 40.4499 201.377 40.4499C201.375 40.4499 201.373 40.4499 201.37 40.4499C201.368 40.4499 201.365 40.4499 201.363 40.4499C201.36 40.4499 201.358 40.4499 201.356 40.4499C201.353 40.4499 201.351 40.4499 201.348 40.4499C201.346 40.4499 201.343 40.4499 201.341 40.4499C201.339 40.4499 201.336 40.4499 201.334 40.4499C201.331 40.4499 201.329 40.4499 201.326 40.4499C201.324 40.4499 201.321 40.4499 201.319 40.4499C201.317 40.4499 201.314 40.4499 201.312 40.4499C201.309 40.4499 201.307 40.4499 201.304 40.4499C201.302 40.4499 201.299 40.4499 201.297 40.4499C201.294 40.4499 201.292 40.4499 201.289 40.4499C201.287 40.4499 201.285 40.4499 201.282 40.4499C201.28 40.4499 201.277 40.4499 201.275 40.4499C201.272 40.4499 201.27 40.4499 201.267 40.4499C201.265 40.4499 201.262 40.4499 201.26 40.4499C201.257 40.4499 201.255 40.4499 201.252 40.4499C201.25 40.4499 201.247 40.4499 201.245 40.4499C201.242 40.4499 201.24 40.4499 201.237 40.4499C201.235 40.4499 201.232 40.4499 201.23 40.4499C201.228 40.4499 201.225 40.4499 201.223 40.4499C201.22 40.4499 201.218 40.4499 201.215 40.4499C201.213 40.4499 201.21 40.4499 201.208 40.4499C201.205 40.4499 201.203 40.4499 201.2 40.4499C201.198 40.4499 201.195 40.4499 201.193 40.4499C201.19 40.4499 201.187 40.4499 201.185 40.4499C201.182 40.4499 201.18 40.4499 201.177 40.4499C201.175 40.4499 201.172 40.4499 201.17 40.4499C201.167 40.4499 201.165 40.4499 201.162 40.4499C201.16 40.4499 201.157 40.4499 201.155 40.4499C201.152 40.4499 201.15 40.4499 201.147 40.4499C201.145 40.4499 201.142 40.4499 201.14 40.4499C201.137 40.4499 201.135 40.4499 201.132 40.4499C201.129 40.4499 201.127 40.4499 201.124 40.4499C201.122 40.4499 201.119 40.4499 201.117 40.4499C201.114 40.4499 201.112 40.4499 201.109 40.4499C201.107 40.4499 201.104 40.4499 201.101 40.4499C201.099 40.4499 201.096 40.4499 201.094 40.4499C201.091 40.4499 201.089 40.4499 201.086 40.4499C201.084 40.4499 201.081 40.4499 201.078 40.4499C201.076 40.4499 201.073 40.4499 201.071 40.4499C201.068 40.4499 201.066 40.4499 201.063 40.4499C201.061 40.4499 201.058 40.4499 201.055 40.4499C201.053 40.4499 201.05 40.4499 201.048 40.4499C201.045 40.4499 201.043 40.4499 201.04 40.4499C201.037 40.4499 201.035 40.4499 201.032 40.4499C201.03 40.4499 201.027 40.4499 201.024 40.4499C201.022 40.4499 201.019 40.4499 201.017 40.4499C201.014 40.4499 201.012 40.4499 201.009 40.4499C201.006 40.4499 201.004 40.4499 201.001 40.4499C200.999 40.4499 200.996 40.4499 200.993 40.4499C200.991 40.4499 200.988 40.4499 200.986 40.4499C200.983 40.4499 200.98 40.4499 200.978 40.4499C200.975 40.4499 200.973 40.4499 200.97 40.4499C200.967 40.4499 200.965 40.4499 200.962 40.4499C200.96 40.4499 200.957 40.4499 200.954 40.4499C200.952 40.4499 200.949 40.4499 200.946 40.4499C200.944 40.4499 200.941 40.4499 200.939 40.4499C200.936 40.4499 200.933 40.4499 200.931 40.4499C200.928 40.4499 200.926 40.4499 200.923 40.4499C200.92 40.4499 200.918 40.4499 200.915 40.4499C200.912 40.4499 200.91 40.4499 200.907 40.4499C200.904 40.4499 200.902 40.4499 200.899 40.4499C200.897 40.4499 200.894 40.4499 200.891 40.4499C200.889 40.4499 200.886 40.4499 200.883 40.4499C200.881 40.4499 200.878 40.4499 200.875 40.4499C200.873 40.4499 200.87 40.4499 200.867 40.4499C200.865 40.4499 200.862 40.4499 200.86 40.4499C200.857 40.4499 200.854 40.4499 200.852 40.4499C200.849 40.4499 200.846 40.4499 200.844 40.4499C200.841 40.4499 200.838 40.4499 200.836 40.4499C200.833 40.4499 200.83 40.4499 200.828 40.4499C200.825 40.4499 200.822 40.4499 200.82 40.4499C200.817 40.4499 200.814 40.4499 200.812 40.4499C200.809 40.4499 200.806 40.4499 200.804 40.4499C200.801 40.4499 200.798 40.4499 200.796 40.4499C200.793 40.4499 200.79 40.4499 200.787 40.4499C200.785 40.4499 200.782 40.4499 200.779 40.4499C200.777 40.4499 200.774 40.4499 200.771 40.4499C200.769 40.4499 200.766 40.4499 200.763 40.4499C200.761 40.4499 200.758 40.4499 200.755 40.4499C200.752 40.4499 200.75 40.4499 200.747 40.4499C200.744 40.4499 200.742 40.4499 200.739 40.4499C200.736 40.4499 200.734 40.4499 200.731 40.4499C200.728 40.4499 200.725 40.4499 200.723 40.4499C200.72 40.4499 200.717 40.4499 200.715 40.4499C200.712 40.4499 200.709 40.4499 200.706 40.4499C200.704 40.4499 200.701 40.4499 200.698 40.4499C200.696 40.4499 200.693 40.4499 200.69 40.4499C200.687 40.4499 200.685 40.4499 200.682 40.4499C200.679 40.4499 200.676 40.4499 200.674 40.4499C200.671 40.4499 200.668 40.4499 200.666 40.4499C200.663 40.4499 200.66 40.4499 200.657 40.4499C200.655 40.4499 200.652 40.4499 200.649 40.4499C200.646 40.4499 200.644 40.4499 200.641 40.4499C200.638 40.4499 200.635 40.4499 200.633 40.4499C200.63 40.4499 200.627 40.4499 200.624 40.4499C200.622 40.4499 200.619 40.4499 200.616 40.4499C200.613 40.4499 200.611 40.4499 200.608 40.4499C200.605 40.4499 200.602 40.4499 200.6 40.4499C200.597 40.4499 200.594 40.4499 200.591 40.4499C200.588 40.4499 200.586 40.4499 200.583 40.4499C200.58 40.4499 200.577 40.4499 200.575 40.4499C200.572 40.4499 200.569 40.4499 200.566 40.4499C200.564 40.4499 200.561 40.4499 200.558 40.4499C200.555 40.4499 200.552 40.4499 200.55 40.4499C200.547 40.4499 200.544 40.4499 200.541 40.4499C200.539 40.4499 200.536 40.4499 200.533 40.4499C200.53 40.4499 200.527 40.4499 200.525 40.4499C200.522 40.4499 200.519 40.4499 200.516 40.4499C200.513 40.4499 200.511 40.4499 200.508 40.4499C200.505 40.4499 200.502 40.4499 200.499 40.4499C200.497 40.4499 200.494 40.4499 200.491 40.4499C200.488 40.4499 200.485 40.4499 200.483 40.4499C200.48 40.4499 200.477 40.4499 200.474 40.4499C200.471 40.4499 200.468 40.4499 200.466 40.4499C200.463 40.4499 200.46 40.4499 200.457 40.4499C200.454 40.4499 200.452 40.4499 200.449 40.4499C200.446 40.4499 200.443 40.4499 200.44 40.4499C200.437 40.4499 200.435 40.4499 200.432 40.4499C200.429 40.4499 200.426 40.4499 200.423 40.4499C200.42 40.4499 200.418 40.4499 200.415 40.4499C200.412 40.4499 200.409 40.4499 200.406 40.4499C200.403 40.4499 200.401 40.4499 200.398 40.4499C200.395 40.4499 200.392 40.4499 200.389 40.4499C200.386 40.4499 200.384 40.4499 200.381 40.4499C200.378 40.4499 200.375 40.4499 200.372 40.4499C200.369 40.4499 200.366 40.4499 200.364 40.4499C200.361 40.4499 200.358 40.4499 200.355 40.4499C200.352 40.4499 200.349 40.4499 200.346 40.4499C200.344 40.4499 200.341 40.4499 200.338 40.4499C200.335 40.4499 200.332 40.4499 200.329 40.4499C200.326 40.4499 200.323 40.4499 200.321 40.4499C200.318 40.4499 200.315 40.4499 200.312 40.4499C200.309 40.4499 200.306 40.4499 200.303 40.4499C200.3 40.4499 200.298 40.4499 200.295 40.4499C200.292 40.4499 200.289 40.4499 200.286 40.4499C200.283 40.4499 200.28 40.4499 200.277 40.4499C200.274 40.4499 200.272 40.4499 200.269 40.4499C200.266 40.4499 200.263 40.4499 200.26 40.4499C200.257 40.4499 200.254 40.4499 200.251 40.4499C200.248 40.4499 200.245 40.4499 200.243 40.4499C200.24 40.4499 200.237 40.4499 200.234 40.4499C200.231 40.4499 200.228 40.4499 200.225 40.4499C200.222 40.4499 200.219 40.4499 200.216 40.4499C200.214 40.4499 200.211 40.4499 200.208 40.4499C200.205 40.4499 200.202 40.4499 200.199 40.4499C200.196 40.4499 200.193 40.4499 200.19 40.4499C200.187 40.4499 200.184 40.4499 200.181 40.4499C200.178 40.4499 200.176 40.4499 200.173 40.4499C200.17 40.4499 200.167 40.4499 200.164 40.4499C200.161 40.4499 200.158 40.4499 200.155 40.4499C200.152 40.4499 200.149 40.4499 200.146 40.4499C200.143 40.4499 200.14 40.4499 200.137 40.4499C200.134 40.4499 200.131 40.4499 200.128 40.4499C200.126 40.4499 200.123 40.4499 200.12 40.4499C200.117 40.4499 200.114 40.4499 200.111 40.4499C200.108 40.4499 200.105 40.4499 200.102 40.4499C200.099 40.4499 200.096 40.4499 200.093 40.4499C200.09 40.4499 200.087 40.4499 200.084 40.4499C200.081 40.4499 200.078 40.4499 200.075 40.4499C200.072 40.4499 200.069 40.4499 200.066 40.4499C200.063 40.4499 200.06 40.4499 200.057 40.4499C200.054 40.4499 200.051 40.4499 200.048 40.4499C200.046 40.4499 200.043 40.4499 200.04 40.4499C200.037 40.4499 200.034 40.4499 200.031 40.4499C200.028 40.4499 200.025 40.4499 200.022 40.4499C200.019 40.4499 200.016 40.4499 200.013 40.4499C200.01 40.4499 200.007 40.4499 200.004 40.4499C200.001 40.4499 199.998 40.4499 199.995 40.4499C199.992 40.4499 199.989 40.4499 199.986 40.4499C199.983 40.4499 199.98 40.4499 199.977 40.4499C199.974 40.4499 199.971 40.4499 199.968 40.4499C199.965 40.4499 199.962 40.4499 199.959 40.4499C199.956 40.4499 199.953 40.4499 199.95 40.4499C199.947 40.4499 199.944 40.4499 199.941 40.4499C199.938 40.4499 199.935 40.4499 199.931 40.4499C199.928 40.4499 199.925 40.4499 199.922 40.4499C199.919 40.4499 199.916 40.4499 199.913 40.4499C199.91 40.4499 199.907 40.4499 199.904 40.4499C199.901 40.4499 199.898 40.4499 199.895 40.4499C199.892 40.4499 199.889 40.4499 199.886 40.4499C199.883 40.4499 199.88 40.4499 199.877 40.4499C199.874 40.4499 199.871 40.4499 199.868 40.4499C199.865 40.4499 199.862 40.4499 199.859 40.4499C199.856 40.4499 199.853 40.4499 199.849 40.4499C199.846 40.4499 199.843 40.4499 199.84 40.4499C199.837 40.4499 199.834 40.4499 199.831 40.4499C199.828 40.4499 199.825 40.4499 199.822 40.4499C199.819 40.4499 199.816 40.4499 199.813 40.4499C199.81 40.4499 199.807 40.4499 199.804 40.4499C199.8 40.4499 199.797 40.4499 199.794 40.4499C199.791 40.4499 199.788 40.4499 199.785 40.4499C199.782 40.4499 199.779 40.4499 199.776 40.4499C199.773 40.4499 199.77 40.4499 199.767 40.4499C199.764 40.4499 199.76 40.4499 199.757 40.4499C199.754 40.4499 199.751 40.4499 199.748 40.4499C199.745 40.4499 199.742 40.4499 199.739 40.4499C199.736 40.4499 199.733 40.4499 199.73 40.4499C199.726 40.4499 199.723 40.4499 199.72 40.4499C199.717 40.4499 199.714 40.4499 199.711 40.4499C199.708 40.4499 199.705 40.4499 199.702 40.4499C199.699 40.4499 199.695 40.4499 199.692 40.4499C199.689 40.4499 199.686 40.4499 199.683 40.4499C199.68 40.4499 199.677 40.4499 199.674 40.4499C199.671 40.4499 199.667 40.4499 199.664 40.4499C199.661 40.4499 199.658 40.4499 199.655 40.4499C199.652 40.4499 199.649 40.4499 199.646 40.4499C199.642 40.4499 199.639 40.4499 199.636 40.4499C199.633 40.4499 199.63 40.4499 199.627 40.4499C199.624 40.4499 199.621 40.4499 199.617 40.4499C199.614 40.4499 199.611 40.4499 199.608 40.4499C199.605 40.4499 199.602 40.4499 199.599 40.4499C199.595 40.4499 199.592 40.4499 199.589 40.4499C199.586 40.4499 199.583 40.4499 199.58 40.4499C199.576 40.4499 199.573 40.4499 199.57 40.4499C199.567 40.4499 199.564 40.4499 199.561 40.4499C199.558 40.4499 199.554 40.4499 199.551 40.4499C199.548 40.4499 199.545 40.4499 199.542 40.4499C199.539 40.4499 199.535 40.4499 199.532 40.4499C199.529 40.4499 199.526 40.4499 199.523 40.4499V42.4499ZM203.065 42.4499C203.896 42.4499 204.641 42.5192 205.304 42.6518L205.696 40.6907C204.883 40.5281 204.005 40.4499 203.065 40.4499V42.4499ZM204.5 41.6712V68.679L206.5 68.679V41.6712H204.5ZM244.318 156.344L243.922 157.262L244.318 156.344ZM225.059 143.282L224.323 143.96L224.332 143.97L224.342 143.98L225.059 143.282ZM213.104 124.023L214.037 123.661L213.104 124.023ZM213.104 78.1981L214.037 78.5597L213.104 78.1981ZM225.059 59.1599L224.333 58.4721L224.332 58.4727L225.059 59.1599ZM295.013 45.8774L294.61 46.7927L294.617 46.7956L295.013 45.8774ZM314.051 59.1599L313.316 59.8373L313.325 59.8474L313.335 59.8572L314.051 59.1599ZM326.227 78.1981L325.295 78.5597L326.227 78.1981ZM326.227 124.023L327.159 124.384L326.227 124.023ZM314.273 143.282L314.999 143.97L315.008 143.96L314.273 143.282ZM295.235 156.344L295.631 157.262L295.235 156.344ZM241.662 115.389L240.716 115.715L240.723 115.735L240.731 115.755L241.662 115.389ZM248.082 126.236L247.322 126.887L247.331 126.897L247.34 126.907L248.082 126.236ZM257.822 133.542L257.389 134.443L257.404 134.451L257.419 134.457L257.822 133.542ZM281.731 133.542L282.133 134.457L282.149 134.451L282.163 134.443L281.731 133.542ZM291.25 126.236L290.508 125.566L290.499 125.576L290.491 125.586L291.25 126.236ZM297.67 115.168L296.735 114.813L296.729 114.827L296.724 114.842L297.67 115.168ZM297.67 87.0531L296.724 87.3791L296.729 87.3935L296.735 87.4078L297.67 87.0531ZM291.25 75.9844L290.491 76.6352L290.499 76.6453L290.508 76.6553L291.25 75.9844ZM281.731 68.9004L281.298 69.8019L281.313 69.809L281.328 69.8157L281.731 68.9004ZM257.822 68.9004L258.255 69.8019L257.822 68.9004ZM248.082 76.2057L247.34 75.5348L247.331 75.5448L247.322 75.555L248.082 76.2057ZM241.662 87.2745L240.727 86.9198L240.721 86.9341L240.716 86.9485L241.662 87.2745ZM269.776 160.214C260.447 160.214 252.098 158.611 244.714 155.425L243.922 157.262C251.592 160.57 260.215 162.214 269.776 162.214V160.214ZM244.714 155.425C237.299 152.226 230.99 147.945 225.775 142.585L224.342 143.98C229.753 149.541 236.284 153.967 243.922 157.262L244.714 155.425ZM225.794 142.605C220.715 137.09 216.796 130.778 214.037 123.661L212.172 124.384C215.021 131.73 219.071 138.258 224.323 143.96L225.794 142.605ZM214.037 123.661C211.279 116.548 209.898 109.07 209.898 101.221H207.898C207.898 109.311 209.322 117.034 212.172 124.384L214.037 123.661ZM209.898 101.221C209.898 93.2219 211.279 85.6706 214.037 78.5597L212.172 77.8366C209.321 85.1888 207.898 92.9862 207.898 101.221H209.898ZM214.037 78.5597C216.796 71.445 220.712 65.2104 225.785 59.8471L224.332 58.4727C219.075 64.0304 215.022 70.4881 212.172 77.8366L214.037 78.5597ZM225.785 59.8476C230.999 54.3438 237.304 49.9921 244.714 46.7956L243.922 44.9592C236.279 48.2563 229.745 52.7597 224.333 58.4721L225.785 59.8476ZM244.714 46.7956C252.098 43.6103 260.447 42.0071 269.776 42.0071V40.0071C260.215 40.0071 251.592 41.6508 243.922 44.9592L244.714 46.7956ZM269.776 42.0071C279.107 42.0071 287.378 43.6104 294.61 46.7927L295.416 44.9621C287.89 41.6506 279.337 40.0071 269.776 40.0071V42.0071ZM294.617 46.7956C302.025 49.9911 308.253 54.3399 313.316 59.8373L314.787 58.4824C309.52 52.7635 303.055 48.2573 295.409 44.9592L294.617 46.7956ZM313.335 59.8572C318.552 65.2197 322.538 71.451 325.295 78.5597L327.159 77.8366C324.308 70.482 320.177 64.0212 314.768 58.4625L313.335 59.8572ZM325.295 78.5597C328.052 85.6706 329.433 93.2219 329.433 101.221H331.433C331.433 92.9862 330.01 85.1888 327.159 77.8366L325.295 78.5597ZM329.433 101.221C329.433 109.07 328.053 116.548 325.295 123.661L327.159 124.384C330.009 117.034 331.433 109.311 331.433 101.221H329.433ZM325.295 123.661C322.535 130.778 318.616 137.09 313.537 142.605L315.008 143.96C320.26 138.258 324.311 131.73 327.159 124.384L325.295 123.661ZM313.546 142.595C308.482 147.949 302.252 152.227 294.839 155.425L295.631 157.262C303.271 153.966 309.732 149.537 314.999 143.97L313.546 142.595ZM294.839 155.425C287.454 158.611 279.106 160.214 269.776 160.214V162.214C279.337 162.214 287.961 160.57 295.631 157.262L294.839 155.425ZM238.448 101.221C238.448 106.482 239.2 111.317 240.716 115.715L242.607 115.063C241.172 110.902 240.448 106.291 240.448 101.221H238.448ZM240.731 115.755C242.392 119.982 244.587 123.696 247.322 126.887L248.841 125.586C246.263 122.578 244.179 119.061 242.593 115.023L240.731 115.755ZM247.34 126.907C250.229 130.101 253.58 132.615 257.389 134.443L258.255 132.64C254.685 130.927 251.542 128.571 248.823 125.566L247.34 126.907ZM257.419 134.457C261.244 136.14 265.367 136.977 269.776 136.977V134.977C265.626 134.977 261.78 134.191 258.225 132.627L257.419 134.457ZM269.776 136.977C274.186 136.977 278.309 136.14 282.133 134.457L281.328 132.627C277.773 134.191 273.926 134.977 269.776 134.977V136.977ZM282.163 134.443C285.978 132.613 289.262 130.092 292.009 126.887L290.491 125.586C287.925 128.579 284.863 130.929 281.298 132.64L282.163 134.443ZM291.991 126.907C294.893 123.7 297.099 119.89 298.615 115.494L296.724 114.842C295.289 119.005 293.215 122.574 290.508 125.566L291.991 126.907ZM298.605 115.522C300.276 111.116 301.105 106.271 301.105 101H299.105C299.105 106.059 298.31 110.66 296.735 114.813L298.605 115.522ZM301.105 101C301.105 95.8724 300.275 91.1021 298.605 86.6985L296.735 87.4078C298.311 91.564 299.105 96.0914 299.105 101H301.105ZM298.615 86.7271C297.099 82.3304 294.893 78.5208 291.991 75.3135L290.508 76.6553C293.215 79.6464 295.289 83.216 296.724 87.3791L298.615 86.7271ZM292.009 75.3336C289.256 72.122 285.962 69.6696 282.133 67.9851L281.328 69.8157C284.879 71.378 287.93 73.6482 290.491 76.6352L292.009 75.3336ZM282.163 67.9988C278.333 66.16 274.199 65.2439 269.776 65.2439V67.2439C273.914 67.2439 277.75 68.0987 281.298 69.8019L282.163 67.9988ZM269.776 65.2439C265.354 65.2439 261.22 66.16 257.389 67.9988L258.255 69.8019C261.803 68.0987 265.639 67.2439 269.776 67.2439V65.2439ZM257.389 67.9988C253.58 69.8272 250.229 72.3415 247.34 75.5348L248.823 76.8767C251.542 73.8715 254.685 71.5156 258.255 69.8019L257.389 67.9988ZM247.322 75.555C244.582 78.752 242.386 82.5448 240.727 86.9198L242.597 87.6292C244.184 83.4444 246.268 79.858 248.841 76.8565L247.322 75.555ZM240.716 86.9485C239.201 91.344 238.448 96.1043 238.448 101.221H240.448C240.448 96.3023 241.171 91.7648 242.607 87.6005L240.716 86.9485ZM347.356 77.9767L346.424 77.6152L347.356 77.9767ZM436.57 49.198L436.046 50.0492L436.052 50.053L436.57 49.198ZM456.716 70.6714L457.008 71.6278L458.139 71.2823L457.61 70.2242L456.716 70.6714ZM427.715 79.5264L426.853 80.0321L427.252 80.7134L428.007 80.4828L427.715 79.5264ZM417.754 69.7859L417.257 70.6541L417.269 70.6609L417.281 70.6674L417.754 69.7859ZM392.074 68.9004L392.477 69.8157L392.492 69.809L392.507 69.8019L392.074 68.9004ZM382.334 75.9844L381.592 75.3135L381.59 75.3154L382.334 75.9844ZM375.914 86.8317L374.979 86.4771L374.973 86.4913L374.968 86.5058L375.914 86.8317ZM376.135 115.168L375.2 115.522L376.135 115.168ZM382.555 126.236L381.796 126.887L381.804 126.897L381.813 126.907L382.555 126.236ZM392.295 133.542L391.863 134.443L391.878 134.451L391.893 134.457L392.295 133.542ZM418.639 131.992L418.137 131.127L418.131 131.131L418.125 131.135L418.639 131.992ZM428.158 122.252L428.45 121.295L427.616 121.041L427.25 121.833L428.158 122.252ZM457.158 131.107L458.07 131.517L458.536 130.482L457.45 130.15L457.158 131.107ZM437.456 152.801L436.933 151.949L437.456 152.801ZM379.013 156.344L378.617 157.262L379.013 156.344ZM359.753 143.282L359.027 143.97L359.037 143.98L359.753 143.282ZM347.356 124.023L346.422 124.378L346.426 124.389L346.43 124.401L347.356 124.023ZM344.15 101C344.15 93.0005 345.531 85.4492 348.289 78.3383L346.424 77.6152C343.573 84.9674 342.15 92.7648 342.15 101H344.15ZM348.289 78.3383C351.045 71.2297 355.031 64.9984 360.249 59.6358L358.815 58.2411C353.407 63.7998 349.276 70.2607 346.424 77.6152L348.289 78.3383ZM360.249 59.6358C365.464 54.2761 371.772 49.9945 379.188 46.7956L378.395 44.9592C370.758 48.2539 364.226 52.6797 358.815 58.2411L360.249 59.6358ZM379.188 46.7956C386.572 43.6103 394.92 42.0071 404.25 42.0071V40.0071C394.689 40.0071 386.065 41.6508 378.395 44.9592L379.188 46.7956ZM404.25 42.0071C416.797 42.0071 427.38 44.7053 436.046 50.0492L437.095 48.3468C428.051 42.7695 417.086 40.0071 404.25 40.0071V42.0071ZM436.052 50.053C444.904 55.4223 451.483 62.4431 455.821 71.1186L457.61 70.2242C453.093 61.1897 446.242 53.8949 437.089 48.343L436.052 50.053ZM456.423 69.715L427.423 78.57L428.007 80.4828L457.008 71.6278L456.423 69.715ZM428.578 79.0206C425.982 74.5916 422.53 71.2102 418.226 68.9044L417.281 70.6674C421.242 72.789 424.431 75.9013 426.853 80.0321L428.578 79.0206ZM418.25 68.9176C413.958 66.4652 409.21 65.2439 404.028 65.2439V67.2439C408.882 67.2439 413.284 68.3839 417.257 70.6541L418.25 68.9176ZM404.028 65.2439C399.606 65.2439 395.472 66.16 391.641 67.9988L392.507 69.8019C396.055 68.0987 399.891 67.2439 404.028 67.2439V65.2439ZM391.671 67.9851C387.848 69.6673 384.487 72.1137 381.592 75.3135L383.075 76.6553C385.788 73.6565 388.921 71.3803 392.477 69.8157L391.671 67.9851ZM381.59 75.3154C378.839 78.372 376.639 82.0989 374.979 86.4771L376.849 87.1864C378.435 83.0048 380.515 79.5001 383.077 76.6533L381.59 75.3154ZM374.968 86.5058C373.452 90.9042 372.7 95.7388 372.7 101H374.7C374.7 95.9299 375.424 91.3191 376.859 87.1577L374.968 86.5058ZM372.7 101C372.7 106.271 373.529 111.116 375.2 115.522L377.07 114.813C375.495 110.66 374.7 106.059 374.7 101H372.7ZM375.2 115.522C376.86 119.897 379.055 123.69 381.796 126.887L383.314 125.586C380.741 122.584 378.657 118.998 377.07 114.813L375.2 115.522ZM381.813 126.907C384.703 130.101 388.054 132.615 391.863 134.443L392.728 132.64C389.158 130.927 386.015 128.571 383.296 125.566L381.813 126.907ZM391.893 134.457C395.712 136.138 399.761 136.977 404.028 136.977V134.977C400.031 134.977 396.258 134.193 392.698 132.627L391.893 134.457ZM404.028 136.977C409.517 136.977 414.566 135.602 419.154 132.85L418.125 131.135C413.857 133.695 409.166 134.977 404.028 134.977V136.977ZM419.141 132.857C423.849 130.123 427.189 126.737 429.066 122.671L427.25 121.833C425.585 125.441 422.579 128.548 418.137 131.127L419.141 132.857ZM427.866 123.208L456.866 132.063L457.45 130.15L428.45 121.295L427.866 123.208ZM456.246 130.696C452.353 139.349 445.931 146.434 436.933 151.949L437.978 153.654C447.281 147.952 453.994 140.574 458.07 131.517L456.246 130.696ZM436.933 151.949C427.969 157.443 417.163 160.214 404.471 160.214V162.214C417.459 162.214 428.643 159.376 437.978 153.654L436.933 151.949ZM404.471 160.214C395.141 160.214 386.793 158.611 379.409 155.425L378.617 157.262C386.286 160.57 394.91 162.214 404.471 162.214V160.214ZM379.409 155.425C371.993 152.226 365.685 147.945 360.47 142.585L359.037 143.98C364.448 149.541 370.979 153.967 378.617 157.262L379.409 155.425ZM360.479 142.595C355.252 137.077 351.187 130.763 348.282 123.645L346.43 124.401C349.428 131.746 353.628 138.271 359.027 143.97L360.479 142.595ZM348.291 123.668C345.531 116.403 344.15 108.849 344.15 101H342.15C342.15 109.089 343.574 116.884 346.422 124.378L348.291 123.668ZM502.888 156.565L502.492 157.483L502.499 157.486L502.507 157.49L502.888 156.565ZM483.628 143.504L482.911 144.201L483.628 143.504ZM471.231 124.465L470.299 124.827L470.302 124.835L470.305 124.843L471.231 124.465ZM471.231 78.4195L472.164 78.781L472.166 78.7747L471.231 78.4195ZM483.407 59.1599L484.124 59.8573L484.133 59.8476L483.407 59.1599ZM502.666 45.8774L502.277 44.9564L502.27 44.9592L502.666 45.8774ZM553.583 45.8774L553.18 46.7927L553.187 46.7956L553.583 45.8774ZM572.621 58.9385L571.894 59.6258L571.904 59.6358L572.621 58.9385ZM584.575 77.9767L583.636 78.3216L583.64 78.3299L583.643 78.3383L584.575 77.9767ZM588.56 106.091L587.563 106.008L587.56 106.05V106.091H588.56ZM588.117 110.519V111.519H588.898L589.087 110.761L588.117 110.519ZM498.46 110.519V109.519H497.359L497.465 110.615L498.46 110.519ZM501.781 122.694L500.886 123.142L501.781 122.694ZM508.644 131.771L507.977 132.516L508.644 131.771ZM518.163 137.527L517.812 138.463L518.163 137.527ZM545.835 135.313L546.312 136.192L546.32 136.187L545.835 135.313ZM556.682 123.801L556.95 122.838L556.091 122.599L555.755 123.425L556.682 123.801ZM582.14 130.885L583.04 131.321L583.561 130.243L582.408 129.922L582.14 130.885ZM561.552 152.801L562.069 153.658L562.073 153.655L561.552 152.801ZM558.232 91.2592V92.2592H559.32L559.228 91.1748L558.232 91.2592ZM548.491 70.45L547.803 71.1759L547.813 71.1852L547.823 71.1942L548.491 70.45ZM516.613 64.6942L516.977 65.6255L516.988 65.6215L516.998 65.6173L516.613 64.6942ZM507.537 70.45L508.223 71.177L507.537 70.45ZM500.895 79.5264L500.001 79.0792L499.993 79.0943L499.986 79.1097L500.895 79.5264ZM498.018 91.2592L497.02 91.1904L496.946 92.2592H498.018V91.2592ZM528.125 160.214C518.939 160.214 510.659 158.683 503.269 155.64L502.507 157.49C510.171 160.645 518.715 162.214 528.125 162.214V160.214ZM503.284 155.647C495.868 152.448 489.56 148.166 484.345 142.806L482.911 144.201C488.323 149.763 494.854 154.188 502.492 157.483L503.284 155.647ZM484.345 142.806C479.124 137.44 475.061 131.203 472.157 124.088L470.305 124.843C473.304 132.191 477.507 138.646 482.911 144.201L484.345 142.806ZM472.164 124.104C469.405 116.991 468.025 109.513 468.025 101.664H466.025C466.025 109.754 467.449 117.477 470.299 124.827L472.164 124.104ZM468.025 101.664C468.025 93.5147 469.407 85.8899 472.164 78.781L470.299 78.058C467.447 85.4122 466.025 93.2837 466.025 101.664H468.025ZM472.166 78.7747C474.923 71.5186 478.909 65.2163 484.124 59.8572L482.69 58.4625C477.278 64.0246 473.147 70.5621 470.296 78.0643L472.166 78.7747ZM484.133 59.8476C489.347 54.3438 495.652 49.9921 503.062 46.7956L502.27 44.9592C494.627 48.2563 488.093 52.7597 482.681 58.4721L484.133 59.8476ZM503.056 46.7983C510.592 43.6102 519.017 42.0071 528.346 42.0071V40.0071C518.785 40.0071 510.09 41.6509 502.277 44.9564L503.056 46.7983ZM528.346 42.0071C537.676 42.0071 545.948 43.6104 553.18 46.7927L553.985 44.9621C546.459 41.6506 537.906 40.0071 528.346 40.0071V42.0071ZM553.187 46.7956C560.6 49.9935 566.831 54.2724 571.894 59.6257L573.347 58.2513C568.081 52.6835 561.619 48.2549 553.979 44.9592L553.187 46.7956ZM571.904 59.6358C577.118 64.9947 581.028 71.2202 583.636 78.3216L585.514 77.6319C582.81 70.2701 578.75 63.8035 573.338 58.2411L571.904 59.6358ZM583.643 78.3383C586.402 85.4536 587.781 92.8577 587.781 100.557H589.781C589.781 92.6125 588.357 84.9631 585.508 77.6152L583.643 78.3383ZM587.781 100.557C587.781 102.45 587.708 104.267 587.563 106.008L589.556 106.174C589.707 104.374 589.781 102.501 589.781 100.557H587.781ZM587.56 106.091C587.56 107.814 587.416 109.202 587.147 110.276L589.087 110.761C589.409 109.474 589.56 107.911 589.56 106.091H587.56ZM588.117 109.519L498.46 109.519V111.519L588.117 111.519V109.519ZM497.465 110.615C497.918 115.293 499.053 119.474 500.886 123.142L502.675 122.247C500.967 118.831 499.888 114.895 499.456 110.423L497.465 110.615ZM500.886 123.142C502.711 126.791 505.074 129.919 507.977 132.516L509.31 131.026C506.605 128.605 504.393 125.682 502.675 122.247L500.886 123.142ZM507.977 132.516C510.874 135.108 514.154 137.091 517.812 138.463L518.514 136.59C515.087 135.305 512.021 133.451 509.31 131.026L507.977 132.516ZM517.812 138.463C521.467 139.834 525.276 140.519 529.231 140.519V138.519C525.512 138.519 521.942 137.876 518.514 136.59L517.812 138.463ZM529.231 140.519C535.301 140.519 540.999 139.076 546.312 136.192L545.357 134.434C540.339 137.158 534.969 138.519 529.231 138.519V140.519ZM546.32 136.187C551.793 133.147 555.588 129.15 557.608 124.178L555.755 123.425C553.938 127.898 550.502 131.576 545.349 134.439L546.32 136.187ZM556.414 124.765L581.872 131.849L582.408 129.922L556.95 122.838L556.414 124.765ZM581.24 130.45C577.054 139.111 570.334 146.279 561.032 151.948L562.073 153.655C571.661 147.812 578.667 140.37 583.04 131.321L581.24 130.45ZM561.036 151.945C551.922 157.442 540.966 160.214 528.125 160.214V162.214C541.258 162.214 552.587 159.377 562.069 153.658L561.036 151.945ZM559.228 91.1748C558.472 82.2493 555.129 75.0637 549.159 69.7058L547.823 71.1942C553.364 76.1671 556.516 82.8544 557.235 91.3437L559.228 91.1748ZM549.179 69.724C543.375 64.2255 536.262 61.4805 527.903 61.4805V63.4805C535.779 63.4805 542.391 66.0485 547.803 71.1759L549.179 69.724ZM527.903 61.4805C523.792 61.4805 519.897 62.2426 516.228 63.7712L516.998 65.6173C520.413 64.1942 524.045 63.4805 527.903 63.4805V61.4805ZM516.249 63.763C512.734 65.1381 509.6 67.1262 506.85 69.723L508.223 71.177C510.787 68.756 513.703 66.9069 516.977 65.6255L516.249 63.763ZM506.85 69.723C504.102 72.3188 501.82 75.4412 500.001 79.0792L501.79 79.9736C503.513 76.5275 505.659 73.5991 508.223 71.177L506.85 69.723ZM499.986 79.1097C498.308 82.7719 497.323 86.8023 497.02 91.1904L499.015 91.328C499.303 87.1563 500.236 83.3648 501.805 79.943L499.986 79.1097ZM498.018 92.2592H558.232V90.2592H498.018V92.2592ZM622.128 156.565L622.444 155.616L622.128 156.565ZM598.219 143.282L597.36 142.771L596.932 143.49L597.564 144.038L598.219 143.282ZM609.288 124.687L609.866 123.871L608.982 123.245L608.429 124.175L609.288 124.687ZM629.876 136.198L629.504 137.127L629.517 137.132L629.529 137.136L629.876 136.198ZM663.082 118.046L662.648 118.947L663.082 118.046ZM643.601 111.404L643.869 110.441L643.866 110.44L643.601 111.404ZM624.341 105.427L624.002 106.368L624.341 105.427ZM611.502 99.0074L610.89 99.7987L610.902 99.8075L610.913 99.8161L611.502 99.0074ZM604.418 90.5951L603.507 91.0089L603.511 91.017L603.515 91.0251L604.418 90.5951ZM605.524 63.1446L604.63 62.6974L604.624 62.7087L604.619 62.7202L605.524 63.1446ZM615.265 51.1904L615.883 51.9767L615.891 51.97L615.9 51.9631L615.265 51.1904ZM629.654 43.4422L629.353 42.4886L629.346 42.491L629.654 43.4422ZM672.158 44.5491L671.842 45.4978L671.848 45.4996L672.158 44.5491ZM693.189 56.7247L694.021 57.2794L694.505 56.5533L693.851 55.9754L693.189 56.7247ZM681.235 74.6561L680.635 75.4561L681.48 76.0904L682.067 75.2108L681.235 74.6561ZM663.968 64.9156L663.614 65.8509L663.622 65.854L663.968 64.9156ZM630.983 79.9691L630.108 80.4548L630.128 80.4901L630.151 80.5238L630.983 79.9691ZM641.83 86.6104L641.484 87.5487L641.513 87.5593L641.543 87.5682L641.83 86.6104ZM652.677 89.4883L652.928 88.5202L652.92 88.5181L652.912 88.5162L652.677 89.4883ZM673.044 95.6867L672.698 96.6251L672.706 96.6279L673.044 95.6867ZM686.99 102.771L686.391 103.571L686.398 103.577L686.406 103.582L686.99 102.771ZM694.96 112.068L694.051 112.485L694.062 112.508L694.073 112.531L694.96 112.068ZM684.998 151.473L685.609 152.265L685.618 152.258L684.998 151.473ZM650.685 160.214C641.053 160.214 631.64 158.682 622.444 155.616L621.811 157.514C631.21 160.647 640.836 162.214 650.685 162.214V160.214ZM622.444 155.616C613.256 152.554 605.405 148.187 598.874 142.527L597.564 144.038C604.315 149.889 612.404 154.378 621.811 157.514L622.444 155.616ZM599.078 143.794L610.147 125.198L608.429 124.175L597.36 142.771L599.078 143.794ZM608.71 125.503C615.845 130.557 622.776 134.436 629.504 137.127L630.247 135.27C623.693 132.648 616.899 128.852 609.866 123.871L608.71 125.503ZM629.529 137.136C636.419 139.683 643.251 140.962 650.021 140.962V138.962C643.508 138.962 636.91 137.732 630.222 135.26L629.529 137.136ZM650.021 140.962C656.034 140.962 660.899 139.836 664.514 137.479L663.421 135.804C660.248 137.873 655.814 138.962 650.021 138.962V140.962ZM664.514 137.479C668.198 135.076 670.059 131.584 670.059 127.122H668.059C668.059 130.924 666.526 133.779 663.421 135.804L664.514 137.479ZM670.059 127.122C670.059 124.889 669.518 122.902 668.4 121.204C667.284 119.51 665.635 118.165 663.516 117.145L662.648 118.947C664.513 119.845 665.853 120.972 666.73 122.304C667.604 123.631 668.059 125.223 668.059 127.122H670.059ZM663.516 117.145C659.446 115.185 652.881 112.952 643.869 110.441L643.333 112.368C652.326 114.874 658.748 117.069 662.648 118.947L663.516 117.145ZM643.866 110.44C636.355 108.378 629.962 106.394 624.681 104.487L624.002 106.368C629.347 108.298 635.793 110.298 643.336 112.369L643.866 110.44ZM624.681 104.487C619.424 102.588 615.236 100.487 612.09 98.1986L610.913 99.8161C614.26 102.25 618.633 104.429 624.002 106.368L624.681 104.487ZM612.113 98.2161C608.966 95.7845 606.717 93.0977 605.32 90.1652L603.515 91.0251C605.07 94.291 607.543 97.2124 610.89 99.7987L612.113 98.2161ZM605.328 90.1813C603.924 87.0918 603.204 83.4019 603.204 79.0836H601.204C601.204 83.6203 601.96 87.6047 603.507 91.0089L605.328 90.1813ZM603.204 79.0836C603.204 73.3076 604.286 68.1424 606.43 63.5691L604.619 62.7202C602.335 67.5922 601.204 73.053 601.204 79.0836H603.204ZM606.419 63.5918C608.715 59.0006 611.867 55.1318 615.883 51.9767L614.647 50.4041C610.398 53.7426 607.057 57.8433 604.63 62.6974L606.419 63.5918ZM615.9 51.9631C619.929 48.6537 624.612 46.1287 629.963 44.3935L629.346 42.491C623.775 44.2977 618.866 46.9382 614.63 50.4176L615.9 51.9631ZM629.956 44.3958C635.457 42.6586 641.405 41.7857 647.807 41.7857V39.7857C641.222 39.7857 635.068 40.6839 629.353 42.4887L629.956 44.3958ZM647.807 41.7857C656.417 41.7857 664.427 43.026 671.842 45.4978L672.475 43.6004C664.836 41.0544 656.612 39.7857 647.807 39.7857V41.7857ZM671.848 45.4996C679.386 47.9641 686.278 51.9517 692.527 57.4741L693.851 55.9754C687.408 50.2814 680.279 46.152 672.469 43.5986L671.848 45.4996ZM692.357 56.17L680.403 74.1014L682.067 75.2108L694.021 57.2794L692.357 56.17ZM681.835 73.8561C675.871 69.3835 670.031 66.0838 664.313 63.9773L663.622 65.854C669.121 67.8798 674.792 71.0738 680.635 75.4561L681.835 73.8561ZM664.321 63.9803C658.756 61.8744 653.175 60.8164 647.586 60.8164V62.8164C652.917 62.8164 658.258 63.8245 663.614 65.8509L664.321 63.9803ZM647.586 60.8164C642.432 60.8164 638.035 61.8778 634.447 64.0614L635.487 65.7698C638.689 63.8211 642.704 62.8164 647.586 62.8164V60.8164ZM634.447 64.0614C630.705 66.3394 628.876 70.016 628.876 74.8775H630.876C630.876 70.5889 632.441 67.6242 635.487 65.7698L634.447 64.0614ZM628.876 74.8775C628.876 77.0551 629.264 78.934 630.108 80.4548L631.857 79.4835C631.226 78.3477 630.876 76.8322 630.876 74.8775H628.876ZM630.151 80.5238C631.141 82.0095 632.597 83.2862 634.464 84.3749L635.471 82.6473C633.796 81.6699 632.595 80.5853 631.815 79.4144L630.151 80.5238ZM634.464 84.3749C636.302 85.4474 638.648 86.5037 641.484 87.5487L642.176 85.672C639.404 84.6509 637.175 83.641 635.471 82.6473L634.464 84.3749ZM641.543 87.5682C644.517 88.4606 648.152 89.4246 652.443 90.4603L652.912 88.5162C648.643 87.4857 645.046 86.5311 642.117 85.6525L641.543 87.5682ZM652.426 90.4562C660.375 92.517 667.13 94.5737 672.698 96.6251L673.39 94.7484C667.741 92.6674 660.919 90.5919 652.928 88.5202L652.426 90.4562ZM672.706 96.6279C678.401 98.6722 682.952 100.992 686.391 103.571L687.591 101.971C683.945 99.2364 679.198 96.8336 673.382 94.7456L672.706 96.6279ZM686.406 103.582C689.979 106.155 692.511 109.125 694.051 112.485L695.869 111.652C694.162 107.928 691.381 104.7 687.575 101.959L686.406 103.582ZM694.073 112.531C695.752 115.749 696.617 119.714 696.617 124.465H698.617C698.617 119.477 697.71 115.177 695.847 111.606L694.073 112.531ZM696.617 124.465C696.617 135.545 692.534 144.25 684.378 150.688L685.618 152.258C694.286 145.414 698.617 136.114 698.617 124.465H696.617ZM684.387 150.682C676.203 156.999 665.006 160.214 650.685 160.214V162.214C665.29 162.214 676.968 158.935 685.609 152.265L684.387 150.682ZM732.167 156.565L732.483 155.616L732.167 156.565ZM708.258 143.282L707.399 142.771L706.971 143.49L707.603 144.038L708.258 143.282ZM719.327 124.687L719.905 123.871L719.021 123.245L718.468 124.175L719.327 124.687ZM739.915 136.198L739.543 137.127L739.556 137.132L739.568 137.136L739.915 136.198ZM773.121 118.046L772.687 118.947L773.121 118.046ZM753.64 111.404L753.908 110.441L753.905 110.44L753.64 111.404ZM734.38 105.427L734.041 106.368L734.38 105.427ZM721.541 99.0074L720.929 99.7987L720.941 99.8075L720.952 99.8161L721.541 99.0074ZM714.457 90.5951L713.546 91.0089L713.55 91.017L713.554 91.0251L714.457 90.5951ZM715.563 63.1446L714.669 62.6974L714.663 62.7087L714.658 62.7202L715.563 63.1446ZM725.304 51.1904L725.922 51.9767L725.93 51.97L725.939 51.9631L725.304 51.1904ZM739.693 43.4422L739.392 42.4886L739.385 42.491L739.693 43.4422ZM782.197 44.5491L781.881 45.4978L781.887 45.4996L782.197 44.5491ZM803.228 56.7247L804.06 57.2794L804.544 56.5533L803.89 55.9754L803.228 56.7247ZM791.274 74.6561L790.674 75.4561L791.519 76.0904L792.106 75.2108L791.274 74.6561ZM774.006 64.9156L773.653 65.8509L773.661 65.854L774.006 64.9156ZM741.022 79.9691L740.147 80.4548L740.167 80.4901L740.19 80.5238L741.022 79.9691ZM751.869 86.6104L751.523 87.5487L751.552 87.5593L751.582 87.5682L751.869 86.6104ZM762.716 89.4883L762.967 88.5202L762.959 88.5181L762.951 88.5162L762.716 89.4883ZM783.083 95.6867L782.737 96.6251L782.745 96.6279L783.083 95.6867ZM797.029 102.771L796.429 103.571L796.437 103.577L796.445 103.582L797.029 102.771ZM804.999 112.068L804.09 112.485L804.101 112.508L804.112 112.531L804.999 112.068ZM795.037 151.473L795.648 152.265L795.657 152.258L795.037 151.473ZM760.724 160.214C751.092 160.214 741.679 158.682 732.483 155.616L731.85 157.514C741.249 160.647 750.875 162.214 760.724 162.214V160.214ZM732.483 155.616C723.295 152.554 715.444 148.187 708.913 142.527L707.603 144.038C714.354 149.889 722.442 154.378 731.85 157.514L732.483 155.616ZM709.117 143.794L720.186 125.198L718.468 124.175L707.399 142.771L709.117 143.794ZM718.749 125.503C725.884 130.557 732.815 134.436 739.543 137.127L740.286 135.27C733.731 132.648 726.938 128.852 719.905 123.871L718.749 125.503ZM739.568 137.136C746.458 139.683 753.29 140.962 760.06 140.962V138.962C753.547 138.962 746.949 137.732 740.261 135.26L739.568 137.136ZM760.06 140.962C766.073 140.962 770.938 139.836 774.553 137.479L773.46 135.804C770.287 137.873 765.853 138.962 760.06 138.962V140.962ZM774.553 137.479C778.237 135.076 780.098 131.584 780.098 127.122H778.098C778.098 130.924 776.565 133.779 773.46 135.804L774.553 137.479ZM780.098 127.122C780.098 124.889 779.557 122.902 778.439 121.204C777.323 119.51 775.674 118.165 773.555 117.145L772.687 118.947C774.552 119.845 775.892 120.972 776.769 122.304C777.643 123.631 778.098 125.223 778.098 127.122H780.098ZM773.555 117.145C769.485 115.185 762.92 112.952 753.908 110.441L753.371 112.368C762.365 114.874 768.787 117.069 772.687 118.947L773.555 117.145ZM753.905 110.44C746.394 108.378 740.001 106.394 734.72 104.487L734.041 106.368C739.386 108.298 745.832 110.298 753.375 112.369L753.905 110.44ZM734.72 104.487C729.463 102.588 725.275 100.487 722.129 98.1986L720.952 99.8161C724.299 102.25 728.672 104.429 734.041 106.368L734.72 104.487ZM722.152 98.2161C719.005 95.7845 716.756 93.0977 715.359 90.1652L713.554 91.0251C715.109 94.291 717.582 97.2124 720.929 99.7987L722.152 98.2161ZM715.367 90.1813C713.963 87.0918 713.243 83.4019 713.243 79.0836H711.243C711.243 83.6203 711.999 87.6047 713.546 91.0089L715.367 90.1813ZM713.243 79.0836C713.243 73.3076 714.325 68.1424 716.469 63.5691L714.658 62.7202C712.374 67.5922 711.243 73.053 711.243 79.0836H713.243ZM716.458 63.5918C718.753 59.0006 721.906 55.1318 725.922 51.9767L724.686 50.4041C720.437 53.7426 717.096 57.8433 714.669 62.6974L716.458 63.5918ZM725.939 51.9631C729.967 48.6537 734.651 46.1287 740.002 44.3935L739.385 42.491C733.814 44.2977 728.905 46.9382 724.669 50.4176L725.939 51.9631ZM739.994 44.3958C745.496 42.6586 751.444 41.7857 757.846 41.7857V39.7857C751.261 39.7857 745.107 40.6839 739.392 42.4887L739.994 44.3958ZM757.846 41.7857C766.456 41.7857 774.466 43.026 781.881 45.4978L782.514 43.6004C774.875 41.0544 766.651 39.7857 757.846 39.7857V41.7857ZM781.887 45.4996C789.425 47.9641 796.317 51.9517 802.566 57.4741L803.89 55.9754C797.447 50.2814 790.318 46.152 782.508 43.5986L781.887 45.4996ZM802.396 56.17L790.442 74.1014L792.106 75.2108L804.06 57.2794L802.396 56.17ZM791.874 73.8561C785.91 69.3835 780.07 66.0838 774.352 63.9773L773.661 65.854C779.159 67.8798 784.831 71.0738 790.674 75.4561L791.874 73.8561ZM774.36 63.9803C768.795 61.8744 763.214 60.8164 757.625 60.8164V62.8164C762.956 62.8164 768.297 63.8245 773.653 65.8509L774.36 63.9803ZM757.625 60.8164C752.471 60.8164 748.074 61.8778 744.486 64.0614L745.526 65.7698C748.728 63.8211 752.743 62.8164 757.625 62.8164V60.8164ZM744.486 64.0614C740.744 66.3394 738.915 70.016 738.915 74.8775H740.915C740.915 70.5889 742.48 67.6242 745.526 65.7698L744.486 64.0614ZM738.915 74.8775C738.915 77.0551 739.303 78.934 740.147 80.4548L741.896 79.4835C741.265 78.3477 740.915 76.8322 740.915 74.8775H738.915ZM740.19 80.5238C741.18 82.0095 742.636 83.2862 744.502 84.3749L745.51 82.6473C743.835 81.6699 742.634 80.5853 741.854 79.4144L740.19 80.5238ZM744.502 84.3749C746.341 85.4474 748.687 86.5037 751.523 87.5487L752.215 85.672C749.443 84.6509 747.214 83.641 745.51 82.6473L744.502 84.3749ZM751.582 87.5682C754.556 88.4606 758.191 89.4246 762.482 90.4603L762.951 88.5162C758.682 87.4857 755.085 86.5311 752.156 85.6525L751.582 87.5682ZM762.465 90.4562C770.414 92.517 777.169 94.5737 782.737 96.6251L783.429 94.7484C777.78 92.6674 770.958 90.5919 762.967 88.5202L762.465 90.4562ZM782.745 96.6279C788.44 98.6722 792.991 100.992 796.429 103.571L797.629 101.971C793.984 99.2364 789.237 96.8336 783.421 94.7456L782.745 96.6279ZM796.445 103.582C800.018 106.155 802.55 109.125 804.09 112.485L805.908 111.652C804.201 107.928 801.42 104.7 797.614 101.959L796.445 103.582ZM804.112 112.531C805.791 115.749 806.655 119.714 806.655 124.465H808.655C808.655 119.477 807.749 115.177 805.886 111.606L804.112 112.531ZM806.655 124.465C806.655 135.545 802.573 144.25 794.417 150.688L795.657 152.258C804.325 145.414 808.655 136.114 808.655 124.465H806.655ZM794.426 150.682C786.242 156.999 775.045 160.214 760.724 160.214V162.214C775.329 162.214 787.007 158.935 795.648 152.265L794.426 150.682Z" fill="#C2C2C2"/>
</svg>
