<svg width="202" height="952" viewBox="0 0 202 952" fill="none" xmlns="http://www.w3.org/2000/svg">
<path d="M44.11 906.704L43.11 906.704L43.11 907.393L43.7534 907.639L44.11 906.704ZM44.11 887.306L43.7545 886.372L43.11 886.617L43.11 887.306L44.11 887.306ZM157 844.376L158 844.376L158 842.926L156.645 843.442L157 844.376ZM157 866.954L157.349 867.891L158 867.649L158 866.954L157 866.954ZM128.857 877.448L128.508 876.512L127.857 876.754L127.857 877.448L128.857 877.448ZM128.857 916.88L127.857 916.88L127.857 917.579L128.512 917.819L128.857 916.88ZM157 927.215L158 927.215L158 926.517L157.345 926.277L157 927.215ZM157 949.793L156.643 950.728L158 951.246L158 949.793L157 949.793ZM113.434 881.423L114.434 881.423L114.434 880.012L113.103 880.48L113.434 881.423ZM69.073 897.005L68.7416 896.062L66.1091 896.987L68.7296 897.945L69.073 897.005ZM113.434 913.223L113.091 914.163L114.434 914.654L114.434 913.223L113.434 913.223ZM45.11 906.704L45.11 887.306L43.11 887.306L43.11 906.704L45.11 906.704ZM44.4654 888.241L157.355 845.311L156.645 843.442L43.7545 886.372L44.4654 888.241ZM156 844.376L156 866.954L158 866.954L158 844.376L156 844.376ZM156.651 866.018L128.508 876.512L129.206 878.385L157.349 867.891L156.651 866.018ZM127.857 877.448L127.857 916.88L129.857 916.88L129.857 877.448L127.857 877.448ZM128.512 917.819L156.655 928.154L157.345 926.277L129.202 915.942L128.512 917.819ZM156 927.215L156 949.793L158 949.793L158 927.215L156 927.215ZM157.357 948.859L44.4666 905.77L43.7534 907.639L156.643 950.728L157.357 948.859ZM113.103 880.48L68.7416 896.062L69.4044 897.949L113.765 882.367L113.103 880.48ZM68.7296 897.945L113.091 914.163L113.777 912.284L69.4164 896.066L68.7296 897.945ZM114.434 913.223L114.434 881.423L112.434 881.423L112.434 913.223L114.434 913.223ZM154.297 801.307L155.151 801.827L155.155 801.82L155.159 801.814L154.297 801.307ZM142.372 812.755L141.888 811.88L142.372 813.755L142.372 812.755ZM190.867 812.755L191.867 812.755L191.867 811.755L190.867 811.755L190.867 812.755ZM190.867 834.061L190.867 835.061L191.867 835.061L191.867 834.061L190.867 834.061ZM73.684 834.061L72.684 834.061L72.684 835.061L73.684 835.061L73.684 834.061ZM73.684 815.458L73.684 814.458L72.684 814.458L72.684 815.458L73.684 815.458ZM87.994 815.458L87.994 816.458L91.4553 816.458L88.5273 814.612L87.994 815.458ZM76.546 803.533L77.4166 803.041L77.4125 803.034L77.4084 803.027L76.546 803.533ZM75.751 771.097L76.6494 771.537L76.6533 771.528L76.6572 771.52L75.751 771.097ZM84.973 758.854L85.6271 759.611L85.6381 759.601L85.6487 759.592L84.973 758.854ZM98.647 750.745L98.9857 751.686L98.9972 751.682L99.0085 751.678L98.647 750.745ZM132.196 750.427L131.874 751.374L132.196 750.427ZM146.029 758.059L145.387 758.826L145.393 758.831L145.399 758.836L146.029 758.059ZM155.251 769.507L154.357 769.955L155.251 769.507ZM138.397 782.545L137.503 782.993L137.506 783L137.51 783.007L138.397 782.545ZM105.484 771.256L105.839 772.191L105.85 772.187L105.484 771.256ZM97.534 776.185L98.2049 776.927L98.2144 776.918L98.2236 776.91L97.534 776.185ZM92.287 783.499L93.195 783.918L93.1979 783.912L93.2008 783.906L92.287 783.499ZM91.492 798.763L92.4498 798.476L92.4433 798.454L92.4358 798.433L91.492 798.763ZM94.354 804.646L93.537 805.223L94.354 804.646ZM98.806 809.575L98.1475 810.328L98.1612 810.34L98.1754 810.351L98.806 809.575ZM104.371 812.755L104.025 813.694L104.193 813.755L104.371 813.755L104.371 812.755ZM123.928 812.755L123.928 813.755L124.121 813.755L124.299 813.684L123.928 812.755ZM135.853 804.01L136.63 804.64L136.635 804.634L136.64 804.627L135.853 804.01ZM157.59 784.135C157.59 790.559 156.193 796.102 153.435 800.801L155.159 801.814C158.125 796.761 159.59 790.856 159.59 784.135L157.59 784.135ZM153.443 800.787C150.565 805.515 146.717 809.209 141.888 811.88L142.856 813.63C147.991 810.79 152.093 806.851 155.151 801.827L153.443 800.787ZM142.372 813.755L190.867 813.755L190.867 811.755L142.372 811.755L142.372 813.755ZM189.867 812.755L189.867 834.061L191.867 834.061L191.867 812.755L189.867 812.755ZM190.867 833.061L73.684 833.061L73.684 835.061L190.867 835.061L190.867 833.061ZM74.684 834.061L74.684 815.458L72.684 815.458L72.684 834.061L74.684 834.061ZM73.684 816.458L87.994 816.458L87.994 814.458L73.684 814.458L73.684 816.458ZM88.5273 814.612C83.787 811.624 80.0887 807.769 77.4166 803.041L75.6754 804.025C78.5153 809.05 82.449 813.145 87.4607 816.304L88.5273 814.612ZM77.4084 803.027C74.6473 798.323 73.253 792.884 73.253 786.679L71.253 786.679C71.253 793.195 72.7206 798.992 75.6836 804.04L77.4084 803.027ZM73.253 786.679C73.253 781.205 74.3881 776.162 76.6494 771.537L74.8526 770.658C72.4499 775.573 71.253 780.918 71.253 786.679L73.253 786.679ZM76.6572 771.52C78.8245 766.876 81.8134 762.909 85.6271 759.611L84.3188 758.098C80.2886 761.584 77.1295 765.779 74.8448 770.674L76.6572 771.52ZM85.6487 759.592C89.3587 756.191 93.7994 753.553 98.9857 751.686L98.3083 749.804C92.8946 751.753 88.2193 754.522 84.2973 758.117L85.6487 759.592ZM99.0085 751.678C104.082 749.71 109.471 748.724 115.183 748.724L115.183 746.724C109.235 746.724 103.6 747.752 98.2855 749.813L99.0085 751.678ZM115.183 748.724C121.124 748.724 126.686 749.61 131.874 751.374L132.518 749.481C127.106 747.641 121.326 746.724 115.183 746.724L115.183 748.724ZM131.874 751.374C137.068 753.14 141.568 755.626 145.387 758.826L146.671 757.293C142.646 753.92 137.924 751.319 132.518 749.481L131.874 751.374ZM145.399 758.836C149.212 761.928 152.195 765.632 154.357 769.955L156.145 769.06C153.855 764.479 150.69 760.551 146.659 757.283L145.399 758.836ZM154.357 769.955C156.509 774.259 157.59 778.98 157.59 784.135L159.59 784.135C159.59 778.69 158.445 773.66 156.145 769.06L154.357 769.955ZM141.464 791.29C141.464 787.96 140.741 784.886 139.284 782.084L137.51 783.007C138.809 785.505 139.464 788.26 139.464 791.29L141.464 791.29ZM139.291 782.098C137.852 779.219 135.909 776.775 133.465 774.775L132.199 776.323C134.419 778.14 136.186 780.36 137.503 782.993L139.291 782.098ZM133.465 774.775C131.035 772.787 128.226 771.247 125.049 770.152L124.397 772.043C127.368 773.067 129.965 774.496 132.199 776.323L133.465 774.775ZM125.049 770.152C121.869 769.055 118.579 768.507 115.183 768.507L115.183 770.507C118.359 770.507 121.429 771.019 124.397 772.043L125.049 770.152ZM115.183 768.507C111.572 768.507 108.214 769.11 105.118 770.326L105.85 772.187C108.69 771.071 111.798 770.507 115.183 770.507L115.183 768.507ZM105.129 770.321C101.94 771.531 99.1734 773.243 96.8443 775.461L98.2236 776.91C100.347 774.888 102.88 773.313 105.839 772.191L105.129 770.321ZM96.8631 775.444C94.5291 777.556 92.6993 780.109 91.3732 783.093L93.2008 783.906C94.4186 781.165 96.0869 778.843 98.2049 776.927L96.8631 775.444ZM91.379 783.08C90.0415 785.978 89.379 789.144 89.379 792.562L91.379 792.562C91.379 789.409 91.9885 786.532 93.195 783.918L91.379 783.08ZM89.379 792.562C89.379 794.701 89.7732 796.88 90.5481 799.094L92.4358 798.433C91.7268 796.407 91.379 794.452 91.379 792.562L89.379 792.562ZM90.5342 799.051C91.2011 801.274 92.2025 803.333 93.537 805.223L95.171 804.07C93.9614 802.356 93.0549 800.493 92.4498 798.476L90.5342 799.051ZM93.537 805.223C94.8557 807.091 96.3932 808.793 98.1475 810.328L99.4645 808.823C97.8268 807.39 96.3963 805.806 95.171 804.07L93.537 805.223ZM98.1754 810.351C99.9552 811.798 101.906 812.913 104.025 813.694L104.717 811.817C102.808 811.114 101.049 810.109 99.4366 808.799L98.1754 810.351ZM104.371 813.755L123.928 813.755L123.928 811.755L104.371 811.755L104.371 813.755ZM124.299 813.684C129.225 811.714 133.34 808.697 136.63 804.64L135.076 803.381C132.006 807.168 128.171 809.981 123.557 811.827L124.299 813.684ZM136.64 804.627C139.838 800.547 141.464 796.093 141.464 791.29L139.464 791.29C139.464 795.604 138.016 799.63 135.066 803.393L136.64 804.627ZM156.682 721.841L157.612 722.207L157.617 722.195L157.622 722.183L156.682 721.841ZM151.117 730.904L151.839 731.596L151.847 731.588L151.854 731.58L151.117 730.904ZM142.69 736.946L143.088 737.863L143.1 737.858L143.113 737.852L142.69 736.946ZM121.384 736.469L120.915 737.352L120.925 737.358L121.384 736.469ZM112.798 729.155L111.992 729.746L111.996 729.753L112.001 729.759L112.798 729.155ZM107.392 717.866L108.352 717.585L108.349 717.574L108.345 717.564L107.392 717.866ZM106.279 692.744L107.263 692.923L107.264 692.918L106.279 692.744ZM108.982 683.204L109.903 683.594L110.491 682.204L108.982 682.204L108.982 683.204ZM91.492 687.974L92.2114 688.669L92.2173 688.662L92.223 688.656L91.492 687.974ZM89.425 714.845L90.3613 714.494L89.425 714.845ZM96.421 727.883L96.8554 728.784L97.9077 728.276L97.2439 727.315L96.421 727.883ZM82.906 734.402L82.0727 734.955L82.5548 735.682L83.3404 735.303L82.906 734.402ZM81.157 671.915L81.8991 672.585L81.9048 672.579L81.9103 672.573L81.157 671.915ZM137.284 660.785L137.898 661.574L137.924 661.554L137.948 661.532L137.284 660.785ZM138.874 656.81L138.874 655.81L137.931 655.81L137.876 656.751L138.874 656.81ZM157 656.81L157.979 656.608L157.815 655.81L157 655.81L157 656.81ZM155.41 675.572L156.172 676.22L156.18 676.21L156.187 676.201L155.41 675.572ZM148.255 679.547L148.358 680.542L148.395 680.538L148.431 680.531L148.255 679.547ZM143.644 680.024L143.541 679.029L141.027 679.289L143.038 680.82L143.644 680.024ZM154.774 693.539L155.676 693.106L154.774 693.539ZM141.1 694.334L140.167 694.695L140.172 694.705L141.1 694.334ZM136.012 686.702L135.221 687.313L135.285 687.396L135.364 687.464L136.012 686.702ZM120.43 683.204L120.43 682.204L119.737 682.204L119.494 682.853L120.43 683.204ZM118.204 691.472L119.182 691.681L119.185 691.665L119.188 691.648L118.204 691.472ZM121.066 713.573L121.886 713.001L121.881 712.993L121.875 712.985L121.066 713.573ZM139.51 714.686L140.259 715.348L140.266 715.34L140.273 715.332L139.51 714.686ZM157.59 710.552C157.59 714.473 156.971 718.119 155.742 721.499L157.622 722.183C158.937 718.566 159.59 714.687 159.59 710.552L157.59 710.552ZM155.752 721.474C154.414 724.869 152.622 727.782 150.38 730.228L151.854 731.58C154.276 728.938 156.194 725.809 157.612 722.207L155.752 721.474ZM150.395 730.212C148.042 732.667 145.335 734.608 142.267 736.04L143.113 737.852C146.405 736.316 149.316 734.229 151.839 731.596L150.395 730.212ZM142.292 736.028C139.25 737.347 135.889 738.013 132.196 738.013L132.196 740.013C136.135 740.013 139.77 739.301 143.088 737.863L142.292 736.028ZM132.196 738.013C128.424 738.013 124.978 737.199 121.843 735.58L120.925 737.358C124.362 739.131 128.124 740.013 132.196 740.013L132.196 738.013ZM121.853 735.586C118.59 733.852 115.839 731.51 113.595 728.551L112.001 729.759C114.421 732.948 117.394 735.482 120.915 737.352L121.853 735.586ZM113.604 728.564C111.351 725.49 109.596 721.836 108.352 717.585L106.432 718.147C107.732 722.588 109.581 726.46 111.992 729.746L113.604 728.564ZM108.345 717.564C107.002 713.328 106.325 708.661 106.325 703.556L104.325 703.556C104.325 708.838 105.026 713.712 106.439 718.168L108.345 717.564ZM106.325 703.556C106.325 699.903 106.638 696.359 107.263 692.923L105.295 692.565C104.648 696.125 104.325 699.789 104.325 703.556L106.325 703.556ZM107.264 692.918C107.889 689.372 108.772 686.267 109.903 683.594L108.061 682.814C106.86 685.653 105.941 688.908 105.294 692.57L107.264 692.918ZM108.982 682.204L104.212 682.204L104.212 684.204L108.982 684.204L108.982 682.204ZM104.212 682.204C98.5015 682.204 93.9658 683.858 90.7609 687.292L92.223 688.656C94.9542 685.73 98.8984 684.204 104.212 684.204L104.212 682.204ZM90.7726 687.279C87.5587 690.608 86.04 695.513 86.04 701.807L88.04 701.807C88.04 695.804 89.4893 691.488 92.2114 688.669L90.7726 687.279ZM86.04 701.807C86.04 706.381 86.8573 710.846 88.4887 715.196L90.3613 714.494C88.8127 710.364 88.04 706.137 88.04 701.807L86.04 701.807ZM88.4887 715.196C90.1124 719.526 92.4863 723.944 95.5981 728.451L97.2439 727.315C94.2077 722.918 91.9176 718.644 90.3613 714.494L88.4887 715.196ZM95.9865 726.982L82.4715 733.501L83.3404 735.303L96.8554 728.784L95.9865 726.982ZM83.7393 733.849C76.7419 723.301 73.253 711.938 73.253 699.74L71.253 699.74C71.253 712.346 74.8661 724.091 82.0727 734.955L83.7393 733.849ZM73.253 699.74C73.253 687.921 76.1801 678.917 81.8991 672.585L80.4149 671.245C74.2619 678.057 71.253 687.603 71.253 699.74L73.253 699.74ZM81.9103 672.573C87.5037 666.166 95.6762 662.898 106.597 662.898L106.597 660.898C95.2578 660.898 86.4703 664.308 80.4037 671.257L81.9103 672.573ZM106.597 662.898L132.514 662.898L132.514 660.898L106.597 660.898L106.597 662.898ZM132.514 662.898C134.799 662.898 136.673 662.527 137.898 661.574L136.67 659.996C135.987 660.526 134.681 660.898 132.514 660.898L132.514 662.898ZM137.948 661.532C139.17 660.446 139.757 658.824 139.872 656.869L137.876 656.751C137.779 658.399 137.305 659.428 136.62 660.038L137.948 661.532ZM138.874 657.81L157 657.81L157 655.81L138.874 655.81L138.874 657.81ZM156.021 657.012C156.754 660.573 157.113 663.629 157.113 666.191L159.113 666.191C159.113 663.453 158.73 660.255 157.979 656.608L156.021 657.012ZM157.113 666.191C157.113 670.081 156.242 672.955 154.633 674.943L156.187 676.201C158.182 673.737 159.113 670.356 159.113 666.191L157.113 666.191ZM154.648 674.924C153.009 676.852 150.839 678.07 148.079 678.562L148.431 680.531C151.607 679.964 154.207 678.532 156.172 676.22L154.648 674.924ZM148.152 678.552L143.541 679.029L143.747 681.019L148.358 680.542L148.152 678.552ZM143.038 680.82C147.794 684.438 151.4 688.82 153.872 693.972L155.676 693.106C153.06 687.657 149.246 683.03 144.25 679.228L143.038 680.82ZM153.872 693.972C156.35 699.133 157.59 704.655 157.59 710.552L159.59 710.552C159.59 704.364 158.286 698.545 155.676 693.106L153.872 693.972ZM144.008 704.51C144.008 700.785 143.35 697.267 142.028 693.963L140.172 694.705C141.394 697.761 142.008 701.026 142.008 704.51L144.008 704.51ZM142.033 693.973C140.716 690.572 138.936 687.875 136.66 685.94L135.364 687.464C137.328 689.133 138.94 691.524 140.167 694.695L142.033 693.973ZM136.803 686.09C134.878 683.599 132.6 682.204 129.97 682.204L129.97 684.204C131.792 684.204 133.542 685.141 135.221 687.313L136.803 686.09ZM129.97 682.204L120.43 682.204L120.43 684.204L129.97 684.204L129.97 682.204ZM119.494 682.853C118.516 685.459 117.759 688.275 117.22 691.296L119.188 691.648C119.709 688.733 120.436 686.036 121.366 683.555L119.494 682.853ZM117.226 691.262C116.577 694.292 116.25 697.225 116.25 700.058L118.25 700.058C118.25 697.379 118.559 694.587 119.182 691.681L117.226 691.262ZM116.25 700.058C116.25 705.723 117.559 710.45 120.257 714.161L121.875 712.985C119.485 709.699 118.25 705.417 118.25 700.058L116.25 700.058ZM120.246 714.145C122.845 717.874 126.262 719.82 130.447 719.82L130.447 717.82C127 717.82 124.163 716.267 121.886 713.001L120.246 714.145ZM130.447 719.82C134.344 719.82 137.636 718.314 140.259 715.348L138.761 714.023C136.508 716.57 133.758 717.82 130.447 717.82L130.447 719.82ZM140.273 715.332C142.776 712.374 144.008 708.745 144.008 704.51L142.008 704.51C142.008 708.331 140.908 711.486 138.747 714.04L140.273 715.332ZM92.128 592.38L93.1278 592.364L93.1117 591.38L92.128 591.38L92.128 592.38ZM95.944 609.711L96.8531 609.294L96.8495 609.287L96.8458 609.279L95.944 609.711ZM106.597 620.682L106.174 621.588L106.375 621.682L106.597 621.682L106.597 620.682ZM157 620.682L158 620.682L158 619.682L157 619.682L157 620.682ZM157 641.988L157 642.988L158 642.988L158 641.988L157 641.988ZM73.684 641.988L72.684 641.988L72.684 642.988L73.684 642.988L73.684 641.988ZM73.684 622.431L73.684 621.431L72.684 621.431L72.684 622.431L73.684 622.431ZM91.492 622.431L91.492 623.431L91.9523 621.543L91.492 622.431ZM83.86 617.184L84.5309 616.443L84.5223 616.435L84.5136 616.427L83.86 617.184ZM77.818 610.665L77.0092 611.253L77.818 610.665ZM74.002 603.669L74.9418 603.327L74.9376 603.316L74.9332 603.305L74.002 603.669ZM72.73 592.38L72.73 591.38L71.9102 591.38L71.7494 592.184L72.73 592.38ZM91.1281 592.397C91.2361 598.986 92.5334 604.908 95.0422 610.143L96.8458 609.279C94.4785 604.339 93.2318 598.707 93.1278 592.364L91.1281 592.397ZM95.0349 610.128C97.459 615.417 101.175 619.255 106.174 621.588L107.02 619.776C102.479 617.657 99.093 614.182 96.8531 609.294L95.0349 610.128ZM106.597 621.682L157 621.682L157 619.682L106.597 619.682L106.597 621.682ZM156 620.682L156 641.988L158 641.988L158 620.682L156 620.682ZM157 640.988L73.684 640.988L73.684 642.988L157 642.988L157 640.988ZM74.684 641.988L74.684 622.431L72.684 622.431L72.684 641.988L74.684 641.988ZM73.684 623.431L91.492 623.431L91.492 621.431L73.684 621.431L73.684 623.431ZM91.9523 621.543C89.1609 620.096 86.6888 618.395 84.5309 616.443L83.1891 617.926C85.4832 620.001 88.0991 621.798 91.0317 623.319L91.9523 621.543ZM84.5136 616.427C82.2356 614.46 80.2747 612.343 78.6267 610.077L77.0092 611.253C78.7533 613.651 80.8203 615.88 83.2064 617.941L84.5136 616.427ZM78.6267 610.077C76.977 607.809 75.7532 605.559 74.9418 603.327L73.0622 604.011C73.9468 606.444 75.2669 608.858 77.0092 611.253L78.6267 610.077ZM74.9332 603.305C74.0168 600.963 73.571 598.755 73.571 596.673L71.571 596.673C71.571 599.044 72.0792 601.499 73.0707 604.034L74.9332 603.305ZM73.571 596.673C73.571 596.671 73.571 596.669 73.571 596.666C73.571 596.664 73.571 596.662 73.571 596.659C73.571 596.657 73.571 596.655 73.571 596.653C73.571 596.65 73.571 596.648 73.571 596.646C73.571 596.644 73.571 596.641 73.571 596.639C73.571 596.637 73.571 596.635 73.571 596.632C73.571 596.63 73.571 596.628 73.571 596.625C73.571 596.623 73.571 596.621 73.571 596.619C73.571 596.616 73.571 596.614 73.571 596.612C73.571 596.61 73.571 596.607 73.571 596.605C73.571 596.603 73.571 596.601 73.571 596.598C73.571 596.596 73.571 596.594 73.571 596.592C73.571 596.589 73.571 596.587 73.571 596.585C73.571 596.583 73.571 596.58 73.571 596.578C73.571 596.576 73.571 596.574 73.571 596.571C73.571 596.569 73.571 596.567 73.571 596.565C73.571 596.562 73.571 596.56 73.571 596.558C73.571 596.556 73.571 596.554 73.571 596.551C73.571 596.549 73.571 596.547 73.571 596.545C73.571 596.542 73.571 596.54 73.571 596.538C73.571 596.536 73.571 596.533 73.571 596.531C73.571 596.529 73.571 596.527 73.571 596.525C73.571 596.522 73.571 596.52 73.571 596.518C73.571 596.516 73.571 596.513 73.571 596.511C73.571 596.509 73.571 596.507 73.571 596.505C73.571 596.502 73.571 596.5 73.571 596.498C73.571 596.496 73.571 596.494 73.571 596.491C73.571 596.489 73.571 596.487 73.571 596.485C73.571 596.482 73.571 596.48 73.571 596.478C73.571 596.476 73.571 596.474 73.571 596.471C73.571 596.469 73.571 596.467 73.571 596.465C73.571 596.463 73.571 596.46 73.571 596.458C73.571 596.456 73.571 596.454 73.571 596.452C73.571 596.449 73.571 596.447 73.571 596.445C73.571 596.443 73.571 596.441 73.571 596.438C73.571 596.436 73.571 596.434 73.571 596.432C73.571 596.43 73.571 596.428 73.571 596.425C73.571 596.423 73.571 596.421 73.571 596.419C73.571 596.417 73.571 596.414 73.571 596.412C73.571 596.41 73.571 596.408 73.571 596.406C73.571 596.404 73.571 596.401 73.571 596.399C73.571 596.397 73.571 596.395 73.571 596.393C73.571 596.39 73.571 596.388 73.571 596.386C73.571 596.384 73.571 596.382 73.571 596.38C73.571 596.377 73.571 596.375 73.571 596.373C73.571 596.371 73.571 596.369 73.571 596.367C73.571 596.364 73.571 596.362 73.571 596.36C73.571 596.358 73.571 596.356 73.571 596.354C73.571 596.351 73.571 596.349 73.571 596.347C73.571 596.345 73.571 596.343 73.571 596.341C73.571 596.338 73.571 596.336 73.571 596.334C73.571 596.332 73.571 596.33 73.571 596.328C73.571 596.326 73.571 596.323 73.571 596.321C73.571 596.319 73.571 596.317 73.571 596.315C73.571 596.313 73.571 596.311 73.571 596.308C73.571 596.306 73.571 596.304 73.571 596.302C73.571 596.3 73.571 596.298 73.571 596.296C73.571 596.293 73.571 596.291 73.571 596.289C73.571 596.287 73.571 596.285 73.571 596.283C73.571 596.281 73.571 596.278 73.571 596.276C73.571 596.274 73.571 596.272 73.571 596.27C73.571 596.268 73.571 596.266 73.571 596.264C73.571 596.261 73.571 596.259 73.571 596.257C73.571 596.255 73.571 596.253 73.571 596.251C73.571 596.249 73.571 596.247 73.571 596.244C73.571 596.242 73.571 596.24 73.571 596.238C73.571 596.236 73.571 596.234 73.571 596.232C73.571 596.23 73.571 596.227 73.571 596.225C73.571 596.223 73.571 596.221 73.571 596.219C73.571 596.217 73.571 596.215 73.571 596.213C73.571 596.211 73.571 596.208 73.571 596.206C73.571 596.204 73.571 596.202 73.571 596.2C73.571 596.198 73.571 596.196 73.571 596.194C73.571 596.192 73.571 596.19 73.571 596.187C73.571 596.185 73.571 596.183 73.571 596.181C73.571 596.179 73.571 596.177 73.571 596.175C73.571 596.173 73.571 596.171 73.571 596.169C73.571 596.167 73.571 596.164 73.571 596.162C73.571 596.16 73.571 596.158 73.571 596.156C73.571 596.154 73.571 596.152 73.571 596.15C73.571 596.148 73.571 596.146 73.571 596.144C73.571 596.142 73.571 596.139 73.571 596.137C73.571 596.135 73.571 596.133 73.571 596.131C73.571 596.129 73.571 596.127 73.571 596.125C73.571 596.123 73.571 596.121 73.571 596.119C73.571 596.117 73.571 596.115 73.571 596.112C73.571 596.11 73.571 596.108 73.571 596.106C73.571 596.104 73.571 596.102 73.571 596.1C73.571 596.098 73.571 596.096 73.571 596.094C73.571 596.092 73.571 596.09 73.571 596.088C73.571 596.086 73.571 596.084 73.571 596.082C73.571 596.079 73.571 596.077 73.571 596.075C73.571 596.073 73.571 596.071 73.571 596.069C73.571 596.067 73.571 596.065 73.571 596.063C73.571 596.061 73.571 596.059 73.571 596.057C73.571 596.055 73.571 596.053 73.571 596.051C73.571 596.049 73.571 596.047 73.571 596.045C73.571 596.043 73.571 596.041 73.571 596.039C73.571 596.036 73.571 596.034 73.571 596.032C73.571 596.03 73.571 596.028 73.571 596.026C73.571 596.024 73.571 596.022 73.571 596.02C73.571 596.018 73.571 596.016 73.571 596.014C73.571 596.012 73.571 596.01 73.571 596.008C73.571 596.006 73.571 596.004 73.571 596.002C73.571 596 73.571 595.998 73.571 595.996C73.571 595.994 73.571 595.992 73.571 595.99C73.571 595.988 73.571 595.986 73.571 595.984C73.571 595.982 73.571 595.98 73.571 595.978C73.571 595.976 73.571 595.974 73.571 595.972C73.571 595.97 73.571 595.968 73.571 595.966C73.571 595.964 73.571 595.962 73.571 595.96C73.571 595.958 73.571 595.956 73.571 595.954C73.571 595.952 73.571 595.95 73.571 595.948C73.571 595.946 73.571 595.944 73.571 595.942C73.571 595.94 73.571 595.938 73.571 595.936C73.571 595.934 73.571 595.932 73.571 595.93C73.571 595.928 73.571 595.926 73.571 595.924C73.571 595.922 73.571 595.92 73.571 595.918C73.571 595.916 73.571 595.914 73.571 595.912C73.571 595.91 73.571 595.908 73.571 595.906C73.571 595.904 73.571 595.902 73.571 595.9C73.571 595.898 73.571 595.896 73.571 595.894C73.571 595.892 73.571 595.89 73.571 595.888C73.571 595.886 73.571 595.884 73.571 595.882C73.571 595.88 73.571 595.878 73.571 595.876C73.571 595.874 73.571 595.872 73.571 595.87C73.571 595.868 73.571 595.866 73.571 595.864C73.571 595.862 73.571 595.86 73.571 595.858C73.571 595.856 73.571 595.854 73.571 595.852C73.571 595.85 73.571 595.848 73.571 595.846C73.571 595.845 73.571 595.843 73.571 595.841C73.571 595.839 73.571 595.837 73.571 595.835C73.571 595.833 73.571 595.831 73.571 595.829C73.571 595.827 73.571 595.825 73.571 595.823C73.571 595.821 73.571 595.819 73.571 595.817C73.571 595.815 73.571 595.813 73.571 595.811C73.571 595.809 73.571 595.807 73.571 595.805C73.571 595.803 73.571 595.802 73.571 595.8C73.571 595.798 73.571 595.796 73.571 595.794C73.571 595.792 73.571 595.79 73.571 595.788C73.571 595.786 73.571 595.784 73.571 595.782C73.571 595.78 73.571 595.778 73.571 595.776C73.571 595.774 73.571 595.772 73.571 595.771C73.571 595.769 73.571 595.767 73.571 595.765C73.571 595.763 73.571 595.761 73.571 595.759C73.571 595.757 73.571 595.755 73.571 595.753C73.571 595.751 73.571 595.749 73.571 595.747C73.571 595.746 73.571 595.744 73.571 595.742C73.571 595.74 73.571 595.738 73.571 595.736C73.571 595.734 73.571 595.732 73.571 595.73C73.571 595.728 73.571 595.726 73.571 595.724C73.571 595.723 73.571 595.721 73.571 595.719C73.571 595.717 73.571 595.715 73.571 595.713C73.571 595.711 73.571 595.709 73.571 595.707C73.571 595.705 73.571 595.703 73.571 595.702C73.571 595.7 73.571 595.698 73.571 595.696C73.571 595.694 73.571 595.692 73.571 595.69C73.571 595.688 73.571 595.686 73.571 595.685C73.571 595.683 73.571 595.681 73.571 595.679C73.571 595.677 73.571 595.675 73.571 595.673C73.571 595.671 73.571 595.669 73.571 595.668C73.571 595.666 73.571 595.664 73.571 595.662C73.571 595.66 73.571 595.658 73.571 595.656C73.571 595.654 73.571 595.652 73.571 595.651C73.571 595.649 73.571 595.647 73.571 595.645C73.571 595.643 73.571 595.641 73.571 595.639C73.571 595.637 73.571 595.636 73.571 595.634C73.571 595.632 73.571 595.63 73.571 595.628C73.571 595.626 73.571 595.624 73.571 595.622C73.571 595.621 73.571 595.619 73.571 595.617C73.571 595.615 73.571 595.613 73.571 595.611C73.571 595.609 73.571 595.608 73.571 595.606C73.571 595.604 73.571 595.602 73.571 595.6C73.571 595.598 73.571 595.596 73.571 595.595C73.571 595.593 73.571 595.591 73.571 595.589C73.571 595.587 73.571 595.585 73.571 595.583C73.571 595.582 73.571 595.58 73.571 595.578C73.571 595.576 73.571 595.574 73.571 595.572C73.571 595.57 73.571 595.569 73.571 595.567C73.571 595.565 73.571 595.563 73.571 595.561C73.571 595.559 73.571 595.558 73.571 595.556C73.571 595.554 73.571 595.552 73.571 595.55C73.571 595.548 73.571 595.547 73.571 595.545C73.571 595.543 73.571 595.541 73.571 595.539C73.571 595.537 73.571 595.536 73.571 595.534C73.571 595.532 73.571 595.53 73.571 595.528C73.571 595.526 73.571 595.525 73.571 595.523C73.571 595.521 73.571 595.519 73.571 595.517C73.571 595.515 73.571 595.514 73.571 595.512C73.571 595.51 73.571 595.508 73.571 595.506C73.571 595.505 73.571 595.503 73.571 595.501C73.571 595.499 73.571 595.497 73.571 595.496C73.571 595.494 73.571 595.492 73.571 595.49C73.571 595.488 73.571 595.486 73.571 595.485C73.571 595.483 73.571 595.481 73.571 595.479C73.571 595.477 73.571 595.476 73.571 595.474C73.571 595.472 73.571 595.47 73.571 595.468C73.571 595.467 73.571 595.465 73.571 595.463C73.571 595.461 73.571 595.459 73.571 595.458C73.571 595.456 73.571 595.454 73.571 595.452C73.571 595.45 73.571 595.449 73.571 595.447C73.571 595.445 73.571 595.443 73.571 595.442C73.571 595.44 73.571 595.438 73.571 595.436C73.571 595.434 73.571 595.433 73.571 595.431C73.571 595.429 73.571 595.427 73.571 595.426C73.571 595.424 73.571 595.422 73.571 595.42C73.571 595.418 73.571 595.417 73.571 595.415C73.571 595.413 73.571 595.411 73.571 595.41C73.571 595.408 73.571 595.406 73.571 595.404C73.571 595.402 73.571 595.401 73.571 595.399C73.571 595.397 73.571 595.395 73.571 595.394C73.571 595.392 73.571 595.39 73.571 595.388C73.571 595.387 73.571 595.385 73.571 595.383C73.571 595.381 73.571 595.379 73.571 595.378C73.571 595.376 73.571 595.374 73.571 595.372C73.571 595.371 73.571 595.369 73.571 595.367C73.571 595.365 73.571 595.364 73.571 595.362C73.571 595.36 73.571 595.358 73.571 595.357C73.571 595.355 73.571 595.353 73.571 595.351C73.571 595.35 73.571 595.348 73.571 595.346C73.571 595.344 73.571 595.343 73.571 595.341C73.571 595.339 73.571 595.338 73.571 595.336C73.571 595.334 73.571 595.332 73.571 595.331C73.571 595.329 73.571 595.327 73.571 595.325C73.571 595.324 73.571 595.322 73.571 595.32C73.571 595.318 73.571 595.317 73.571 595.315C73.571 595.313 73.571 595.312 73.571 595.31C73.571 595.308 73.571 595.306 73.571 595.305C73.571 595.303 73.571 595.301 73.571 595.299C73.571 595.298 73.571 595.296 73.571 595.294C73.571 595.293 73.571 595.291 73.571 595.289C73.571 595.287 73.571 595.286 73.571 595.284C73.571 595.282 73.571 595.281 73.571 595.279C73.571 595.277 73.571 595.275 73.571 595.274C73.571 595.272 73.571 595.27 73.571 595.269C73.571 595.267 73.571 595.265 73.571 595.263C73.571 595.262 73.571 595.26 73.571 595.258C73.571 595.257 73.571 595.255 73.571 595.253C73.571 595.252 73.571 595.25 73.571 595.248C73.571 595.246 73.571 595.245 73.571 595.243C73.571 595.241 73.571 595.24 73.571 595.238C73.571 595.236 73.571 595.235 73.571 595.233C73.571 595.231 73.571 595.23 73.571 595.228C73.571 595.226 73.571 595.224 73.571 595.223C73.571 595.221 73.571 595.219 73.571 595.218C73.571 595.216 73.571 595.214 73.571 595.213C73.571 595.211 73.571 595.209 73.571 595.208C73.571 595.206 73.571 595.204 73.571 595.203C73.571 595.201 73.571 595.199 73.571 595.198C73.571 595.196 73.571 595.194 73.571 595.193C73.571 595.191 73.571 595.189 73.571 595.188C73.571 595.186 73.571 595.184 73.571 595.183C73.571 595.181 73.571 595.179 73.571 595.178C73.571 595.176 73.571 595.174 73.571 595.173C73.571 595.171 73.571 595.169 73.571 595.168C73.571 595.166 73.571 595.164 73.571 595.163C73.571 595.161 73.571 595.159 73.571 595.158C73.571 595.156 73.571 595.154 73.571 595.153C73.571 595.151 73.571 595.149 73.571 595.148C73.571 595.146 73.571 595.144 73.571 595.143C73.571 595.141 73.571 595.14 73.571 595.138C73.571 595.136 73.571 595.135 73.571 595.133C73.571 595.131 73.571 595.13 73.571 595.128C73.571 595.126 73.571 595.125 73.571 595.123C73.571 595.121 73.571 595.12 73.571 595.118C73.571 595.117 73.571 595.115 73.571 595.113C73.571 595.112 73.571 595.11 73.571 595.108C73.571 595.107 73.571 595.105 73.571 595.104C73.571 595.102 73.571 595.1 73.571 595.099C73.571 595.097 73.571 595.095 73.571 595.094C73.571 595.092 73.571 595.091 73.571 595.089C73.571 595.087 73.571 595.086 73.571 595.084C73.571 595.082 73.571 595.081 73.571 595.079C73.571 595.078 73.571 595.076 73.571 595.074C73.571 595.073 73.571 595.071 73.571 595.07C73.571 595.068 73.571 595.066 73.571 595.065C73.571 595.063 73.571 595.061 73.571 595.06C73.571 595.058 73.571 595.057 73.571 595.055C73.571 595.053 73.571 595.052 73.571 595.05C73.571 595.049 73.571 595.047 73.571 595.045C73.571 595.044 73.571 595.042 73.571 595.041C73.571 595.039 73.571 595.038 73.571 595.036C73.571 595.034 73.571 595.033 73.571 595.031C73.571 595.03 73.571 595.028 73.571 595.026C73.571 595.025 73.571 595.023 73.571 595.022C73.571 595.02 73.571 595.018 73.571 595.017C73.571 595.015 73.571 595.014 73.571 595.012C73.571 595.011 73.571 595.009 73.571 595.007C73.571 595.006 73.571 595.004 73.571 595.003C73.571 595.001 73.571 594.999 73.571 594.998C73.571 594.996 73.571 594.995 73.571 594.993C73.571 594.992 73.571 594.99 73.571 594.988C73.571 594.987 73.571 594.985 73.571 594.984C73.571 594.982 73.571 594.981 73.571 594.979C73.571 594.978 73.571 594.976 73.571 594.974C73.571 594.973 73.571 594.971 73.571 594.97C73.571 594.968 73.571 594.967 73.571 594.965C73.571 594.963 73.571 594.962 73.571 594.96C73.571 594.959 73.571 594.957 73.571 594.956C73.571 594.954 73.571 594.953 73.571 594.951C73.571 594.949 73.571 594.948 73.571 594.946C73.571 594.945 73.571 594.943 73.571 594.942C73.571 594.94 73.571 594.939 73.571 594.937C73.571 594.936 73.571 594.934 73.571 594.933C73.571 594.931 73.571 594.929 73.571 594.928C73.571 594.926 73.571 594.925 73.571 594.923C73.571 594.922 73.571 594.92 73.571 594.919C73.571 594.917 73.571 594.916 73.571 594.914C73.571 594.913 73.571 594.911 73.571 594.91C73.571 594.908 73.571 594.906 73.571 594.905C73.571 594.903 73.571 594.902 73.571 594.9C73.571 594.899 73.571 594.897 73.571 594.896C73.571 594.894 73.571 594.893 73.571 594.891C73.571 594.89 73.571 594.888 73.571 594.887C73.571 594.885 73.571 594.884 73.571 594.882C73.571 594.881 73.571 594.879 73.571 594.878C73.571 594.876 73.571 594.875 73.571 594.873C73.571 594.872 73.571 594.87 73.571 594.869C73.571 594.867 73.571 594.866 73.571 594.864C73.571 594.863 73.571 594.861 73.571 594.86C73.571 594.858 73.571 594.857 73.571 594.855C73.571 594.854 73.571 594.852 73.571 594.851C73.571 594.849 73.571 594.848 73.571 594.846C73.571 594.845 73.571 594.843 73.571 594.842C73.571 594.84 73.571 594.839 73.571 594.837C73.571 594.836 73.571 594.834 73.571 594.833C73.571 594.831 73.571 594.83 73.571 594.828C73.571 594.827 73.571 594.825 73.571 594.824C73.571 594.822 73.571 594.821 73.571 594.819C73.571 594.818 73.571 594.816 73.571 594.815C73.571 594.813 73.571 594.812 73.571 594.81C73.571 594.809 73.571 594.807 73.571 594.806C73.571 594.805 73.571 594.803 73.571 594.802C73.571 594.8 73.571 594.799 73.571 594.797C73.571 594.796 73.571 594.794 73.571 594.793C73.571 594.791 73.571 594.79 73.571 594.788C73.571 594.787 73.571 594.785 73.571 594.784C73.571 594.783 73.571 594.781 73.571 594.78C73.571 594.778 73.571 594.777 73.571 594.775C73.571 594.774 73.571 594.772 73.571 594.771C73.571 594.769 73.571 594.768 73.571 594.767C73.571 594.765 73.571 594.764 73.571 594.762C73.571 594.761 73.571 594.759 73.571 594.758C73.571 594.756 73.571 594.755 73.571 594.754C73.571 594.752 73.571 594.751 73.571 594.749C73.571 594.748 73.571 594.746 73.571 594.745C73.571 594.743 73.571 594.742 73.571 594.741C73.571 594.739 73.571 594.738 73.571 594.736C73.571 594.735 73.571 594.733 73.571 594.732C73.571 594.731 73.571 594.729 73.571 594.728C73.571 594.726 73.571 594.725 73.571 594.723C73.571 594.722 73.571 594.721 73.571 594.719C73.571 594.718 73.571 594.716 73.571 594.715C73.571 594.713 73.571 594.712 73.571 594.711C73.571 594.709 73.571 594.708 73.571 594.706C73.571 594.705 73.571 594.704 73.571 594.702C73.571 594.701 73.571 594.699 73.571 594.698C73.571 594.696 73.571 594.695 73.571 594.694C73.571 594.692 73.571 594.691 73.571 594.689C73.571 594.688 73.571 594.687 73.571 594.685C73.571 594.684 73.571 594.682 73.571 594.681C73.571 594.68 73.571 594.678 73.571 594.677C73.571 594.675 73.571 594.674 73.571 594.673C73.571 594.671 73.571 594.67 73.571 594.668C73.571 594.667 73.571 594.666 73.571 594.664C73.571 594.663 73.571 594.661 73.571 594.66C73.571 594.659 73.571 594.657 73.571 594.656C73.571 594.655 73.571 594.653 73.571 594.652C73.571 594.65 73.571 594.649 73.571 594.648C73.571 594.646 73.571 594.645 73.571 594.643C73.571 594.642 73.571 594.641 73.571 594.639C73.571 594.638 73.571 594.637 73.571 594.635C73.571 594.634 73.571 594.632 73.571 594.631C73.571 594.63 73.571 594.628 73.571 594.627C73.571 594.626 73.571 594.624 73.571 594.623C73.571 594.622 73.571 594.62 73.571 594.619C73.571 594.617 73.571 594.616 73.571 594.615C73.571 594.613 73.571 594.612 73.571 594.611C73.571 594.609 73.571 594.608 73.571 594.607C73.571 594.605 73.571 594.604 73.571 594.602C73.571 594.601 73.571 594.6 73.571 594.598C73.571 594.597 73.571 594.596 73.571 594.594C73.571 594.593 73.571 594.592 73.571 594.59C73.571 594.589 73.571 594.588 73.571 594.586C73.571 594.585 73.571 594.584 73.571 594.582C73.571 594.581 73.571 594.58 73.571 594.578C73.571 594.577 73.571 594.575 73.571 594.574C73.571 594.573 73.571 594.571 73.571 594.57C73.571 594.569 73.571 594.568 73.571 594.566C73.571 594.565 73.571 594.564 73.571 594.562C73.571 594.561 73.571 594.56 73.571 594.558C73.571 594.557 73.571 594.556 73.571 594.554C73.571 594.553 73.571 594.552 73.571 594.55C73.571 594.549 73.571 594.548 73.571 594.546C73.571 594.545 73.571 594.544 73.571 594.542C73.571 594.541 73.571 594.54 73.571 594.538C73.571 594.537 73.571 594.536 73.571 594.534C73.571 594.533 73.571 594.532 73.571 594.53C73.571 594.529 73.571 594.528 73.571 594.527C73.571 594.525 73.571 594.524 73.571 594.523C73.571 594.521 73.571 594.52 73.571 594.519C73.571 594.517 73.571 594.516 73.571 594.515C73.571 594.513 73.571 594.512 73.571 594.511C73.571 594.51 73.571 594.508 73.571 594.507C73.571 594.506 73.571 594.504 73.571 594.503C73.571 594.502 73.571 594.5 73.571 594.499C73.571 594.498 73.571 594.497 73.571 594.495C73.571 594.494 73.571 594.493 73.571 594.491C73.571 594.49 73.571 594.489 73.571 594.488C73.571 594.486 73.571 594.485 73.571 594.484C73.571 594.482 73.571 594.481 73.571 594.48C73.571 594.479 73.571 594.477 73.571 594.476C73.571 594.475 73.571 594.474 73.571 594.472C73.571 594.471 73.571 594.47 73.571 594.468C73.571 594.467 73.571 594.466 73.571 594.465C73.571 594.463 73.571 594.462 73.571 594.461C73.571 594.46 73.571 594.458 73.571 594.457C73.571 594.456 73.571 594.454 73.571 594.453C73.571 594.452 73.571 594.451 73.571 594.449C73.571 594.448 73.571 594.447 73.571 594.446C73.571 594.444 73.571 594.443 73.571 594.442C73.571 594.441 73.571 594.439 73.571 594.438C73.571 594.437 73.571 594.436 73.571 594.434C73.571 594.433 73.571 594.432 73.571 594.431C73.571 594.429 73.571 594.428 73.571 594.427C73.571 594.426 73.571 594.424 73.571 594.423C73.571 594.422 73.571 594.421 73.571 594.419C73.571 594.418 73.571 594.417 73.571 594.416C73.571 594.414 73.571 594.413 73.571 594.412C73.571 594.411 73.571 594.409 73.571 594.408C73.571 594.407 73.571 594.406 73.571 594.405C73.571 594.403 73.571 594.402 73.571 594.401C73.571 594.4 73.571 594.398 73.571 594.397C73.571 594.396 73.571 594.395 73.571 594.393C73.571 594.392 73.571 594.391 73.571 594.39C73.571 594.389 73.571 594.387 73.571 594.386C73.571 594.385 73.571 594.384 73.571 594.383C73.571 594.381 73.571 594.38 73.571 594.379C73.571 594.378 73.571 594.376 73.571 594.375C73.571 594.374 73.571 594.373 73.571 594.372C73.571 594.37 73.571 594.369 73.571 594.368C73.571 594.367 73.571 594.366 73.571 594.364C73.571 594.363 73.571 594.362 73.571 594.361C73.571 594.36 73.571 594.358 73.571 594.357C73.571 594.356 73.571 594.355 73.571 594.354C73.571 594.352 73.571 594.351 73.571 594.35C73.571 594.349 73.571 594.348 73.571 594.346C73.571 594.345 73.571 594.344 73.571 594.343C73.571 594.342 73.571 594.34 73.571 594.339C73.571 594.338 73.571 594.337 73.571 594.336C73.571 594.334 73.571 594.333 73.571 594.332C73.571 594.331 73.571 594.33 73.571 594.329C73.571 594.327 73.571 594.326 73.571 594.325C73.571 594.324 73.571 594.323 73.571 594.321C73.571 594.32 73.571 594.319 73.571 594.318C73.571 594.317 73.571 594.316 73.571 594.314C73.571 594.313 73.571 594.312 73.571 594.311C73.571 594.31 73.571 594.309 73.571 594.307C73.571 594.306 73.571 594.305 73.571 594.304C73.571 594.303 73.571 594.302 73.571 594.3C73.571 594.299 73.571 594.298 73.571 594.297C73.571 594.296 73.571 594.295 73.571 594.293C73.571 594.292 73.571 594.291 73.571 594.29C73.571 594.289 73.571 594.288 73.571 594.287C73.571 594.285 73.571 594.284 73.571 594.283C73.571 594.282 73.571 594.281 73.571 594.28C73.571 594.279 73.571 594.277 73.571 594.276C73.571 594.275 73.571 594.274 73.571 594.273C73.571 594.272 73.571 594.271 73.571 594.269C73.571 594.268 73.571 594.267 73.571 594.266C73.571 594.265 73.571 594.264 73.571 594.263C73.571 594.261 73.571 594.26 73.571 594.259C73.571 594.258 73.571 594.257 73.571 594.256C73.571 594.255 73.571 594.254 73.571 594.252C73.571 594.251 73.571 594.25 73.571 594.249C73.571 594.248 73.571 594.247 73.571 594.246C73.571 594.245 73.571 594.243 73.571 594.242C73.571 594.241 73.571 594.24 73.571 594.239C73.571 594.238 73.571 594.237 73.571 594.236C73.571 594.234 73.571 594.233 73.571 594.232C73.571 594.231 73.571 594.23 73.571 594.229C73.571 594.228 73.571 594.227 73.571 594.226C73.571 594.224 73.571 594.223 73.571 594.222C73.571 594.221 73.571 594.22 73.571 594.219C73.571 594.218 73.571 594.217 73.571 594.216C73.571 594.215 73.571 594.213 73.571 594.212C73.571 594.211 73.571 594.21 73.571 594.209C73.571 594.208 73.571 594.207 73.571 594.206C73.571 594.205 73.571 594.204 73.571 594.202C73.571 594.201 73.571 594.2 73.571 594.199C73.571 594.198 73.571 594.197 73.571 594.196C73.571 594.195 73.571 594.194 73.571 594.193C73.571 594.192 73.571 594.191 73.571 594.189C73.571 594.188 73.571 594.187 73.571 594.186C73.571 594.185 73.571 594.184 73.571 594.183C73.571 594.182 73.571 594.181 73.571 594.18C73.571 594.179 73.571 594.178 73.571 594.177C73.571 594.175 73.571 594.174 73.571 594.173C73.571 594.172 73.571 594.171 73.571 594.17C73.571 594.169 73.571 594.168 73.571 594.167C73.571 594.166 73.571 594.165 73.571 594.164C73.571 594.163 73.571 594.162 73.571 594.161C73.571 594.159 73.571 594.158 73.571 594.157C73.571 594.156 73.571 594.155 73.571 594.154C73.571 594.153 73.571 594.152 73.571 594.151C73.571 594.15 73.571 594.149 73.571 594.148C73.571 594.147 73.571 594.146 73.571 594.145C73.571 594.144 73.571 594.143 73.571 594.142C73.571 594.141 73.571 594.14 73.571 594.138C73.571 594.137 73.571 594.136 73.571 594.135C73.571 594.134 73.571 594.133 73.571 594.132C73.571 594.131 73.571 594.13 73.571 594.129L71.571 594.129C71.571 594.13 71.571 594.131 71.571 594.132C71.571 594.133 71.571 594.134 71.571 594.135C71.571 594.136 71.571 594.137 71.571 594.138C71.571 594.14 71.571 594.141 71.571 594.142C71.571 594.143 71.571 594.144 71.571 594.145C71.571 594.146 71.571 594.147 71.571 594.148C71.571 594.149 71.571 594.15 71.571 594.151C71.571 594.152 71.571 594.153 71.571 594.154C71.571 594.155 71.571 594.156 71.571 594.157C71.571 594.158 71.571 594.159 71.571 594.161C71.571 594.162 71.571 594.163 71.571 594.164C71.571 594.165 71.571 594.166 71.571 594.167C71.571 594.168 71.571 594.169 71.571 594.17C71.571 594.171 71.571 594.172 71.571 594.173C71.571 594.174 71.571 594.175 71.571 594.177C71.571 594.178 71.571 594.179 71.571 594.18C71.571 594.181 71.571 594.182 71.571 594.183C71.571 594.184 71.571 594.185 71.571 594.186C71.571 594.187 71.571 594.188 71.571 594.189C71.571 594.191 71.571 594.192 71.571 594.193C71.571 594.194 71.571 594.195 71.571 594.196C71.571 594.197 71.571 594.198 71.571 594.199C71.571 594.2 71.571 594.201 71.571 594.202C71.571 594.204 71.571 594.205 71.571 594.206C71.571 594.207 71.571 594.208 71.571 594.209C71.571 594.21 71.571 594.211 71.571 594.212C71.571 594.213 71.571 594.215 71.571 594.216C71.571 594.217 71.571 594.218 71.571 594.219C71.571 594.22 71.571 594.221 71.571 594.222C71.571 594.223 71.571 594.224 71.571 594.226C71.571 594.227 71.571 594.228 71.571 594.229C71.571 594.23 71.571 594.231 71.571 594.232C71.571 594.233 71.571 594.234 71.571 594.236C71.571 594.237 71.571 594.238 71.571 594.239C71.571 594.24 71.571 594.241 71.571 594.242C71.571 594.243 71.571 594.245 71.571 594.246C71.571 594.247 71.571 594.248 71.571 594.249C71.571 594.25 71.571 594.251 71.571 594.252C71.571 594.254 71.571 594.255 71.571 594.256C71.571 594.257 71.571 594.258 71.571 594.259C71.571 594.26 71.571 594.261 71.571 594.263C71.571 594.264 71.571 594.265 71.571 594.266C71.571 594.267 71.571 594.268 71.571 594.269C71.571 594.271 71.571 594.272 71.571 594.273C71.571 594.274 71.571 594.275 71.571 594.276C71.571 594.277 71.571 594.279 71.571 594.28C71.571 594.281 71.571 594.282 71.571 594.283C71.571 594.284 71.571 594.285 71.571 594.287C71.571 594.288 71.571 594.289 71.571 594.29C71.571 594.291 71.571 594.292 71.571 594.293C71.571 594.295 71.571 594.296 71.571 594.297C71.571 594.298 71.571 594.299 71.571 594.3C71.571 594.302 71.571 594.303 71.571 594.304C71.571 594.305 71.571 594.306 71.571 594.307C71.571 594.309 71.571 594.31 71.571 594.311C71.571 594.312 71.571 594.313 71.571 594.314C71.571 594.316 71.571 594.317 71.571 594.318C71.571 594.319 71.571 594.32 71.571 594.321C71.571 594.323 71.571 594.324 71.571 594.325C71.571 594.326 71.571 594.327 71.571 594.329C71.571 594.33 71.571 594.331 71.571 594.332C71.571 594.333 71.571 594.334 71.571 594.336C71.571 594.337 71.571 594.338 71.571 594.339C71.571 594.34 71.571 594.342 71.571 594.343C71.571 594.344 71.571 594.345 71.571 594.346C71.571 594.348 71.571 594.349 71.571 594.35C71.571 594.351 71.571 594.352 71.571 594.354C71.571 594.355 71.571 594.356 71.571 594.357C71.571 594.358 71.571 594.36 71.571 594.361C71.571 594.362 71.571 594.363 71.571 594.364C71.571 594.366 71.571 594.367 71.571 594.368C71.571 594.369 71.571 594.37 71.571 594.372C71.571 594.373 71.571 594.374 71.571 594.375C71.571 594.376 71.571 594.378 71.571 594.379C71.571 594.38 71.571 594.381 71.571 594.383C71.571 594.384 71.571 594.385 71.571 594.386C71.571 594.387 71.571 594.389 71.571 594.39C71.571 594.391 71.571 594.392 71.571 594.393C71.571 594.395 71.571 594.396 71.571 594.397C71.571 594.398 71.571 594.4 71.571 594.401C71.571 594.402 71.571 594.403 71.571 594.405C71.571 594.406 71.571 594.407 71.571 594.408C71.571 594.409 71.571 594.411 71.571 594.412C71.571 594.413 71.571 594.414 71.571 594.416C71.571 594.417 71.571 594.418 71.571 594.419C71.571 594.421 71.571 594.422 71.571 594.423C71.571 594.424 71.571 594.426 71.571 594.427C71.571 594.428 71.571 594.429 71.571 594.431C71.571 594.432 71.571 594.433 71.571 594.434C71.571 594.436 71.571 594.437 71.571 594.438C71.571 594.439 71.571 594.441 71.571 594.442C71.571 594.443 71.571 594.444 71.571 594.446C71.571 594.447 71.571 594.448 71.571 594.449C71.571 594.451 71.571 594.452 71.571 594.453C71.571 594.454 71.571 594.456 71.571 594.457C71.571 594.458 71.571 594.46 71.571 594.461C71.571 594.462 71.571 594.463 71.571 594.465C71.571 594.466 71.571 594.467 71.571 594.468C71.571 594.47 71.571 594.471 71.571 594.472C71.571 594.474 71.571 594.475 71.571 594.476C71.571 594.477 71.571 594.479 71.571 594.48C71.571 594.481 71.571 594.482 71.571 594.484C71.571 594.485 71.571 594.486 71.571 594.488C71.571 594.489 71.571 594.49 71.571 594.491C71.571 594.493 71.571 594.494 71.571 594.495C71.571 594.497 71.571 594.498 71.571 594.499C71.571 594.5 71.571 594.502 71.571 594.503C71.571 594.504 71.571 594.506 71.571 594.507C71.571 594.508 71.571 594.51 71.571 594.511C71.571 594.512 71.571 594.513 71.571 594.515C71.571 594.516 71.571 594.517 71.571 594.519C71.571 594.52 71.571 594.521 71.571 594.523C71.571 594.524 71.571 594.525 71.571 594.527C71.571 594.528 71.571 594.529 71.571 594.53C71.571 594.532 71.571 594.533 71.571 594.534C71.571 594.536 71.571 594.537 71.571 594.538C71.571 594.54 71.571 594.541 71.571 594.542C71.571 594.544 71.571 594.545 71.571 594.546C71.571 594.548 71.571 594.549 71.571 594.55C71.571 594.552 71.571 594.553 71.571 594.554C71.571 594.556 71.571 594.557 71.571 594.558C71.571 594.56 71.571 594.561 71.571 594.562C71.571 594.564 71.571 594.565 71.571 594.566C71.571 594.568 71.571 594.569 71.571 594.57C71.571 594.571 71.571 594.573 71.571 594.574C71.571 594.575 71.571 594.577 71.571 594.578C71.571 594.58 71.571 594.581 71.571 594.582C71.571 594.584 71.571 594.585 71.571 594.586C71.571 594.588 71.571 594.589 71.571 594.59C71.571 594.592 71.571 594.593 71.571 594.594C71.571 594.596 71.571 594.597 71.571 594.598C71.571 594.6 71.571 594.601 71.571 594.602C71.571 594.604 71.571 594.605 71.571 594.607C71.571 594.608 71.571 594.609 71.571 594.611C71.571 594.612 71.571 594.613 71.571 594.615C71.571 594.616 71.571 594.617 71.571 594.619C71.571 594.62 71.571 594.622 71.571 594.623C71.571 594.624 71.571 594.626 71.571 594.627C71.571 594.628 71.571 594.63 71.571 594.631C71.571 594.632 71.571 594.634 71.571 594.635C71.571 594.637 71.571 594.638 71.571 594.639C71.571 594.641 71.571 594.642 71.571 594.643C71.571 594.645 71.571 594.646 71.571 594.648C71.571 594.649 71.571 594.65 71.571 594.652C71.571 594.653 71.571 594.655 71.571 594.656C71.571 594.657 71.571 594.659 71.571 594.66C71.571 594.661 71.571 594.663 71.571 594.664C71.571 594.666 71.571 594.667 71.571 594.668C71.571 594.67 71.571 594.671 71.571 594.673C71.571 594.674 71.571 594.675 71.571 594.677C71.571 594.678 71.571 594.68 71.571 594.681C71.571 594.682 71.571 594.684 71.571 594.685C71.571 594.687 71.571 594.688 71.571 594.689C71.571 594.691 71.571 594.692 71.571 594.694C71.571 594.695 71.571 594.696 71.571 594.698C71.571 594.699 71.571 594.701 71.571 594.702C71.571 594.704 71.571 594.705 71.571 594.706C71.571 594.708 71.571 594.709 71.571 594.711C71.571 594.712 71.571 594.713 71.571 594.715C71.571 594.716 71.571 594.718 71.571 594.719C71.571 594.721 71.571 594.722 71.571 594.723C71.571 594.725 71.571 594.726 71.571 594.728C71.571 594.729 71.571 594.731 71.571 594.732C71.571 594.733 71.571 594.735 71.571 594.736C71.571 594.738 71.571 594.739 71.571 594.741C71.571 594.742 71.571 594.743 71.571 594.745C71.571 594.746 71.571 594.748 71.571 594.749C71.571 594.751 71.571 594.752 71.571 594.754C71.571 594.755 71.571 594.756 71.571 594.758C71.571 594.759 71.571 594.761 71.571 594.762C71.571 594.764 71.571 594.765 71.571 594.767C71.571 594.768 71.571 594.769 71.571 594.771C71.571 594.772 71.571 594.774 71.571 594.775C71.571 594.777 71.571 594.778 71.571 594.78C71.571 594.781 71.571 594.783 71.571 594.784C71.571 594.785 71.571 594.787 71.571 594.788C71.571 594.79 71.571 594.791 71.571 594.793C71.571 594.794 71.571 594.796 71.571 594.797C71.571 594.799 71.571 594.8 71.571 594.802C71.571 594.803 71.571 594.805 71.571 594.806C71.571 594.807 71.571 594.809 71.571 594.81C71.571 594.812 71.571 594.813 71.571 594.815C71.571 594.816 71.571 594.818 71.571 594.819C71.571 594.821 71.571 594.822 71.571 594.824C71.571 594.825 71.571 594.827 71.571 594.828C71.571 594.83 71.571 594.831 71.571 594.833C71.571 594.834 71.571 594.836 71.571 594.837C71.571 594.839 71.571 594.84 71.571 594.842C71.571 594.843 71.571 594.845 71.571 594.846C71.571 594.848 71.571 594.849 71.571 594.851C71.571 594.852 71.571 594.854 71.571 594.855C71.571 594.857 71.571 594.858 71.571 594.86C71.571 594.861 71.571 594.863 71.571 594.864C71.571 594.866 71.571 594.867 71.571 594.869C71.571 594.87 71.571 594.872 71.571 594.873C71.571 594.875 71.571 594.876 71.571 594.878C71.571 594.879 71.571 594.881 71.571 594.882C71.571 594.884 71.571 594.885 71.571 594.887C71.571 594.888 71.571 594.89 71.571 594.891C71.571 594.893 71.571 594.894 71.571 594.896C71.571 594.897 71.571 594.899 71.571 594.9C71.571 594.902 71.571 594.903 71.571 594.905C71.571 594.906 71.571 594.908 71.571 594.91C71.571 594.911 71.571 594.913 71.571 594.914C71.571 594.916 71.571 594.917 71.571 594.919C71.571 594.92 71.571 594.922 71.571 594.923C71.571 594.925 71.571 594.926 71.571 594.928C71.571 594.929 71.571 594.931 71.571 594.933C71.571 594.934 71.571 594.936 71.571 594.937C71.571 594.939 71.571 594.94 71.571 594.942C71.571 594.943 71.571 594.945 71.571 594.946C71.571 594.948 71.571 594.949 71.571 594.951C71.571 594.953 71.571 594.954 71.571 594.956C71.571 594.957 71.571 594.959 71.571 594.96C71.571 594.962 71.571 594.963 71.571 594.965C71.571 594.967 71.571 594.968 71.571 594.97C71.571 594.971 71.571 594.973 71.571 594.974C71.571 594.976 71.571 594.978 71.571 594.979C71.571 594.981 71.571 594.982 71.571 594.984C71.571 594.985 71.571 594.987 71.571 594.988C71.571 594.99 71.571 594.992 71.571 594.993C71.571 594.995 71.571 594.996 71.571 594.998C71.571 594.999 71.571 595.001 71.571 595.003C71.571 595.004 71.571 595.006 71.571 595.007C71.571 595.009 71.571 595.011 71.571 595.012C71.571 595.014 71.571 595.015 71.571 595.017C71.571 595.018 71.571 595.02 71.571 595.022C71.571 595.023 71.571 595.025 71.571 595.026C71.571 595.028 71.571 595.03 71.571 595.031C71.571 595.033 71.571 595.034 71.571 595.036C71.571 595.038 71.571 595.039 71.571 595.041C71.571 595.042 71.571 595.044 71.571 595.045C71.571 595.047 71.571 595.049 71.571 595.05C71.571 595.052 71.571 595.053 71.571 595.055C71.571 595.057 71.571 595.058 71.571 595.06C71.571 595.061 71.571 595.063 71.571 595.065C71.571 595.066 71.571 595.068 71.571 595.07C71.571 595.071 71.571 595.073 71.571 595.074C71.571 595.076 71.571 595.078 71.571 595.079C71.571 595.081 71.571 595.082 71.571 595.084C71.571 595.086 71.571 595.087 71.571 595.089C71.571 595.091 71.571 595.092 71.571 595.094C71.571 595.095 71.571 595.097 71.571 595.099C71.571 595.1 71.571 595.102 71.571 595.104C71.571 595.105 71.571 595.107 71.571 595.108C71.571 595.11 71.571 595.112 71.571 595.113C71.571 595.115 71.571 595.117 71.571 595.118C71.571 595.12 71.571 595.121 71.571 595.123C71.571 595.125 71.571 595.126 71.571 595.128C71.571 595.13 71.571 595.131 71.571 595.133C71.571 595.135 71.571 595.136 71.571 595.138C71.571 595.14 71.571 595.141 71.571 595.143C71.571 595.144 71.571 595.146 71.571 595.148C71.571 595.149 71.571 595.151 71.571 595.153C71.571 595.154 71.571 595.156 71.571 595.158C71.571 595.159 71.571 595.161 71.571 595.163C71.571 595.164 71.571 595.166 71.571 595.168C71.571 595.169 71.571 595.171 71.571 595.173C71.571 595.174 71.571 595.176 71.571 595.178C71.571 595.179 71.571 595.181 71.571 595.183C71.571 595.184 71.571 595.186 71.571 595.188C71.571 595.189 71.571 595.191 71.571 595.193C71.571 595.194 71.571 595.196 71.571 595.198C71.571 595.199 71.571 595.201 71.571 595.203C71.571 595.204 71.571 595.206 71.571 595.208C71.571 595.209 71.571 595.211 71.571 595.213C71.571 595.214 71.571 595.216 71.571 595.218C71.571 595.219 71.571 595.221 71.571 595.223C71.571 595.224 71.571 595.226 71.571 595.228C71.571 595.23 71.571 595.231 71.571 595.233C71.571 595.235 71.571 595.236 71.571 595.238C71.571 595.24 71.571 595.241 71.571 595.243C71.571 595.245 71.571 595.246 71.571 595.248C71.571 595.25 71.571 595.252 71.571 595.253C71.571 595.255 71.571 595.257 71.571 595.258C71.571 595.26 71.571 595.262 71.571 595.263C71.571 595.265 71.571 595.267 71.571 595.269C71.571 595.27 71.571 595.272 71.571 595.274C71.571 595.275 71.571 595.277 71.571 595.279C71.571 595.281 71.571 595.282 71.571 595.284C71.571 595.286 71.571 595.287 71.571 595.289C71.571 595.291 71.571 595.293 71.571 595.294C71.571 595.296 71.571 595.298 71.571 595.299C71.571 595.301 71.571 595.303 71.571 595.305C71.571 595.306 71.571 595.308 71.571 595.31C71.571 595.312 71.571 595.313 71.571 595.315C71.571 595.317 71.571 595.318 71.571 595.32C71.571 595.322 71.571 595.324 71.571 595.325C71.571 595.327 71.571 595.329 71.571 595.331C71.571 595.332 71.571 595.334 71.571 595.336C71.571 595.338 71.571 595.339 71.571 595.341C71.571 595.343 71.571 595.344 71.571 595.346C71.571 595.348 71.571 595.35 71.571 595.351C71.571 595.353 71.571 595.355 71.571 595.357C71.571 595.358 71.571 595.36 71.571 595.362C71.571 595.364 71.571 595.365 71.571 595.367C71.571 595.369 71.571 595.371 71.571 595.372C71.571 595.374 71.571 595.376 71.571 595.378C71.571 595.379 71.571 595.381 71.571 595.383C71.571 595.385 71.571 595.387 71.571 595.388C71.571 595.39 71.571 595.392 71.571 595.394C71.571 595.395 71.571 595.397 71.571 595.399C71.571 595.401 71.571 595.402 71.571 595.404C71.571 595.406 71.571 595.408 71.571 595.41C71.571 595.411 71.571 595.413 71.571 595.415C71.571 595.417 71.571 595.418 71.571 595.42C71.571 595.422 71.571 595.424 71.571 595.426C71.571 595.427 71.571 595.429 71.571 595.431C71.571 595.433 71.571 595.434 71.571 595.436C71.571 595.438 71.571 595.44 71.571 595.442C71.571 595.443 71.571 595.445 71.571 595.447C71.571 595.449 71.571 595.45 71.571 595.452C71.571 595.454 71.571 595.456 71.571 595.458C71.571 595.459 71.571 595.461 71.571 595.463C71.571 595.465 71.571 595.467 71.571 595.468C71.571 595.47 71.571 595.472 71.571 595.474C71.571 595.476 71.571 595.477 71.571 595.479C71.571 595.481 71.571 595.483 71.571 595.485C71.571 595.486 71.571 595.488 71.571 595.49C71.571 595.492 71.571 595.494 71.571 595.496C71.571 595.497 71.571 595.499 71.571 595.501C71.571 595.503 71.571 595.505 71.571 595.506C71.571 595.508 71.571 595.51 71.571 595.512C71.571 595.514 71.571 595.515 71.571 595.517C71.571 595.519 71.571 595.521 71.571 595.523C71.571 595.525 71.571 595.526 71.571 595.528C71.571 595.53 71.571 595.532 71.571 595.534C71.571 595.536 71.571 595.537 71.571 595.539C71.571 595.541 71.571 595.543 71.571 595.545C71.571 595.547 71.571 595.548 71.571 595.55C71.571 595.552 71.571 595.554 71.571 595.556C71.571 595.558 71.571 595.559 71.571 595.561C71.571 595.563 71.571 595.565 71.571 595.567C71.571 595.569 71.571 595.57 71.571 595.572C71.571 595.574 71.571 595.576 71.571 595.578C71.571 595.58 71.571 595.582 71.571 595.583C71.571 595.585 71.571 595.587 71.571 595.589C71.571 595.591 71.571 595.593 71.571 595.595C71.571 595.596 71.571 595.598 71.571 595.6C71.571 595.602 71.571 595.604 71.571 595.606C71.571 595.608 71.571 595.609 71.571 595.611C71.571 595.613 71.571 595.615 71.571 595.617C71.571 595.619 71.571 595.621 71.571 595.622C71.571 595.624 71.571 595.626 71.571 595.628C71.571 595.63 71.571 595.632 71.571 595.634C71.571 595.636 71.571 595.637 71.571 595.639C71.571 595.641 71.571 595.643 71.571 595.645C71.571 595.647 71.571 595.649 71.571 595.651C71.571 595.652 71.571 595.654 71.571 595.656C71.571 595.658 71.571 595.66 71.571 595.662C71.571 595.664 71.571 595.666 71.571 595.668C71.571 595.669 71.571 595.671 71.571 595.673C71.571 595.675 71.571 595.677 71.571 595.679C71.571 595.681 71.571 595.683 71.571 595.685C71.571 595.686 71.571 595.688 71.571 595.69C71.571 595.692 71.571 595.694 71.571 595.696C71.571 595.698 71.571 595.7 71.571 595.702C71.571 595.703 71.571 595.705 71.571 595.707C71.571 595.709 71.571 595.711 71.571 595.713C71.571 595.715 71.571 595.717 71.571 595.719C71.571 595.721 71.571 595.723 71.571 595.724C71.571 595.726 71.571 595.728 71.571 595.73C71.571 595.732 71.571 595.734 71.571 595.736C71.571 595.738 71.571 595.74 71.571 595.742C71.571 595.744 71.571 595.746 71.571 595.747C71.571 595.749 71.571 595.751 71.571 595.753C71.571 595.755 71.571 595.757 71.571 595.759C71.571 595.761 71.571 595.763 71.571 595.765C71.571 595.767 71.571 595.769 71.571 595.771C71.571 595.772 71.571 595.774 71.571 595.776C71.571 595.778 71.571 595.78 71.571 595.782C71.571 595.784 71.571 595.786 71.571 595.788C71.571 595.79 71.571 595.792 71.571 595.794C71.571 595.796 71.571 595.798 71.571 595.8C71.571 595.802 71.571 595.803 71.571 595.805C71.571 595.807 71.571 595.809 71.571 595.811C71.571 595.813 71.571 595.815 71.571 595.817C71.571 595.819 71.571 595.821 71.571 595.823C71.571 595.825 71.571 595.827 71.571 595.829C71.571 595.831 71.571 595.833 71.571 595.835C71.571 595.837 71.571 595.839 71.571 595.841C71.571 595.843 71.571 595.845 71.571 595.846C71.571 595.848 71.571 595.85 71.571 595.852C71.571 595.854 71.571 595.856 71.571 595.858C71.571 595.86 71.571 595.862 71.571 595.864C71.571 595.866 71.571 595.868 71.571 595.87C71.571 595.872 71.571 595.874 71.571 595.876C71.571 595.878 71.571 595.88 71.571 595.882C71.571 595.884 71.571 595.886 71.571 595.888C71.571 595.89 71.571 595.892 71.571 595.894C71.571 595.896 71.571 595.898 71.571 595.9C71.571 595.902 71.571 595.904 71.571 595.906C71.571 595.908 71.571 595.91 71.571 595.912C71.571 595.914 71.571 595.916 71.571 595.918C71.571 595.92 71.571 595.922 71.571 595.924C71.571 595.926 71.571 595.928 71.571 595.93C71.571 595.932 71.571 595.934 71.571 595.936C71.571 595.938 71.571 595.94 71.571 595.942C71.571 595.944 71.571 595.946 71.571 595.948C71.571 595.95 71.571 595.952 71.571 595.954C71.571 595.956 71.571 595.958 71.571 595.96C71.571 595.962 71.571 595.964 71.571 595.966C71.571 595.968 71.571 595.97 71.571 595.972C71.571 595.974 71.571 595.976 71.571 595.978C71.571 595.98 71.571 595.982 71.571 595.984C71.571 595.986 71.571 595.988 71.571 595.99C71.571 595.992 71.571 595.994 71.571 595.996C71.571 595.998 71.571 596 71.571 596.002C71.571 596.004 71.571 596.006 71.571 596.008C71.571 596.01 71.571 596.012 71.571 596.014C71.571 596.016 71.571 596.018 71.571 596.02C71.571 596.022 71.571 596.024 71.571 596.026C71.571 596.028 71.571 596.03 71.571 596.032C71.571 596.034 71.571 596.036 71.571 596.039C71.571 596.041 71.571 596.043 71.571 596.045C71.571 596.047 71.571 596.049 71.571 596.051C71.571 596.053 71.571 596.055 71.571 596.057C71.571 596.059 71.571 596.061 71.571 596.063C71.571 596.065 71.571 596.067 71.571 596.069C71.571 596.071 71.571 596.073 71.571 596.075C71.571 596.077 71.571 596.079 71.571 596.082C71.571 596.084 71.571 596.086 71.571 596.088C71.571 596.09 71.571 596.092 71.571 596.094C71.571 596.096 71.571 596.098 71.571 596.1C71.571 596.102 71.571 596.104 71.571 596.106C71.571 596.108 71.571 596.11 71.571 596.112C71.571 596.115 71.571 596.117 71.571 596.119C71.571 596.121 71.571 596.123 71.571 596.125C71.571 596.127 71.571 596.129 71.571 596.131C71.571 596.133 71.571 596.135 71.571 596.137C71.571 596.139 71.571 596.142 71.571 596.144C71.571 596.146 71.571 596.148 71.571 596.15C71.571 596.152 71.571 596.154 71.571 596.156C71.571 596.158 71.571 596.16 71.571 596.162C71.571 596.164 71.571 596.167 71.571 596.169C71.571 596.171 71.571 596.173 71.571 596.175C71.571 596.177 71.571 596.179 71.571 596.181C71.571 596.183 71.571 596.185 71.571 596.187C71.571 596.19 71.571 596.192 71.571 596.194C71.571 596.196 71.571 596.198 71.571 596.2C71.571 596.202 71.571 596.204 71.571 596.206C71.571 596.208 71.571 596.211 71.571 596.213C71.571 596.215 71.571 596.217 71.571 596.219C71.571 596.221 71.571 596.223 71.571 596.225C71.571 596.227 71.571 596.23 71.571 596.232C71.571 596.234 71.571 596.236 71.571 596.238C71.571 596.24 71.571 596.242 71.571 596.244C71.571 596.247 71.571 596.249 71.571 596.251C71.571 596.253 71.571 596.255 71.571 596.257C71.571 596.259 71.571 596.261 71.571 596.264C71.571 596.266 71.571 596.268 71.571 596.27C71.571 596.272 71.571 596.274 71.571 596.276C71.571 596.278 71.571 596.281 71.571 596.283C71.571 596.285 71.571 596.287 71.571 596.289C71.571 596.291 71.571 596.293 71.571 596.296C71.571 596.298 71.571 596.3 71.571 596.302C71.571 596.304 71.571 596.306 71.571 596.308C71.571 596.311 71.571 596.313 71.571 596.315C71.571 596.317 71.571 596.319 71.571 596.321C71.571 596.323 71.571 596.326 71.571 596.328C71.571 596.33 71.571 596.332 71.571 596.334C71.571 596.336 71.571 596.338 71.571 596.341C71.571 596.343 71.571 596.345 71.571 596.347C71.571 596.349 71.571 596.351 71.571 596.354C71.571 596.356 71.571 596.358 71.571 596.36C71.571 596.362 71.571 596.364 71.571 596.367C71.571 596.369 71.571 596.371 71.571 596.373C71.571 596.375 71.571 596.377 71.571 596.38C71.571 596.382 71.571 596.384 71.571 596.386C71.571 596.388 71.571 596.39 71.571 596.393C71.571 596.395 71.571 596.397 71.571 596.399C71.571 596.401 71.571 596.404 71.571 596.406C71.571 596.408 71.571 596.41 71.571 596.412C71.571 596.414 71.571 596.417 71.571 596.419C71.571 596.421 71.571 596.423 71.571 596.425C71.571 596.428 71.571 596.43 71.571 596.432C71.571 596.434 71.571 596.436 71.571 596.438C71.571 596.441 71.571 596.443 71.571 596.445C71.571 596.447 71.571 596.449 71.571 596.452C71.571 596.454 71.571 596.456 71.571 596.458C71.571 596.46 71.571 596.463 71.571 596.465C71.571 596.467 71.571 596.469 71.571 596.471C71.571 596.474 71.571 596.476 71.571 596.478C71.571 596.48 71.571 596.482 71.571 596.485C71.571 596.487 71.571 596.489 71.571 596.491C71.571 596.494 71.571 596.496 71.571 596.498C71.571 596.5 71.571 596.502 71.571 596.505C71.571 596.507 71.571 596.509 71.571 596.511C71.571 596.513 71.571 596.516 71.571 596.518C71.571 596.52 71.571 596.522 71.571 596.525C71.571 596.527 71.571 596.529 71.571 596.531C71.571 596.533 71.571 596.536 71.571 596.538C71.571 596.54 71.571 596.542 71.571 596.545C71.571 596.547 71.571 596.549 71.571 596.551C71.571 596.554 71.571 596.556 71.571 596.558C71.571 596.56 71.571 596.562 71.571 596.565C71.571 596.567 71.571 596.569 71.571 596.571C71.571 596.574 71.571 596.576 71.571 596.578C71.571 596.58 71.571 596.583 71.571 596.585C71.571 596.587 71.571 596.589 71.571 596.592C71.571 596.594 71.571 596.596 71.571 596.598C71.571 596.601 71.571 596.603 71.571 596.605C71.571 596.607 71.571 596.61 71.571 596.612C71.571 596.614 71.571 596.616 71.571 596.619C71.571 596.621 71.571 596.623 71.571 596.625C71.571 596.628 71.571 596.63 71.571 596.632C71.571 596.635 71.571 596.637 71.571 596.639C71.571 596.641 71.571 596.644 71.571 596.646C71.571 596.648 71.571 596.65 71.571 596.653C71.571 596.655 71.571 596.657 71.571 596.659C71.571 596.662 71.571 596.664 71.571 596.666C71.571 596.669 71.571 596.671 71.571 596.673L73.571 596.673ZM73.571 594.129C73.571 593.548 73.6195 593.032 73.7106 592.576L71.7494 592.184C71.6285 592.789 71.571 593.438 71.571 594.129L73.571 594.129ZM72.73 593.38L92.128 593.38L92.128 591.38L72.73 591.38L72.73 593.38ZM152.707 530.574L153.621 530.168L153.278 529.396L152.46 529.605L152.707 530.574ZM157.318 562.533L158.278 562.813L158.281 562.802L157.318 562.533ZM153.82 569.37L154.567 570.034L154.587 570.012L154.605 569.989L153.82 569.37ZM147.46 573.981L147.863 574.896L147.87 574.893L147.877 574.89L147.46 573.981ZM90.061 575.73L90.061 574.73L89.061 574.73L89.061 575.73L90.061 575.73ZM90.061 586.701L90.061 587.701L91.061 587.701L91.061 586.701L90.061 586.701ZM73.684 586.701L72.684 586.701L72.684 587.701L73.684 587.701L73.684 586.701ZM73.684 575.73L74.684 575.73L74.684 574.73L73.684 574.73L73.684 575.73ZM46.654 575.73L45.654 575.73L45.654 576.73L46.654 576.73L46.654 575.73ZM46.654 554.424L46.654 553.424L45.654 553.424L45.654 554.424L46.654 554.424ZM73.684 554.424L73.684 555.424L74.684 555.424L74.684 554.424L73.684 554.424ZM73.684 536.934L73.684 535.934L72.684 535.934L72.684 536.934L73.684 536.934ZM90.061 536.934L91.061 536.934L91.061 535.934L90.061 535.934L90.061 536.934ZM90.061 554.424L89.061 554.424L89.061 555.424L90.061 555.424L90.061 554.424ZM137.125 552.198L137.884 552.849L137.909 552.82L137.931 552.789L137.125 552.198ZM135.853 534.867L135.606 533.898L134.485 534.183L134.93 535.251L135.853 534.867ZM151.793 530.98C153.044 533.795 154.303 537.253 155.567 541.362L157.479 540.774C156.199 536.615 154.914 533.077 153.621 530.168L151.793 530.98ZM155.567 541.362C156.808 545.396 157.431 549.642 157.431 554.106L159.431 554.106C159.431 549.454 158.782 545.008 157.479 540.774L155.567 541.362ZM157.431 554.106C157.431 556.99 157.071 559.708 156.355 562.263L158.281 562.802C159.049 560.058 159.431 557.158 159.431 554.106L157.431 554.106ZM156.358 562.253C155.651 564.678 154.543 566.84 153.035 568.75L154.605 569.989C156.277 567.871 157.501 565.476 158.278 562.813L156.358 562.253ZM153.073 568.705C151.477 570.5 149.474 571.958 147.043 573.072L147.877 574.89C150.534 573.672 152.771 572.055 154.567 570.034L153.073 568.705ZM147.057 573.066C144.565 574.162 141.529 574.73 137.92 574.73L137.92 576.73C141.731 576.73 145.055 576.131 147.863 574.896L147.057 573.066ZM137.92 574.73L90.061 574.73L90.061 576.73L137.92 576.73L137.92 574.73ZM89.061 575.73L89.061 586.701L91.061 586.701L91.061 575.73L89.061 575.73ZM90.061 585.701L73.684 585.701L73.684 587.701L90.061 587.701L90.061 585.701ZM74.684 586.701L74.684 575.73L72.684 575.73L72.684 586.701L74.684 586.701ZM73.684 574.73L46.654 574.73L46.654 576.73L73.684 576.73L73.684 574.73ZM47.654 575.73L47.654 554.424L45.654 554.424L45.654 575.73L47.654 575.73ZM46.654 555.424L73.684 555.424L73.684 553.424L46.654 553.424L46.654 555.424ZM74.684 554.424L74.684 536.934L72.684 536.934L72.684 554.424L74.684 554.424ZM73.684 537.934L90.061 537.934L90.061 535.934L73.684 535.934L73.684 537.934ZM89.061 536.934L89.061 554.424L91.061 554.424L91.061 536.934L89.061 536.934ZM90.061 555.424L130.765 555.424L130.765 553.424L90.061 553.424L90.061 555.424ZM130.765 555.424C133.872 555.424 136.341 554.649 137.884 552.849L136.366 551.547C135.364 552.715 133.594 553.424 130.765 553.424L130.765 555.424ZM137.931 552.789C139.239 551.006 139.874 548.884 139.874 546.474L137.874 546.474C137.874 548.516 137.343 550.21 136.319 551.606L137.931 552.789ZM139.874 546.474C139.874 544.134 139.484 541.85 138.705 539.625L136.817 540.285C137.522 542.3 137.874 544.361 137.874 546.474L139.874 546.474ZM138.705 539.625C137.96 537.496 137.317 535.78 136.776 534.482L134.93 535.251C135.449 536.498 136.078 538.174 136.817 540.285L138.705 539.625ZM136.1 535.836L152.954 531.543L152.46 529.605L135.606 533.898L136.1 535.836ZM157 390.051L158 390.051L158 389.051L157 389.051L157 390.051ZM157 411.357L157 412.357L158 412.357L158 411.357L157 411.357ZM95.626 414.855L96.2125 415.665L96.2215 415.659L96.2304 415.652L95.626 414.855ZM95.944 436.161L96.7032 435.511L96.698 435.504L96.6926 435.498L95.944 436.161ZM108.505 444.111L108.212 445.068L108.355 445.111L108.505 445.111L108.505 444.111ZM157 444.111L158 444.111L158 443.111L157 443.111L157 444.111ZM157 465.417L157 466.417L158 466.417L158 465.417L157 465.417ZM95.626 468.915L96.2125 469.725L96.2215 469.719L96.2304 469.712L95.626 468.915ZM95.785 490.221L95.0167 490.862L95.0257 490.872L95.785 490.221ZM108.346 498.171L108.053 499.128L108.196 499.171L108.346 499.171L108.346 498.171ZM157 498.171L158 498.171L158 497.171L157 497.171L157 498.171ZM157 519.477L157 520.477L158 520.477L158 519.477L157 519.477ZM73.684 519.477L72.684 519.477L72.684 520.477L73.684 520.477L73.684 519.477ZM73.684 500.238L73.684 499.238L72.684 499.238L72.684 500.238L73.684 500.238ZM89.107 500.238L89.107 501.238L92.8887 501.238L89.6013 499.369L89.107 500.238ZM76.705 487.677L77.5849 487.202L77.5816 487.196L76.705 487.677ZM77.341 453.015L76.5936 452.351L77.341 453.015ZM89.902 445.701L90.1101 446.68L92.6148 446.147L90.4118 444.841L89.902 445.701ZM76.864 432.822L77.7322 432.326L77.7284 432.32L77.7246 432.313L76.864 432.822ZM75.115 402.453L74.2502 401.951L75.115 402.453ZM82.588 394.821L83.0937 395.684L83.0937 395.684L82.588 394.821ZM93.082 391.164L93.242 392.151L93.255 392.149L93.2679 392.147L93.082 391.164ZM156 390.051L156 411.357L158 411.357L158 390.051L156 390.051ZM157 410.357L110.254 410.357L110.254 412.357L157 412.357L157 410.357ZM110.254 410.357C103.501 410.357 98.3565 411.529 95.0216 414.059L96.2304 415.652C99.0434 413.518 103.651 412.357 110.254 412.357L110.254 410.357ZM95.0395 414.045C91.6876 416.473 90.015 419.911 90.015 424.236L92.015 424.236C92.015 420.506 93.4163 417.69 96.2125 415.665L95.0395 414.045ZM90.015 424.236C90.015 428.761 91.7764 432.964 95.1954 436.824L96.6926 435.498C93.5396 431.939 92.015 428.192 92.015 424.236L90.015 424.236ZM95.1847 436.812C98.5016 440.682 102.858 443.428 108.212 445.068L108.798 443.155C103.764 441.614 99.7463 439.061 96.7032 435.511L95.1847 436.812ZM108.505 445.111L157 445.111L157 443.111L108.505 443.111L108.505 445.111ZM156 444.111L156 465.417L158 465.417L158 444.111L156 444.111ZM157 464.417L110.254 464.417L110.254 466.417L157 466.417L157 464.417ZM110.254 464.417C103.501 464.417 98.3565 465.589 95.0216 468.119L96.2304 469.712C99.0434 467.578 103.651 466.417 110.254 466.417L110.254 464.417ZM95.0395 468.105C91.6876 470.533 90.015 473.971 90.015 478.296L92.015 478.296C92.015 474.566 93.4163 471.75 96.2125 469.725L95.0395 468.105ZM90.015 478.296C90.015 482.709 91.7184 486.904 95.0168 490.862L96.5532 489.581C93.4915 485.907 92.015 482.152 92.015 478.296L90.015 478.296ZM95.0257 490.872C98.3426 494.742 102.699 497.488 108.053 499.128L108.639 497.215C103.605 495.674 99.5873 493.121 96.5442 489.571L95.0257 490.872ZM108.346 499.171L157 499.171L157 497.171L108.346 497.171L108.346 499.171ZM156 498.171L156 519.477L158 519.477L158 498.171L156 498.171ZM157 518.477L73.684 518.477L73.684 520.477L157 520.477L157 518.477ZM74.684 519.477L74.684 500.238L72.684 500.238L72.684 519.477L74.684 519.477ZM73.684 501.238L89.107 501.238L89.107 499.238L73.684 499.238L73.684 501.238ZM89.6013 499.369C84.3526 496.385 80.3548 492.332 77.5849 487.202L75.8251 488.153C78.7791 493.623 83.0493 497.944 88.6127 501.108L89.6013 499.369ZM77.5816 487.196C74.7037 481.954 73.253 475.975 73.253 469.233L71.253 469.233C71.253 476.272 72.7703 482.588 75.8284 488.159L77.5816 487.196ZM73.253 469.233C73.253 462.391 74.9109 457.254 78.0884 453.68L76.5936 452.351C72.987 456.408 71.253 462.084 71.253 469.233L73.253 469.233ZM78.0884 453.68C81.339 450.023 85.3372 447.695 90.1101 446.68L89.6939 444.723C84.5027 445.828 80.1269 448.376 76.5936 452.351L78.0884 453.68ZM90.4118 444.841C84.8197 441.527 80.6049 437.354 77.7322 432.326L75.9957 433.319C79.059 438.679 83.5363 443.092 89.3922 446.562L90.4118 444.841ZM77.7246 432.313C74.7513 427.289 73.253 421.533 73.253 415.014L71.253 415.014C71.253 421.852 72.8286 427.967 76.0034 433.332L77.7246 432.313ZM73.253 415.014C73.253 410.045 74.1854 406.046 75.9798 402.956L74.2502 401.951C72.2285 405.433 71.253 409.808 71.253 415.014L73.253 415.014ZM75.9798 402.956C77.8071 399.808 80.1784 397.393 83.0937 395.684L82.0823 393.959C78.8496 395.854 76.2388 398.526 74.2502 401.951L75.9798 402.956ZM83.0937 395.684C86.0496 393.951 89.428 392.77 93.242 392.151L92.9219 390.177C88.892 390.831 85.2744 392.087 82.0823 393.959L83.0937 395.684ZM93.2679 392.147C97.128 391.417 101.041 391.051 105.007 391.051L105.007 389.051C100.917 389.051 96.8799 389.428 92.8961 390.182L93.2679 392.147ZM105.007 391.051L157 391.051L157 389.051L105.007 389.051L105.007 391.051ZM155.251 350.991L156.169 351.387L156.172 351.379L156.176 351.372L155.251 350.991ZM145.87 364.824L146.567 365.541L145.87 364.824ZM132.196 373.728L132.558 374.66L132.566 374.657L132.574 374.654L132.196 373.728ZM99.124 373.728L99.4855 372.795L99.4792 372.793L99.124 373.728ZM85.291 364.983L85.9884 364.266L85.9787 364.257L85.291 364.983ZM75.751 351.15L74.83 351.539L74.8328 351.546L75.751 351.15ZM75.751 314.58L76.6663 314.983L76.6692 314.976L75.751 314.58ZM85.132 300.906L85.8192 301.632L85.8293 301.623L85.132 300.906ZM98.806 292.32L99.1508 293.258L99.1592 293.255L99.1675 293.252L98.806 292.32ZM118.999 289.458L118.916 290.454L118.957 290.458L118.999 290.458L118.999 289.458ZM122.179 289.776L123.179 289.776L123.179 288.995L122.422 288.806L122.179 289.776ZM122.179 354.171L121.179 354.171L121.179 355.272L122.275 355.166L122.179 354.171ZM130.924 351.786L131.371 352.68L130.924 351.786ZM137.443 346.857L138.188 347.524L137.443 346.857ZM141.577 340.02L142.513 340.371L141.577 340.02ZM139.987 320.145L140.866 319.668L140.861 319.659L139.987 320.145ZM131.719 312.354L130.756 312.086L130.517 312.945L131.343 313.28L131.719 312.354ZM136.807 294.069L137.242 293.168L136.164 292.648L135.844 293.801L136.807 294.069ZM152.548 308.856L153.404 308.339L153.402 308.335L152.548 308.856ZM108.346 311.241L109.346 311.241L109.346 310.152L108.262 310.244L108.346 311.241ZM93.4 318.237L94.1259 318.925L94.1352 318.915L94.1442 318.905L93.4 318.237ZM89.266 341.133L90.1972 340.768L90.1932 340.758L90.189 340.748L89.266 341.133ZM93.4 347.652L94.127 346.965L93.4 347.652ZM99.919 352.422L99.4718 353.316L99.4869 353.324L99.5023 353.331L99.919 352.422ZM108.346 354.489L108.277 355.486L109.346 355.56L109.346 354.489L108.346 354.489ZM157.59 332.865C157.59 339.431 156.496 345.341 154.326 350.61L156.176 351.372C158.458 345.829 159.59 339.655 159.59 332.865L157.59 332.865ZM154.333 350.595C152.049 355.89 148.994 360.389 145.173 364.107L146.567 365.541C150.59 361.626 153.789 356.904 156.169 351.387L154.333 350.595ZM145.173 364.107C141.345 367.831 136.896 370.729 131.818 372.802L132.574 374.654C137.884 372.486 142.551 369.448 146.567 365.541L145.173 364.107ZM131.834 372.795C126.759 374.763 121.423 375.749 115.819 375.749L115.819 377.749C121.663 377.749 127.245 376.72 132.558 374.66L131.834 372.795ZM115.819 375.749C109.998 375.749 104.557 374.762 99.4855 372.795L98.7624 374.66C104.079 376.722 109.767 377.749 115.819 377.749L115.819 375.749ZM99.4792 372.793C94.3022 370.826 89.8088 367.983 85.9883 364.266L84.5936 365.7C88.6171 369.614 93.3457 372.602 98.7688 374.663L99.4792 372.793ZM85.9787 364.257C82.055 360.54 78.9508 356.043 76.6692 350.754L74.8328 351.546C77.2151 357.069 80.4709 361.794 84.6032 365.709L85.9787 364.257ZM76.6719 350.76C74.3986 345.387 73.253 339.374 73.253 332.706L71.253 332.706C71.253 339.606 72.4393 345.889 74.83 351.539L76.6719 350.76ZM73.253 332.706C73.253 326.037 74.3989 320.136 76.6663 314.983L74.8357 314.177C72.439 319.624 71.253 325.807 71.253 332.706L73.253 332.706ZM76.6692 314.976C78.9523 309.683 82.0044 305.241 85.8192 301.632L84.4448 300.179C80.4155 303.991 77.2136 308.664 74.8328 314.184L76.6692 314.976ZM85.8293 301.623C89.6495 297.906 94.0871 295.119 99.1508 293.258L98.4612 291.381C93.1369 293.337 88.4584 296.274 84.4346 300.189L85.8293 301.623ZM99.1675 293.252C104.245 291.283 109.529 290.299 115.024 290.299L115.024 288.299C109.283 288.299 103.755 289.328 98.4444 291.387L99.1675 293.252ZM115.024 290.299C116.376 290.299 117.674 290.351 118.916 290.454L119.082 288.461C117.78 288.353 116.428 288.299 115.024 288.299L115.024 290.299ZM118.999 290.458C120.223 290.458 121.195 290.561 121.936 290.746L122.422 288.806C121.467 288.567 120.319 288.458 118.999 288.458L118.999 290.458ZM121.179 289.776L121.179 354.171L123.179 354.171L123.179 289.776L121.179 289.776ZM122.275 355.166C125.664 354.838 128.701 354.015 131.371 352.68L130.477 350.891C128.059 352.1 125.266 352.867 122.083 353.175L122.275 355.166ZM131.371 352.68C134.022 351.355 136.298 349.636 138.188 347.524L136.698 346.19C134.984 348.105 132.914 349.673 130.477 350.891L131.371 352.68ZM138.188 347.524C140.073 345.417 141.516 343.03 142.513 340.371L140.641 339.669C139.73 342.097 138.417 344.269 136.698 346.19L138.188 347.524ZM142.513 340.371C143.51 337.713 144.008 334.944 144.008 332.07L142.008 332.07C142.008 334.708 141.552 337.239 140.641 339.669L142.513 340.371ZM144.008 332.07C144.008 327.664 142.96 323.525 140.866 319.668L139.108 320.622C141.042 324.185 142.008 327.996 142.008 332.07L144.008 332.07ZM140.861 319.659C138.652 315.684 135.737 312.907 132.095 311.427L131.343 313.28C134.485 314.557 137.081 316.974 139.113 320.63L140.861 319.659ZM132.682 312.622L137.77 294.337L135.844 293.801L130.756 312.086L132.682 312.622ZM136.372 294.969C142.538 297.949 147.647 302.735 151.694 309.376L153.402 308.335C149.181 301.408 143.796 296.336 137.242 293.168L136.372 294.969ZM151.692 309.372C155.609 315.866 157.59 323.683 157.59 332.865L159.59 332.865C159.59 323.391 157.543 315.201 153.404 308.339L151.692 309.372ZM108.262 310.244C101.789 310.793 96.5583 313.22 92.6557 317.569L94.1442 318.905C97.6617 314.985 102.395 312.749 108.43 312.237L108.262 310.244ZM92.674 317.549C88.6724 321.773 86.676 326.952 86.676 333.024L88.676 333.024C88.676 327.435 90.4955 322.757 94.1259 318.925L92.674 317.549ZM86.676 333.024C86.676 336.013 87.2302 338.847 88.3429 341.517L90.189 340.748C89.1818 338.331 88.676 335.759 88.676 333.024L86.676 333.024ZM88.3347 341.497C89.3356 344.055 90.7831 346.337 92.673 348.338L94.127 346.965C92.4129 345.15 91.1043 343.087 90.1972 340.768L88.3347 341.497ZM92.673 348.338C94.5618 350.338 96.8318 351.996 99.4718 353.316L100.366 351.527C97.9181 350.303 95.8421 348.781 94.127 346.965L92.673 348.338ZM99.5023 353.331C102.167 354.552 105.095 355.267 108.277 355.486L108.415 353.491C105.449 353.287 102.759 352.624 100.336 351.513L99.5023 353.331ZM109.346 354.489L109.346 311.241L107.346 311.241L107.346 354.489L109.346 354.489ZM157 198.886L158 198.886L158 197.886L157 197.886L157 198.886ZM157 220.192L157 221.192L158 221.192L158 220.192L157 220.192ZM95.626 223.69L96.2304 224.487L95.626 223.69ZM92.287 239.908L93.2215 239.552L92.287 239.908ZM95.944 246.268L96.7333 245.654L96.7289 245.649L95.944 246.268ZM101.35 251.515L100.75 252.315L100.75 252.315L101.35 251.515ZM108.346 255.013L108.066 255.973L108.203 256.013L108.346 256.013L108.346 255.013ZM157 255.013L158 255.013L158 254.013L157 254.013L157 255.013ZM157 276.319L157 277.319L158 277.319L158 276.319L157 276.319ZM73.684 276.319L72.684 276.319L72.684 277.319L73.684 277.319L73.684 276.319ZM73.684 257.08L73.684 256.08L72.684 256.08L72.684 257.08L73.684 257.08ZM89.107 257.08L89.107 258.08L92.8243 258.08L89.6087 256.215L89.107 257.08ZM76.705 243.724L77.5961 243.271L76.705 243.724ZM75.115 211.288L74.2502 210.786L75.115 211.288ZM82.588 203.656L83.0937 204.519L83.0937 204.519L82.588 203.656ZM93.082 199.999L93.242 200.986L93.255 200.984L93.2679 200.982L93.082 199.999ZM156 198.886L156 220.192L158 220.192L158 198.886L156 198.886ZM157 219.192L110.254 219.192L110.254 221.192L157 221.192L157 219.192ZM110.254 219.192C103.501 219.192 98.3565 220.364 95.0216 222.893L96.2304 224.487C99.0434 222.353 103.651 221.192 110.254 221.192L110.254 219.192ZM95.0216 222.893C91.6784 225.43 90.015 228.968 90.015 233.389L92.015 233.389C92.015 229.542 93.4255 226.615 96.2304 224.487L95.0216 222.893ZM90.015 233.389C90.015 235.645 90.4665 237.938 91.3525 240.264L93.2215 239.552C92.4114 237.426 92.015 235.373 92.015 233.389L90.015 233.389ZM91.3525 240.264C92.2393 242.592 93.511 244.8 95.1591 246.888L96.7289 245.649C95.197 243.708 94.0306 241.676 93.2215 239.552L91.3525 240.264ZM95.1546 246.882C96.6982 248.867 98.5656 250.677 100.75 252.315L101.95 250.715C99.8943 249.173 98.1578 247.486 96.7333 245.654L95.1546 246.882ZM100.75 252.315C102.966 253.977 105.407 255.198 108.066 255.973L108.626 254.053C106.197 253.345 103.974 252.233 101.95 250.715L100.75 252.315ZM108.346 256.013L157 256.013L157 254.013L108.346 254.013L108.346 256.013ZM156 255.013L156 276.319L158 276.319L158 255.013L156 255.013ZM157 275.319L73.684 275.319L73.684 277.319L157 277.319L157 275.319ZM74.684 276.319L74.684 257.08L72.684 257.08L72.684 276.319L74.684 276.319ZM73.684 258.08L89.107 258.08L89.107 256.08L73.684 256.08L73.684 258.08ZM89.6087 256.215C84.4869 253.245 80.4829 248.941 77.5961 243.271L75.8138 244.178C78.8631 250.167 83.1271 254.768 88.6052 257.945L89.6087 256.215ZM77.5961 243.271C74.7078 237.597 73.253 231.183 73.253 224.008L71.253 224.008C71.253 231.461 72.7662 238.191 75.8138 244.178L77.5961 243.271ZM73.253 224.008C73.253 218.929 74.187 214.878 75.9797 211.79L74.2502 210.786C72.2269 214.271 71.253 218.7 71.253 224.008L73.253 224.008ZM75.9797 211.79C77.8071 208.643 80.1784 206.228 83.0937 204.519L82.0822 202.794C78.8496 204.688 76.2388 207.361 74.2502 210.786L75.9797 211.79ZM83.0937 204.519C86.0496 202.786 89.428 201.605 93.242 200.986L92.9219 199.012C88.892 199.666 85.2744 200.922 82.0822 202.794L83.0937 204.519ZM93.2679 200.982C97.128 200.251 101.041 199.886 105.007 199.886L105.007 197.886C100.917 197.886 96.8799 198.263 92.8961 199.017L93.2679 200.982ZM105.007 199.886L157 199.886L157 197.886L105.007 197.886L105.007 199.886ZM152.707 131.211L153.621 130.804L153.278 130.033L152.46 130.242L152.707 131.211ZM157.318 163.17L158.278 163.45L158.281 163.439L157.318 163.17ZM153.82 170.007L154.567 170.671L154.587 170.649L154.605 170.626L153.82 170.007ZM147.46 174.618L147.863 175.533L147.87 175.53L147.877 175.527L147.46 174.618ZM90.061 176.367L90.061 175.367L89.061 175.367L89.061 176.367L90.061 176.367ZM90.061 187.338L90.061 188.338L91.061 188.338L91.061 187.338L90.061 187.338ZM73.684 187.338L72.684 187.338L72.684 188.338L73.684 188.338L73.684 187.338ZM73.684 176.367L74.684 176.367L74.684 175.367L73.684 175.367L73.684 176.367ZM46.654 176.367L45.654 176.367L45.654 177.367L46.654 177.367L46.654 176.367ZM46.654 155.061L46.654 154.061L45.654 154.061L45.654 155.061L46.654 155.061ZM73.684 155.061L73.684 156.061L74.684 156.061L74.684 155.061L73.684 155.061ZM73.684 137.571L73.684 136.571L72.684 136.571L72.684 137.571L73.684 137.571ZM90.061 137.571L91.061 137.571L91.061 136.571L90.061 136.571L90.061 137.571ZM90.061 155.061L89.061 155.061L89.061 156.061L90.061 156.061L90.061 155.061ZM137.125 152.835L137.884 153.485L137.909 153.457L137.931 153.426L137.125 152.835ZM135.853 135.504L135.606 134.534L134.485 134.82L134.93 135.888L135.853 135.504ZM151.793 131.617C153.044 134.431 154.303 137.89 155.567 141.999L157.479 141.41C156.199 137.252 154.914 133.714 153.621 130.804L151.793 131.617ZM155.567 141.999C156.808 146.032 157.431 150.279 157.431 154.743L159.431 154.743C159.431 150.09 158.782 145.645 157.479 141.41L155.567 141.999ZM157.431 154.743C157.431 157.627 157.071 160.344 156.355 162.9L158.281 163.439C159.049 160.695 159.431 157.795 159.431 154.743L157.431 154.743ZM156.358 162.89C155.651 165.314 154.543 167.477 153.035 169.387L154.605 170.626C156.277 168.508 157.501 166.113 158.278 163.45L156.358 162.89ZM153.073 169.342C151.477 171.137 149.474 172.595 147.043 173.708L147.877 175.527C150.534 174.308 152.771 172.692 154.567 170.671L153.073 169.342ZM147.057 173.702C144.564 174.799 141.529 175.367 137.92 175.367L137.92 177.367C141.731 177.367 145.055 176.768 147.863 175.533L147.057 173.702ZM137.92 175.367L90.061 175.367L90.061 177.367L137.92 177.367L137.92 175.367ZM89.061 176.367L89.061 187.338L91.061 187.338L91.061 176.367L89.061 176.367ZM90.061 186.338L73.684 186.338L73.684 188.338L90.061 188.338L90.061 186.338ZM74.684 187.338L74.684 176.367L72.684 176.367L72.684 187.338L74.684 187.338ZM73.684 175.367L46.654 175.367L46.654 177.367L73.684 177.367L73.684 175.367ZM47.654 176.367L47.654 155.061L45.654 155.061L45.654 176.367L47.654 176.367ZM46.654 156.061L73.684 156.061L73.684 154.061L46.654 154.061L46.654 156.061ZM74.684 155.061L74.684 137.571L72.684 137.571L72.684 155.061L74.684 155.061ZM73.684 138.571L90.061 138.571L90.061 136.571L73.684 136.571L73.684 138.571ZM89.061 137.571L89.061 155.061L91.061 155.061L91.061 137.571L89.061 137.571ZM90.061 156.061L130.765 156.061L130.765 154.061L90.061 154.061L90.061 156.061ZM130.765 156.061C133.872 156.061 136.341 155.285 137.884 153.485L136.366 152.184C135.364 153.352 133.594 154.061 130.765 154.061L130.765 156.061ZM137.931 153.426C139.239 151.643 139.874 149.521 139.874 147.111L137.874 147.111C137.874 149.153 137.343 150.846 136.319 152.243L137.931 153.426ZM139.874 147.111C139.874 144.771 139.484 142.486 138.705 140.261L136.817 140.922C137.522 142.937 137.874 144.998 137.874 147.111L139.874 147.111ZM138.705 140.261C137.96 138.133 137.317 136.416 136.776 135.119L134.93 135.888C135.449 137.135 136.078 138.81 136.817 140.922L138.705 140.261ZM136.1 136.473L152.954 132.18L152.46 130.242L135.606 134.534L136.1 136.473Z" fill="#DDDDDD"/>
</svg>
