<svg width="77" height="78" viewBox="0 0 77 78" fill="none" xmlns="http://www.w3.org/2000/svg">
<g clip-path="url(#clip0)">
<path d="M77 26.3949C76.9982 25.2259 76.6544 24.0404 75.8942 23.0632L69.7931 15.2567C68.7712 13.9591 67.2163 13.2985 65.6625 13.2959C64.7378 13.2959 63.7962 13.5329 62.9642 14.0518L57.0153 17.7529C56.3897 18.1519 55.3171 18.4257 54.2811 18.4187C53.4762 18.4221 52.6984 18.261 52.1848 18.0073L46.3593 15.1856C45.4196 14.7332 44.3722 14.5478 43.3188 14.5459C41.806 14.553 40.274 14.9248 39.0429 15.7779L38.3631 16.2548C37.8198 15.9837 36.9895 15.5706 36.0489 15.1025C34.921 14.5496 33.5947 14.3265 32.255 14.3222C31.0448 14.3256 29.8349 14.5121 28.7726 14.9609L24.8047 16.654C24.1589 16.934 23.1317 17.1169 22.1115 17.1124C21.0912 17.1167 20.0659 16.9338 19.4201 16.654L15.4486 14.96C14.7241 14.6511 13.9498 14.519 13.1823 14.5181C12.2986 14.519 11.4202 14.6932 10.6037 15.0239C9.78833 15.3564 9.03141 15.8473 8.42865 16.5209L1.19787 24.6188C0.396435 25.5138 -0.00164916 26.6408 5.13464e-06 27.7502C-0.00164916 29.0732 0.564421 30.4004 1.65626 31.3306L8.40128 37.0851L5.20157 40.4231C4.31952 41.3436 3.88038 42.5371 3.88038 43.7172C3.87873 44.9728 4.37742 46.2406 5.36519 47.1741L6.01428 47.7908C6.62592 48.3711 7.36087 48.7401 8.12997 48.937C7.74422 49.6465 7.53337 50.4245 7.53503 51.204C7.53337 52.4605 8.03207 53.7274 9.01803 54.6619L9.01637 54.661L9.66741 55.2805C10.5941 56.1589 11.7954 56.5964 12.979 56.5956C13.6152 56.5965 14.2521 56.4687 14.8506 56.2184C15.0607 57.0707 15.4946 57.8809 16.1771 58.5283L16.8281 59.1477C17.7548 60.0262 18.9542 60.4637 20.1397 60.4629C21.0664 60.4638 21.9973 60.1907 22.7988 59.6606C23.0332 60.4148 23.4349 61.1296 24.0464 61.7106L24.6975 62.33C25.6222 63.2084 26.8235 63.6459 28.0074 63.6452C29.2681 63.6461 30.5413 63.1508 31.4817 62.1691L34.3097 59.216L38.1517 62.7719C39.0713 63.6249 40.2518 64.0493 41.417 64.0467C42.6971 64.0494 43.9885 63.5366 44.9309 62.5278L45.5441 61.8707C46.0735 61.3021 46.4191 60.6291 46.6196 59.9266L48.1079 61.3003C49.0292 62.1498 50.2079 62.5724 51.3715 62.5715C52.6533 62.5724 53.9483 62.0596 54.8915 61.05L55.5014 60.3937C56.2056 59.6413 56.6021 58.7094 56.7245 57.7575C57.1173 57.8581 57.5154 57.9264 57.9169 57.9264C59.1987 57.9264 60.4901 57.4145 61.4343 56.4058L62.0459 55.7495C62.9007 54.8333 63.326 53.6583 63.3242 52.4999C63.3242 52.1403 63.2726 51.7825 63.1929 51.4289C64.2561 51.288 65.2868 50.8139 66.0707 49.9721L66.684 49.3151C67.5388 48.3989 67.9623 47.2239 67.9623 46.0645C67.9639 44.7889 67.4496 43.5017 66.4346 42.5639L65.2876 41.5044L75.6402 30.0581C76.5696 29.0277 76.9984 27.7012 77 26.3949ZM9.32633 46.5014C8.77785 46.4997 8.24141 46.3036 7.82227 45.9065L7.17213 45.2897C6.72232 44.8644 6.50019 44.2985 6.49838 43.7174C6.50019 43.1724 6.69525 42.6403 7.09694 42.2211L13.6504 35.3824C14.0773 34.937 14.647 34.7139 15.2314 34.7132C15.7782 34.7141 16.3129 34.9109 16.7355 35.309L17.3829 35.9267C17.3829 35.9267 18.0532 36.9179 18.0549 37.4998C18.0532 37.9354 17.9219 38.3598 17.6673 38.7274C17.6455 38.7492 10.5941 46.098 10.5941 46.098C10.2196 46.363 9.7769 46.4994 9.32633 46.5014ZM14.5602 53.3227C14.1342 53.7663 13.5654 53.9884 12.981 53.9902C12.4325 53.9893 11.8977 53.7925 11.4769 53.3953L10.8259 52.7766L10.8242 52.7757C10.378 52.3522 10.1539 51.7845 10.1539 51.2034C10.1539 50.6583 10.3508 50.1263 10.7505 49.7071C10.7505 49.7071 19.4861 40.6138 19.5597 40.5261C19.9771 40.1245 20.5151 39.9171 21.0706 39.9162C21.6191 39.9171 22.1539 40.1131 22.5747 40.5112L23.2257 41.1306C23.6736 41.5541 23.896 42.1211 23.8977 42.703C23.8959 43.248 23.6992 43.7808 23.2991 44.2L14.5602 53.3227ZM21.7199 57.1889C21.2947 57.6336 20.7261 57.856 20.1415 57.8577C19.593 57.8568 19.0583 57.6599 18.6375 57.2618L17.9846 56.6431C17.5368 56.2187 17.3127 55.6519 17.3127 55.0708C17.3127 54.5844 17.4781 54.1127 17.7947 53.7198L23.8783 47.3702C24.2887 47.0001 24.803 46.805 25.336 46.805C25.8845 46.8059 26.4193 47.0019 26.8401 47.4L27.4929 48.0194C27.9391 48.4429 28.1632 49.0099 28.1649 49.5909C28.1631 50.1369 27.9645 50.6698 27.5663 51.0879L21.7199 57.1889ZM33.2792 56.5188L29.5877 60.3715C29.1624 60.8159 28.5929 61.0383 28.0085 61.04C27.46 61.0391 26.9252 60.8422 26.5044 60.4441L25.8534 59.8254C25.4071 59.4019 25.1831 58.8342 25.1814 58.2531C25.1831 57.707 25.3799 57.1742 25.78 56.7568L29.4698 52.9043C29.8968 52.4599 30.4664 52.2367 31.0509 52.2358C31.5977 52.2367 32.1341 52.4327 32.5549 52.8316L33.2078 53.4503C33.654 53.8738 33.8762 54.4408 33.878 55.0218C33.8759 55.5677 33.6791 56.1005 33.2792 56.5188ZM65.3482 46.068C65.3474 46.6031 65.1557 47.1272 64.7672 47.5436L64.1556 48.1999C63.7286 48.6566 63.1493 48.8876 62.5562 48.8885C62.0181 48.8876 61.4913 48.6986 61.0732 48.3121L50.7662 38.7802L48.9839 40.6885L60.0162 50.9089C60.4757 51.3342 60.7065 51.9117 60.71 52.5014C60.7065 53.0386 60.5166 53.5618 60.129 53.9784L59.5192 54.6347C59.0922 55.0914 58.5129 55.3215 57.9198 55.3233C57.3817 55.3217 56.8532 55.1317 56.4384 54.7476L46.1287 45.2159L44.3482 47.1242L53.4977 55.5851C53.9387 56.0077 54.1645 56.5703 54.1645 57.1477C54.1645 57.6832 53.9746 58.2072 53.587 58.6229L52.9754 59.2792C52.5501 59.7359 51.9691 59.9669 51.3743 59.9686C50.8344 59.9669 50.3078 59.777 49.8913 59.3929L40.7602 50.9626H40.7586L40.7569 50.9609L38.9799 52.8727L38.9817 52.8744L39.0158 52.9067L43.5892 57.1275C43.9944 57.544 44.2043 58.0777 44.206 58.6298C44.2043 59.1626 44.016 59.684 43.6285 60.0999L43.0168 60.7569C42.5899 61.2137 42.0124 61.4429 41.4209 61.4447C40.8828 61.443 40.356 61.254 39.9395 60.8682L35.9577 57.1811C36.3042 56.5013 36.4976 55.7637 36.4976 55.0234C36.4992 53.7678 36.0005 52.5018 35.0146 51.5666L34.3617 50.9471C33.437 50.0694 32.2373 49.6312 31.0536 49.6328C30.9617 49.6328 30.869 49.6539 30.779 49.6592C30.779 49.6373 30.7841 49.6145 30.7841 49.5927C30.7857 48.3371 29.3011 46.134 29.3011 46.134L28.65 45.5163C27.9579 44.86 27.1135 44.4507 26.2352 44.2861C26.4163 43.7735 26.5187 43.2397 26.5187 42.7051C26.5187 41.4495 26.0216 40.1824 25.0357 39.2482L24.3846 38.6287C23.4579 37.7503 22.2586 37.3119 21.0747 37.3128C20.9365 37.3128 20.8001 37.3408 20.6626 37.3531C20.625 36.1475 20.1394 34.9427 19.1945 34.045V34.0441L18.5453 33.4273C17.6186 32.548 16.4192 32.1096 15.2353 32.1105C13.9726 32.1096 12.7014 32.6049 11.761 33.5866L10.2141 35.2009L3.36139 29.3561C2.86886 28.9344 2.62297 28.3517 2.62116 27.7532C2.62282 27.2518 2.79351 26.761 3.15746 26.3534L10.3881 18.2556C10.675 17.9336 11.0994 17.6423 11.5965 17.4401C12.0935 17.2379 12.6578 17.1269 13.1854 17.1277C13.6448 17.1277 14.076 17.2109 14.4208 17.3596L18.3905 19.0535C19.5096 19.5251 20.8088 19.7185 22.1145 19.7227C23.4217 19.7183 24.7193 19.5249 25.8385 19.0535L29.8064 17.3604C30.418 17.0936 31.341 16.9281 32.2588 16.9316C33.2738 16.9254 34.2904 17.1355 34.8801 17.4365C35.2546 17.6228 35.6098 17.7996 35.9396 17.9649L31.8929 20.8096C30.5926 21.7239 29.8918 23.1781 29.8936 24.6454C29.8919 25.6167 30.1998 26.6053 30.8263 27.4443L30.8247 27.4425L31.3592 28.1608C32.3741 29.5101 33.9569 30.2039 35.5388 30.2073C36.4321 30.2073 37.3421 29.9816 38.1532 29.4951L40.5733 28.0417C41.0669 27.7399 41.8122 27.5492 42.583 27.5526C43.4886 27.5474 44.4012 27.8152 44.9498 28.2184L51.645 33.0184C53.1351 34.0859 55.5621 36.0659 56.9071 37.3119L64.6565 44.477C65.1154 44.9024 65.3464 45.4774 65.3482 46.068ZM73.6971 28.3163L63.3734 39.7319L58.6862 35.3991C57.2181 34.0438 54.7971 32.0674 53.1732 30.9009L46.4797 26.1009C45.3449 25.2969 43.9554 24.9494 42.5818 24.9443C41.4128 24.9477 40.2351 25.2025 39.2184 25.8078L36.8001 27.2612C36.4291 27.4842 35.9918 27.598 35.5375 27.599C34.7253 27.6017 33.9126 27.2227 33.4595 26.6058L32.9267 25.8884L32.9249 25.8866C32.6414 25.5043 32.5093 25.0755 32.5074 24.6415C32.5108 23.9852 32.8136 23.3483 33.4 22.9344L40.5554 17.9069C41.1741 17.459 42.2748 17.1448 43.3203 17.1527C44.0466 17.1492 44.7403 17.2952 45.2154 17.5298L51.0408 20.3516C52.034 20.8285 53.1548 21.0236 54.2824 21.0263C55.7313 21.0192 57.196 20.7043 58.4027 19.9632L64.3534 16.2613C64.7331 16.0243 65.1889 15.9017 65.6642 15.9017C66.4674 15.9001 67.2723 16.264 67.7281 16.8581L73.8292 24.6645C74.1809 25.1116 74.3847 25.7424 74.3847 26.3961C74.3858 27.1272 74.1275 27.8465 73.6971 28.3163Z" fill="#78BBD5"/>
</g>
<defs>
<clipPath id="clip0">
<rect width="77" height="77" fill="white" transform="translate(0 0.171387)"/>
</clipPath>
</defs>
</svg>
