<svg width="35" height="35" viewBox="0 0 35 35" fill="none" xmlns="http://www.w3.org/2000/svg">
<rect width="35" height="35" rx="1" fill="#78BBD5"/>
<path d="M22.8488 20.7587L21.1192 19.0249C20.7746 18.681 20.2041 18.6914 19.8476 19.0489L18.9762 19.9221C18.9211 19.8917 18.8641 19.8599 18.8042 19.8262C18.2539 19.5206 17.5008 19.1018 16.7082 18.3068C15.9133 17.5102 15.495 16.7542 15.1892 16.2023C15.1569 16.1438 15.126 16.0875 15.0955 16.0339L15.6803 15.4486L15.9678 15.1601C16.3249 14.8021 16.3347 14.2305 15.991 13.8856L14.2614 12.1516C13.9177 11.8072 13.3469 11.8176 12.9898 12.1756L12.5023 12.667L12.5156 12.6802C12.3522 12.8893 12.2156 13.1304 12.114 13.3904C12.0203 13.6378 11.9619 13.874 11.9352 14.1107C11.7069 16.0084 12.5721 17.7427 14.9202 20.0962C18.1661 23.3492 20.7818 23.1034 20.8946 23.0914C21.1404 23.062 21.3759 23.0031 21.6153 22.91C21.8724 22.8093 22.1128 22.6726 22.3213 22.5091L22.3319 22.5186L22.8258 22.0339C23.1821 21.676 23.1924 21.1041 22.8488 20.7587Z" fill="white"/>
</svg>
